<svg width="16" height="18" viewBox="0 0 16 18" fill="none" xmlns="http://www.w3.org/2000/svg">
<path d="M8.99976 1.125V1.75359C11.5486 2.15824 13.4998 4.36641 13.4998 7.03125V8.20547C13.4998 9.80156 14.0447 11.352 15.0396 12.6L15.5634 13.2539C15.7673 13.507 15.806 13.8551 15.6654 14.1469C15.5248 14.4387 15.2295 14.625 14.906 14.625H0.843512C0.51902 14.625 0.223532 14.4387 0.0830475 14.1469C-0.0574721 13.8551 -0.0179564 13.507 0.184684 13.2539L0.708864 12.6C1.70625 11.352 2.24976 9.80156 2.24976 8.20547V7.03125C2.24976 4.36641 4.20093 2.15824 6.74976 1.75359V1.125C6.74976 0.503789 7.2525 0 7.87476 0C8.49703 0 8.99976 0.503789 8.99976 1.125ZM7.59351 3.375C5.57554 3.375 3.93726 5.01328 3.93726 7.03125V8.20547C3.93726 9.88945 3.44929 11.5312 2.54191 12.9375H13.208C12.3009 11.5312 11.8123 9.88945 11.8123 8.20547V7.03125C11.8123 5.01328 10.174 3.375 8.15601 3.375H7.59351ZM10.1248 15.75C10.1248 16.316 9.88922 16.9207 9.46734 17.3426C9.04547 17.7645 8.44078 18 7.87476 18C7.27711 18 6.70406 17.7645 6.28218 17.3426C5.86031 16.9207 5.62476 16.316 5.62476 15.75H10.1248Z" fill="#112876"/>
</svg>
