<svg width="23" height="23" viewBox="0 0 23 23" fill="none" xmlns="http://www.w3.org/2000/svg">
<rect x="0.5" y="0.5" width="22" height="22" rx="4.5" stroke="#E1E7FB"/>
<path d="M8.38462 10.8462V8.76923C8.38462 8.03473 8.67631 7.33029 9.1956 6.81099C9.7149 6.29169 10.4193 6 11.1538 6C11.8884 6 12.5928 6.29169 13.1121 6.81099C13.6314 7.33029 13.9231 8.03473 13.9231 8.76923V9.92308C13.9231 10.1678 13.8258 10.4025 13.6527 10.5758C13.4795 10.7488 13.2447 10.8462 13 10.8462H7.92308C7.67833 10.8462 7.4436 10.9435 7.27033 11.1165C7.09732 11.2898 7 11.5245 7 11.7692V17.0769C7 17.3217 7.09732 17.5564 7.27033 17.7297C7.4436 17.9027 7.67833 18 7.92308 18H14.3846C14.6294 18 14.8641 17.9027 15.0374 17.7297C15.2104 17.5564 15.3077 17.3217 15.3077 17.0769" stroke="#4E6890" stroke-width="1.2" stroke-linecap="round" stroke-linejoin="round"/>
<path d="M13 10.8457H14.3846C14.6294 10.8457 14.8641 10.943 15.0374 11.116C15.2104 11.2893 15.3077 11.524 15.3077 11.7688V17.0765" stroke="#4E6890" stroke-width="1.2" stroke-linecap="round" stroke-linejoin="round"/>
<path d="M12.0769 14.1926C12.0769 14.7024 11.6636 15.1157 11.1538 15.1157C10.644 15.1157 10.2307 14.7024 10.2307 14.1926C10.2307 13.6828 10.644 13.2695 11.1538 13.2695C11.6636 13.2695 12.0769 13.6828 12.0769 14.1926Z" fill="#4E6890"/>
</svg>
