<svg width="15" height="19" viewBox="0 0 15 19" fill="none" xmlns="http://www.w3.org/2000/svg">
<path d="M12.7388 14.6617H12.8638C12.7388 14.6617 12.7388 14.6618 12.7388 14.6619L12.7388 14.6622L12.7388 14.6626L12.7388 14.6637L12.7389 14.6662L12.7391 14.6727C12.7394 14.6776 12.74 14.6839 12.7409 14.6914C12.7427 14.7062 12.7462 14.7257 12.7527 14.7484C12.7659 14.7938 12.7917 14.8523 12.8419 14.9094C12.9454 15.0271 13.1299 15.1148 13.4421 15.1089L13.4424 15.1089C13.7298 15.103 13.8993 15.013 13.9932 14.8978C14.0386 14.8421 14.0616 14.7861 14.0731 14.7428C14.0789 14.7212 14.0819 14.7027 14.0834 14.6886C14.0842 14.6815 14.0846 14.6755 14.0848 14.6708L14.085 14.6646L14.085 14.6622V14.6617L14.085 14.6612L14.085 8.18172C14.085 7.95796 13.9964 7.74251 13.8378 7.58393L11.205 4.95114V1.70172C11.205 1.28716 11.0408 0.888106 10.7472 0.59453C10.4536 0.300955 10.0546 0.136719 9.64 0.136719H2.44C2.02544 0.136719 1.62639 0.300955 1.33281 0.59453C1.03924 0.888106 0.875 1.28716 0.875 1.70172V16.8217C0.875 17.2363 1.03924 17.6353 1.33281 17.9289C1.62639 18.2225 2.02544 18.3867 2.44 18.3867H9.64C10.0546 18.3867 10.4536 18.2225 10.7472 17.9289C11.0408 17.6353 11.205 17.2363 11.205 16.8217V11.1867H12.7388V14.6617ZM12.7388 8.19646V9.49852H11.205V6.95827L12.7388 8.19646ZM2.2212 1.64672H9.8588V5.89672H2.2212V1.64672ZM2.2212 7.24292H9.8588V17.0405H2.2212V7.24292Z" fill="#112876" stroke="#112876" stroke-width="0.25"/>
</svg>
