<svg width="14" height="18" viewBox="0 0 14 18" fill="none" xmlns="http://www.w3.org/2000/svg">
<path d="M11.25 2.25H9.5059C9.21445 0.966094 8.11055 0 6.75 0C5.38945 0 4.25391 0.966094 3.99375 2.25H2.25C1.00723 2.25 0 3.25758 0 4.5V15.75C0 16.9924 1.00723 18 2.25 18H11.25C12.4928 18 13.5 16.9924 13.5 15.75V4.5C13.5 3.25758 12.491 2.25 11.25 2.25ZM6.75 1.6875C7.21512 1.6875 7.59375 2.06613 7.59375 2.53125C7.59375 2.99637 7.21406 3.375 6.75 3.375C6.28594 3.375 5.90625 2.99637 5.90625 2.53125C5.90625 2.06613 6.28594 1.6875 6.75 1.6875ZM11.8125 15.75C11.8125 16.0601 11.5601 16.3125 11.25 16.3125H2.25C1.93985 16.3125 1.6875 16.0601 1.6875 15.75V4.5C1.6875 4.18992 1.93985 3.9375 2.25 3.9375H2.89195C2.8452 4.1168 2.8125 4.30313 2.8125 4.5V5.0625C2.8125 5.37188 3.06422 5.625 3.375 5.625H10.125C10.4356 5.625 10.6875 5.37314 10.6875 5.0625V4.5C10.6875 4.30457 10.6547 4.1182 10.6079 3.9375H11.25C11.5601 3.9375 11.8125 4.18992 11.8125 4.5V15.75Z" fill="white"/>
</svg>
