<svg width="11" height="11" viewBox="0 0 11 11" fill="none" xmlns="http://www.w3.org/2000/svg">
<path fill-rule="evenodd" clip-rule="evenodd" d="M5.53512 1.02772C5.38136 0.505812 4.64257 0.505812 4.48881 1.02772L4.43005 1.22711C4.38064 1.39458 4.29439 1.54889 4.17762 1.67871C4.06085 1.80854 3.91651 1.9106 3.75519 1.97741C3.59387 2.04423 3.41964 2.07412 3.24527 2.06488C3.0709 2.05564 2.90081 2.00752 2.74745 1.92403L2.56493 1.82402C2.08741 1.56463 1.56487 2.08654 1.82489 2.56469L1.92427 2.7472C2.00776 2.90056 2.05589 3.07066 2.06512 3.24503C2.07436 3.4194 2.04448 3.59362 1.97766 3.75495C1.91084 3.91627 1.80878 4.0606 1.67896 4.17737C1.54913 4.29414 1.39483 4.38039 1.22735 4.42981L1.02796 4.48856C0.506056 4.64232 0.506056 5.38112 1.02796 5.53488L1.22735 5.59363C1.39492 5.64302 1.5493 5.72929 1.67919 5.8461C1.80908 5.96291 1.91118 6.10732 1.97801 6.26872C2.04484 6.43012 2.0747 6.60444 2.0654 6.77888C2.0561 6.95332 2.00788 7.12348 1.92427 7.27686L1.82426 7.45875C1.56487 7.93628 2.08678 8.45881 2.56493 8.19879L2.74745 8.09941C2.90085 8.01593 3.07098 7.96783 3.24539 7.95863C3.41979 7.94943 3.59404 7.97937 3.75537 8.04625C3.91671 8.11313 4.06103 8.21526 4.17777 8.34516C4.29451 8.47506 4.38071 8.62943 4.43005 8.79696L4.48881 8.99572C4.64257 9.51763 5.38136 9.51763 5.53512 8.99572L5.59387 8.79633C5.64327 8.62877 5.72953 8.47438 5.84634 8.34449C5.96316 8.2146 6.10756 8.1125 6.26896 8.04567C6.43037 7.97884 6.60468 7.94899 6.77913 7.95829C6.95357 7.96758 7.12372 8.0158 7.2771 8.09941L7.45899 8.19942C7.93652 8.45881 8.45905 7.9369 8.19904 7.45875L8.09966 7.27686C8.01606 7.12344 7.96786 6.95324 7.9586 6.77876C7.94934 6.60429 7.97925 6.42995 8.04614 6.26854C8.11303 6.10712 8.21521 5.96273 8.34517 5.84595C8.47513 5.72916 8.62958 5.64295 8.7972 5.59363L8.99596 5.53488C9.51787 5.38112 9.51787 4.64232 8.99596 4.48856L8.79658 4.42981C8.6291 4.38039 8.4748 4.29414 8.34497 4.17737C8.21515 4.0606 8.11309 3.91627 8.04627 3.75495C7.97945 3.59362 7.94956 3.4194 7.9588 3.24503C7.96804 3.07066 8.01617 2.90056 8.09966 2.7472L8.19966 2.56469C8.45905 2.08716 7.93715 1.56463 7.45899 1.82464L7.2771 1.92403C7.1237 2.00775 6.95349 2.05607 6.77897 2.06543C6.60445 2.07479 6.43005 2.04495 6.26857 1.97812C6.10708 1.91128 5.96261 1.80914 5.84575 1.67918C5.7289 1.54923 5.64262 1.39476 5.59325 1.22711L5.5345 1.02772H5.53512ZM3.88939 0.850834C4.21879 -0.267986 5.80514 -0.267986 6.13453 0.850834L6.19329 1.05022C6.21629 1.12832 6.25648 1.20028 6.31091 1.26083C6.36534 1.32138 6.43263 1.36899 6.50784 1.40015C6.58306 1.43132 6.6643 1.44525 6.7456 1.44094C6.8269 1.43663 6.90621 1.41418 6.97771 1.37524L7.16022 1.27524C8.18529 0.7177 9.30661 1.8384 8.74782 2.86346L8.64844 3.04597C8.6095 3.11747 8.58705 3.19678 8.58274 3.27808C8.57843 3.35939 8.59237 3.44062 8.62353 3.51584C8.6547 3.59106 8.7023 3.65834 8.76285 3.71277C8.8234 3.7672 8.89536 3.80739 8.97346 3.83039L9.17285 3.88915C10.2917 4.21854 10.2917 5.80489 9.17285 6.13429L8.97346 6.19304C8.89536 6.21605 8.8234 6.25624 8.76285 6.31067C8.7023 6.36509 8.6547 6.43238 8.62353 6.5076C8.59237 6.58282 8.57843 6.66405 8.58274 6.74536C8.58705 6.82666 8.6095 6.90597 8.64844 6.97747L8.74845 7.15998C9.30661 8.18504 8.18466 9.30636 7.16022 8.74758L6.97771 8.6482C6.90621 8.60925 6.8269 8.5868 6.7456 8.58249C6.6643 8.57818 6.58306 8.59212 6.50784 8.62329C6.43263 8.65445 6.36534 8.70205 6.31091 8.7626C6.25648 8.82315 6.21629 8.89512 6.19329 8.97322L6.13453 9.1726C5.80514 10.2914 4.21879 10.2914 3.88939 9.1726L3.83064 8.97322C3.80764 8.89512 3.76745 8.82315 3.71302 8.7626C3.65859 8.70205 3.5913 8.65445 3.51608 8.62329C3.44087 8.59212 3.35963 8.57818 3.27833 8.58249C3.19702 8.5868 3.11771 8.60925 3.04622 8.6482L2.8637 8.7482C1.83864 9.30636 0.717945 8.18442 1.2761 7.15998L1.37549 6.97747C1.41443 6.90597 1.43688 6.82666 1.44119 6.74536C1.4455 6.66405 1.43156 6.58282 1.40039 6.5076C1.36923 6.43238 1.32163 6.36509 1.26108 6.31067C1.20053 6.25624 1.12857 6.21605 1.05047 6.19304L0.851078 6.13429C-0.267742 5.80489 -0.267742 4.21854 0.851078 3.88915L1.05047 3.83039C1.12857 3.80739 1.20053 3.7672 1.26108 3.71277C1.32163 3.65834 1.36923 3.59106 1.40039 3.51584C1.43156 3.44062 1.4455 3.35939 1.44119 3.27808C1.43688 3.19678 1.41443 3.11747 1.37549 3.04597L1.27548 2.86346C0.717945 1.8384 1.83926 0.7177 2.8637 1.27586L3.04622 1.37524C3.11771 1.41418 3.19702 1.43663 3.27833 1.44094C3.35963 1.44525 3.44087 1.43132 3.51608 1.40015C3.5913 1.36899 3.65859 1.32138 3.71302 1.26083C3.76745 1.20028 3.80764 1.12832 3.83064 1.05022L3.88939 0.850834Z" fill="#11B2EE"/>
<path fill-rule="evenodd" clip-rule="evenodd" d="M5.00739 3.60356C4.63507 3.60356 4.278 3.75146 4.01473 4.01473C3.75146 4.278 3.60355 4.63507 3.60355 5.00739C3.60355 5.37971 3.75146 5.73679 4.01473 6.00006C4.278 6.26333 4.63507 6.41123 5.00739 6.41123C5.37971 6.41123 5.73678 6.26333 6.00006 6.00006C6.26333 5.73679 6.41123 5.37971 6.41123 5.00739C6.41123 4.63507 6.26333 4.278 6.00006 4.01473C5.73678 3.75146 5.37971 3.60356 5.00739 3.60356ZM2.97852 5.00739C2.97852 4.74096 3.03099 4.47713 3.13295 4.23098C3.23492 3.98482 3.38436 3.76116 3.57276 3.57276C3.76116 3.38436 3.98482 3.23492 4.23097 3.13295C4.47713 3.03099 4.74096 2.97852 5.00739 2.97852C5.27383 2.97852 5.53766 3.03099 5.78381 3.13295C6.02996 3.23492 6.25363 3.38436 6.44203 3.57276C6.63042 3.76116 6.77987 3.98482 6.88183 4.23098C6.98379 4.47713 7.03627 4.74096 7.03627 5.00739C7.03627 5.54548 6.82251 6.06154 6.44203 6.44203C6.06154 6.82251 5.54548 7.03627 5.00739 7.03627C4.4693 7.03627 3.95325 6.82251 3.57276 6.44203C3.19227 6.06154 2.97852 5.54548 2.97852 5.00739Z" fill="#11B2EE"/>
</svg>
