<svg width="30" height="30" viewBox="0 0 30 30" fill="none" xmlns="http://www.w3.org/2000/svg">
<path d="M15 0C6.71667 0 0 6.71667 0 15C0 23.2833 6.71667 30 15 30C23.2833 30 30 23.2833 30 15C30 6.71667 23.2833 0 15 0ZM15 5.55556C15.6111 5.55556 16.1111 6.05556 16.1111 6.66667V14.3556L21.8056 17.6556C22.3389 17.9611 22.5278 18.6333 22.2222 19.1667C21.9167 19.7 21.2278 19.8722 20.6944 19.5667C18.6167 18.3667 16.5167 17.15 14.4444 15.9556C14.1111 15.7611 13.8889 15.4111 13.8889 15V6.66667C13.8889 6.05556 14.3889 5.55556 15 5.55556Z" fill="#034B98"/>
</svg>
