<svg width="35" height="50" viewBox="0 0 35 50" fill="none" xmlns="http://www.w3.org/2000/svg">
<path d="M33.93 0.865C33.37 0.305 32.63 0 31.845 0H2.95C2.165 0 1.42 0.305 0.865 0.865C0.31 1.425 0 2.175 0 2.95V47.05C0 47.835 0.305 48.58 0.865 49.135C1.42 49.69 2.165 50 2.95 50H31.845C32.635 50 33.375 49.695 33.93 49.135C34.485 48.575 34.795 47.835 34.795 47.05V2.95C34.795 2.16 34.49 1.42 33.93 0.865ZM31.935 2.95V47.05C31.935 47.05 31.925 47.095 31.91 47.115C31.895 47.13 31.87 47.14 31.845 47.14H2.95C2.9 47.14 2.86 47.1 2.86 47.05V2.95C2.86 2.9 2.9 2.86 2.95 2.86H31.845C31.845 2.86 31.89 2.87 31.91 2.885C31.925 2.9 31.935 2.925 31.935 2.95Z" fill="#112876"/>
<path d="M7.47006 32.3041H17.7351C17.9801 32.3041 18.2051 32.2091 18.3751 32.0391C18.5451 31.8691 18.6401 31.6391 18.6401 31.3991C18.6401 31.1591 18.5451 30.9291 18.3751 30.7591C18.2051 30.5891 17.9751 30.4941 17.7351 30.4941H7.47006C6.97006 30.4941 6.56006 30.8991 6.56006 31.4041C6.56006 31.9091 6.96506 32.3141 7.47006 32.3141V32.3041Z" fill="#112876"/>
<path d="M20.4754 32.3044H27.3204C27.8204 32.3044 28.2304 31.8994 28.2304 31.3944C28.2304 30.8894 27.8254 30.4844 27.3204 30.4844H20.4754C19.9754 30.4844 19.5654 30.8894 19.5654 31.3944C19.5654 31.8994 19.9704 32.3044 20.4754 32.3044Z" fill="#112876"/>
<path d="M27.3249 34.7197H17.0599C16.5599 34.7197 16.1499 35.1247 16.1499 35.6297C16.1499 36.1347 16.5549 36.5397 17.0599 36.5397H27.3249C27.8249 36.5397 28.2349 36.1347 28.2349 35.6297C28.2349 35.1247 27.8299 34.7197 27.3249 34.7197Z" fill="#112876"/>
<path d="M7.47006 36.5348H14.3151C14.8151 36.5348 15.2251 36.1298 15.2251 35.6248C15.2251 35.1198 14.8201 34.7148 14.3151 34.7148H7.47006C6.97006 34.7148 6.56006 35.1198 6.56006 35.6248C6.56006 36.1298 6.96506 36.5348 7.47006 36.5348Z" fill="#112876"/>
<path d="M17.7401 38.9492H7.47006C6.97006 38.9492 6.56006 39.3542 6.56006 39.8592C6.56006 40.3642 6.96506 40.7692 7.47006 40.7692H17.7351C17.9801 40.7692 18.2051 40.6742 18.3751 40.5042C18.5451 40.3342 18.6401 40.1042 18.6401 39.8642C18.6401 39.6242 18.5451 39.3942 18.3751 39.2242C18.2051 39.0542 17.9751 38.9592 17.7351 38.9592L17.7401 38.9492Z" fill="#112876"/>
<path d="M27.3253 38.9492H20.4803C19.9803 38.9492 19.5703 39.3542 19.5703 39.8592C19.5703 40.3642 19.9753 40.7692 20.4803 40.7692H27.3253C27.8253 40.7692 28.2353 40.3642 28.2353 39.8592C28.2353 39.3542 27.8303 38.9492 27.3253 38.9492Z" fill="#112876"/>
<path d="M27.2952 25.6294H25.5995C25.6239 25.5482 25.6361 25.4639 25.6365 25.3788V24.5009C25.9149 24.3079 26.0808 23.9906 26.0812 23.6519V20.6355C26.0812 20.3586 26.0236 20.0847 25.9115 19.8315H26.098C26.3024 19.8315 26.4988 19.7499 26.6434 19.6053C26.7879 19.4608 26.8696 19.2644 26.8696 19.0599V18.7262C26.8696 18.5218 26.7879 18.3254 26.6434 18.1808C26.4988 18.0363 26.3024 17.9547 26.098 17.9547H25.5557C25.3531 17.9547 25.1586 18.0344 25.0145 18.177L24.4817 16.7918C24.4061 16.5973 24.2734 16.4299 24.1014 16.3116C23.929 16.1934 23.7254 16.1297 23.5167 16.1289H17.5163C17.3077 16.1297 17.104 16.1934 16.932 16.3116C16.7596 16.4299 16.6273 16.5969 16.5514 16.7918L16.014 18.1892C15.8695 18.0447 15.6734 17.9634 15.469 17.9634H14.9267C14.7222 17.9634 14.5258 18.045 14.3813 18.1896C14.2367 18.3341 14.1551 18.5306 14.1551 18.735V19.0687C14.1551 19.2735 14.2367 19.4695 14.3813 19.6141C14.5258 19.759 14.7222 19.8403 14.9267 19.8403H15.1177C15.0079 20.0912 14.9514 20.362 14.9518 20.6358V23.6523C14.9518 23.9909 15.1181 24.3083 15.3965 24.5012V25.3792C15.3965 25.4639 15.4091 25.5485 15.4335 25.6298H9.44187V22.6324L12.8698 18.69C12.8698 18.69 12.8713 18.6885 12.8717 18.6877L16.2589 14.7918C16.2589 14.7918 16.2623 14.788 16.2638 14.7861L17.858 12.9527C17.858 12.9527 17.8603 12.95 17.8618 12.9485L19.5884 10.9626C19.7158 10.8165 19.7795 10.6258 19.7661 10.4325C19.7528 10.2391 19.6632 10.0591 19.5167 9.93208L18.368 8.93322C18.2215 8.8066 18.0312 8.74329 17.8382 8.75664C17.6452 8.77037 17.4652 8.85961 17.3382 9.0053L7.00096 20.894C6.5349 21.1778 6.25 21.6843 6.25 22.2297V25.9421C6.25 26.0253 6.2828 26.1046 6.34153 26.1633C6.40027 26.2221 6.4796 26.2549 6.56274 26.2549H27.2948C27.4676 26.2549 27.6075 26.1149 27.6075 25.9421C27.6075 25.7694 27.4676 25.6294 27.2948 25.6294H27.2952ZM17.8104 9.41606C17.8481 9.37258 17.9141 9.36762 17.9576 9.40538L19.1063 10.4039C19.1273 10.4218 19.1403 10.4477 19.1422 10.4756C19.1441 10.5034 19.1349 10.5309 19.1166 10.5515L17.6536 12.2342L16.6197 10.7856L17.8107 9.41606H17.8104ZM16.1975 11.2711L17.2314 12.7197L16.0479 14.0809L14.9949 12.6545L16.1975 11.2715V11.2711ZM14.5746 13.1377L15.6277 14.5645L14.39 15.9878L13.3603 14.5347L14.5746 13.1381V13.1377ZM12.9381 15.0202L13.9678 16.4737L12.662 17.9756L11.6192 16.5374L12.9385 15.0206L12.9381 15.0202ZM11.1974 17.0218L12.2401 18.46L11.0243 19.8586L9.99031 18.41L11.1974 17.0218ZM8.81638 25.6298H6.87586V22.2301C6.87586 21.9814 6.97503 21.7426 7.15085 21.5668C7.32667 21.391 7.56542 21.2918 7.81447 21.2918H7.87778C8.12645 21.2918 8.3652 21.391 8.5414 21.5668C8.71722 21.7426 8.81638 21.9814 8.81638 22.2301V25.6298ZM8.02271 20.6728L9.56811 18.8959L10.6021 20.3445L9.37016 21.7613C9.27749 21.4677 9.10014 21.2075 8.86063 21.0142C8.62073 20.8208 8.32973 20.7018 8.02309 20.6728H8.02271ZM17.1353 17.0164C17.1967 16.8593 17.3477 16.7556 17.5163 16.7548H23.5167C23.6853 16.7556 23.8363 16.8593 23.8978 17.0164L24.6499 18.9718H16.3836L17.1353 17.0164ZM15.469 19.2148H14.9267C14.8462 19.2148 14.781 19.1496 14.7806 19.0687V18.735C14.7806 18.6545 14.8458 18.5893 14.9267 18.5889H15.469C15.5495 18.5889 15.6151 18.6541 15.6151 18.735V19.0687C15.6151 19.1492 15.5499 19.2148 15.469 19.2148ZM17.0789 25.3792C17.0789 25.5173 16.9667 25.6294 16.8283 25.6298H16.2726C16.1345 25.6298 16.0224 25.5177 16.022 25.3792V24.6862H17.0789V25.3792ZM17.6677 25.6298C17.6921 25.5485 17.7047 25.4643 17.7047 25.3792V24.6862H23.3283V25.3792C23.3283 25.4639 23.3409 25.5485 23.3653 25.6298H17.6677ZM17.99 24.0607L18.3603 23.6526C18.4591 23.544 18.5995 23.4818 18.7463 23.4818H22.2799C22.429 23.4818 22.5709 23.5455 22.6701 23.6568L23.0286 24.0607H17.9896H17.99ZM25.0103 25.3796C25.0103 25.5177 24.8981 25.6298 24.7597 25.6302H24.204C24.0659 25.6302 23.9538 25.518 23.9534 25.3796V24.6866H25.0103V25.3796ZM25.455 23.6526C25.455 23.878 25.2723 24.0607 25.0469 24.0607H23.8657L23.1384 23.2415C22.9206 22.9963 22.6083 22.8559 22.2803 22.8559H18.7467C18.4233 22.8559 18.1147 22.9928 17.8973 23.232L17.1452 24.0607H15.9862C15.7608 24.0607 15.5781 23.878 15.5781 23.6526V20.6362C15.5777 20.2907 15.7089 19.9581 15.9454 19.706C15.9782 19.6709 16.009 19.6343 16.0392 19.5973H24.9943C25.0244 19.6343 25.0553 19.6709 25.0881 19.7056C25.3245 19.9577 25.4557 20.2903 25.4554 20.6358V23.6519L25.455 23.6526ZM25.4096 19.0607V18.727C25.4096 18.6465 25.4748 18.5813 25.5557 18.5809H26.098C26.1785 18.5809 26.2437 18.6461 26.2441 18.727V19.0607C26.2441 19.1412 26.1789 19.2064 26.098 19.2068H25.5557C25.4752 19.2068 25.41 19.1415 25.4096 19.0607ZM17.1765 20.4089C16.9274 20.4089 16.6887 20.5077 16.5129 20.6839C16.337 20.8601 16.2379 21.0988 16.2379 21.3475C16.2379 21.5962 16.3367 21.8353 16.5129 22.0111C16.6891 22.187 16.9278 22.2861 17.1765 22.2861C17.4252 22.2861 17.6643 22.1873 17.8401 22.0111C18.0159 21.8349 18.1151 21.5962 18.1151 21.3475C18.1151 21.0988 18.0159 20.8601 17.8401 20.6843C17.6639 20.5085 17.4255 20.4093 17.1769 20.4093L17.1765 20.4089ZM17.1765 21.6603C17.0499 21.6603 16.9358 21.584 16.8874 21.4669C16.839 21.3502 16.8657 21.2156 16.9553 21.1259C17.0449 21.0363 17.1795 21.0096 17.2962 21.058C17.4133 21.1065 17.4896 21.2205 17.4896 21.3471C17.4896 21.5199 17.3493 21.6599 17.1769 21.6599L17.1765 21.6603ZM23.8566 20.4089C23.6075 20.4089 23.3691 20.5077 23.1929 20.6839C23.0171 20.8601 22.918 21.0988 22.918 21.3475C22.918 21.5962 23.0167 21.8353 23.1929 22.0111C23.3691 22.187 23.6079 22.2861 23.8566 22.2861C24.1052 22.2861 24.344 22.1873 24.5202 22.0111C24.696 21.8349 24.7952 21.5962 24.7952 21.3475C24.7952 21.0988 24.696 20.8601 24.5202 20.6843C24.3444 20.5085 24.1056 20.4093 23.8566 20.4093V20.4089ZM23.8566 21.6603C23.7299 21.6603 23.6159 21.584 23.5675 21.4669C23.519 21.3502 23.5457 21.2156 23.6354 21.1259C23.725 21.0363 23.8596 21.0096 23.9763 21.058C24.093 21.1065 24.1693 21.2205 24.1693 21.3471C24.1693 21.5199 24.029 21.6599 23.8566 21.6599V21.6603ZM8.16611 22.0897C8.15848 22.0706 8.14857 22.0527 8.13674 22.0359C8.12568 22.0188 8.11272 22.0027 8.09784 21.9883C8.02347 21.9146 7.91783 21.8826 7.81523 21.9028C7.7954 21.907 7.77557 21.9127 7.75688 21.9204C7.73819 21.9284 7.72026 21.9379 7.7031 21.9494C7.66916 21.9726 7.63941 22.002 7.61653 22.0359C7.60508 22.0531 7.59555 22.071 7.58754 22.0897C7.57991 22.1088 7.57419 22.1282 7.57 22.1481C7.5658 22.1683 7.56389 22.1889 7.56389 22.2095C7.56389 22.2926 7.59708 22.3719 7.65581 22.4307C7.6703 22.4455 7.68594 22.4585 7.70348 22.4696C7.72026 22.481 7.73819 22.4909 7.75726 22.4989C7.77633 22.5069 7.79578 22.5127 7.81561 22.5165C7.83583 22.5207 7.85642 22.5226 7.87702 22.5226C8.04979 22.5226 8.18976 22.3822 8.18976 22.2098C8.18976 22.1892 8.18785 22.1687 8.18366 22.1484C8.17946 22.1286 8.17374 22.1088 8.16611 22.0901V22.0897Z" fill="#112876" stroke="#112876" stroke-width="0.25"/>
</svg>
