<svg width="15" height="19" viewBox="0 0 15 19" fill="none" xmlns="http://www.w3.org/2000/svg">
<path d="M11.205 16.9902V11.3552H12.7388V14.8302H12.8638C12.7388 14.8302 12.7388 14.8303 12.7388 14.8304L12.7388 14.8306L12.7388 14.8311L12.7388 14.8321L12.7389 14.8346L12.7391 14.8411C12.7394 14.8461 12.74 14.8524 12.7409 14.8598C12.7427 14.8746 12.7462 14.8942 12.7527 14.9168C12.7659 14.9623 12.7917 15.0208 12.8419 15.0779C12.9454 15.1956 13.1299 15.2832 13.4421 15.2774L13.4424 15.2774C13.7298 15.2714 13.8993 15.1814 13.9932 15.0662C14.0386 15.0106 14.0616 14.9545 14.0731 14.9113C14.0789 14.8897 14.0819 14.8711 14.0834 14.857C14.0842 14.85 14.0846 14.844 14.0848 14.8392L14.085 14.833L14.085 14.8306L14.085 14.8302L14.085 14.8296L14.085 8.35018C14.085 8.12641 13.9964 7.91096 13.8378 7.75239L11.205 5.1196V1.87018C11.205 1.45561 11.0408 1.05656 10.7472 0.762987C10.4536 0.469412 10.0546 0.305176 9.64 0.305176H2.44C2.02544 0.305176 1.62639 0.469412 1.33281 0.762987C1.03924 1.05656 0.875 1.45561 0.875 1.87018V16.9902C0.875 17.4047 1.03924 17.8038 1.33281 18.0974C1.62639 18.3909 2.02544 18.5552 2.44 18.5552H9.64C10.0546 18.5552 10.4536 18.3909 10.7472 18.0974C11.0408 17.8038 11.205 17.4047 11.205 16.9902ZM12.7388 8.36491V9.66698H11.205V7.12673L12.7388 8.36491ZM2.2212 1.81518H9.8588V6.06518H2.2212V1.81518ZM2.2212 7.41138H9.8588V17.209H2.2212V7.41138Z" fill="white" stroke="white" stroke-width="0.25"/>
<path d="M6.44751 9.09722C6.44751 9.01278 6.42739 8.92408 6.38396 8.8535C6.34343 8.78764 6.27185 8.72021 6.17131 8.72021H3.90511C3.80213 8.72021 3.73045 8.78974 3.69132 8.85485C3.65045 8.92284 3.62891 9.00883 3.62891 9.09722C3.62891 9.1856 3.65045 9.27159 3.69132 9.33958C3.73045 9.40469 3.80213 9.47422 3.90511 9.47422H6.17131C6.27008 9.47422 6.3448 9.40891 6.38578 9.33788L6.27751 9.27541L6.38504 9.33914C6.42689 9.26852 6.44751 9.18284 6.44751 9.09722Z" fill="white" stroke="white" stroke-width="0.25"/>
<path d="M3.92752 9.09536C3.92752 9.0763 3.93096 9.06128 3.93473 9.05116H4.03012V9.04936H6.14119C6.1453 9.05993 6.14892 9.07569 6.14892 9.09536C6.14892 9.11394 6.14569 9.12904 6.14187 9.13956H3.93432C3.93077 9.1295 3.92752 9.11456 3.92752 9.09536ZM3.90512 9.55516H6.17132C6.28403 9.55516 6.36915 9.48321 6.42071 9.39727C6.47198 9.31182 6.49792 9.206 6.49792 9.09716C6.49792 8.99037 6.47209 8.88269 6.42071 8.79705C6.36915 8.71111 6.28403 8.63916 6.17132 8.63916H3.90512C3.78886 8.63916 3.70497 8.71742 3.6569 8.79744C3.6072 8.88016 3.58032 8.98642 3.58032 9.09716C3.58032 9.2079 3.6072 9.31416 3.6569 9.39688C3.70497 9.4769 3.78886 9.55516 3.90512 9.55516Z" fill="white" stroke="white" stroke-width="0.25"/>
<path d="M8.2882 8.72021H6.7762C6.67323 8.72021 6.60154 8.78974 6.56241 8.85485C6.52155 8.92284 6.5 9.00883 6.5 9.09722C6.5 9.1856 6.52155 9.27159 6.56241 9.33958C6.60154 9.40469 6.67323 9.47422 6.7762 9.47422H8.2882C8.39117 9.47422 8.46286 9.40469 8.50199 9.33958C8.54285 9.27159 8.5644 9.1856 8.5644 9.09722C8.5644 9.00883 8.54285 8.92284 8.50199 8.85485C8.46286 8.78974 8.39117 8.72021 8.2882 8.72021Z" fill="white" stroke="white" stroke-width="0.25"/>
<path d="M6.77621 9.55516H8.28822C8.40447 9.55516 8.48837 9.4769 8.53644 9.39688C8.58613 9.31416 8.61302 9.2079 8.61302 9.09716C8.61302 8.98642 8.58613 8.88016 8.53644 8.79744C8.48837 8.71742 8.40447 8.63916 8.28822 8.63916H6.77621C6.65996 8.63916 6.57606 8.71742 6.52799 8.79744C6.4783 8.88016 6.45142 8.98642 6.45142 9.09716C6.45142 9.2079 6.4783 9.31416 6.52799 9.39688C6.57606 9.4769 6.65996 9.55516 6.77621 9.55516ZM6.79861 9.09716C6.79861 9.0781 6.80205 9.06308 6.80582 9.05296H8.25902C8.26257 9.06301 8.26582 9.07796 8.26582 9.09716C8.26582 9.11622 8.26238 9.13124 8.25861 9.14136H6.80541C6.80186 9.1313 6.79861 9.11636 6.79861 9.09716Z" fill="white" stroke="white" stroke-width="0.25"/>
</svg>
