<svg width="24" height="30" viewBox="0 0 24 30" fill="none" xmlns="http://www.w3.org/2000/svg">
<path d="M6.06961 7.87145H16.7862C17.1655 7.87145 17.4816 7.55532 17.4816 7.17598V4.1412C17.4816 3.76186 17.1655 3.44573 16.7862 3.44573H14.9843V3.38251C14.8894 1.48577 13.3404 0 11.4437 0C9.54696 0 7.99796 1.48577 7.90312 3.38251V3.44573H6.06961C5.69027 3.44573 5.37415 3.76186 5.37415 4.1412V7.17598C5.37415 7.55532 5.69027 7.87145 6.06961 7.87145ZM11.4437 2.08641C12.234 2.08641 12.8662 2.71865 12.8662 3.50896C12.8662 4.29926 12.234 4.93151 11.4437 4.93151C10.6534 4.93151 10.0211 4.29926 10.0211 3.50896C10.0211 2.75026 10.6534 2.08641 11.4437 2.08641Z" fill="#034B98"/>
<path d="M21.4331 5.50049H19.1254V7.14432C19.1254 8.40881 18.0822 9.45202 16.8177 9.45202H6.10116C4.83667 9.45202 3.79347 8.40881 3.79347 7.14432V5.50049H1.61222C0.727081 5.50049 0 6.22757 0 7.11271V28.3877C0 29.2729 0.727081 30 1.61222 30H21.4647C22.3498 30 23.0769 29.2729 23.0769 28.3877V7.11271C23.0453 6.22757 22.3182 5.50049 21.4331 5.50049ZM18.2086 24.9736C18.2086 25.2897 17.9557 25.511 17.6712 25.511H5.37408C5.05796 25.511 4.83667 25.2581 4.83667 24.9736V24.0569C4.83667 23.7407 5.08957 23.5195 5.37408 23.5195H17.6396C17.9557 23.5195 18.177 23.7724 18.177 24.0569V24.9736H18.2086ZM18.2086 19.8841C18.2086 20.2002 17.9557 20.4215 17.6712 20.4215H5.37408C5.05796 20.4215 4.83667 20.1686 4.83667 19.8841V18.9673C4.83667 18.6512 5.08957 18.4299 5.37408 18.4299H17.6396C17.9557 18.4299 18.177 18.6828 18.177 18.9673V19.8841H18.2086ZM18.2086 14.7945C18.2086 15.1106 17.9557 15.3319 17.6712 15.3319H5.37408C5.05796 15.3319 4.83667 15.079 4.83667 14.7945V13.8777C4.83667 13.5616 5.08957 13.3403 5.37408 13.3403H17.6396C17.9557 13.3403 18.177 13.5932 18.177 13.8777V14.7945H18.2086Z" fill="#034B98"/>
</svg>
