<svg width="35" height="50" viewBox="0 0 35 50" fill="none" xmlns="http://www.w3.org/2000/svg">
<path d="M33.93 0.865C33.37 0.305 32.63 0 31.845 0H2.95C2.165 0 1.42 0.305 0.865 0.865C0.31 1.425 0 2.175 0 2.95V47.05C0 47.835 0.305 48.58 0.865 49.135C1.42 49.69 2.165 50 2.95 50H31.845C32.635 50 33.375 49.695 33.93 49.135C34.485 48.575 34.795 47.835 34.795 47.05V2.95C34.795 2.16 34.49 1.42 33.93 0.865ZM31.935 2.95V47.05C31.935 47.05 31.925 47.095 31.91 47.115C31.895 47.13 31.87 47.14 31.845 47.14H2.95C2.9 47.14 2.86 47.1 2.86 47.05V2.95C2.86 2.9 2.9 2.86 2.95 2.86H31.845C31.845 2.86 31.89 2.87 31.91 2.885C31.925 2.9 31.935 2.925 31.935 2.95Z" fill="#112876"/>
<path d="M7.47006 32.3041H17.7351C17.9801 32.3041 18.2051 32.2091 18.3751 32.0391C18.5451 31.8691 18.6401 31.6391 18.6401 31.3991C18.6401 31.1591 18.5451 30.9291 18.3751 30.7591C18.2051 30.5891 17.9751 30.4941 17.7351 30.4941H7.47006C6.97006 30.4941 6.56006 30.8991 6.56006 31.4041C6.56006 31.9091 6.96506 32.3141 7.47006 32.3141V32.3041Z" fill="#112876"/>
<path d="M20.4754 32.3044H27.3204C27.8204 32.3044 28.2304 31.8994 28.2304 31.3944C28.2304 30.8894 27.8254 30.4844 27.3204 30.4844H20.4754C19.9754 30.4844 19.5654 30.8894 19.5654 31.3944C19.5654 31.8994 19.9704 32.3044 20.4754 32.3044Z" fill="#112876"/>
<path d="M27.3249 34.7188H17.0599C16.5599 34.7188 16.1499 35.1237 16.1499 35.6287C16.1499 36.1337 16.5549 36.5387 17.0599 36.5387H27.3249C27.8249 36.5387 28.2349 36.1337 28.2349 35.6287C28.2349 35.1237 27.8299 34.7188 27.3249 34.7188Z" fill="#112876"/>
<path d="M7.47006 36.5348H14.3151C14.8151 36.5348 15.2251 36.1298 15.2251 35.6248C15.2251 35.1198 14.8201 34.7148 14.3151 34.7148H7.47006C6.97006 34.7148 6.56006 35.1198 6.56006 35.6248C6.56006 36.1298 6.96506 36.5348 7.47006 36.5348Z" fill="#112876"/>
<path d="M17.7401 38.9492H7.47006C6.97006 38.9492 6.56006 39.3542 6.56006 39.8592C6.56006 40.3642 6.96506 40.7692 7.47006 40.7692H17.7351C17.9801 40.7692 18.2051 40.6742 18.3751 40.5042C18.5451 40.3342 18.6401 40.1042 18.6401 39.8642C18.6401 39.6242 18.5451 39.3942 18.3751 39.2242C18.2051 39.0542 17.9751 38.9592 17.7351 38.9592L17.7401 38.9492Z" fill="#112876"/>
<path d="M27.3253 38.9492H20.4803C19.9803 38.9492 19.5703 39.3542 19.5703 39.8592C19.5703 40.3642 19.9753 40.7692 20.4803 40.7692H27.3253C27.8253 40.7692 28.2353 40.3642 28.2353 39.8592C28.2353 39.3542 27.8303 38.9492 27.3253 38.9492Z" fill="#112876"/>
<path d="M13.45 18.58C13.45 17.62 12.67 16.835 11.705 16.835C10.74 16.835 9.95996 17.62 9.95996 18.58C9.95996 19.54 10.745 20.325 11.705 20.325C12.665 20.325 13.45 19.545 13.45 18.58ZM12.485 18.58C12.485 19.01 12.135 19.36 11.705 19.36C11.275 19.36 10.925 19.01 10.925 18.58C10.925 18.15 11.275 17.8 11.705 17.8C12.135 17.8 12.485 18.15 12.485 18.58Z" fill="#112876"/>
<path d="M27.7853 14.1602C27.7853 13.3052 27.0903 12.6102 26.2353 12.6102H25.1803L24.6153 10.9152C23.9253 8.8502 21.8403 8.8252 21.8153 8.8252H12.9803C12.9803 8.8252 10.8703 8.8502 10.1803 10.9152L9.61525 12.6102H8.56025C7.70525 12.6102 7.01025 13.3052 7.01025 14.1602C7.01025 14.6902 7.28525 15.1752 7.71025 15.4552C7.26025 15.9652 7.01025 16.6202 7.01025 17.3152V21.1002C7.01025 21.5102 7.22025 21.8602 7.64025 22.1502V24.8902C7.64025 25.3952 8.05025 25.8102 8.56025 25.8102H11.0853C11.5903 25.8102 12.0053 25.4002 12.0053 24.8902V23.1502C13.8203 23.2852 15.7953 23.2852 17.4003 23.2852C19.0053 23.2852 20.9803 23.2852 22.7953 23.1502V24.8902C22.7953 25.3952 23.2053 25.8102 23.7153 25.8102H26.2403C26.7453 25.8102 27.1603 25.4002 27.1603 24.8902V22.1502C27.5803 21.8602 27.7903 21.5102 27.7903 21.1002V17.3152C27.7903 16.6252 27.5403 15.9652 27.0903 15.4552C27.5203 15.1752 27.7903 14.6902 27.7903 14.1602H27.7853ZM8.21525 14.1602C8.21525 13.9702 8.37025 13.8152 8.56025 13.8152H9.21525L8.98525 14.5002H8.56025C8.37025 14.5002 8.21525 14.3452 8.21525 14.1552V14.1602ZM12.9753 10.0302H21.8103C22.0003 10.0302 22.2953 10.1152 22.4803 10.1902C22.9653 10.4002 23.2853 10.7602 23.4653 11.2952L24.5353 14.5052H24.1603C23.6403 13.7202 22.7553 13.2452 21.8153 13.2452C20.8753 13.2452 19.9853 13.7252 19.4703 14.5052H10.2553L11.3253 11.2952C11.5053 10.7602 11.8253 10.4002 12.3103 10.1902C12.4953 10.1102 12.7903 10.0302 12.9803 10.0302H12.9753ZM22.2303 14.5052H21.3903C21.6603 14.4302 21.9553 14.4302 22.2303 14.5052ZM8.21025 17.3152C8.21025 16.4302 8.93025 15.7102 9.81525 15.7102H24.9653C25.8503 15.7102 26.5703 16.4302 26.5703 17.3152V21.0752C26.4703 21.2202 25.8503 21.4802 25.0753 21.6402C23.8053 21.9052 22.3853 21.9852 21.0453 22.0302C19.8603 22.0702 18.6903 22.0752 17.3903 22.0752C16.0903 22.0752 14.9203 22.0752 13.7353 22.0302C12.3953 21.9852 10.9753 21.9052 9.70525 21.6402C8.89525 21.4702 8.27525 21.2052 8.21025 21.1002V17.3152ZM25.5753 13.8152H26.2303C26.4203 13.8152 26.5753 13.9702 26.5753 14.1602C26.5753 14.3502 26.4203 14.5052 26.2303 14.5052H25.8053L25.5753 13.8202V13.8152ZM10.7903 23.0352V24.6052H8.84025V22.6752C9.36525 22.8252 10.0103 22.9452 10.7903 23.0352ZM23.9903 24.6052V23.0352C24.7703 22.9402 25.4103 22.8202 25.9403 22.6752V24.6052H23.9903Z" fill="#112876"/>
<path d="M23.0902 20.325C24.0502 20.325 24.8352 19.545 24.8352 18.58C24.8352 17.615 24.0552 16.835 23.0902 16.835C22.1252 16.835 21.3452 17.62 21.3452 18.58C21.3452 19.54 22.1302 20.325 23.0902 20.325ZM22.3102 18.58C22.3102 18.15 22.6602 17.8 23.0902 17.8C23.5202 17.8 23.8702 18.15 23.8702 18.58C23.8702 19.01 23.5202 19.36 23.0902 19.36C22.6602 19.36 22.3102 19.01 22.3102 18.58Z" fill="#112876"/>
</svg>
