<svg width="35" height="30" viewBox="0 0 35 30" fill="none" xmlns="http://www.w3.org/2000/svg">
<path d="M19.5792 18.0286L26.5745 16.0453C26.1418 15.5762 25.5646 14.8917 24.9159 14.0264L18.9305 15.7214C17.7769 16.0461 16.8751 16.9837 16.6226 18.173C16.3701 19.3631 16.8028 20.5889 17.7405 21.3463L23.5814 26.1059C24.0141 26.4306 23.9061 26.8633 23.8338 27.0435C23.7616 27.2237 23.5814 27.5842 23.0407 27.5842H11.2859C10.6007 28.5583 9.95205 29.3514 9.41064 30.0001H23.04C24.446 30.0001 25.6361 29.1712 26.1053 27.8367C26.5745 26.5386 26.1775 25.0968 25.0954 24.2307L19.2538 19.5076C18.8933 19.2194 18.9291 18.8224 18.9656 18.6787C19.002 18.5342 19.11 18.1738 19.5785 18.0293L19.5792 18.0286Z" fill="#034B98"/>
<path d="M6.49033 11.322C2.92083 11.322 0 14.2421 0 17.8116C0 23.4008 5.98541 29.4942 6.23787 29.7467C6.31011 29.8189 6.38234 29.8547 6.49033 29.8547C6.59832 29.8547 6.67056 29.8189 6.7428 29.7467C6.99526 29.4942 12.9807 23.3643 12.9807 17.8116C12.9807 14.2056 10.0598 11.3213 6.49033 11.3213V11.322ZM6.49033 21.0936C4.68734 21.0936 3.20905 19.6153 3.20905 17.8123C3.20905 16.0094 4.68734 14.5311 6.49033 14.5311C8.29332 14.5311 9.77162 16.0094 9.77162 17.8123C9.77162 19.6153 8.29332 21.0936 6.49033 21.0936Z" fill="#034B98"/>
<path d="M28.9171 0C25.9605 0 23.5811 2.38015 23.5811 5.33601C23.5811 9.91536 28.4851 14.9632 28.7011 15.1791C28.7733 15.2514 28.8456 15.2514 28.9171 15.2514C28.9886 15.2514 29.0615 15.2156 29.133 15.1791C29.349 14.9632 34.2531 9.95111 34.2531 5.33601C34.2538 2.38015 31.8736 0 28.9171 0ZM28.9171 8.04086C27.4388 8.04086 26.2129 6.81503 26.2129 5.33674C26.2129 3.85845 27.4388 2.63262 28.9171 2.63262C30.3954 2.63262 31.6212 3.85845 31.6212 5.33674C31.6212 6.81503 30.3954 8.04086 28.9171 8.04086Z" fill="#034B98"/>
</svg>
