<svg width="35" height="50" viewBox="0 0 35 50" fill="none" xmlns="http://www.w3.org/2000/svg">
<path d="M33.93 0.865C33.37 0.305 32.63 0 31.845 0H2.95C2.165 0 1.42 0.305 0.865 0.865C0.31 1.425 0 2.175 0 2.95V47.05C0 47.835 0.305 48.58 0.865 49.135C1.42 49.69 2.165 50 2.95 50H31.845C32.635 50 33.375 49.695 33.93 49.135C34.485 48.575 34.795 47.835 34.795 47.05V2.95C34.795 2.16 34.49 1.42 33.93 0.865ZM31.935 2.95V47.05C31.935 47.05 31.925 47.095 31.91 47.115C31.895 47.13 31.87 47.14 31.845 47.14H2.95C2.9 47.14 2.86 47.1 2.86 47.05V2.95C2.86 2.9 2.9 2.86 2.95 2.86H31.845C31.845 2.86 31.89 2.87 31.91 2.885C31.925 2.9 31.935 2.925 31.935 2.95Z" fill="#112876"/>
<path d="M7.47006 32.3051H17.7351C17.9801 32.3051 18.2051 32.2101 18.3751 32.0401C18.5451 31.8701 18.6401 31.6401 18.6401 31.4001C18.6401 31.1601 18.5451 30.9301 18.3751 30.7601C18.2051 30.5901 17.9751 30.4951 17.7351 30.4951H7.47006C6.97006 30.4951 6.56006 30.9001 6.56006 31.4051C6.56006 31.9101 6.96506 32.3151 7.47006 32.3151V32.3051Z" fill="#112876"/>
<path d="M20.4754 32.3054H27.3204C27.8204 32.3054 28.2304 31.9004 28.2304 31.3954C28.2304 30.8904 27.8254 30.4854 27.3204 30.4854H20.4754C19.9754 30.4854 19.5654 30.8904 19.5654 31.3954C19.5654 31.9004 19.9704 32.3054 20.4754 32.3054Z" fill="#112876"/>
<path d="M27.3249 34.7207H17.0599C16.5599 34.7207 16.1499 35.1257 16.1499 35.6307C16.1499 36.1357 16.5549 36.5407 17.0599 36.5407H27.3249C27.8249 36.5407 28.2349 36.1357 28.2349 35.6307C28.2349 35.1257 27.8299 34.7207 27.3249 34.7207Z" fill="#112876"/>
<path d="M7.47006 36.5358H14.3151C14.8151 36.5358 15.2251 36.1308 15.2251 35.6258C15.2251 35.1208 14.8201 34.7158 14.3151 34.7158H7.47006C6.97006 34.7158 6.56006 35.1208 6.56006 35.6258C6.56006 36.1308 6.96506 36.5358 7.47006 36.5358Z" fill="#112876"/>
<path d="M17.7401 38.9502H7.47006C6.97006 38.9502 6.56006 39.3552 6.56006 39.8602C6.56006 40.3652 6.96506 40.7702 7.47006 40.7702H17.7351C17.9801 40.7702 18.2051 40.6752 18.3751 40.5052C18.5451 40.3352 18.6401 40.1052 18.6401 39.8652C18.6401 39.6252 18.5451 39.3952 18.3751 39.2252C18.2051 39.0552 17.9751 38.9602 17.7351 38.9602L17.7401 38.9502Z" fill="#112876"/>
<path d="M27.3253 38.9502H20.4803C19.9803 38.9502 19.5703 39.3552 19.5703 39.8602C19.5703 40.3652 19.9753 40.7702 20.4803 40.7702H27.3253C27.8253 40.7702 28.2353 40.3652 28.2353 39.8602C28.2353 39.3552 27.8303 38.9502 27.3253 38.9502Z" fill="#112876"/>
<path fill-rule="evenodd" clip-rule="evenodd" d="M10.7963 11.6476C10.7373 18.2134 11.2968 22.747 17.7777 25.4058C24.2565 22.747 24.8191 18.2134 24.7581 11.6476C23.1386 11.5815 21.4685 11.2257 19.787 10.5918C19.0931 10.3302 18.4034 10.0251 17.7787 9.70451C17.1531 10.0261 16.4644 10.3302 15.7694 10.5918C14.0889 11.2257 12.4188 11.5815 10.7983 11.6476H10.7963ZM17.7777 26.3375C17.7208 26.3375 17.6639 26.3272 17.6102 26.3065C14.1748 24.9342 12.0548 22.9724 10.941 20.1317C9.91208 17.5081 9.86348 14.4119 9.90381 11.204C9.90795 10.9599 10.1044 10.7635 10.3485 10.7614C12 10.7469 13.7167 10.4077 15.4509 9.75311C16.1893 9.47493 16.9204 9.14607 17.5667 8.80274C17.6981 8.73242 17.8553 8.73242 17.9876 8.80274C18.634 9.14607 19.3651 9.47493 20.1024 9.75311C21.8367 10.4067 23.5544 10.7469 25.2059 10.7614C25.4489 10.7635 25.6464 10.9599 25.6495 11.204C25.6909 14.4119 25.6413 17.5081 24.6133 20.1306C23.4985 22.9714 21.3786 24.9342 17.9432 26.3055C17.8894 26.3261 17.8335 26.3365 17.7777 26.3365V26.3375Z" fill="#112876" stroke="#112876" stroke-width="0.25"/>
<path fill-rule="evenodd" clip-rule="evenodd" d="M14.1118 17.4843C14.0022 17.4843 13.8987 17.5267 13.8222 17.6032C13.7457 17.6818 13.7023 17.7842 13.7023 17.8928C13.7023 18.0014 13.7457 18.1048 13.8222 18.1824L16.0342 20.3944C16.1883 20.5495 16.4582 20.5495 16.6133 20.3944L21.7354 15.2723C21.813 15.1948 21.8543 15.0924 21.8543 14.9828C21.8543 14.8731 21.8119 14.7718 21.7354 14.6932C21.5751 14.5339 21.3166 14.5339 21.1563 14.6932L16.6402 19.2093C16.4644 19.3851 16.1811 19.3851 16.0063 19.2093L14.4013 17.6032C14.3227 17.5257 14.2204 17.4843 14.1118 17.4843ZM16.3238 21.412C15.9742 21.412 15.6464 21.2765 15.4003 21.0293L13.1883 18.8173C12.9422 18.5712 12.8057 18.2434 12.8057 17.8938C12.8057 17.5443 12.9422 17.2175 13.1883 16.9704C13.6981 16.4605 14.5265 16.4616 15.0363 16.9704L16.3248 18.2589L20.5234 14.0603C21.0332 13.5515 21.8616 13.5515 22.3704 14.0603C22.6165 14.3075 22.752 14.6343 22.752 14.9838C22.752 15.3333 22.6165 15.6611 22.3704 15.9073L17.2535 21.0242C17.0011 21.2765 16.6733 21.412 16.3248 21.412H16.3238Z" fill="#112876" stroke="#112876" stroke-width="0.25"/>
</svg>
