<svg width="13" height="11" viewBox="0 0 13 11" fill="none" xmlns="http://www.w3.org/2000/svg">
<path fill-rule="evenodd" clip-rule="evenodd" d="M7.20001 0.905257C7.12931 0.7821 7.02737 0.679779 6.90447 0.608624C6.78158 0.537469 6.64209 0.5 6.50008 0.5C6.35807 0.5 6.21858 0.537469 6.09569 0.608624C5.97279 0.679779 5.87085 0.7821 5.80015 0.905257L0.902788 9.23798C0.576393 9.79364 0.967782 10.5 1.60272 10.5H11.3967C12.0317 10.5 12.4238 9.79293 12.0967 9.23798L7.20001 0.905257ZM6.49865 3.35787C6.40838 3.35792 6.31912 3.37688 6.23662 3.41352C6.15412 3.45017 6.08021 3.50369 6.01966 3.57064C5.9591 3.63759 5.91324 3.71648 5.88503 3.80223C5.85682 3.88798 5.84688 3.97868 5.85586 4.06851L6.10583 6.57325C6.11423 6.67165 6.15926 6.76332 6.232 6.83011C6.30474 6.89691 6.39989 6.93397 6.49865 6.93397C6.59741 6.93397 6.69257 6.89691 6.76531 6.83011C6.83805 6.76332 6.88307 6.67165 6.89147 6.57325L7.14144 4.06851C7.15042 3.97868 7.14048 3.88798 7.11227 3.80223C7.08406 3.71648 7.0382 3.63759 6.97764 3.57064C6.91709 3.50369 6.84318 3.45017 6.76068 3.41352C6.67818 3.37688 6.58892 3.35792 6.49865 3.35787ZM6.50008 7.64315C6.31066 7.64315 6.12899 7.71839 5.99505 7.85233C5.86111 7.98628 5.78587 8.16794 5.78587 8.35736C5.78587 8.54678 5.86111 8.72844 5.99505 8.86238C6.12899 8.99633 6.31066 9.07157 6.50008 9.07157C6.6895 9.07157 6.87116 8.99633 7.0051 8.86238C7.13904 8.72844 7.21429 8.54678 7.21429 8.35736C7.21429 8.16794 7.13904 7.98628 7.0051 7.85233C6.87116 7.71839 6.6895 7.64315 6.50008 7.64315Z" fill="#EF4444"/>
</svg>
