<svg width="14" height="16" viewBox="0 0 14 16" fill="none" xmlns="http://www.w3.org/2000/svg">
<path fill-rule="evenodd" clip-rule="evenodd" d="M13.9997 4.49803V13.9939C13.9997 14.5241 13.7891 15.0326 13.4142 15.4075C13.0393 15.7824 12.5308 15.993 12.0006 15.993H11.001V14.9934H12.0006C12.2657 14.9934 12.52 14.8881 12.7074 14.7007C12.8949 14.5132 13.0002 14.259 13.0002 13.9939V4.49803H11.001C10.6034 4.49803 10.222 4.34007 9.94085 4.05888C9.65967 3.7777 9.50171 3.39634 9.50171 2.99869V0.999563H4.00411C3.73901 0.999563 3.48477 1.10487 3.29731 1.29233C3.10986 1.47978 3.00455 1.73402 3.00455 1.99913V10.9952H2.00498V1.99913C2.00498 1.46892 2.21561 0.960439 2.59051 0.58553C2.96542 0.210622 3.47391 0 4.00411 0L9.50171 0L13.9997 4.49803ZM6.47503 15.2833C6.4087 15.1425 6.37099 14.99 6.36408 14.8345H7.12874C7.14251 14.9125 7.17215 14.9868 7.21582 15.0528C7.2595 15.1188 7.31627 15.1752 7.38263 15.2183C7.4526 15.2673 7.53656 15.3053 7.63252 15.3323C7.72748 15.3603 7.83443 15.3733 7.95138 15.3733C8.11531 15.3733 8.25325 15.3503 8.3642 15.3033C8.46614 15.2652 8.55473 15.1981 8.61909 15.1104C8.67622 15.0246 8.70586 14.9235 8.70405 14.8205C8.70688 14.7579 8.69444 14.6955 8.6678 14.6387C8.64116 14.5819 8.60111 14.5325 8.55112 14.4947C8.45016 14.4147 8.29623 14.3507 8.08932 14.3017L7.47059 14.1588C7.28019 14.1185 7.09802 14.0462 6.93183 13.9449C6.78529 13.8548 6.66445 13.7285 6.58098 13.5781C6.49596 13.4168 6.45363 13.2365 6.45804 13.0543C6.45804 12.8104 6.52101 12.5975 6.64795 12.4156C6.7749 12.2346 6.95082 12.0937 7.17472 11.9938C7.39962 11.8938 7.65851 11.8448 7.95138 11.8448C8.25625 11.8448 8.51514 11.8948 8.73104 11.9968C8.94695 12.0987 9.11387 12.2356 9.23082 12.4066C9.35077 12.5765 9.41674 12.7654 9.43074 12.9723H8.68106C8.66395 12.8775 8.62264 12.7886 8.56112 12.7144C8.49509 12.6346 8.41025 12.5724 8.31422 12.5335C8.19723 12.4858 8.07169 12.4627 7.94539 12.4655C7.72848 12.4655 7.55756 12.5155 7.43261 12.6175C7.37402 12.6626 7.32686 12.7208 7.29491 12.7875C7.26296 12.8541 7.24713 12.9274 7.24869 13.0013C7.24869 13.1223 7.29667 13.2212 7.39163 13.3012C7.51134 13.3898 7.64987 13.4497 7.79645 13.4761L8.41618 13.619C8.63308 13.669 8.822 13.739 8.98193 13.8299C9.13616 13.9142 9.26545 14.0376 9.35677 14.1878C9.44673 14.3357 9.49171 14.5226 9.49171 14.7475C9.49171 14.9944 9.42874 15.2133 9.30379 15.4033C9.17073 15.5988 8.98349 15.7513 8.76503 15.8421C8.53113 15.947 8.24525 16 7.9074 16C7.65351 16 7.43161 15.97 7.24269 15.91C7.06862 15.8578 6.90635 15.7723 6.7649 15.6581C6.64286 15.5551 6.54406 15.4273 6.47503 15.2833ZM3.53132 11.9268H2.63871L1.81507 13.3642H1.77908L0.947447 11.9268H0.0178541L1.24432 13.9089L0.00585938 15.924H0.866483L1.71911 14.5097H1.75409L2.60372 15.924H3.51133L2.25787 13.9339L3.53132 11.9278V11.9268ZM6.25712 15.2503H4.56087V11.9268H3.77121V15.925H6.25712V15.2503Z" fill="#034B98"/>
<path d="M8.00323 4.49807C8.00323 4.36552 7.95057 4.2384 7.85684 4.14467C7.76312 4.05095 7.63599 3.99829 7.50344 3.99829C7.37089 3.99829 7.24377 4.05095 7.15005 4.14467C7.05632 4.2384 7.00366 4.36552 7.00366 4.49807V8.28941L5.85816 7.14292C5.8117 7.09645 5.75653 7.05959 5.69582 7.03444C5.63511 7.00929 5.57003 6.99635 5.50432 6.99635C5.4386 6.99635 5.37353 7.00929 5.31282 7.03444C5.25211 7.05959 5.19694 7.09645 5.15047 7.14292C5.10401 7.18938 5.06715 7.24455 5.042 7.30526C5.01685 7.36597 5.00391 7.43105 5.00391 7.49676C5.00391 7.56248 5.01685 7.62755 5.042 7.68826C5.06715 7.74897 5.10401 7.80414 5.15047 7.85061L7.1496 9.84973C7.19602 9.89627 7.25118 9.9332 7.31189 9.9584C7.37261 9.98359 7.43771 9.99656 7.50344 9.99656C7.56918 9.99656 7.63428 9.98359 7.69499 9.9584C7.75571 9.9332 7.81086 9.89627 7.85729 9.84973L9.85642 7.85061C9.90288 7.80414 9.93974 7.74897 9.96489 7.68826C9.99004 7.62755 10.003 7.56248 10.003 7.49676C10.003 7.43105 9.99004 7.36597 9.96489 7.30526C9.93974 7.24455 9.90288 7.18938 9.85642 7.14292C9.80995 7.09645 9.75478 7.05959 9.69407 7.03444C9.63336 7.00929 9.56828 6.99635 9.50257 6.99635C9.43685 6.99635 9.37178 7.00929 9.31107 7.03444C9.25036 7.05959 9.19519 7.09645 9.14872 7.14292L8.00323 8.28941V4.49807Z" fill="#034B98"/>
</svg>
