<svg width="150" height="40" viewBox="0 0 150 40" fill="none" xmlns="http://www.w3.org/2000/svg">
<path d="M5.12074 19.3358C5.12074 11.6855 11.3231 5.4832 18.9733 5.4832C23.4656 5.4832 27.4584 7.62327 29.9879 10.9394H36.7552C33.6318 4.46522 27.0053 0 19.3358 0C8.65667 0 0 8.65667 0 19.3358C0 23.0992 1.07967 26.6082 2.93826 29.5792L6.16185 24.6069C5.49284 22.9816 5.12074 21.2021 5.12074 19.3358Z" fill="#FF8B00"/>
<path d="M38.1338 19.4456L38.1646 16.1931L33.7553 16.2278H17.3423L4.98779 37.0887L9.72101 39.9768L20.2305 21.283H32.6853C32.6776 21.337 32.6756 21.3948 32.666 21.4488C31.648 28.0965 27.5106 32.1202 20.5775 32.1202C20.6219 32.153 17.7164 37.7037 17.7029 37.7365C28.3415 38.0102 38.1338 30.2732 38.1338 19.4456Z" fill="#FFFFFF"/>
<path d="M59.0852 15.9272H68.3607V16.6522C68.3607 20.0609 67.3562 22.7523 65.3511 24.7227C63.3441 26.6931 60.6064 27.6783 57.134 27.6783C56.0794 27.6783 55.073 27.5704 54.1167 27.3525C53.1585 27.1366 52.2755 26.8204 51.4677 26.4059C49.6245 25.4303 48.2017 24.0826 47.1991 22.3629C46.1946 20.6431 45.6934 18.6901 45.6934 16.5018C45.6934 14.6991 45.9922 13.07 46.5918 11.6163C47.1914 10.1626 48.0937 8.8843 49.3026 7.78149C50.3167 6.85606 51.4928 6.1562 52.8346 5.68191C54.1765 5.20955 55.6611 4.97241 57.2883 4.97241C59.4476 4.97241 61.3216 5.3503 62.9084 6.10414C64.4951 6.85799 65.81 7.99357 66.855 9.5109L64.6127 11.2403C63.803 9.92927 62.7946 8.94792 61.5877 8.29241C60.3789 7.63689 58.9772 7.30913 57.3789 7.30913C54.7684 7.30913 52.6495 8.15745 51.0204 9.85215C49.3932 11.5469 48.5776 13.764 48.5776 16.5037C48.5776 19.0853 49.4047 21.2042 51.057 22.8584C52.7112 24.5145 54.8166 25.3416 57.377 25.3416C59.6289 25.3416 61.5048 24.6842 63.0048 23.3693C64.5047 22.0544 65.3357 20.3423 65.4996 18.2331H59.0794V15.9272H59.0852Z" fill="#FFFFFF"/>
<path d="M74.9333 17.3904V27.1017H72.3228V5.46387H77.0386C78.687 5.46387 79.8997 5.54677 80.6787 5.71451C81.4576 5.88224 82.1324 6.15794 82.705 6.54161C83.4222 7.03518 83.9813 7.70997 84.3862 8.566C84.7911 9.42203 84.9935 10.3745 84.9935 11.4175C84.9935 12.4625 84.7911 13.413 84.3862 14.2709C83.9813 15.1289 83.4203 15.8037 82.705 16.2953C82.1324 16.6886 81.4595 16.9701 80.6864 17.1378C79.9132 17.3056 78.6986 17.3885 77.0386 17.3885H76.2867H74.9333V17.3904ZM74.9333 15.0556H76.2848C78.5791 15.0556 80.1215 14.7973 80.9158 14.2806C81.7101 13.7639 82.1054 12.8596 82.1054 11.5679C82.1054 10.1894 81.6986 9.21766 80.885 8.65662C80.0713 8.09557 78.5386 7.81409 76.2848 7.81409H74.9333V15.0556Z" fill="#FFFFFF"/>
<path d="M88.2939 27.1017V5.46387H100.149V7.81409H90.9661V14.0222H100.149V16.4168H90.9661V27.1036H88.2939V27.1017Z" fill="#FFFFFF"/>
<path d="M104.113 27.1017V4.19336H106.571V27.1017H104.113Z" fill="#FFFFFF"/>
<path d="M124.155 20.6872H113.021V20.8935C113.021 22.3414 113.451 23.5117 114.311 24.4044C115.17 25.297 116.293 25.7424 117.673 25.7424C118.616 25.7424 119.464 25.4995 120.222 25.0117C120.979 24.5239 121.65 23.7874 122.235 22.8022L124.062 23.9841C123.357 25.2064 122.454 26.128 121.359 26.7488C120.264 27.3696 118.994 27.68 117.552 27.68C115.411 27.68 113.682 26.9994 112.361 25.6402C111.041 24.281 110.379 22.4976 110.379 20.29C110.379 18.1712 111.035 16.4379 112.346 15.0864C113.657 13.7368 115.34 13.062 117.399 13.062C119.478 13.062 121.124 13.7021 122.337 14.9842C123.549 16.2663 124.157 18.0131 124.157 20.2303V20.6872H124.155ZM121.575 18.8093C121.492 17.6178 121.082 16.6982 120.339 16.0523C119.597 15.4064 118.581 15.0845 117.291 15.0845C116.125 15.0845 115.151 15.4219 114.374 16.0967C113.595 16.7715 113.146 17.6757 113.023 18.8093H121.575Z" fill="#FFFFFF"/>
<path d="M140.327 20.6872H129.193V20.8935C129.193 22.3414 129.623 23.5117 130.482 24.4044C131.342 25.297 132.464 25.7424 133.845 25.7424C134.788 25.7424 135.636 25.4995 136.394 25.0117C137.151 24.5239 137.822 23.7874 138.406 22.8022L140.234 23.9841C139.529 25.2064 138.626 26.128 137.531 26.7488C136.436 27.3696 135.166 27.68 133.723 27.68C131.583 27.68 129.854 26.9994 128.533 25.6402C127.213 24.281 126.551 22.4976 126.551 20.29C126.551 18.1712 127.207 16.4379 128.518 15.0864C129.829 13.7368 131.512 13.062 133.571 13.062C135.649 13.062 137.296 13.7021 138.509 14.9842C139.721 16.2663 140.329 18.0131 140.329 20.2303V20.6872H140.327ZM137.747 18.8093C137.664 17.6178 137.254 16.6982 136.511 16.0523C135.769 15.4064 134.753 15.0845 133.463 15.0845C132.297 15.0845 131.323 15.4219 130.546 16.0967C129.767 16.7715 129.318 17.6757 129.195 18.8093H137.747Z" fill="#FFFFFF"/>
<path d="M144.319 15.4836H141.74V13.5769H144.319V8.12451H146.778V13.5788H149.357V15.4856H146.778V27.1017H144.319V15.4836Z" fill="#FFFFFF"/>
<path d="M63.3169 33.2442V37.7056C63.3169 38.1992 63.2822 38.5501 63.2147 38.7583C63.1453 38.9665 63.0316 39.1535 62.8735 39.3193C62.6537 39.5468 62.3838 39.7184 62.0657 39.8303C61.7475 39.9421 61.3831 39.9999 60.9706 39.9999C60.2553 39.9999 59.6981 39.8438 59.2971 39.5295C58.896 39.2152 58.6878 38.7699 58.6705 38.1953H59.5785V38.2551C59.5785 38.5963 59.7 38.8586 59.9449 39.0436C60.1897 39.2287 60.5348 39.3213 60.9821 39.3213C61.306 39.3213 61.5817 39.2711 61.8092 39.169C62.0387 39.0687 62.2122 38.9183 62.3317 38.7197C62.4031 38.6079 62.4551 38.4768 62.486 38.3284C62.5168 38.1799 62.5322 37.9659 62.5322 37.6883V37.3316V36.9248C62.3491 37.2487 62.1119 37.4974 61.815 37.6709C61.52 37.8444 61.1884 37.9312 60.8202 37.9312C60.1434 37.9312 59.5978 37.7095 59.1833 37.266C58.7688 36.8226 58.5625 36.2346 58.5625 35.5C58.5625 34.7597 58.763 34.1716 59.166 33.7359C59.5689 33.3002 60.1068 33.0842 60.7797 33.0842C61.1711 33.0842 61.5162 33.1691 61.8112 33.3406C62.1061 33.5122 62.3414 33.761 62.5129 34.0926V33.2481H63.3169V33.2442ZM62.5322 35.527C62.5322 35.018 62.3876 34.6073 62.0984 34.2969C61.8092 33.9865 61.4294 33.8304 60.959 33.8304C60.4751 33.8304 60.0952 33.975 59.8253 34.2622C59.5535 34.5495 59.4185 34.9524 59.4185 35.4672C59.4185 36.0167 59.5554 36.4389 59.8292 36.7378C60.103 37.0366 60.4905 37.1851 60.9918 37.1851C61.4738 37.1851 61.8497 37.0385 62.1235 36.7455C62.3973 36.4524 62.5322 36.0456 62.5322 35.527Z" fill="#FFFFFF"/>
<path d="M69.0159 35.6311H65.2775V35.7006C65.2775 36.1864 65.4221 36.5797 65.7113 36.8786C66.0005 37.1774 66.3765 37.3278 66.8411 37.3278C67.1573 37.3278 67.4426 37.2468 67.6971 37.0829C67.9516 36.919 68.1772 36.6723 68.3719 36.3406L68.985 36.7378C68.7479 37.1485 68.4452 37.4569 68.0769 37.6652C67.7087 37.8734 67.2826 37.9775 66.7987 37.9775C66.0795 37.9775 65.4992 37.75 65.0558 37.2931C64.6123 36.8361 64.3906 36.2385 64.3906 35.4962C64.3906 34.7848 64.6104 34.2025 65.05 33.7494C65.4896 33.2964 66.0545 33.0688 66.7466 33.0688C67.4446 33.0688 67.9979 33.2848 68.4047 33.7147C68.8115 34.1447 69.0159 34.7327 69.0159 35.4769V35.6311ZM68.1502 35.0007C68.1232 34.5997 67.9844 34.2912 67.7357 34.0753C67.487 33.8593 67.1457 33.7494 66.7119 33.7494C66.3205 33.7494 65.9928 33.8632 65.7325 34.0888C65.4703 34.3143 65.3199 34.6189 65.2794 34.9988H68.1502V35.0007Z" fill="#FFFFFF"/>
<path d="M69.5845 37.0212L70.2747 36.5739C70.4058 36.8149 70.5697 36.9961 70.7702 37.1176C70.9688 37.239 71.204 37.2988 71.4758 37.2988C71.74 37.2988 71.954 37.2352 72.1178 37.1098C72.2817 36.9845 72.3627 36.8187 72.3627 36.6144C72.3627 36.4563 72.3068 36.3232 72.195 36.2172C72.0831 36.1111 71.8923 36.0128 71.6204 35.9241C71.5934 35.9145 71.5491 35.8991 71.4855 35.8798C70.3364 35.5 69.7638 35.0238 69.7638 34.4511C69.7638 34.0482 69.918 33.7185 70.2284 33.464C70.5388 33.2095 70.9398 33.0823 71.4353 33.0823C71.8441 33.0823 72.195 33.1613 72.488 33.3175C72.7811 33.4756 72.9893 33.6973 73.1165 33.9846L72.461 34.3721C72.3646 34.1639 72.2239 34.0039 72.0349 33.8901C71.8479 33.7783 71.6301 33.7204 71.3833 33.7204C71.1461 33.7204 70.9533 33.7841 70.803 33.9113C70.6526 34.0386 70.5793 34.2024 70.5793 34.401C70.5793 34.6786 70.8916 34.9119 71.5182 35.1009C71.6359 35.1375 71.7284 35.1645 71.7959 35.1857C72.3087 35.3438 72.6654 35.525 72.8659 35.7294C73.0664 35.9318 73.1667 36.2018 73.1667 36.5353C73.1667 36.9652 73.0066 37.3142 72.6905 37.5803C72.3743 37.8463 71.9578 37.9794 71.445 37.9794C71.0054 37.9794 70.6314 37.9003 70.3229 37.7403C70.0163 37.5803 69.7696 37.3412 69.5845 37.0212Z" fill="#FFFFFF"/>
<path d="M74.3603 33.8845H73.4946V33.2444H74.3603V31.4128H75.1855V33.2444H76.0511V33.8845H75.1855V37.7848H74.3603V33.8845Z" fill="#FFFFFF"/>
<path d="M76.6719 31.0561C76.6719 30.8999 76.7297 30.7669 76.8454 30.657C76.9611 30.5471 77.0999 30.4912 77.2657 30.4912C77.4276 30.4912 77.5645 30.5471 77.6802 30.6609C77.7959 30.7727 77.8537 30.9096 77.8537 31.0677C77.8537 31.2238 77.7978 31.355 77.6841 31.4648C77.5703 31.5747 77.4315 31.6287 77.2657 31.6287C77.0999 31.6287 76.9611 31.5747 76.8454 31.4648C76.7297 31.353 76.6719 31.2181 76.6719 31.0561ZM76.8627 37.7848V33.2444H77.6764V37.7848H76.8627Z" fill="#FFFFFF"/>
<path d="M78.8506 35.527C78.8506 35.1935 78.9142 34.8773 79.0415 34.5823C79.1687 34.2854 79.3538 34.0232 79.5986 33.7899C79.8435 33.5585 80.1192 33.3831 80.4296 33.2616C80.7381 33.1402 81.0697 33.0804 81.4187 33.0804C81.7618 33.0804 82.0877 33.1421 82.3962 33.2636C82.7046 33.385 82.9823 33.5643 83.2348 33.7995C83.4797 34.027 83.6648 34.2892 83.792 34.5862C83.9193 34.8831 83.9829 35.1954 83.9829 35.527C83.9829 35.8586 83.9193 36.169 83.792 36.4621C83.6648 36.7551 83.4797 37.0154 83.2348 37.2429C82.9842 37.482 82.7027 37.6632 82.3923 37.7885C82.0819 37.9139 81.758 37.9775 81.4206 37.9775C81.0736 37.9775 80.7439 37.9158 80.4335 37.7924C80.1231 37.669 79.8454 37.4897 79.6006 37.2583C79.3557 37.0193 79.1706 36.7551 79.0434 36.464C78.9142 36.1729 78.8506 35.8606 78.8506 35.527ZM79.7066 35.527C79.7066 36.0071 79.8724 36.412 80.206 36.7455C80.5395 37.0771 80.9424 37.2449 81.4187 37.2449C81.8891 37.2449 82.2901 37.079 82.6198 36.7455C82.9495 36.4139 83.1153 36.0071 83.1153 35.527C83.1153 35.0469 82.9495 34.6421 82.6198 34.3085C82.2901 33.9769 81.8891 33.8092 81.4187 33.8092C80.9405 33.8092 80.5356 33.975 80.204 34.3085C79.8724 34.6401 79.7066 35.0469 79.7066 35.527ZM80.6802 32.529L81.7329 30.8015H82.7702L81.3011 32.529H80.6802Z" fill="#FFFFFF"/>
<path d="M85.0918 37.7849V33.2444H85.8803V33.9443C86.0828 33.6532 86.3276 33.4372 86.613 33.2946C86.8983 33.1519 87.228 33.0806 87.602 33.0806C88.1592 33.0806 88.593 33.2232 88.9073 33.5067C89.2196 33.792 89.3758 34.1872 89.3758 34.6924V37.7829H88.5506V35.1088C88.5506 34.65 88.4504 34.3068 88.2498 34.0831C88.0493 33.8595 87.7389 33.7476 87.3186 33.7476C87.0776 33.7476 86.8598 33.7901 86.6612 33.8749C86.4626 33.9597 86.2987 34.0793 86.1695 34.2354C86.0693 34.355 85.9979 34.4899 85.9555 34.6422C85.9131 34.7945 85.8919 35.0587 85.8919 35.4366V37.7829H85.0918V37.7849Z" fill="#FFFFFF"/>
<path d="M98.1846 30.094V37.7847H97.3999V36.9615C97.2148 37.2892 96.9738 37.5399 96.6789 37.7153C96.3839 37.8908 96.0523 37.9775 95.6898 37.9775C95.0131 37.9775 94.4675 37.7539 94.0529 37.3046C93.6384 36.8554 93.4321 36.2635 93.4321 35.5251C93.4321 34.7809 93.6346 34.1871 94.0414 33.7437C94.4463 33.3002 94.9861 33.0785 95.6609 33.0785C96.0523 33.0785 96.3935 33.1633 96.6808 33.3349C96.97 33.5046 97.2033 33.7591 97.3826 34.0965V30.092H98.1846V30.094ZM97.4019 35.5367C97.4019 35.0315 97.2553 34.6228 96.9642 34.3143C96.6731 34.0059 96.2875 33.8497 95.8093 33.8497C95.3312 33.8497 94.9591 33.9904 94.6911 34.2719C94.4231 34.5534 94.2882 34.9409 94.2882 35.4384C94.2882 35.9975 94.4231 36.4351 94.695 36.7513C94.9668 37.0675 95.3408 37.2256 95.819 37.2256C96.3145 37.2256 96.702 37.0771 96.9816 36.7783C97.2611 36.4795 97.4019 36.0669 97.4019 35.5367Z" fill="#FFFFFF"/>
<path d="M103.895 35.6311H100.157V35.7006C100.157 36.1864 100.301 36.5797 100.591 36.8786C100.88 37.1774 101.256 37.3278 101.72 37.3278C102.037 37.3278 102.322 37.2468 102.577 37.0829C102.831 36.919 103.057 36.6723 103.251 36.3406L103.864 36.7378C103.627 37.1485 103.325 37.4569 102.956 37.6652C102.588 37.8734 102.162 37.9775 101.678 37.9775C100.959 37.9775 100.379 37.75 99.9352 37.2931C99.4917 36.8361 99.27 36.2385 99.27 35.4962C99.27 34.7848 99.4898 34.2025 99.9294 33.7494C100.369 33.2964 100.934 33.0688 101.626 33.0688C102.324 33.0688 102.877 33.2848 103.284 33.7147C103.691 34.1447 103.895 34.7327 103.895 35.4769V35.6311ZM103.028 35.0007C103.001 34.5997 102.862 34.2912 102.613 34.0753C102.364 33.8593 102.023 33.7494 101.589 33.7494C101.198 33.7494 100.87 33.8632 100.61 34.0888C100.348 34.3143 100.197 34.6189 100.157 34.9988H103.028V35.0007Z" fill="#FFFFFF"/>
<path d="M112.322 33.2444V37.7848H111.538V36.9616C111.349 37.2932 111.108 37.5438 110.813 37.7174C110.52 37.8909 110.19 37.9776 109.826 37.9776C109.149 37.9776 108.603 37.754 108.189 37.3048C107.774 36.8555 107.568 36.2636 107.568 35.5252C107.568 34.7772 107.768 34.1833 108.171 33.7418C108.574 33.3003 109.112 33.0786 109.785 33.0786C110.18 33.0786 110.523 33.1634 110.813 33.335C111.102 33.5066 111.337 33.7592 111.516 34.0966V33.2425H112.322V33.2444ZM111.54 35.5561C111.54 35.0432 111.395 34.6306 111.104 34.3183C110.813 34.006 110.435 33.8498 109.966 33.8498C109.482 33.8498 109.103 33.9944 108.833 34.2817C108.561 34.5689 108.426 34.9719 108.426 35.4867C108.426 36.0361 108.563 36.4584 108.836 36.7572C109.11 37.0541 109.498 37.2045 109.999 37.2045C110.481 37.2045 110.857 37.0599 111.131 36.7707C111.403 36.4796 111.54 36.0766 111.54 35.5561Z" fill="#FFFFFF"/>
<path d="M117.409 36.7071V37.6094C117.195 37.7309 116.956 37.8234 116.69 37.8851C116.423 37.9468 116.134 37.9777 115.826 37.9777C115.097 37.9777 114.511 37.7559 114.066 37.3106C113.62 36.8652 113.398 36.281 113.398 35.5561C113.398 34.8273 113.628 34.2335 114.089 33.7727C114.549 33.3119 115.139 33.0806 115.857 33.0806C116.117 33.0806 116.373 33.1076 116.622 33.1596C116.871 33.2117 117.106 33.2907 117.326 33.3929V34.2258C117.119 34.0966 116.905 33.9983 116.686 33.9308C116.466 33.8633 116.242 33.8286 116.015 33.8286C115.485 33.8286 115.06 33.9886 114.74 34.3068C114.42 34.6268 114.26 35.051 114.26 35.5792C114.26 36.0458 114.42 36.4353 114.742 36.7495C115.064 37.0638 115.467 37.2219 115.951 37.2219C116.196 37.2219 116.433 37.1814 116.668 37.0985C116.905 37.0175 117.15 36.8864 117.409 36.7071Z" fill="#FFFFFF"/>
<path d="M118.509 33.8845H117.644V33.2444H118.509V31.4128H119.334V33.2444H120.2V33.8845H119.334V37.7848H118.509V33.8845Z" fill="#FFFFFF"/>
<path d="M120.819 31.0561C120.819 30.8999 120.877 30.7669 120.992 30.657C121.108 30.5471 121.247 30.4912 121.413 30.4912C121.575 30.4912 121.712 30.5471 121.827 30.6609C121.943 30.7727 122.001 30.9096 122.001 31.0677C122.001 31.2238 121.945 31.355 121.831 31.4648C121.717 31.5747 121.578 31.6287 121.413 31.6287C121.247 31.6287 121.108 31.5747 120.992 31.4648C120.877 31.353 120.819 31.2181 120.819 31.0561ZM121.01 37.7848V33.2444H121.823V37.7848H121.01Z" fill="#FFFFFF"/>
<path d="M124.931 38.0682L122.597 33.2444H123.505L124.922 36.4159L126.345 33.2444H127.253L124.931 38.0682Z" fill="#FFFFFF"/>
<path d="M127.594 35.5272C127.594 35.1936 127.658 34.8775 127.785 34.5825C127.912 34.2856 128.097 34.0234 128.342 33.7901C128.587 33.5587 128.863 33.3833 129.173 33.2618C129.482 33.1403 129.813 33.0806 130.162 33.0806C130.506 33.0806 130.831 33.1423 131.14 33.2637C131.448 33.3852 131.726 33.5645 131.978 33.7997C132.223 34.0272 132.408 34.2894 132.536 34.5863C132.663 34.8832 132.727 35.1956 132.727 35.5272C132.727 35.8588 132.663 36.1692 132.536 36.4623C132.408 36.7553 132.223 37.0156 131.978 37.2431C131.728 37.4822 131.446 37.6634 131.136 37.7887C130.826 37.914 130.502 37.9777 130.164 37.9777C129.817 37.9777 129.488 37.916 129.177 37.7926C128.867 37.6692 128.589 37.4899 128.344 37.2585C128.099 37.0194 127.914 36.7553 127.787 36.4642C127.658 36.1731 127.594 35.8607 127.594 35.5272ZM128.45 35.5272C128.45 36.0073 128.616 36.4121 128.95 36.7457C129.283 37.0773 129.686 37.245 130.162 37.245C130.633 37.245 131.034 37.0792 131.363 36.7457C131.693 36.4141 131.859 36.0073 131.859 35.5272C131.859 35.0471 131.693 34.6422 131.363 34.3087C131.034 33.9771 130.633 33.8093 130.162 33.8093C129.684 33.8093 129.279 33.9752 128.948 34.3087C128.616 34.6403 128.45 35.0471 128.45 35.5272Z" fill="#FFFFFF"/>
<path d="M133.333 37.0212L134.024 36.5739C134.155 36.8149 134.319 36.9961 134.519 37.1176C134.718 37.239 134.953 37.2988 135.225 37.2988C135.489 37.2988 135.703 37.2352 135.867 37.1098C136.031 36.9845 136.112 36.8187 136.112 36.6144C136.112 36.4563 136.056 36.3232 135.944 36.2172C135.832 36.1111 135.641 36.0128 135.369 35.9241C135.342 35.9145 135.298 35.8991 135.234 35.8798C134.085 35.5 133.513 35.0238 133.513 34.4511C133.513 34.0482 133.667 33.7185 133.977 33.464C134.288 33.2095 134.689 33.0823 135.184 33.0823C135.593 33.0823 135.944 33.1613 136.237 33.3175C136.528 33.4756 136.738 33.6973 136.866 33.9846L136.21 34.3721C136.114 34.1639 135.973 34.0039 135.784 33.8901C135.597 33.7783 135.379 33.7204 135.132 33.7204C134.895 33.7204 134.702 33.7841 134.552 33.9113C134.402 34.0386 134.328 34.2024 134.328 34.401C134.328 34.6786 134.641 34.9119 135.267 35.1009C135.385 35.1375 135.477 35.1645 135.545 35.1857C136.058 35.3438 136.414 35.525 136.615 35.7294C136.815 35.9318 136.916 36.2018 136.916 36.5353C136.916 36.9652 136.756 37.3142 136.439 37.5803C136.121 37.8463 135.707 37.9794 135.194 37.9794C134.754 37.9794 134.38 37.9003 134.072 37.7403C133.765 37.5803 133.519 37.3412 133.333 37.0212Z" fill="#FFFFFF"/>
</svg>
