<svg width="100" height="21" viewBox="0 0 100 21" fill="none" xmlns="http://www.w3.org/2000/svg">
<rect width="100" height="21" rx="5" fill="#62E700"/>
<path d="M26.5503 7.05C27.2903 7.05 27.9369 7.19333 28.4903 7.48C29.0503 7.76 29.4803 8.16667 29.7803 8.7C30.0869 9.22667 30.2403 9.84333 30.2403 10.55C30.2403 11.2567 30.0869 11.87 29.7803 12.39C29.4803 12.91 29.0503 13.31 28.4903 13.59C27.9369 13.8633 27.2903 14 26.5503 14H24.2803V7.05H26.5503ZM26.5503 13.07C27.3636 13.07 27.9869 12.85 28.4203 12.41C28.8536 11.97 29.0703 11.35 29.0703 10.55C29.0703 9.74333 28.8536 9.11333 28.4203 8.66C27.9869 8.20667 27.3636 7.98 26.5503 7.98H25.4203V13.07H26.5503ZM31.9501 7.76C31.7435 7.76 31.5701 7.69 31.4301 7.55C31.2901 7.41 31.2201 7.23667 31.2201 7.03C31.2201 6.82333 31.2901 6.65 31.4301 6.51C31.5701 6.37 31.7435 6.3 31.9501 6.3C32.1501 6.3 32.3201 6.37 32.4601 6.51C32.6001 6.65 32.6701 6.82333 32.6701 7.03C32.6701 7.23667 32.6001 7.41 32.4601 7.55C32.3201 7.69 32.1501 7.76 31.9501 7.76ZM32.5101 8.49V14H31.3701V8.49H32.5101ZM36.0068 14.09C35.5735 14.09 35.1835 14.0133 34.8368 13.86C34.4968 13.7 34.2268 13.4867 34.0268 13.22C33.8268 12.9467 33.7202 12.6433 33.7068 12.31H34.8868C34.9068 12.5433 35.0168 12.74 35.2168 12.9C35.4235 13.0533 35.6802 13.13 35.9868 13.13C36.3068 13.13 36.5535 13.07 36.7268 12.95C36.9068 12.8233 36.9968 12.6633 36.9968 12.47C36.9968 12.2633 36.8968 12.11 36.6968 12.01C36.5035 11.91 36.1935 11.8 35.7668 11.68C35.3535 11.5667 35.0168 11.4567 34.7568 11.35C34.4968 11.2433 34.2702 11.08 34.0768 10.86C33.8902 10.64 33.7968 10.35 33.7968 9.99C33.7968 9.69667 33.8835 9.43 34.0568 9.19C34.2302 8.94333 34.4768 8.75 34.7968 8.61C35.1235 8.47 35.4968 8.4 35.9168 8.4C36.5435 8.4 37.0468 8.56 37.4268 8.88C37.8135 9.19333 38.0202 9.62333 38.0468 10.17H36.9068C36.8868 9.92333 36.7868 9.72667 36.6068 9.58C36.4268 9.43333 36.1835 9.36 35.8768 9.36C35.5768 9.36 35.3468 9.41667 35.1868 9.53C35.0268 9.64333 34.9468 9.79333 34.9468 9.98C34.9468 10.1267 35.0002 10.25 35.1068 10.35C35.2135 10.45 35.3435 10.53 35.4968 10.59C35.6502 10.6433 35.8768 10.7133 36.1768 10.8C36.5768 10.9067 36.9035 11.0167 37.1568 11.13C37.4168 11.2367 37.6402 11.3967 37.8268 11.61C38.0135 11.8233 38.1102 12.1067 38.1168 12.46C38.1168 12.7733 38.0302 13.0533 37.8568 13.3C37.6835 13.5467 37.4368 13.74 37.1168 13.88C36.8035 14.02 36.4335 14.09 36.0068 14.09ZM40.4886 9.3C40.682 9.04667 40.9453 8.83333 41.2786 8.66C41.612 8.48667 41.9886 8.4 42.4086 8.4C42.8886 8.4 43.3253 8.52 43.7186 8.76C44.1186 8.99333 44.432 9.32333 44.6586 9.75C44.8853 10.1767 44.9986 10.6667 44.9986 11.22C44.9986 11.7733 44.8853 12.27 44.6586 12.71C44.432 13.1433 44.1186 13.4833 43.7186 13.73C43.3253 13.97 42.8886 14.09 42.4086 14.09C41.9886 14.09 41.6153 14.0067 41.2886 13.84C40.962 13.6667 40.6953 13.4533 40.4886 13.2V16.62H39.3486V8.49H40.4886V9.3ZM43.8386 11.22C43.8386 10.84 43.7586 10.5133 43.5986 10.24C43.4453 9.96 43.2386 9.75 42.9786 9.61C42.7253 9.46333 42.452 9.39 42.1586 9.39C41.872 9.39 41.5986 9.46333 41.3386 9.61C41.0853 9.75667 40.8786 9.97 40.7186 10.25C40.5653 10.53 40.4886 10.86 40.4886 11.24C40.4886 11.62 40.5653 11.9533 40.7186 12.24C40.8786 12.52 41.0853 12.7333 41.3386 12.88C41.5986 13.0267 41.872 13.1 42.1586 13.1C42.452 13.1 42.7253 13.0267 42.9786 12.88C43.2386 12.7267 43.4453 12.5067 43.5986 12.22C43.7586 11.9333 43.8386 11.6 43.8386 11.22ZM48.516 14.09C47.996 14.09 47.526 13.9733 47.106 13.74C46.686 13.5 46.356 13.1667 46.116 12.74C45.876 12.3067 45.756 11.8067 45.756 11.24C45.756 10.68 45.8793 10.1833 46.126 9.75C46.3726 9.31667 46.7093 8.98333 47.136 8.75C47.5626 8.51667 48.0393 8.4 48.566 8.4C49.0926 8.4 49.5693 8.51667 49.996 8.75C50.4226 8.98333 50.7593 9.31667 51.006 9.75C51.2526 10.1833 51.376 10.68 51.376 11.24C51.376 11.8 51.2493 12.2967 50.996 12.73C50.7426 13.1633 50.396 13.5 49.956 13.74C49.5226 13.9733 49.0426 14.09 48.516 14.09ZM48.516 13.1C48.8093 13.1 49.0826 13.03 49.336 12.89C49.596 12.75 49.806 12.54 49.966 12.26C50.126 11.98 50.206 11.64 50.206 11.24C50.206 10.84 50.1293 10.5033 49.976 10.23C49.8226 9.95 49.6193 9.74 49.366 9.6C49.1126 9.46 48.8393 9.39 48.546 9.39C48.2526 9.39 47.9793 9.46 47.726 9.6C47.4793 9.74 47.2826 9.95 47.136 10.23C46.9893 10.5033 46.916 10.84 46.916 11.24C46.916 11.8333 47.066 12.2933 47.366 12.62C47.6726 12.94 48.056 13.1 48.516 13.1ZM55.2829 8.4C55.7163 8.4 56.1029 8.49 56.4429 8.67C56.7896 8.85 57.0596 9.11667 57.2529 9.47C57.4463 9.82333 57.5429 10.25 57.5429 10.75V14H56.4129V10.92C56.4129 10.4267 56.2896 10.05 56.0429 9.79C55.7963 9.52333 55.4596 9.39 55.0329 9.39C54.6063 9.39 54.2663 9.52333 54.0129 9.79C53.7663 10.05 53.6429 10.4267 53.6429 10.92V14H52.5029V8.49H53.6429V9.12C53.8296 8.89333 54.0663 8.71667 54.3529 8.59C54.6463 8.46333 54.9563 8.4 55.2829 8.4ZM59.5771 7.76C59.3704 7.76 59.1971 7.69 59.0571 7.55C58.9171 7.41 58.8471 7.23667 58.8471 7.03C58.8471 6.82333 58.9171 6.65 59.0571 6.51C59.1971 6.37 59.3704 6.3 59.5771 6.3C59.7771 6.3 59.9471 6.37 60.0871 6.51C60.2271 6.65 60.2971 6.82333 60.2971 7.03C60.2971 7.23667 60.2271 7.41 60.0871 7.55C59.9471 7.69 59.7771 7.76 59.5771 7.76ZM60.1371 8.49V14H58.9971V8.49H60.1371ZM62.7738 9.31C62.9671 9.04333 63.2305 8.82667 63.5638 8.66C63.9038 8.48667 64.2805 8.4 64.6938 8.4C65.1805 8.4 65.6205 8.51667 66.0138 8.75C66.4071 8.98333 66.7171 9.31667 66.9438 9.75C67.1705 10.1767 67.2838 10.6667 67.2838 11.22C67.2838 11.7733 67.1705 12.27 66.9438 12.71C66.7171 13.1433 66.4038 13.4833 66.0038 13.73C65.6105 13.97 65.1738 14.09 64.6938 14.09C64.2671 14.09 63.8871 14.0067 63.5538 13.84C63.2271 13.6733 62.9671 13.46 62.7738 13.2V14H61.6338V6.6H62.7738V9.31ZM66.1238 11.22C66.1238 10.84 66.0438 10.5133 65.8838 10.24C65.7305 9.96 65.5238 9.75 65.2638 9.61C65.0105 9.46333 64.7371 9.39 64.4438 9.39C64.1571 9.39 63.8838 9.46333 63.6238 9.61C63.3705 9.75667 63.1638 9.97 63.0038 10.25C62.8505 10.53 62.7738 10.86 62.7738 11.24C62.7738 11.62 62.8505 11.9533 63.0038 12.24C63.1638 12.52 63.3705 12.7333 63.6238 12.88C63.8838 13.0267 64.1571 13.1 64.4438 13.1C64.7371 13.1 65.0105 13.0267 65.2638 12.88C65.5238 12.7267 65.7305 12.5067 65.8838 12.22C66.0438 11.9333 66.1238 11.6 66.1238 11.22ZM69.5511 6.6V14H68.4111V6.6H69.5511ZM76.0979 11.11C76.0979 11.3167 76.0845 11.5033 76.0579 11.67H71.8479C71.8812 12.11 72.0445 12.4633 72.3379 12.73C72.6312 12.9967 72.9912 13.13 73.4179 13.13C74.0312 13.13 74.4645 12.8733 74.7179 12.36H75.9479C75.7812 12.8667 75.4779 13.2833 75.0379 13.61C74.6045 13.93 74.0645 14.09 73.4179 14.09C72.8912 14.09 72.4179 13.9733 71.9979 13.74C71.5845 13.5 71.2579 13.1667 71.0179 12.74C70.7845 12.3067 70.6679 11.8067 70.6679 11.24C70.6679 10.6733 70.7812 10.1767 71.0079 9.75C71.2412 9.31667 71.5645 8.98333 71.9779 8.75C72.3979 8.51667 72.8779 8.4 73.4179 8.4C73.9379 8.4 74.4012 8.51333 74.8079 8.74C75.2145 8.96667 75.5312 9.28667 75.7579 9.7C75.9845 10.1067 76.0979 10.5767 76.0979 11.11ZM74.9079 10.75C74.9012 10.33 74.7512 9.99333 74.4579 9.74C74.1645 9.48667 73.8012 9.36 73.3679 9.36C72.9745 9.36 72.6379 9.48667 72.3579 9.74C72.0779 9.98667 71.9112 10.3233 71.8579 10.75H74.9079Z" fill="#112876"/>
</svg>
