<svg width="258" height="44" viewBox="0 0 258 44" fill="none" xmlns="http://www.w3.org/2000/svg">
<path d="M14 17.624V18.98H10.508V21.128H13.184V22.46H10.508V26H8.828V17.624H14ZM17.0313 18.98V21.08H19.8513V22.412H17.0313V24.632H20.2113V26H15.3513V17.612H20.2113V18.98H17.0313ZM21.49 21.8C21.49 20.976 21.674 20.24 22.042 19.592C22.418 18.936 22.926 18.428 23.566 18.068C24.214 17.7 24.938 17.516 25.738 17.516C26.674 17.516 27.494 17.756 28.198 18.236C28.902 18.716 29.394 19.38 29.674 20.228H27.742C27.55 19.828 27.278 19.528 26.926 19.328C26.582 19.128 26.182 19.028 25.726 19.028C25.238 19.028 24.802 19.144 24.418 19.376C24.042 19.6 23.746 19.92 23.53 20.336C23.322 20.752 23.218 21.24 23.218 21.8C23.218 22.352 23.322 22.84 23.53 23.264C23.746 23.68 24.042 24.004 24.418 24.236C24.802 24.46 25.238 24.572 25.726 24.572C26.182 24.572 26.582 24.472 26.926 24.272C27.278 24.064 27.55 23.76 27.742 23.36H29.674C29.394 24.216 28.902 24.884 28.198 25.364C27.502 25.836 26.682 26.072 25.738 26.072C24.938 26.072 24.214 25.892 23.566 25.532C22.926 25.164 22.418 24.656 22.042 24.008C21.674 23.36 21.49 22.624 21.49 21.8ZM38.2169 17.624V26H36.5369V22.436H32.9489V26H31.2689V17.624H32.9489V21.068H36.5369V17.624H38.2169ZM45.1665 24.404H41.8305L41.2785 26H39.5145L42.5265 17.612H44.4825L47.4945 26H45.7185L45.1665 24.404ZM44.7105 23.06L43.4985 19.556L42.2865 23.06H44.7105ZM54.7277 17.624C55.6077 17.624 56.3797 17.796 57.0437 18.14C57.7157 18.484 58.2317 18.976 58.5917 19.616C58.9597 20.248 59.1437 20.984 59.1437 21.824C59.1437 22.664 58.9597 23.4 58.5917 24.032C58.2317 24.656 57.7157 25.14 57.0437 25.484C56.3797 25.828 55.6077 26 54.7277 26H51.7997V17.624H54.7277ZM54.6677 24.572C55.5477 24.572 56.2277 24.332 56.7077 23.852C57.1877 23.372 57.4277 22.696 57.4277 21.824C57.4277 20.952 57.1877 20.272 56.7077 19.784C56.2277 19.288 55.5477 19.04 54.6677 19.04H53.4797V24.572H54.6677ZM62.2413 18.98V21.08H65.0613V22.412H62.2413V24.632H65.4213V26H60.5613V17.612H65.4213V18.98H62.2413ZM73.0194 26.084C72.4354 26.084 71.9074 25.984 71.4354 25.784C70.9714 25.584 70.6034 25.296 70.3314 24.92C70.0594 24.544 69.9194 24.1 69.9114 23.588H71.7114C71.7354 23.932 71.8554 24.204 72.0714 24.404C72.2954 24.604 72.5994 24.704 72.9834 24.704C73.3754 24.704 73.6834 24.612 73.9074 24.428C74.1314 24.236 74.2434 23.988 74.2434 23.684C74.2434 23.436 74.1674 23.232 74.0154 23.072C73.8634 22.912 73.6714 22.788 73.4394 22.7C73.2154 22.604 72.9034 22.5 72.5034 22.388C71.9594 22.228 71.5154 22.072 71.1714 21.92C70.8354 21.76 70.5434 21.524 70.2954 21.212C70.0554 20.892 69.9354 20.468 69.9354 19.94C69.9354 19.444 70.0594 19.012 70.3074 18.644C70.5554 18.276 70.9034 17.996 71.3514 17.804C71.7994 17.604 72.3114 17.504 72.8874 17.504C73.7514 17.504 74.4514 17.716 74.9874 18.14C75.5314 18.556 75.8314 19.14 75.8874 19.892H74.0394C74.0234 19.604 73.8994 19.368 73.6674 19.184C73.4434 18.992 73.1434 18.896 72.7674 18.896C72.4394 18.896 72.1754 18.98 71.9754 19.148C71.7834 19.316 71.6874 19.56 71.6874 19.88C71.6874 20.104 71.7594 20.292 71.9034 20.444C72.0554 20.588 72.2394 20.708 72.4554 20.804C72.6794 20.892 72.9914 20.996 73.3914 21.116C73.9354 21.276 74.3794 21.436 74.7234 21.596C75.0674 21.756 75.3634 21.996 75.6114 22.316C75.8594 22.636 75.9834 23.056 75.9834 23.576C75.9834 24.024 75.8674 24.44 75.6354 24.824C75.4034 25.208 75.0634 25.516 74.6154 25.748C74.1674 25.972 73.6354 26.084 73.0194 26.084ZM81.4879 26.084C80.7039 26.084 79.9839 25.9 79.3279 25.532C78.6719 25.164 78.1519 24.656 77.7679 24.008C77.3839 23.352 77.1919 22.612 77.1919 21.788C77.1919 20.972 77.3839 20.24 77.7679 19.592C78.1519 18.936 78.6719 18.424 79.3279 18.056C79.9839 17.688 80.7039 17.504 81.4879 17.504C82.2799 17.504 82.9999 17.688 83.6479 18.056C84.3039 18.424 84.8199 18.936 85.1959 19.592C85.5799 20.24 85.7719 20.972 85.7719 21.788C85.7719 22.612 85.5799 23.352 85.1959 24.008C84.8199 24.656 84.3039 25.164 83.6479 25.532C82.9919 25.9 82.2719 26.084 81.4879 26.084ZM81.4879 24.584C81.9919 24.584 82.4359 24.472 82.8199 24.248C83.2039 24.016 83.5039 23.688 83.7199 23.264C83.9359 22.84 84.0439 22.348 84.0439 21.788C84.0439 21.228 83.9359 20.74 83.7199 20.324C83.5039 19.9 83.2039 19.576 82.8199 19.352C82.4359 19.128 81.9919 19.016 81.4879 19.016C80.9839 19.016 80.5359 19.128 80.1439 19.352C79.7599 19.576 79.4599 19.9 79.2439 20.324C79.0279 20.74 78.9199 21.228 78.9199 21.788C78.9199 22.348 79.0279 22.84 79.2439 23.264C79.4599 23.688 79.7599 24.016 80.1439 24.248C80.5359 24.472 80.9839 24.584 81.4879 24.584ZM88.8618 24.668H91.6218V26H87.1818V17.624H88.8618V24.668ZM94.5296 17.624V26H92.8496V17.624H94.5296ZM95.9414 21.8C95.9414 20.976 96.1254 20.24 96.4934 19.592C96.8694 18.936 97.3774 18.428 98.0174 18.068C98.6654 17.7 99.3894 17.516 100.189 17.516C101.125 17.516 101.945 17.756 102.649 18.236C103.353 18.716 103.845 19.38 104.125 20.228H102.193C102.001 19.828 101.729 19.528 101.377 19.328C101.033 19.128 100.633 19.028 100.177 19.028C99.6894 19.028 99.2534 19.144 98.8694 19.376C98.4934 19.6 98.1974 19.92 97.9814 20.336C97.7734 20.752 97.6694 21.24 97.6694 21.8C97.6694 22.352 97.7734 22.84 97.9814 23.264C98.1974 23.68 98.4934 24.004 98.8694 24.236C99.2534 24.46 99.6894 24.572 100.177 24.572C100.633 24.572 101.033 24.472 101.377 24.272C101.729 24.064 102.001 23.76 102.193 23.36H104.125C103.845 24.216 103.353 24.884 102.649 25.364C101.953 25.836 101.133 26.072 100.189 26.072C99.3894 26.072 98.6654 25.892 98.0174 25.532C97.3774 25.164 96.8694 24.656 96.4934 24.008C96.1254 23.36 95.9414 22.624 95.9414 21.8ZM107.4 17.624V26H105.72V17.624H107.4ZM114.92 17.624V18.98H112.688V26H111.008V18.98H108.776V17.624H114.92ZM117.962 17.624V22.808C117.962 23.376 118.11 23.812 118.406 24.116C118.702 24.412 119.118 24.56 119.654 24.56C120.198 24.56 120.618 24.412 120.914 24.116C121.21 23.812 121.358 23.376 121.358 22.808V17.624H123.05V22.796C123.05 23.508 122.894 24.112 122.582 24.608C122.278 25.096 121.866 25.464 121.346 25.712C120.834 25.96 120.262 26.084 119.63 26.084C119.006 26.084 118.438 25.96 117.926 25.712C117.422 25.464 117.022 25.096 116.726 24.608C116.43 24.112 116.282 23.508 116.282 22.796V17.624H117.962ZM127.761 17.624C128.641 17.624 129.413 17.796 130.077 18.14C130.749 18.484 131.265 18.976 131.625 19.616C131.993 20.248 132.177 20.984 132.177 21.824C132.177 22.664 131.993 23.4 131.625 24.032C131.265 24.656 130.749 25.14 130.077 25.484C129.413 25.828 128.641 26 127.761 26H124.833V17.624H127.761ZM127.701 24.572C128.581 24.572 129.261 24.332 129.741 23.852C130.221 23.372 130.461 22.696 130.461 21.824C130.461 20.952 130.221 20.272 129.741 19.784C129.261 19.288 128.581 19.04 127.701 19.04H126.513V24.572H127.701ZM134.339 26.084C134.035 26.084 133.783 25.992 133.583 25.808C133.391 25.616 133.295 25.38 133.295 25.1C133.295 24.82 133.391 24.588 133.583 24.404C133.783 24.212 134.035 24.116 134.339 24.116C134.635 24.116 134.879 24.212 135.071 24.404C135.263 24.588 135.359 24.82 135.359 25.1C135.359 25.38 135.263 25.616 135.071 25.808C134.879 25.992 134.635 26.084 134.339 26.084ZM134.339 21.116C134.035 21.116 133.783 21.024 133.583 20.84C133.391 20.648 133.295 20.412 133.295 20.132C133.295 19.852 133.391 19.62 133.583 19.436C133.783 19.244 134.035 19.148 134.339 19.148C134.635 19.148 134.879 19.244 135.071 19.436C135.263 19.62 135.359 19.852 135.359 20.132C135.359 20.412 135.263 20.648 135.071 20.84C134.879 21.024 134.635 21.116 134.339 21.116ZM139.758 19.556C139.798 18.756 140.078 18.14 140.598 17.708C141.126 17.268 141.818 17.048 142.674 17.048C143.258 17.048 143.758 17.152 144.174 17.36C144.59 17.56 144.902 17.836 145.11 18.188C145.326 18.532 145.434 18.924 145.434 19.364C145.434 19.868 145.302 20.296 145.038 20.648C144.782 20.992 144.474 21.224 144.114 21.344V21.392C144.578 21.536 144.938 21.792 145.194 22.16C145.458 22.528 145.59 23 145.59 23.576C145.59 24.056 145.478 24.484 145.254 24.86C145.038 25.236 144.714 25.532 144.282 25.748C143.858 25.956 143.346 26.06 142.746 26.06C141.842 26.06 141.106 25.832 140.538 25.376C139.97 24.92 139.67 24.248 139.638 23.36H141.27C141.286 23.752 141.418 24.068 141.666 24.308C141.922 24.54 142.27 24.656 142.71 24.656C143.118 24.656 143.43 24.544 143.646 24.32C143.87 24.088 143.982 23.792 143.982 23.432C143.982 22.952 143.83 22.608 143.526 22.4C143.222 22.192 142.75 22.088 142.11 22.088H141.762V20.708H142.11C143.246 20.708 143.814 20.328 143.814 19.568C143.814 19.224 143.71 18.956 143.502 18.764C143.302 18.572 143.01 18.476 142.626 18.476C142.25 18.476 141.958 18.58 141.75 18.788C141.55 18.988 141.434 19.244 141.402 19.556H139.758ZM146.874 18.8V17.252H149.766V26H148.038V18.8H146.874ZM156.278 14.636L153.038 28.172H151.394L154.634 14.636H156.278ZM157.378 18.8V17.252H160.27V26H158.542V18.8H157.378ZM162.617 24.104C163.385 23.464 163.997 22.932 164.453 22.508C164.909 22.076 165.289 21.628 165.593 21.164C165.897 20.7 166.049 20.244 166.049 19.796C166.049 19.388 165.953 19.068 165.761 18.836C165.569 18.604 165.273 18.488 164.873 18.488C164.473 18.488 164.165 18.624 163.949 18.896C163.733 19.16 163.621 19.524 163.613 19.988H161.981C162.013 19.028 162.297 18.3 162.833 17.804C163.377 17.308 164.065 17.06 164.897 17.06C165.809 17.06 166.509 17.304 166.997 17.792C167.485 18.272 167.729 18.908 167.729 19.7C167.729 20.324 167.561 20.92 167.225 21.488C166.889 22.056 166.505 22.552 166.073 22.976C165.641 23.392 165.077 23.896 164.381 24.488H167.921V25.88H161.993V24.632L162.617 24.104ZM173.832 14.636L170.592 28.172H168.948L172.188 14.636H173.832ZM175.664 24.104C176.432 23.464 177.044 22.932 177.5 22.508C177.956 22.076 178.336 21.628 178.64 21.164C178.944 20.7 179.096 20.244 179.096 19.796C179.096 19.388 179 19.068 178.808 18.836C178.616 18.604 178.32 18.488 177.92 18.488C177.52 18.488 177.212 18.624 176.996 18.896C176.78 19.16 176.668 19.524 176.66 19.988H175.028C175.06 19.028 175.344 18.3 175.88 17.804C176.424 17.308 177.112 17.06 177.944 17.06C178.856 17.06 179.556 17.304 180.044 17.792C180.532 18.272 180.776 18.908 180.776 19.7C180.776 20.324 180.608 20.92 180.272 21.488C179.936 22.056 179.552 22.552 179.12 22.976C178.688 23.392 178.124 23.896 177.428 24.488H180.968V25.88H175.04V24.632L175.664 24.104ZM182.186 21.512C182.186 20.128 182.434 19.044 182.93 18.26C183.434 17.476 184.266 17.084 185.426 17.084C186.586 17.084 187.414 17.476 187.91 18.26C188.414 19.044 188.666 20.128 188.666 21.512C188.666 22.904 188.414 23.996 187.91 24.788C187.414 25.58 186.586 25.976 185.426 25.976C184.266 25.976 183.434 25.58 182.93 24.788C182.434 23.996 182.186 22.904 182.186 21.512ZM187.01 21.512C187.01 20.92 186.97 20.424 186.89 20.024C186.818 19.616 186.666 19.284 186.434 19.028C186.21 18.772 185.874 18.644 185.426 18.644C184.978 18.644 184.638 18.772 184.406 19.028C184.182 19.284 184.03 19.616 183.95 20.024C183.878 20.424 183.842 20.92 183.842 21.512C183.842 22.12 183.878 22.632 183.95 23.048C184.022 23.456 184.174 23.788 184.406 24.044C184.638 24.292 184.978 24.416 185.426 24.416C185.874 24.416 186.214 24.292 186.446 24.044C186.678 23.788 186.83 23.456 186.902 23.048C186.974 22.632 187.01 22.12 187.01 21.512ZM190.632 24.104C191.4 23.464 192.012 22.932 192.468 22.508C192.924 22.076 193.304 21.628 193.608 21.164C193.912 20.7 194.064 20.244 194.064 19.796C194.064 19.388 193.968 19.068 193.776 18.836C193.584 18.604 193.288 18.488 192.888 18.488C192.488 18.488 192.18 18.624 191.964 18.896C191.748 19.16 191.636 19.524 191.628 19.988H189.996C190.028 19.028 190.312 18.3 190.848 17.804C191.392 17.308 192.08 17.06 192.912 17.06C193.824 17.06 194.524 17.304 195.012 17.792C195.5 18.272 195.744 18.908 195.744 19.7C195.744 20.324 195.576 20.92 195.24 21.488C194.904 22.056 194.52 22.552 194.088 22.976C193.656 23.392 193.092 23.896 192.396 24.488H195.936V25.88H190.008V24.632L190.632 24.104ZM197.155 21.512C197.155 20.128 197.403 19.044 197.899 18.26C198.403 17.476 199.235 17.084 200.395 17.084C201.555 17.084 202.383 17.476 202.879 18.26C203.383 19.044 203.635 20.128 203.635 21.512C203.635 22.904 203.383 23.996 202.879 24.788C202.383 25.58 201.555 25.976 200.395 25.976C199.235 25.976 198.403 25.58 197.899 24.788C197.403 23.996 197.155 22.904 197.155 21.512ZM201.979 21.512C201.979 20.92 201.939 20.424 201.859 20.024C201.787 19.616 201.635 19.284 201.403 19.028C201.179 18.772 200.843 18.644 200.395 18.644C199.947 18.644 199.607 18.772 199.375 19.028C199.151 19.284 198.999 19.616 198.919 20.024C198.847 20.424 198.811 20.92 198.811 21.512C198.811 22.12 198.847 22.632 198.919 23.048C198.991 23.456 199.143 23.788 199.375 24.044C199.607 24.292 199.947 24.416 200.395 24.416C200.843 24.416 201.183 24.292 201.415 24.044C201.647 23.788 201.799 23.456 201.871 23.048C201.943 22.632 201.979 22.12 201.979 21.512Z" fill="#14318E"/>
<path d="M241 15.3335C237.313 15.3335 234.333 18.3135 234.333 22.0002C234.333 25.6868 237.313 28.6668 241 28.6668C244.686 28.6668 247.666 25.6868 247.666 22.0002C247.666 18.3135 244.686 15.3335 241 15.3335ZM244.333 24.3935L243.393 25.3335L241 22.9402L238.606 25.3335L237.666 24.3935L240.06 22.0002L237.666 19.6068L238.606 18.6668L241 21.0602L243.393 18.6668L244.333 19.6068L241.94 22.0002L244.333 24.3935Z" fill="#14318E"/>
<path d="M221.079 26.7878L215.212 20.9211C214.929 20.6381 214.929 20.1794 215.212 19.8965L215.896 19.2122C216.179 18.9297 216.637 18.9292 216.92 19.211L221.591 23.8605L226.263 19.211C226.546 18.9292 227.004 18.9297 227.286 19.2122L227.97 19.8965C228.253 20.1794 228.253 20.6381 227.97 20.9211L222.104 26.7878C221.821 27.0707 221.362 27.0707 221.079 26.7878Z" fill="#14318E"/>
<rect x="0.5" y="0.5" width="257" height="43" rx="4.5" stroke="#2E48CB"/>
</svg>
