<svg width="57" height="35" viewBox="0 0 57 35" fill="none" xmlns="http://www.w3.org/2000/svg">
<path fill-rule="evenodd" clip-rule="evenodd" d="M24.0909 21.5199L24.2856 19.6605C23.6877 19.9354 23.046 20.1359 22.3584 20.1359C21.2691 20.1359 20.0134 19.627 19.7823 18.3057H25.8541C25.916 15.4153 24.4431 13.537 21.4973 13.537C18.8905 13.537 17.1916 15.2914 17.1916 17.6291C17.1916 20.3197 19.0932 21.9049 21.7911 21.9049C22.6034 21.9049 23.4165 21.7977 24.0909 21.5199ZM11.8395 21.9049C14.7058 21.9049 16.4383 20.1811 16.4383 17.2441V10.893H14.0941V14.4616C13.6646 14.0007 12.8042 13.5363 11.6419 13.5363C9.09708 13.5363 7.39229 15.2148 7.39229 17.7217C7.39229 20.1221 9.18677 21.9049 11.8395 21.9049ZM34.257 16.3239C34.2767 16.3239 34.2453 16.3268 34.2621 16.3239C34.51 14.3114 36.0143 13.5363 37.9473 13.5363C38.3141 13.5363 38.7596 13.6106 39.0775 13.6631C39.1993 13.6835 39.3021 13.7003 39.375 13.7091L38.9295 15.7697C38.7764 15.6895 38.3483 15.5852 37.9954 15.5852C36.8776 15.5852 36.5677 16.3217 36.5677 17.4759V21.7489H34.2089V16.8904C34.2089 14.5695 32.5245 13.5363 30.2867 13.5363C28.0467 13.5363 26.3594 14.5695 26.3594 16.8904V21.7496H28.7073V17.4759C28.7073 16.3209 29.1499 15.5852 30.2867 15.5852C31.4183 15.5852 31.8639 16.3217 31.8639 17.4759V21.7489H34.2089C32.3152 29.3635 25.4107 35 17.2368 35C9.24656 35 2.51417 29.6115 0.445521 22.2585C0.431667 22.2133 0.250833 21.5965 0.113021 20.8658C0.0875 20.736 0.0313542 20.3882 0 20.1279L0.0204167 20.2081C0.0277083 20.2336 0.035 20.2606 0.048125 20.3146C0.146563 20.7105 0.347083 20.9511 0.358021 20.9628C0.852396 21.6081 1.64792 21.6956 1.64792 21.6956V21.6927C1.85063 21.7292 2.06573 21.7496 2.28813 21.7496H6.8899L7.22604 19.6605H3.06979C2.42667 19.6605 2.0876 19.2901 2.0876 18.5063V17.2127H6.1549L6.49031 15.198H2.0876V12.9843H6.94969L7.27052 10.893H1.07844C3.67937 4.50625 9.93198 0 17.2368 0C26.4775 0 33.6474 7.20854 34.257 16.3239ZM52.4891 15.5947C51.2444 15.5947 50.4583 16.4806 50.4583 17.7173C50.4583 18.9401 51.2582 19.8567 52.4891 19.8567C53.7199 19.8567 54.5526 18.9853 54.5526 17.7173C54.5526 16.4529 53.7199 15.5954 52.4891 15.5954V15.5947ZM54.6036 14.4791V10.9375H56.875V17.2448C56.875 20.1629 55.1994 21.875 52.4234 21.875C49.8582 21.875 48.125 20.1009 48.125 17.7173C48.125 15.2301 49.7678 13.5632 52.2324 13.5632C53.3597 13.5632 54.1895 14.0211 54.6044 14.4791H54.6036ZM41.9307 16.9203C42.1305 16.0789 42.7831 15.4474 43.8032 15.4474C44.7635 15.4474 45.4439 15.9921 45.5671 16.9203H41.9307ZM39.375 17.7749C39.375 20.3561 41.2927 21.875 44.0198 21.875C44.8401 21.875 45.6641 21.7722 46.3422 21.506L46.5391 19.7232C45.9346 19.9865 45.2907 20.179 44.5951 20.179C43.4955 20.179 42.2246 19.6904 41.9905 18.4239H48.1228C48.1855 15.653 46.698 13.8542 43.7259 13.8542C41.0936 13.8542 39.375 15.5334 39.375 17.7749ZM21.614 15.1988C22.5648 15.1988 23.24 15.7675 23.361 16.7358H19.7604C19.9573 15.8608 20.6041 15.1988 21.614 15.1988ZM9.47917 17.7217C9.47917 18.9525 10.306 19.8749 11.5784 19.8749C12.8508 19.8749 13.7083 18.9977 13.7083 17.7209C13.7083 16.4449 12.8508 15.5845 11.5784 15.5845C10.2893 15.5845 9.47917 16.4755 9.47917 17.7209V17.7217Z" fill="#F72717"/>
</svg>
