<svg width="231" height="44" viewBox="0 0 231 44" fill="none" xmlns="http://www.w3.org/2000/svg">
<path d="M17.96 17.624V26H16.28V20.552L14.036 26H12.764L10.508 20.552V26H8.828V17.624H10.736L13.4 23.852L16.064 17.624H17.96ZM24.917 24.404H21.581L21.029 26H19.265L22.277 17.612H24.233L27.245 26H25.469L24.917 24.404ZM24.461 23.06L23.249 19.556L22.037 23.06H24.461ZM32.8508 26L31.0028 22.736H30.2108V26H28.5308V17.624H31.6748C32.3228 17.624 32.8748 17.74 33.3308 17.972C33.7868 18.196 34.1268 18.504 34.3508 18.896C34.5828 19.28 34.6988 19.712 34.6988 20.192C34.6988 20.744 34.5388 21.244 34.2188 21.692C33.8988 22.132 33.4228 22.436 32.7908 22.604L34.7948 26H32.8508ZM30.2108 21.476H31.6148C32.0708 21.476 32.4108 21.368 32.6348 21.152C32.8588 20.928 32.9708 20.62 32.9708 20.228C32.9708 19.844 32.8588 19.548 32.6348 19.34C32.4108 19.124 32.0708 19.016 31.6148 19.016H30.2108V21.476ZM35.9703 21.8C35.9703 20.976 36.1543 20.24 36.5223 19.592C36.8983 18.936 37.4063 18.428 38.0463 18.068C38.6943 17.7 39.4183 17.516 40.2183 17.516C41.1543 17.516 41.9743 17.756 42.6783 18.236C43.3823 18.716 43.8743 19.38 44.1543 20.228H42.2223C42.0303 19.828 41.7583 19.528 41.4063 19.328C41.0623 19.128 40.6623 19.028 40.2063 19.028C39.7183 19.028 39.2823 19.144 38.8983 19.376C38.5223 19.6 38.2263 19.92 38.0103 20.336C37.8023 20.752 37.6983 21.24 37.6983 21.8C37.6983 22.352 37.8023 22.84 38.0103 23.264C38.2263 23.68 38.5223 24.004 38.8983 24.236C39.2823 24.46 39.7183 24.572 40.2063 24.572C40.6623 24.572 41.0623 24.472 41.4063 24.272C41.7583 24.064 42.0303 23.76 42.2223 23.36H44.1543C43.8743 24.216 43.3823 24.884 42.6783 25.364C41.9823 25.836 41.1623 26.072 40.2183 26.072C39.4183 26.072 38.6943 25.892 38.0463 25.532C37.4063 25.164 36.8983 24.656 36.5223 24.008C36.1543 23.36 35.9703 22.624 35.9703 21.8ZM50.8852 24.404H47.5492L46.9972 26H45.2332L48.2452 17.612H50.2012L53.2132 26H51.4372L50.8852 24.404ZM50.4292 23.06L49.2172 19.556L48.0052 23.06H50.4292ZM60.4465 17.624C61.3265 17.624 62.0985 17.796 62.7625 18.14C63.4345 18.484 63.9505 18.976 64.3105 19.616C64.6785 20.248 64.8625 20.984 64.8625 21.824C64.8625 22.664 64.6785 23.4 64.3105 24.032C63.9505 24.656 63.4345 25.14 62.7625 25.484C62.0985 25.828 61.3265 26 60.4465 26H57.5185V17.624H60.4465ZM60.3865 24.572C61.2665 24.572 61.9465 24.332 62.4265 23.852C62.9065 23.372 63.1465 22.696 63.1465 21.824C63.1465 20.952 62.9065 20.272 62.4265 19.784C61.9465 19.288 61.2665 19.04 60.3865 19.04H59.1985V24.572H60.3865ZM67.96 18.98V21.08H70.78V22.412H67.96V24.632H71.14V26H66.28V17.612H71.14V18.98H67.96ZM77.5261 24.668H80.2861V26H75.8461V17.624H77.5261V24.668ZM83.1939 24.668H85.9539V26H81.5139V17.624H83.1939V24.668ZM92.3178 24.404H88.9818L88.4298 26H86.6658L89.6778 17.612H91.6338L94.6458 26H92.8698L92.3178 24.404ZM91.8618 23.06L90.6498 19.556L89.4378 23.06H91.8618ZM103.096 26H101.416L97.6116 20.252V26H95.9316V17.612H97.6116L101.416 23.372V17.612H103.096V26ZM110.616 17.624V18.98H108.384V26H106.704V18.98H104.472V17.624H110.616ZM117.138 24.404H113.802L113.25 26H111.486L114.498 17.612H116.454L119.466 26H117.69L117.138 24.404ZM116.682 23.06L115.47 19.556L114.258 23.06H116.682ZM121.495 26.084C121.191 26.084 120.939 25.992 120.739 25.808C120.547 25.616 120.451 25.38 120.451 25.1C120.451 24.82 120.547 24.588 120.739 24.404C120.939 24.212 121.191 24.116 121.495 24.116C121.791 24.116 122.035 24.212 122.227 24.404C122.419 24.588 122.515 24.82 122.515 25.1C122.515 25.38 122.419 25.616 122.227 25.808C122.035 25.992 121.791 26.084 121.495 26.084ZM121.495 21.116C121.191 21.116 120.939 21.024 120.739 20.84C120.547 20.648 120.451 20.412 120.451 20.132C120.451 19.852 120.547 19.62 120.739 19.436C120.939 19.244 121.191 19.148 121.495 19.148C121.791 19.148 122.035 19.244 122.227 19.436C122.419 19.62 122.515 19.852 122.515 20.132C122.515 20.412 122.419 20.648 122.227 20.84C122.035 21.024 121.791 21.116 121.495 21.116ZM136.215 17.624V26H134.535V20.552L132.291 26H131.019L128.763 20.552V26H127.083V17.624H128.991L131.655 23.852L134.319 17.624H136.215ZM138.888 18.56C138.592 18.56 138.344 18.468 138.144 18.284C137.952 18.092 137.856 17.856 137.856 17.576C137.856 17.296 137.952 17.064 138.144 16.88C138.344 16.688 138.592 16.592 138.888 16.592C139.184 16.592 139.428 16.688 139.62 16.88C139.82 17.064 139.92 17.296 139.92 17.576C139.92 17.856 139.82 18.092 139.62 18.284C139.428 18.468 139.184 18.56 138.888 18.56ZM139.716 19.352V26H138.036V19.352H139.716ZM141.104 22.676C141.104 21.988 141.244 21.388 141.524 20.876C141.804 20.356 142.192 19.956 142.688 19.676C143.184 19.388 143.752 19.244 144.392 19.244C145.216 19.244 145.896 19.452 146.432 19.868C146.976 20.276 147.34 20.852 147.524 21.596H145.712C145.616 21.308 145.452 21.084 145.22 20.924C144.996 20.756 144.716 20.672 144.38 20.672C143.9 20.672 143.52 20.848 143.24 21.2C142.96 21.544 142.82 22.036 142.82 22.676C142.82 23.308 142.96 23.8 143.24 24.152C143.52 24.496 143.9 24.668 144.38 24.668C145.06 24.668 145.504 24.364 145.712 23.756H147.524C147.34 24.476 146.976 25.048 146.432 25.472C145.888 25.896 145.208 26.108 144.392 26.108C143.752 26.108 143.184 25.968 142.688 25.688C142.192 25.4 141.804 25 141.524 24.488C141.244 23.968 141.104 23.364 141.104 22.676ZM152.659 19.256C153.163 19.256 153.611 19.368 154.003 19.592C154.395 19.808 154.699 20.132 154.915 20.564C155.139 20.988 155.251 21.5 155.251 22.1V26H153.571V22.328C153.571 21.8 153.439 21.396 153.175 21.116C152.911 20.828 152.551 20.684 152.095 20.684C151.631 20.684 151.263 20.828 150.991 21.116C150.727 21.396 150.595 21.8 150.595 22.328V26H148.915V17.12H150.595V20.18C150.811 19.892 151.099 19.668 151.459 19.508C151.819 19.34 152.219 19.256 152.659 19.256ZM163.188 22.532C163.188 22.772 163.172 22.988 163.14 23.18H158.28C158.32 23.66 158.488 24.036 158.784 24.308C159.08 24.58 159.444 24.716 159.876 24.716C160.5 24.716 160.944 24.448 161.208 23.912H163.02C162.828 24.552 162.46 25.08 161.916 25.496C161.372 25.904 160.704 26.108 159.912 26.108C159.272 26.108 158.696 25.968 158.184 25.688C157.68 25.4 157.284 24.996 156.996 24.476C156.716 23.956 156.576 23.356 156.576 22.676C156.576 21.988 156.716 21.384 156.996 20.864C157.276 20.344 157.668 19.944 158.172 19.664C158.676 19.384 159.256 19.244 159.912 19.244C160.544 19.244 161.108 19.38 161.604 19.652C162.108 19.924 162.496 20.312 162.768 20.816C163.048 21.312 163.188 21.884 163.188 22.532ZM161.448 22.052C161.44 21.62 161.284 21.276 160.98 21.02C160.676 20.756 160.304 20.624 159.864 20.624C159.448 20.624 159.096 20.752 158.808 21.008C158.528 21.256 158.356 21.604 158.292 22.052H161.448ZM166.255 17.12V26H164.575V17.12H166.255ZM168.926 18.56C168.63 18.56 168.382 18.468 168.182 18.284C167.99 18.092 167.894 17.856 167.894 17.576C167.894 17.296 167.99 17.064 168.182 16.88C168.382 16.688 168.63 16.592 168.926 16.592C169.222 16.592 169.466 16.688 169.658 16.88C169.858 17.064 169.958 17.296 169.958 17.576C169.958 17.856 169.858 18.092 169.658 18.284C169.466 18.468 169.222 18.56 168.926 18.56ZM169.754 19.352V26H168.074V19.352H169.754ZM175.258 19.256C176.05 19.256 176.69 19.508 177.178 20.012C177.666 20.508 177.91 21.204 177.91 22.1V26H176.23V22.328C176.23 21.8 176.098 21.396 175.834 21.116C175.57 20.828 175.21 20.684 174.754 20.684C174.29 20.684 173.922 20.828 173.65 21.116C173.386 21.396 173.254 21.8 173.254 22.328V26H171.574V19.352H173.254V20.18C173.478 19.892 173.762 19.668 174.106 19.508C174.458 19.34 174.842 19.256 175.258 19.256Z" fill="#14318E"/>
<path d="M214.001 15.3335C210.314 15.3335 207.334 18.3135 207.334 22.0002C207.334 25.6868 210.314 28.6668 214.001 28.6668C217.687 28.6668 220.667 25.6868 220.667 22.0002C220.667 18.3135 217.687 15.3335 214.001 15.3335ZM217.334 24.3935L216.394 25.3335L214.001 22.9402L211.607 25.3335L210.667 24.3935L213.061 22.0002L210.667 19.6068L211.607 18.6668L214.001 21.0602L216.394 18.6668L217.334 19.6068L214.941 22.0002L217.334 24.3935Z" fill="#14318E"/>
<path d="M194.079 26.7878L188.212 20.9211C187.929 20.6381 187.929 20.1794 188.212 19.8965L188.896 19.2122C189.179 18.9297 189.637 18.9292 189.92 19.211L194.591 23.8605L199.263 19.211C199.546 18.9292 200.004 18.9297 200.286 19.2122L200.97 19.8965C201.253 20.1794 201.253 20.6381 200.97 20.9211L195.104 26.7878C194.821 27.0707 194.362 27.0707 194.079 26.7878Z" fill="#14318E"/>
<rect x="0.5" y="0.5" width="230" height="43" rx="4.5" stroke="#2E48CB"/>
</svg>
