<svg width="100" height="21" viewBox="0 0 100 21" fill="none" xmlns="http://www.w3.org/2000/svg">
<rect width="100" height="21" rx="5" fill="#FFBF25"/>
<path d="M22.0557 14H20.9157L17.4857 8.81V14H16.3457V7.04H17.4857L20.9157 12.22V7.04H22.0557V14ZM25.9427 14.09C25.4227 14.09 24.9527 13.9733 24.5327 13.74C24.1127 13.5 23.7827 13.1667 23.5427 12.74C23.3027 12.3067 23.1827 11.8067 23.1827 11.24C23.1827 10.68 23.3061 10.1833 23.5527 9.75C23.7994 9.31667 24.1361 8.98333 24.5627 8.75C24.9894 8.51667 25.4661 8.4 25.9927 8.4C26.5194 8.4 26.9961 8.51667 27.4227 8.75C27.8494 8.98333 28.1861 9.31667 28.4327 9.75C28.6794 10.1833 28.8027 10.68 28.8027 11.24C28.8027 11.8 28.6761 12.2967 28.4227 12.73C28.1694 13.1633 27.8227 13.5 27.3827 13.74C26.9494 13.9733 26.4694 14.09 25.9427 14.09ZM25.9427 13.1C26.2361 13.1 26.5094 13.03 26.7627 12.89C27.0227 12.75 27.2327 12.54 27.3927 12.26C27.5527 11.98 27.6327 11.64 27.6327 11.24C27.6327 10.84 27.5561 10.5033 27.4027 10.23C27.2494 9.95 27.0461 9.74 26.7927 9.6C26.5394 9.46 26.2661 9.39 25.9727 9.39C25.6794 9.39 25.4061 9.46 25.1527 9.6C24.9061 9.74 24.7094 9.95 24.5627 10.23C24.4161 10.5033 24.3427 10.84 24.3427 11.24C24.3427 11.8333 24.4927 12.2933 24.7927 12.62C25.0994 12.94 25.4827 13.1 25.9427 13.1ZM32.1473 11.22C32.1473 10.6667 32.2607 10.1767 32.4873 9.75C32.7207 9.32333 33.034 8.99333 33.4273 8.76C33.8273 8.52 34.2707 8.4 34.7573 8.4C35.1173 8.4 35.4707 8.48 35.8173 8.64C36.1707 8.79333 36.4507 9 36.6573 9.26V6.6H37.8073V14H36.6573V13.17C36.4707 13.4367 36.2107 13.6567 35.8773 13.83C35.5507 14.0033 35.174 14.09 34.7473 14.09C34.2673 14.09 33.8273 13.97 33.4273 13.73C33.034 13.4833 32.7207 13.1433 32.4873 12.71C32.2607 12.27 32.1473 11.7733 32.1473 11.22ZM36.6573 11.24C36.6573 10.86 36.5773 10.53 36.4173 10.25C36.264 9.97 36.0607 9.75667 35.8073 9.61C35.554 9.46333 35.2807 9.39 34.9873 9.39C34.694 9.39 34.4207 9.46333 34.1673 9.61C33.914 9.75 33.7073 9.96 33.5473 10.24C33.394 10.5133 33.3173 10.84 33.3173 11.22C33.3173 11.6 33.394 11.9333 33.5473 12.22C33.7073 12.5067 33.914 12.7267 34.1673 12.88C34.4273 13.0267 34.7007 13.1 34.9873 13.1C35.2807 13.1 35.554 13.0267 35.8073 12.88C36.0607 12.7333 36.264 12.52 36.4173 12.24C36.5773 11.9533 36.6573 11.62 36.6573 11.24ZM39.8847 7.76C39.678 7.76 39.5047 7.69 39.3647 7.55C39.2247 7.41 39.1547 7.23667 39.1547 7.03C39.1547 6.82333 39.2247 6.65 39.3647 6.51C39.5047 6.37 39.678 6.3 39.8847 6.3C40.0847 6.3 40.2547 6.37 40.3947 6.51C40.5347 6.65 40.6047 6.82333 40.6047 7.03C40.6047 7.23667 40.5347 7.41 40.3947 7.55C40.2547 7.69 40.0847 7.76 39.8847 7.76ZM40.4447 8.49V14H39.3047V8.49H40.4447ZM43.9414 14.09C43.5081 14.09 43.1181 14.0133 42.7714 13.86C42.4314 13.7 42.1614 13.4867 41.9614 13.22C41.7614 12.9467 41.6547 12.6433 41.6414 12.31H42.8214C42.8414 12.5433 42.9514 12.74 43.1514 12.9C43.3581 13.0533 43.6147 13.13 43.9214 13.13C44.2414 13.13 44.4881 13.07 44.6614 12.95C44.8414 12.8233 44.9314 12.6633 44.9314 12.47C44.9314 12.2633 44.8314 12.11 44.6314 12.01C44.4381 11.91 44.1281 11.8 43.7014 11.68C43.2881 11.5667 42.9514 11.4567 42.6914 11.35C42.4314 11.2433 42.2047 11.08 42.0114 10.86C41.8247 10.64 41.7314 10.35 41.7314 9.99C41.7314 9.69667 41.8181 9.43 41.9914 9.19C42.1647 8.94333 42.4114 8.75 42.7314 8.61C43.0581 8.47 43.4314 8.4 43.8514 8.4C44.4781 8.4 44.9814 8.56 45.3614 8.88C45.7481 9.19333 45.9547 9.62333 45.9814 10.17H44.8414C44.8214 9.92333 44.7214 9.72667 44.5414 9.58C44.3614 9.43333 44.1181 9.36 43.8114 9.36C43.5114 9.36 43.2814 9.41667 43.1214 9.53C42.9614 9.64333 42.8814 9.79333 42.8814 9.98C42.8814 10.1267 42.9347 10.25 43.0414 10.35C43.1481 10.45 43.2781 10.53 43.4314 10.59C43.5847 10.6433 43.8114 10.7133 44.1114 10.8C44.5114 10.9067 44.8381 11.0167 45.0914 11.13C45.3514 11.2367 45.5747 11.3967 45.7614 11.61C45.9481 11.8233 46.0447 12.1067 46.0514 12.46C46.0514 12.7733 45.9647 13.0533 45.7914 13.3C45.6181 13.5467 45.3714 13.74 45.0514 13.88C44.7381 14.02 44.3681 14.09 43.9414 14.09ZM48.4232 9.3C48.6165 9.04667 48.8799 8.83333 49.2132 8.66C49.5465 8.48667 49.9232 8.4 50.3432 8.4C50.8232 8.4 51.2599 8.52 51.6532 8.76C52.0532 8.99333 52.3665 9.32333 52.5932 9.75C52.8199 10.1767 52.9332 10.6667 52.9332 11.22C52.9332 11.7733 52.8199 12.27 52.5932 12.71C52.3665 13.1433 52.0532 13.4833 51.6532 13.73C51.2599 13.97 50.8232 14.09 50.3432 14.09C49.9232 14.09 49.5499 14.0067 49.2232 13.84C48.8965 13.6667 48.6299 13.4533 48.4232 13.2V16.62H47.2832V8.49H48.4232V9.3ZM51.7732 11.22C51.7732 10.84 51.6932 10.5133 51.5332 10.24C51.3799 9.96 51.1732 9.75 50.9132 9.61C50.6599 9.46333 50.3865 9.39 50.0932 9.39C49.8065 9.39 49.5332 9.46333 49.2732 9.61C49.0199 9.75667 48.8132 9.97 48.6532 10.25C48.4999 10.53 48.4232 10.86 48.4232 11.24C48.4232 11.62 48.4999 11.9533 48.6532 12.24C48.8132 12.52 49.0199 12.7333 49.2732 12.88C49.5332 13.0267 49.8065 13.1 50.0932 13.1C50.3865 13.1 50.6599 13.0267 50.9132 12.88C51.1732 12.7267 51.3799 12.5067 51.5332 12.22C51.6932 11.9333 51.7732 11.6 51.7732 11.22ZM56.4505 14.09C55.9305 14.09 55.4605 13.9733 55.0405 13.74C54.6205 13.5 54.2905 13.1667 54.0505 12.74C53.8105 12.3067 53.6905 11.8067 53.6905 11.24C53.6905 10.68 53.8139 10.1833 54.0605 9.75C54.3072 9.31667 54.6439 8.98333 55.0705 8.75C55.4972 8.51667 55.9739 8.4 56.5005 8.4C57.0272 8.4 57.5039 8.51667 57.9305 8.75C58.3572 8.98333 58.6939 9.31667 58.9405 9.75C59.1872 10.1833 59.3105 10.68 59.3105 11.24C59.3105 11.8 59.1839 12.2967 58.9305 12.73C58.6772 13.1633 58.3305 13.5 57.8905 13.74C57.4572 13.9733 56.9772 14.09 56.4505 14.09ZM56.4505 13.1C56.7439 13.1 57.0172 13.03 57.2705 12.89C57.5305 12.75 57.7405 12.54 57.9005 12.26C58.0605 11.98 58.1405 11.64 58.1405 11.24C58.1405 10.84 58.0639 10.5033 57.9105 10.23C57.7572 9.95 57.5539 9.74 57.3005 9.6C57.0472 9.46 56.7739 9.39 56.4805 9.39C56.1872 9.39 55.9139 9.46 55.6605 9.6C55.4139 9.74 55.2172 9.95 55.0705 10.23C54.9239 10.5033 54.8505 10.84 54.8505 11.24C54.8505 11.8333 55.0005 12.2933 55.3005 12.62C55.6072 12.94 55.9905 13.1 56.4505 13.1ZM63.2175 8.4C63.6508 8.4 64.0375 8.49 64.3775 8.67C64.7242 8.85 64.9942 9.11667 65.1875 9.47C65.3808 9.82333 65.4775 10.25 65.4775 10.75V14H64.3475V10.92C64.3475 10.4267 64.2242 10.05 63.9775 9.79C63.7308 9.52333 63.3942 9.39 62.9675 9.39C62.5408 9.39 62.2008 9.52333 61.9475 9.79C61.7008 10.05 61.5775 10.4267 61.5775 10.92V14H60.4375V8.49H61.5775V9.12C61.7642 8.89333 62.0008 8.71667 62.2875 8.59C62.5808 8.46333 62.8908 8.4 63.2175 8.4ZM67.5116 7.76C67.305 7.76 67.1316 7.69 66.9916 7.55C66.8516 7.41 66.7816 7.23667 66.7816 7.03C66.7816 6.82333 66.8516 6.65 66.9916 6.51C67.1316 6.37 67.305 6.3 67.5116 6.3C67.7116 6.3 67.8816 6.37 68.0216 6.51C68.1616 6.65 68.2316 6.82333 68.2316 7.03C68.2316 7.23667 68.1616 7.41 68.0216 7.55C67.8816 7.69 67.7116 7.76 67.5116 7.76ZM68.0716 8.49V14H66.9316V8.49H68.0716ZM70.7084 9.31C70.9017 9.04333 71.165 8.82667 71.4984 8.66C71.8384 8.48667 72.215 8.4 72.6284 8.4C73.115 8.4 73.555 8.51667 73.9484 8.75C74.3417 8.98333 74.6517 9.31667 74.8784 9.75C75.105 10.1767 75.2184 10.6667 75.2184 11.22C75.2184 11.7733 75.105 12.27 74.8784 12.71C74.6517 13.1433 74.3384 13.4833 73.9384 13.73C73.545 13.97 73.1084 14.09 72.6284 14.09C72.2017 14.09 71.8217 14.0067 71.4884 13.84C71.1617 13.6733 70.9017 13.46 70.7084 13.2V14H69.5684V6.6H70.7084V9.31ZM74.0584 11.22C74.0584 10.84 73.9784 10.5133 73.8184 10.24C73.665 9.96 73.4584 9.75 73.1984 9.61C72.945 9.46333 72.6717 9.39 72.3784 9.39C72.0917 9.39 71.8184 9.46333 71.5584 9.61C71.305 9.75667 71.0984 9.97 70.9384 10.25C70.785 10.53 70.7084 10.86 70.7084 11.24C70.7084 11.62 70.785 11.9533 70.9384 12.24C71.0984 12.52 71.305 12.7333 71.5584 12.88C71.8184 13.0267 72.0917 13.1 72.3784 13.1C72.6717 13.1 72.945 13.0267 73.1984 12.88C73.4584 12.7267 73.665 12.5067 73.8184 12.22C73.9784 11.9333 74.0584 11.6 74.0584 11.22ZM77.4857 6.6V14H76.3457V6.6H77.4857ZM84.0324 11.11C84.0324 11.3167 84.0191 11.5033 83.9924 11.67H79.7824C79.8158 12.11 79.9791 12.4633 80.2724 12.73C80.5658 12.9967 80.9258 13.13 81.3524 13.13C81.9658 13.13 82.3991 12.8733 82.6524 12.36H83.8824C83.7158 12.8667 83.4124 13.2833 82.9724 13.61C82.5391 13.93 81.9991 14.09 81.3524 14.09C80.8258 14.09 80.3524 13.9733 79.9324 13.74C79.5191 13.5 79.1924 13.1667 78.9524 12.74C78.7191 12.3067 78.6024 11.8067 78.6024 11.24C78.6024 10.6733 78.7158 10.1767 78.9424 9.75C79.1758 9.31667 79.4991 8.98333 79.9124 8.75C80.3324 8.51667 80.8124 8.4 81.3524 8.4C81.8724 8.4 82.3358 8.51333 82.7424 8.74C83.1491 8.96667 83.4658 9.28667 83.6924 9.7C83.9191 10.1067 84.0324 10.5767 84.0324 11.11ZM82.8424 10.75C82.8358 10.33 82.6858 9.99333 82.3924 9.74C82.0991 9.48667 81.7358 9.36 81.3024 9.36C80.9091 9.36 80.5724 9.48667 80.2924 9.74C80.0124 9.98667 79.8458 10.3233 79.7924 10.75H82.8424Z" fill="#112876"/>
</svg>
