<svg width="108" height="61" viewBox="0 0 108 61" fill="none" xmlns="http://www.w3.org/2000/svg">
<path d="M104.118 21.3675C99.4697 26.0245 91.9227 26.0245 87.274 21.3675C82.6225 16.7051 82.6225 9.14987 87.274 4.48744C91.9255 -0.172246 99.4697 -0.172246 104.118 4.48744C108.773 9.14987 108.773 16.7023 104.118 21.3675Z" fill="white"/>
<path d="M105.189 6.76367C105.42 7.50604 105.543 8.29225 105.543 9.10858C105.543 11.7384 104.25 14.0559 102.286 15.505C98.867 18.0253 93.8895 18.0308 87.0137 20.2003C89.0901 22.685 92.2075 24.2683 95.6948 24.2683C101.946 24.2683 107.011 19.1922 107.011 12.93C107.011 10.6591 106.34 8.54427 105.189 6.76367Z" fill="#034B98"/>
<path d="M102.483 3.85482C100.593 2.43582 98.2399 1.58936 95.695 1.58936C89.4465 1.58936 84.3813 6.66543 84.3813 12.9249C84.3813 15.4451 85.2032 17.7709 86.5893 19.6556C94.1993 17.4367 100.212 11.4539 102.483 3.85208" fill="#EC2629"/>
<path d="M13.4449 40.3513C5.4815 40.3513 0 34.7629 0 27.2022V27.1283C0 19.858 5.66504 13.9053 13.4093 13.9053C18.0087 13.9053 20.7864 15.1462 23.4518 17.4117L19.9098 21.6851C17.9375 20.0415 16.187 19.0909 13.2257 19.0909C9.13584 19.0909 5.88419 22.7069 5.88419 27.0543V27.1255C5.88419 31.8017 9.10023 35.2341 13.6284 35.2341C15.672 35.2341 17.4992 34.7218 18.9237 33.7V30.0485H13.2641V25.1888H24.3695V36.2942C21.7397 38.5214 18.121 40.3485 13.4476 40.3485" fill="#034B98"/>
<path d="M26.887 39.9131V14.3438H46.1722V19.3486H32.4753V24.5343H44.5313V29.5391H32.4753V34.9083H46.3585V39.9131H26.887Z" fill="#034B98"/>
<path d="M74.1111 14.3408H66.0874C68.0543 15.3243 69.3281 17.2172 69.8897 19.4169H73.6344C76.4478 19.4169 78.201 20.7701 78.201 23.2876V23.3616C78.201 25.5531 76.5574 27.2324 73.744 27.2324H69.0186C67.953 29.3335 66.1724 31.0565 63.6631 31.8181V39.9075H69.287V32.2372H73.5632C79.2967 32.2372 83.8989 29.1664 83.8989 23.252V23.1808C83.8989 17.9568 80.2117 14.3408 74.1111 14.3408Z" fill="#034B98"/>
<path d="M58.3981 32.2399H54.1274V39.9102H48.5007V14.3408H58.946C65.0466 14.3408 68.7338 17.9568 68.7338 23.1808V23.252C68.7338 29.1691 64.1316 32.2372 58.3981 32.2372M63.0359 23.2876C63.0359 20.7674 61.2854 19.4169 58.4721 19.4169H54.1274V27.2324H58.5817C61.395 27.2324 63.0359 25.5531 63.0359 23.3616V23.2876Z" fill="#034B98"/>
<path d="M90.6131 54.5168C92.769 44.9482 79.494 40.5925 64.6411 41.7677C64.6164 41.7677 64.5918 41.7732 64.5698 41.776C64.5479 41.776 64.5233 41.776 64.4986 41.776C49.832 42.68 36.4501 48.6025 31.9383 52.465C31.8698 52.5253 31.9356 52.7499 32.1356 52.6157C32.1712 52.5938 32.2725 52.5308 32.3191 52.5034C37.7924 49.123 51.0619 43.9921 63.9206 43.5894H63.9836C63.9836 43.5894 63.9946 43.5894 63.9973 43.5894C64.0137 43.5894 64.0274 43.5894 64.0466 43.5894C78.6475 43.1895 89.2708 47.2164 89.8351 54.61C89.8653 54.988 90.5364 55.0839 90.6131 54.5168Z" fill="#034B98"/>
<mask id="mask0_2_10678" style="mask-type:luminance" maskUnits="userSpaceOnUse" x="75" y="49" width="13" height="12">
<path d="M75.7109 54.8731C75.7109 58.0699 78.3051 60.6641 81.502 60.6641C84.6988 60.6641 87.2958 58.0699 87.2958 54.8731C87.2958 51.6762 84.7016 49.082 81.502 49.082C78.3024 49.082 75.7109 51.6762 75.7109 54.8731Z" fill="white"/>
</mask>
<g mask="url(#mask0_2_10678)">
<path d="M87.2958 49.082H75.7109V60.6669H87.2958V49.082Z" fill="url(#paint0_radial_2_10678)"/>
</g>
<g style="mix-blend-mode:overlay">
<mask id="mask1_2_10678" style="mask-type:luminance" maskUnits="userSpaceOnUse" x="81" y="53" width="6" height="7">
<path d="M86.5261 53.0645H81.2227V59.817H86.5261V53.0645Z" fill="white"/>
</mask>
<g mask="url(#mask1_2_10678)">
<path d="M86.0385 53.0645C86.2494 53.6123 86.3645 54.2095 86.3645 54.8314C86.3645 57.5653 84.1511 59.7787 81.4172 59.7787C81.3514 59.7787 81.2857 59.7787 81.2227 59.7732C81.4281 59.8033 81.639 59.817 81.8527 59.817C84.4332 59.817 86.5261 57.7269 86.5261 55.1436C86.5261 54.3958 86.348 53.689 86.0358 53.0645" fill="white"/>
</g>
</g>
<g opacity="0.75">
<mask id="mask2_2_10678" style="mask-type:luminance" maskUnits="userSpaceOnUse" x="76" y="49" width="10" height="11">
<path d="M85.6824 49.9199H76.552V59.6612H85.6824V49.9199Z" fill="white"/>
</mask>
<g mask="url(#mask2_2_10678)">
<path d="M76.9766 55.0946C76.9766 52.4292 79.138 50.2651 81.8061 50.2651C83.3922 50.2651 84.8003 51.0321 85.6824 52.2128C84.803 50.8349 83.258 49.9199 81.5021 49.9199C78.7682 49.9199 76.552 52.1361 76.552 54.87C76.552 57.1683 78.1162 59.1023 80.2392 59.6584C78.3408 59.0092 76.9793 57.2094 76.9793 55.0919" fill="white"/>
</g>
</g>
<g opacity="0.55">
<mask id="mask3_2_10678" style="mask-type:luminance" maskUnits="userSpaceOnUse" x="77" y="50" width="3" height="3">
<path d="M79.3847 50.668H77.4644V52.5883H79.3847V50.668Z" fill="white"/>
</mask>
<g mask="url(#mask3_2_10678)">
<path d="M79.382 51.6295C79.382 52.1582 78.9519 52.5883 78.4232 52.5883C77.8945 52.5883 77.4617 52.1582 77.4617 51.6295C77.4617 51.1008 77.8918 50.668 78.4232 50.668C78.9546 50.668 79.382 51.0981 79.382 51.6295Z" fill="white"/>
</g>
</g>
<g opacity="0.55">
<mask id="mask4_2_10678" style="mask-type:luminance" maskUnits="userSpaceOnUse" x="78" y="51" width="2" height="2">
<path d="M79.7131 51.8237H78.7817V52.7551H79.7131V51.8237Z" fill="white"/>
</mask>
<g mask="url(#mask4_2_10678)">
<path d="M79.7131 52.2894C79.7131 52.5469 79.5049 52.7551 79.2474 52.7551C78.9899 52.7551 78.7817 52.5469 78.7817 52.2894C78.7817 52.0319 78.9899 51.8237 79.2474 51.8237C79.5049 51.8237 79.7131 52.0319 79.7131 52.2894Z" fill="white"/>
</g>
</g>
<g opacity="0.55">
<mask id="mask5_2_10678" style="mask-type:luminance" maskUnits="userSpaceOnUse" x="84" y="57" width="3" height="3">
<path d="M86.4576 57.2754H84.0305V59.7271H86.4576V57.2754Z" fill="white"/>
</mask>
<g mask="url(#mask5_2_10678)">
<path d="M86.4576 57.8753C86.222 57.5137 85.8139 57.2754 85.3509 57.2754C84.6222 57.2754 84.0305 57.8671 84.0305 58.5985C84.0305 59.0779 84.2853 59.4943 84.6633 59.7271C85.392 59.2532 86.0056 58.6177 86.4549 57.8753" fill="white"/>
</g>
</g>
<g opacity="0.55">
<mask id="mask6_2_10678" style="mask-type:luminance" maskUnits="userSpaceOnUse" x="83" y="57" width="2" height="2">
<path d="M84.8552 57.0479H83.5759V58.3271H84.8552V57.0479Z" fill="white"/>
</mask>
<g mask="url(#mask6_2_10678)">
<path d="M83.5732 57.6891C83.5732 57.3384 83.8581 57.0508 84.2143 57.0508C84.5704 57.0508 84.8553 57.3384 84.8553 57.6891C84.8553 58.0397 84.5676 58.3301 84.2143 58.3301C83.8609 58.3301 83.5732 58.0424 83.5732 57.6891Z" fill="white"/>
</g>
</g>
<g opacity="0.45">
<mask id="mask7_2_10678" style="mask-type:luminance" maskUnits="userSpaceOnUse" x="77" y="56" width="3" height="2">
<path d="M79.2968 56.4507H77.8943V57.8532H79.2968V56.4507Z" fill="white"/>
</mask>
<g mask="url(#mask7_2_10678)">
<path d="M77.8943 57.149C77.8943 56.7628 78.2093 56.4478 78.5983 56.4478C78.9873 56.4478 79.2968 56.76 79.2968 57.149C79.2968 57.538 78.9846 57.8503 78.5983 57.8503C78.2121 57.8503 77.8943 57.5353 77.8943 57.149Z" fill="white"/>
</g>
</g>
<mask id="mask8_2_10678" style="mask-type:luminance" maskUnits="userSpaceOnUse" x="76" y="55" width="11" height="3">
<path d="M77.7492 55.7936C77.2616 55.8539 76.5713 55.8539 76.5713 55.8539V56.599C76.5713 56.599 77.2644 56.599 77.7492 56.6592C78.2368 56.7168 78.5902 56.788 78.8094 56.84C79.0285 56.8921 80.2338 57.3304 81.5186 57.3304C82.9705 57.3304 83.617 57.0345 84.4251 56.8483C85.0853 56.6976 85.4852 56.651 85.8277 56.6291C86.1728 56.6072 86.6358 56.6017 86.6358 56.6017V55.8566C86.6358 55.8566 86.1701 55.8511 85.8277 55.8292C85.5811 55.8128 81.7652 55.7744 79.4586 55.7744C78.5573 55.7744 77.8862 55.7799 77.7492 55.7963" fill="white"/>
</mask>
<g mask="url(#mask8_2_10678)">
<path d="M86.6386 55.7715H76.5686V57.3302H86.6386V55.7715Z" fill="url(#paint1_linear_2_10678)"/>
</g>
<path d="M85.8304 53.7771C85.4852 53.799 78.2368 53.8702 77.7492 53.8099C77.2616 53.7497 76.5713 53.7497 76.5713 53.7497V53.0046C76.5713 53.0046 77.2616 53.0046 77.7492 52.947C78.2368 52.8868 78.5902 52.8183 78.8094 52.7635C79.0285 52.7114 80.2338 52.2759 81.5186 52.2759C82.9705 52.2759 83.617 52.5717 84.4278 52.758C85.0853 52.9114 85.4852 52.958 85.8304 52.9772C86.1728 52.9963 86.6385 53.0018 86.6385 53.0018V53.7469C86.6385 53.7469 86.1728 53.7524 85.8304 53.7743" fill="white"/>
<mask id="mask9_2_10678" style="mask-type:luminance" maskUnits="userSpaceOnUse" x="76" y="52" width="11" height="6">
<path d="M78.8094 52.9967C78.5902 53.0487 78.2368 53.1172 77.7492 53.1802C77.2616 53.2378 76.5713 53.2378 76.5713 53.2378V56.3661C76.5713 56.3661 77.2644 56.3661 77.7492 56.4264C78.2368 56.4839 78.5902 56.5552 78.8094 56.6072C79.0285 56.662 80.2338 57.0948 81.5186 57.0948C82.9705 57.0948 83.617 56.799 84.4251 56.6127C85.0853 56.4593 85.4852 56.4127 85.8277 56.3935C86.1728 56.3716 86.6358 56.3661 86.6358 56.3661V53.2378C86.6358 53.2378 86.1701 53.2323 85.8277 53.2104C85.4852 53.1885 85.0853 53.1419 84.4251 52.9885C83.6142 52.8022 82.9705 52.5063 81.5186 52.5063C80.2311 52.5063 79.0258 52.9392 78.8094 52.994" fill="white"/>
</mask>
<g mask="url(#mask9_2_10678)">
<path d="M86.6386 52.5093H76.5686V57.095H86.6386V52.5093Z" fill="url(#paint2_linear_2_10678)"/>
</g>
<g style="mix-blend-mode:multiply">
<mask id="mask10_2_10678" style="mask-type:luminance" maskUnits="userSpaceOnUse" x="78" y="53" width="2" height="2">
<path d="M79.3517 53.6152H78.8997V54.0645H79.3517V53.6152Z" fill="white"/>
</mask>
<g mask="url(#mask10_2_10678)">
<path fill-rule="evenodd" clip-rule="evenodd" d="M79.0833 53.618C79.2339 53.5933 79.3517 53.6947 79.3517 53.8398C79.349 54.0508 79.1079 54.122 78.9764 54.0069C78.9299 53.9713 78.8997 53.8946 78.8997 53.8398C78.897 53.7138 78.9846 53.6344 79.0833 53.618Z" fill="#A5A7AA"/>
</g>
</g>
<g style="mix-blend-mode:multiply">
<mask id="mask11_2_10678" style="mask-type:luminance" maskUnits="userSpaceOnUse" x="77" y="53" width="9" height="4">
<path d="M85.7591 53.7822H77.5081V56.3408H85.7591V53.7822Z" fill="white"/>
</mask>
<g mask="url(#mask11_2_10678)">
<path fill-rule="evenodd" clip-rule="evenodd" d="M81.9732 53.7822H81.9787C81.9814 53.9247 81.9814 54.0671 81.9814 54.2096C82.1102 54.215 82.2554 54.2096 82.3923 54.2123C82.3869 54.4397 82.2499 54.541 81.9842 54.5082C81.9897 54.7328 81.965 55.056 81.9814 55.2834C81.9869 55.4094 82.0362 55.4916 82.1842 55.4806C82.2362 55.4779 82.291 55.456 82.3348 55.4341C82.3814 55.4094 82.4115 55.3711 82.4499 55.3601C82.4471 55.6231 82.3019 55.7765 82.0636 55.7929C81.913 55.7984 81.7705 55.7464 81.6856 55.6587C81.5733 55.5437 81.5404 55.3683 81.5404 55.1574V54.5136C81.4938 54.5054 81.4308 54.5136 81.3733 54.5082V54.2178H81.5349C81.5459 54.1383 81.5377 54.0425 81.5404 53.9548C81.6856 53.8973 81.8308 53.8398 81.976 53.7822" fill="#A5A7AA"/>
<path fill-rule="evenodd" clip-rule="evenodd" d="M77.5081 53.7852H78.0751V55.3767C78.2504 55.363 78.4915 55.3904 78.6586 55.3767C78.697 55.374 78.7435 55.3603 78.7709 55.3411C78.7819 55.3329 78.7873 55.3055 78.8065 55.3137C78.801 55.4863 78.8421 55.6753 78.7189 55.7329C78.6531 55.7657 78.5271 55.7493 78.4258 55.7493H77.5108C77.5272 55.7219 77.5546 55.6972 77.5656 55.6616C77.5985 55.5466 77.5765 55.363 77.5765 55.2124V54.2974C77.5765 54.1495 77.5985 53.9577 77.5574 53.8591C77.5464 53.829 77.519 53.8153 77.5108 53.7906" fill="#A5A7AA"/>
<path fill-rule="evenodd" clip-rule="evenodd" d="M80.1351 55.5903C80.1461 55.7684 80.1187 56.0286 80.1351 56.2012C80.1351 56.2368 80.1488 56.2779 80.168 56.3053C80.1762 56.3162 80.2009 56.3217 80.1954 56.3409C80.0174 56.319 79.8475 56.2861 79.6968 56.2368C79.6886 55.7903 79.6914 55.2698 79.6914 54.7959C79.6914 54.6397 79.7051 54.4863 79.6914 54.3521C79.6859 54.2946 79.6558 54.248 79.6311 54.2151H80.105V54.3987C80.2201 54.2891 80.3516 54.1877 80.568 54.1713C80.8501 54.1521 81.0474 54.3357 81.1487 54.5055C81.2583 54.6918 81.3076 55.0013 81.2282 55.2616C81.1597 55.4862 81.0118 55.6725 80.8036 55.7492C80.6912 55.7903 80.5461 55.804 80.4118 55.7711C80.2913 55.7382 80.2119 55.6807 80.1351 55.593M80.42 55.4889C80.6282 55.4698 80.7981 55.2588 80.8173 55.0205C80.8364 54.7384 80.7296 54.4507 80.4173 54.4781C80.2694 54.4918 80.1543 54.585 80.1379 54.7219C80.1132 54.9055 80.1543 55.163 80.1379 55.3931C80.2091 55.4588 80.2913 55.5026 80.4228 55.4917" fill="#A5A7AA"/>
<path fill-rule="evenodd" clip-rule="evenodd" d="M83.8744 54.3932C83.7429 54.2644 83.5347 54.1576 83.2799 54.174C83.1539 54.1823 83.0526 54.2124 82.9567 54.259C82.7019 54.3877 82.4965 54.6288 82.5102 55.0205C82.5184 55.2671 82.628 55.4396 82.7677 55.5684C82.9129 55.6971 83.1019 55.7985 83.3512 55.7875C83.584 55.7766 83.773 55.6697 83.9018 55.5328C84.036 55.3903 84.1264 55.2013 84.1209 54.9493C84.1154 54.6973 83.9949 54.5137 83.8716 54.3932M83.458 55.4506C83.1676 55.5985 82.9457 55.2807 82.9266 55.0342C82.9156 54.8753 82.9676 54.7192 83.0224 54.637C83.0717 54.5658 83.1539 54.4918 83.269 54.4754C83.4443 54.4507 83.5621 54.563 83.6224 54.6671C83.6662 54.7411 83.7045 54.8644 83.7045 54.9685C83.7045 55.1739 83.6114 55.3684 83.458 55.4451" fill="#A5A7AA"/>
<path fill-rule="evenodd" clip-rule="evenodd" d="M85.7591 55.7463H85.2605V54.8506C85.2605 54.6752 85.2605 54.5081 85.0907 54.5054C84.8935 54.5054 84.7483 54.7081 84.7346 54.9163C84.7236 55.0259 84.7045 55.634 84.7647 55.7135C84.7729 55.7217 84.7976 55.7299 84.7866 55.7463H84.2908V54.6972C84.2908 54.541 84.3155 54.3273 84.2525 54.2479C84.2442 54.2369 84.2251 54.2287 84.2278 54.2123H84.699C84.7072 54.2698 84.699 54.3465 84.7017 54.4095C84.814 54.2945 84.951 54.1849 85.1756 54.1712C85.5181 54.152 85.6687 54.352 85.6934 54.6451C85.7126 54.8643 85.6989 55.1437 85.6989 55.3847C85.6989 55.4861 85.6824 55.6012 85.7098 55.6724C85.7208 55.7052 85.7399 55.7217 85.7591 55.7491" fill="#A5A7AA"/>
<path fill-rule="evenodd" clip-rule="evenodd" d="M78.9133 54.2124H79.4119V55.7492H78.9161C78.8996 55.7328 78.9298 55.7273 78.9352 55.7191C78.99 55.6478 78.9763 55.4917 78.9763 55.3438V55.0178C78.9763 54.7712 78.99 54.5603 78.9763 54.3631C78.9708 54.3001 78.9544 54.259 78.9133 54.2261C78.9051 54.2234 78.9133 54.2179 78.9133 54.2151" fill="#A5A7AA"/>
</g>
</g>
<path fill-rule="evenodd" clip-rule="evenodd" d="M81.8937 53.7114H81.8992V54.1388C82.0279 54.147 82.1758 54.1388 82.3128 54.1415C82.3046 54.3716 82.1676 54.4675 81.9019 54.4374C81.9046 54.662 81.8827 54.9852 81.8964 55.2126C81.9046 55.3359 81.9539 55.4181 82.1019 55.4071C82.1539 55.4044 82.2087 55.3852 82.2525 55.3633C82.2991 55.3386 82.332 55.3003 82.3676 55.2921C82.3676 55.5523 82.2197 55.7084 81.9786 55.7221C81.8279 55.7303 81.6882 55.6756 81.6006 55.5879C81.491 55.4756 81.4554 55.3003 81.4554 55.0893V54.4456C81.4088 54.4374 81.3431 54.4456 81.291 54.4401V54.147H81.4526C81.4636 54.0675 81.4526 53.9717 81.4554 53.8867C81.6006 53.832 81.743 53.769 81.8909 53.7114" fill="white"/>
<path fill-rule="evenodd" clip-rule="evenodd" d="M77.4287 53.7139H77.9958V55.3027C78.1711 55.2918 78.4122 55.3191 78.5793 55.3027C78.6203 55.3027 78.6669 55.289 78.6916 55.2698C78.7025 55.2589 78.708 55.237 78.7272 55.2424C78.719 55.415 78.7628 55.6013 78.6395 55.6588C78.5738 55.6917 78.4478 55.6753 78.3464 55.6753H77.4287C77.4451 55.6479 77.4725 55.6232 77.4835 55.5876C77.5164 55.4725 77.5164 53.8837 77.478 53.7824C77.4671 53.7522 77.4397 53.7385 77.4315 53.7139" fill="white"/>
<path fill-rule="evenodd" clip-rule="evenodd" d="M80.0529 55.519C80.0529 55.519 80.0365 55.9601 80.0529 56.1326C80.0557 56.171 80.0694 56.2121 80.0858 56.2367C80.0968 56.2477 80.1187 56.2532 80.1132 56.2723C79.9324 56.2532 79.7653 56.2176 79.6119 56.1683C79.6201 56.1354 79.6201 54.4178 79.6064 54.2836C79.6037 54.2233 79.5708 54.1795 79.5461 54.1438H80.0201V54.3274C80.1324 54.2151 80.2666 54.1137 80.483 54.1C80.7679 54.0808 80.9624 54.2644 81.0638 54.4342C81.1733 54.6205 81.2226 54.9301 81.1432 55.1876C81.0747 55.4149 80.9268 55.6012 80.7213 55.6779C80.609 55.719 80.4611 55.7327 80.3296 55.6971C80.2063 55.6669 80.1296 55.6094 80.0529 55.519ZM80.3378 55.4177C80.546 55.3985 80.7186 55.1876 80.735 54.9492C80.7542 54.6643 80.6501 54.3794 80.3351 54.4041C80.1872 54.4178 80.0803 54.5137 80.0529 54.6479C80.0475 54.6671 80.0529 55.319 80.0529 55.319C80.1242 55.3903 80.2063 55.4314 80.3378 55.4204" fill="white"/>
<path fill-rule="evenodd" clip-rule="evenodd" d="M83.795 54.3224C83.6635 54.1963 83.458 54.0868 83.2033 54.1032C83.08 54.1114 82.9759 54.1416 82.88 54.1881C82.6253 54.3196 82.4198 54.5607 82.4335 54.9524C82.4445 55.199 82.5513 55.3715 82.691 55.4976C82.8362 55.6263 83.028 55.7277 83.2772 55.7167C83.5101 55.7085 83.6991 55.6016 83.8279 55.4619C83.9621 55.3168 84.0525 55.1332 84.047 54.8784C84.0415 54.6264 83.921 54.4429 83.795 54.3224ZM83.3841 55.3798C83.0937 55.5277 82.8718 55.2099 82.8526 54.9634C82.8417 54.8045 82.8937 54.6483 82.9512 54.5662C83.0006 54.4949 83.08 54.421 83.1951 54.4045C83.3731 54.3799 83.4882 54.4922 83.5484 54.5963C83.5923 54.673 83.6279 54.7963 83.6279 54.9004C83.6279 55.1058 83.5347 55.3003 83.3813 55.377" fill="white"/>
<path fill-rule="evenodd" clip-rule="evenodd" d="M85.6797 55.678H85.1784V54.7822C85.1784 54.6069 85.1784 54.4398 85.0085 54.4398C84.8086 54.4398 84.6661 54.6425 84.6497 54.848C84.6415 54.9603 84.6223 55.5657 84.6798 55.6451C84.688 55.6561 84.7127 55.6616 84.7017 55.6807H84.2031V54.6288C84.2031 54.4754 84.2278 54.259 84.1648 54.1795C84.1566 54.1686 84.1401 54.1604 84.1429 54.1439H84.6141C84.6223 54.2015 84.6141 54.2754 84.6168 54.3412C84.7291 54.2234 84.8688 54.1165 85.0907 54.1028C85.4331 54.0837 85.5865 54.2809 85.6085 54.5768C85.6276 54.7932 85.6167 55.0753 85.6167 55.3164C85.6167 55.415 85.6002 55.5328 85.6276 55.6068C85.6386 55.6369 85.655 55.6533 85.6769 55.6835" fill="white"/>
<path fill-rule="evenodd" clip-rule="evenodd" d="M78.834 54.1411H79.3353V55.6779H78.8395C78.823 55.6642 78.8532 55.656 78.8586 55.645C78.9107 55.5738 78.897 55.2013 78.9052 55.0533C78.9107 54.9383 78.9107 54.489 78.897 54.2918C78.8915 54.2288 78.8751 54.1849 78.8367 54.1548C78.8312 54.1521 78.8367 54.1466 78.8367 54.1411" fill="white"/>
<path fill-rule="evenodd" clip-rule="evenodd" d="M79.042 53.5797C79.1954 53.5578 79.3132 53.6564 79.3105 53.8016C79.3105 54.0153 79.0667 54.0865 78.9352 53.9714C78.8913 53.9331 78.8585 53.8619 78.8585 53.8016C78.8557 53.6756 78.9406 53.5961 79.042 53.5797Z" fill="white"/>
<path d="M42.696 54.5056L40.9647 56.2807H42.5754V57.6449C42.2056 57.8011 41.9646 57.8586 41.581 57.8586C40.9592 57.8586 40.3976 57.6614 39.9566 57.3162L38.9266 58.3462L39.4991 56.8724C39.154 56.3958 38.9266 55.7219 38.9266 55.0316C38.9266 53.5249 39.9511 52.4182 41.3564 52.4182C41.7071 52.4182 42.0248 52.4675 42.3399 52.5853L44.3341 51.9361L43.6328 52.8154L44.6985 52.4319L44.0027 53.1441L43.9177 53.2345H44.8683V50.0459H43.3644V50.5171C42.7645 50.287 42.1043 50.1719 41.3701 50.1719C38.3732 50.1719 36.2146 52.2593 36.2146 55.185C36.2146 58.1106 38.2883 60.0008 41.2715 60.0008C42.6768 60.0008 43.9397 59.6173 45.0354 58.864V54.5029H42.6987L42.696 54.5056Z" fill="#221F1F"/>
<path d="M43.5369 53.0866L42.6576 53.3879L43.4219 52.4702L41.0249 53.2646L40.9975 53.2729L40.0415 54.7247L40.6551 54.4891L39.6086 57.1354L43.5369 53.0866Z" fill="#F7A520"/>
<mask id="mask12_2_10678" style="mask-type:luminance" maskUnits="userSpaceOnUse" x="39" y="54" width="2" height="1">
<path d="M40.4716 54.2265L40.2387 54.3196L39.8442 54.9195L40.7099 54.5853L40.8085 54.3415L40.9208 54.0566L40.4716 54.2265Z" fill="white"/>
</mask>
<g mask="url(#mask12_2_10678)">
<path d="M40.9207 54.0566L40.4715 54.2265L40.2578 54.5525L40.8057 54.3415L40.9207 54.0566Z" fill="#E2061F"/>
<path d="M40.9207 54.0566L40.4715 54.2265L40.2578 54.5525L40.8057 54.3415L40.9207 54.0566Z" stroke="#E6272B" stroke-width="0.44" stroke-miterlimit="6"/>
</g>
<mask id="mask13_2_10678" style="mask-type:luminance" maskUnits="userSpaceOnUse" x="41" y="52" width="3" height="2">
<path d="M42.907 52.5912L42.759 52.7775L41.9893 53.7116L42.3974 53.5691L42.7015 53.465L43.7014 52.3364L42.907 52.5912Z" fill="white"/>
</mask>
<g mask="url(#mask13_2_10678)">
<path d="M41.9893 53.7119L42.3974 53.5695L43.1672 52.6436L42.759 52.7778L41.9893 53.7119Z" fill="#E2061F"/>
<path d="M41.9893 53.7119L42.3974 53.5695L43.1672 52.6436L42.759 52.7778L41.9893 53.7119Z" stroke="#E6272B" stroke-width="0.44" stroke-miterlimit="6"/>
</g>
<mask id="mask14_2_10678" style="mask-type:luminance" maskUnits="userSpaceOnUse" x="39" y="52" width="5" height="6">
<path d="M42.9835 53.2102L42.7452 53.4485L40.0633 56.218L39.8058 56.4728L39.3374 57.6535L43.9861 52.8623L42.9835 53.2102Z" fill="white"/>
</mask>
<g mask="url(#mask14_2_10678)">
<path d="M40.0634 56.2179L42.7452 53.4484L43.2301 53.2812L39.8442 56.7712L40.0634 56.2179Z" fill="#E2061F"/>
<path d="M40.0634 56.2179L42.7452 53.4484L43.2301 53.2812L39.8442 56.7712L40.0634 56.2179Z" stroke="#E6272B" stroke-width="0.44" stroke-miterlimit="6"/>
</g>
<path d="M39.3376 57.6535C39.4911 57.27 40.5265 54.6566 40.5265 54.6566L39.8444 54.9196L40.9621 53.2184L43.7946 52.2788L43.0358 53.1965L43.9864 52.8623L39.3376 57.6535ZM40.2581 54.5525L40.806 54.3416L39.8444 56.7714L43.2303 53.2842L42.3975 53.5691L43.1646 52.6459L41.0525 53.3472L40.2581 54.5552V54.5525Z" fill="#221F1F"/>
<path d="M54.1576 48.8491C54.0781 48.8491 54.0151 48.8656 53.9741 48.882C53.9165 48.9039 53.859 48.9258 53.8042 48.945C53.3769 49.1066 52.9714 49.2573 51.61 49.5011C51.0292 49.6025 50.5142 49.6627 50.0595 49.712C49.4787 49.7778 48.9774 49.8326 48.4652 49.9613C47.8817 50.1065 47.4982 50.5119 47.3612 51.1338C47.3228 51.3173 47.1831 51.9857 47.0927 52.4268C47.0544 52.613 47.0242 52.7582 47.0133 52.8103C46.9804 52.9609 47.0133 53.1034 47.0982 53.2102C47.1804 53.3088 47.3009 53.3691 47.4297 53.3691C47.5392 53.3691 47.6406 53.328 47.7173 53.254C48.4679 52.5226 49.0843 52.424 50.1964 52.3062L50.2649 52.298C50.5772 52.2651 50.9251 52.2295 51.2538 52.172C50.6211 53.076 49.8266 54.3717 49.3171 55.4182C48.4432 57.2042 47.8351 58.7246 47.7036 60.3299C47.6872 60.5216 47.7447 60.6942 47.8598 60.8202C47.9611 60.9298 48.0981 60.9928 48.2378 60.9928C48.309 60.9928 48.3802 60.9764 48.4378 60.9435L48.4542 60.9353C49.4075 60.3573 50.4457 59.9874 51.3333 59.7025C51.4209 59.6752 51.4894 59.6094 51.525 59.5272C51.5607 59.4423 51.5579 59.3492 51.5141 59.267C51.4346 59.1081 51.3552 58.4424 51.6374 57.0536C51.7962 56.2728 52.0428 55.4346 52.314 54.7497C52.7797 53.5773 53.2481 52.5966 53.9823 51.2516C54.3521 50.5749 54.5575 49.9969 54.6315 49.4326C54.6315 49.4162 54.6315 49.3997 54.6315 49.3833C54.6205 49.0162 54.3822 48.8519 54.1466 48.8519" fill="#295D35"/>
<path d="M53.9686 49.0024C53.459 49.1886 53.1194 49.3558 51.5552 49.6324C50.2485 49.8653 49.3335 49.8653 48.4323 50.0899C48.0186 50.194 47.6817 50.4652 47.5557 51.0295C47.4982 51.287 47.2434 52.5334 47.2078 52.7033C47.1722 52.8813 47.331 52.9224 47.3941 52.8622C48.2323 52.0431 48.9582 51.9445 50.0567 51.8267C50.7169 51.7582 51.5935 51.6705 51.977 51.4158C51.399 52.0951 50.191 53.9415 49.4869 55.3824C48.624 57.1493 48.0323 58.6176 47.9036 60.1818C47.8844 60.453 48.0953 60.5489 48.1857 60.4968C49.1473 59.9133 50.1827 59.538 51.1333 59.234C50.9799 58.9326 50.9689 58.1081 51.2292 56.8178C51.3744 56.1083 51.6154 55.2345 51.9223 54.462C52.3907 53.2785 52.8673 52.2814 53.607 50.9309C53.9631 50.2789 54.1521 49.7365 54.2206 49.2215C54.2151 48.9668 54.0453 48.975 53.9658 49.0051" fill="white"/>
<path d="M54.3276 52.3965C52.7716 52.3965 51.5088 53.6566 51.5088 55.2153C51.5088 56.774 52.7716 58.0341 54.3276 58.0341C55.8836 58.0341 57.1464 56.7713 57.1464 55.2153C57.1464 53.6593 55.8863 52.3965 54.3276 52.3965Z" fill="#E2061F"/>
<path d="M54.3165 53.7718L53.5878 53.9225C53.5878 53.9225 53.6097 53.9772 53.5988 54.0485C53.5878 54.1197 53.2235 56.1879 53.2235 56.1879C53.144 56.2482 52.8263 56.3523 52.8728 56.0537C52.8728 56.0537 53.207 54.1772 53.218 54.1142C53.2289 54.0512 53.1879 53.9992 53.1879 53.9992L52.44 54.1553C52.44 54.1553 52.4592 54.2731 52.4482 54.3388C52.4345 54.4046 52.1496 56.0126 52.1332 56.166C52.0757 56.6673 52.3797 56.8508 52.8372 56.7577C52.8372 56.7577 53.1249 56.6728 53.2646 56.5495C53.2646 56.5495 53.2783 56.6536 53.3139 56.6564C53.3495 56.6591 53.8837 56.5303 53.8837 56.5303L54.0316 55.6976C54.1028 55.2976 54.3384 53.9444 54.3494 53.8841C54.363 53.8184 54.3192 53.769 54.3192 53.769" fill="white"/>
<path d="M56.1848 53.536C56.0698 53.4729 55.9136 53.4538 55.7164 53.4949C55.6013 53.5195 55.3575 53.662 55.3575 53.662C55.3466 53.6263 55.3082 53.5825 55.2699 53.5853L54.6234 53.7113C54.6234 53.7113 54.6672 53.7715 54.6535 53.851C54.648 53.8893 54.2919 55.8425 54.081 57.015C54.0618 57.1163 54.0481 57.1848 54.0481 57.1958C54.0207 57.3053 53.9851 57.3437 53.9851 57.3437L54.7384 57.2204C54.7384 57.2204 54.7768 57.193 54.8014 57.0862C54.8042 57.0725 54.9357 56.3712 54.9384 56.3575V56.3493L55.2069 56.2945C55.9027 56.1521 56.1437 55.8124 56.2341 55.3111C56.2533 55.1631 56.4095 54.2728 56.4259 54.1331C56.456 53.8674 56.3793 53.6428 56.1903 53.536M55.6917 54.2619L55.4863 55.459C55.4507 55.6508 55.3712 55.7658 55.1219 55.8179C55.0781 55.8288 55.0288 55.8398 55.0288 55.8398L55.3493 54.0044C55.3493 54.0044 55.3712 53.9989 55.4096 53.9934C55.6589 53.9414 55.7164 54.103 55.6917 54.2619Z" fill="white"/>
<mask id="mask15_2_10678" style="mask-type:luminance" maskUnits="userSpaceOnUse" x="58" y="50" width="17" height="10">
<path d="M58.4612 54.8593C58.4612 57.511 62.0224 59.6614 66.4163 59.6614C70.8103 59.6614 74.3688 57.511 74.3688 54.8593C74.3688 52.2075 70.8076 50.0571 66.4163 50.0571C62.0251 50.0571 58.4612 52.2075 58.4612 54.8593Z" fill="white"/>
</mask>
<g mask="url(#mask15_2_10678)">
<path d="M74.3688 50.0571H58.4612V59.6641H74.3688V50.0571Z" fill="url(#paint3_linear_2_10678)"/>
</g>
<g style="mix-blend-mode:soft-light">
<mask id="mask16_2_10678" style="mask-type:luminance" maskUnits="userSpaceOnUse" x="59" y="54" width="16" height="6">
<path d="M74.3277 54.062H59.4529V59.4641H74.3277V54.062Z" fill="white"/>
</mask>
<g mask="url(#mask16_2_10678)">
<mask id="mask17_2_10678" style="mask-type:luminance" maskUnits="userSpaceOnUse" x="59" y="54" width="16" height="6">
<path d="M66.0657 57.9218C63.4469 58.2094 61.091 57.8424 59.4529 57.026C60.8171 58.4806 63.4058 59.4641 66.3726 59.4641C70.7665 59.4641 74.3277 57.3164 74.3277 54.6619C74.3277 54.4537 74.3003 54.262 74.2592 54.062C72.8622 55.9659 69.7228 57.5191 66.063 57.9218" fill="white"/>
</mask>
<g mask="url(#mask17_2_10678)">
<path d="M73.1684 50.0792L58.0037 54.4878L60.6114 63.4577L75.7761 59.0491L73.1684 50.0792Z" fill="url(#paint4_linear_2_10678)"/>
</g>
</g>
</g>
<g style="mix-blend-mode:multiply">
<mask id="mask18_2_10678" style="mask-type:luminance" maskUnits="userSpaceOnUse" x="61" y="54" width="14" height="6">
<path d="M74.3304 54.062H61.406V59.6805H74.3304V54.062Z" fill="white"/>
</mask>
<g mask="url(#mask18_2_10678)">
<mask id="mask19_2_10678" style="mask-type:luminance" maskUnits="userSpaceOnUse" x="61" y="54" width="14" height="6">
<path d="M61.406 58.5877C61.406 58.5877 63.4112 59.6807 66.3807 59.6807C70.7747 59.6807 74.3304 57.3166 74.3304 54.6649C74.3304 54.4567 74.303 54.2649 74.2619 54.0649C71.8841 59.1328 63.0469 59.4067 61.406 58.5904" fill="white"/>
</mask>
<g mask="url(#mask19_2_10678)">
<path d="M61.4543 53.2643L61.0588 59.6567L74.2785 60.4746L74.6739 54.0821L61.4543 53.2643Z" fill="url(#paint5_linear_2_10678)"/>
</g>
</g>
</g>
<g style="mix-blend-mode:soft-light">
<mask id="mask20_2_10678" style="mask-type:luminance" maskUnits="userSpaceOnUse" x="58" y="54" width="15" height="5">
<path d="M72.7635 54.2349H58.4749V58.0864H72.7635V54.2349Z" fill="white"/>
</mask>
<g mask="url(#mask20_2_10678)">
<mask id="mask21_2_10678" style="mask-type:luminance" maskUnits="userSpaceOnUse" x="58" y="54" width="15" height="5">
<path d="M72.7608 55.547C71.7472 58.4371 58.4722 59.6588 58.4722 54.8457C58.4722 54.6376 58.4968 54.4348 58.5379 54.2349C60.9184 56.5195 69.0845 57.1003 72.758 55.547" fill="white"/>
</mask>
<g mask="url(#mask21_2_10678)">
<path d="M72.7635 54.2349H58.4749V59.6588H72.7635V54.2349Z" fill="url(#paint6_linear_2_10678)"/>
</g>
</g>
</g>
<path d="M62.0415 55.0893H62.2223C62.1182 55.3907 61.9374 55.6345 61.6854 55.8125C61.4333 55.9906 61.1594 56.081 60.8471 56.0837H60.8279C60.4499 56.0837 60.1102 55.9413 59.8199 55.6619C59.5185 55.3633 59.3679 55.0236 59.3624 54.6236C59.3514 54.199 59.5021 53.8319 59.8089 53.5306C60.1184 53.2238 60.4883 53.0786 60.9046 53.1033C61.2827 53.1279 61.6114 53.2868 61.8853 53.569C62.1538 53.8511 62.288 54.1716 62.288 54.5223V54.7633H59.8253C59.8609 55.0099 59.9733 55.2153 60.1568 55.3742C60.3568 55.5468 60.5759 55.629 60.8362 55.629H60.8553C61.1676 55.6262 61.4087 55.5194 61.5868 55.303C61.5868 55.303 61.7484 55.0592 62.036 55.0838M59.8281 54.3415H61.8278C61.773 54.1196 61.658 53.936 61.4909 53.7936C61.3128 53.6429 61.0937 53.5635 60.8389 53.5607H60.817C60.5732 53.5607 60.3595 53.6347 60.1732 53.7854C59.9979 53.9251 59.8856 54.1086 59.8281 54.3415Z" fill="white"/>
<path d="M65.0767 56.0591C64.685 56.0591 64.3261 55.8673 64.096 55.5797V56.6864C64.096 56.9932 63.644 56.985 63.644 56.985V54.5716C63.644 53.7333 64.2659 53.0786 65.0713 53.0786C65.8766 53.0786 66.493 53.7169 66.493 54.5716C66.493 55.4263 65.8657 56.0591 65.0767 56.0591ZM65.0713 53.5142C64.5535 53.5142 64.1125 53.9826 64.1125 54.5716C64.1125 55.1605 64.548 55.629 65.0713 55.629C65.5945 55.629 66.0246 55.166 66.0246 54.5716C66.0246 53.9771 65.5945 53.5142 65.0713 53.5142Z" fill="white"/>
<path d="M69.1227 53.1498V54.8674C69.1227 55.5851 68.5913 56.0536 67.9064 56.0536C67.2216 56.0536 66.6929 55.5851 66.6929 54.8674V53.1498C66.6929 53.1498 67.1668 53.1279 67.1668 53.547V54.8674C67.1668 55.292 67.4572 55.6016 67.9092 55.6016C68.3612 55.6016 68.646 55.292 68.646 54.8674V53.5251C68.646 53.1224 69.1254 53.1498 69.1254 53.1498" fill="white"/>
<path d="M70.709 53.1333C70.3419 53.0895 70.0105 53.1744 69.7639 53.3744C69.7502 53.3059 69.7283 53.2456 69.6872 53.2182C69.5612 53.1251 69.353 53.1689 69.353 53.1689V55.9878C69.353 55.9878 69.816 56.0206 69.816 55.6892V54.2044C69.816 53.7689 70.0379 53.5607 70.4022 53.5579C70.7611 53.5525 70.709 53.1333 70.709 53.1333Z" fill="white"/>
<path d="M73.2127 55.9876C73.2127 55.9876 72.7607 56.0479 72.7607 55.7795V55.5439C72.5416 55.8562 72.18 56.0561 71.78 56.0561C70.9993 56.0561 70.3638 55.4179 70.3638 54.5687C70.3638 53.7194 71.0021 53.0757 71.791 53.0757C72.5799 53.0757 73.2127 53.7331 73.2127 54.5687V55.9849V55.9876ZM71.791 53.5058C71.2623 53.5058 70.8322 53.9742 70.8322 54.5687C70.8322 55.1631 71.2623 55.6206 71.791 55.6206C72.3197 55.6206 72.7498 55.1521 72.7498 54.5687C72.7498 53.9852 72.3087 53.5058 71.791 53.5058Z" fill="white"/>
<defs>
<radialGradient id="paint0_radial_2_10678" cx="0" cy="0" r="1" gradientUnits="userSpaceOnUse" gradientTransform="translate(81.5885 55.1194) scale(5.79234)">
<stop stop-color="white"/>
<stop offset="0.09" stop-color="white"/>
<stop offset="0.15" stop-color="#FEFEF9"/>
<stop offset="0.22" stop-color="#FEFCEA"/>
<stop offset="0.29" stop-color="#FEFAD1"/>
<stop offset="0.37" stop-color="#FEF6AE"/>
<stop offset="0.46" stop-color="#FEF281"/>
<stop offset="0.55" stop-color="#FDEC4A"/>
<stop offset="0.64" stop-color="#FDE50A"/>
<stop offset="0.65" stop-color="#FDE502"/>
<stop offset="0.83" stop-color="#FDE502"/>
<stop offset="0.86" stop-color="#FDE502"/>
<stop offset="1" stop-color="white"/>
</radialGradient>
<linearGradient id="paint1_linear_2_10678" x1="76.5034" y1="56.3571" x2="86.5795" y2="56.3571" gradientUnits="userSpaceOnUse">
<stop stop-color="#B8804B"/>
<stop offset="0.05" stop-color="#B8804B"/>
<stop offset="0.34" stop-color="#FCE3D4"/>
<stop offset="0.61" stop-color="#D9B597"/>
<stop offset="0.81" stop-color="#915D25"/>
<stop offset="0.99" stop-color="#E8C097"/>
<stop offset="1" stop-color="#E8C097"/>
</linearGradient>
<linearGradient id="paint2_linear_2_10678" x1="76.5034" y1="54.6084" x2="86.5795" y2="54.6084" gradientUnits="userSpaceOnUse">
<stop stop-color="#AF2025"/>
<stop offset="0.53" stop-color="#E6282B"/>
<stop offset="1" stop-color="#AF2025"/>
</linearGradient>
<linearGradient id="paint3_linear_2_10678" x1="66.2003" y1="50.1765" x2="66.2003" y2="59.6337" gradientUnits="userSpaceOnUse">
<stop stop-color="#107EC2"/>
<stop offset="0.38" stop-color="#214695"/>
<stop offset="0.74" stop-color="#214695"/>
<stop offset="1" stop-color="#2CAAE1"/>
</linearGradient>
<linearGradient id="paint4_linear_2_10678" x1="71.7267" y1="55.9755" x2="62.773" y2="58.5785" gradientUnits="userSpaceOnUse">
<stop stop-color="#2CAAE1"/>
<stop offset="0.33" stop-color="#1A7ABC"/>
<stop offset="0.59" stop-color="#105CA5"/>
<stop offset="0.73" stop-color="#0C519D"/>
<stop offset="0.98" stop-color="#0F66AF"/>
<stop offset="1" stop-color="#0F66AF"/>
</linearGradient>
<linearGradient id="paint5_linear_2_10678" x1="68.3851" y1="58.0533" x2="68.2764" y2="59.8099" gradientUnits="userSpaceOnUse">
<stop stop-color="#2CAAE1"/>
<stop offset="0.28" stop-color="#2291CE"/>
<stop offset="0.69" stop-color="#1673B8"/>
<stop offset="0.93" stop-color="#1268B0"/>
<stop offset="1" stop-color="#1268B0"/>
</linearGradient>
<linearGradient id="paint6_linear_2_10678" x1="65.5715" y1="55.0782" x2="65.5715" y2="58.0663" gradientUnits="userSpaceOnUse">
<stop stop-color="#2CAAE1"/>
<stop offset="0.13" stop-color="#2CAAE1"/>
<stop offset="0.39" stop-color="#1E85C5"/>
<stop offset="0.73" stop-color="#0C519D"/>
<stop offset="1" stop-color="#0C519D"/>
</linearGradient>
</defs>
</svg>
