<svg width="54" height="50" viewBox="0 0 54 50" fill="none" xmlns="http://www.w3.org/2000/svg">
<rect width="53.8462" height="50" rx="5" fill="#E1E7FB"/>
<path fill-rule="evenodd" clip-rule="evenodd" d="M23.3667 27.3714L23.507 26.0432C23.076 26.2396 22.6134 26.3828 22.1177 26.3828C21.3324 26.3828 20.4273 26.0193 20.2606 25.0755H24.6377C24.6823 23.0109 23.6205 21.6693 21.4969 21.6693C19.6178 21.6693 18.393 22.9224 18.393 24.5922C18.393 26.5141 19.7639 27.6464 21.7088 27.6464C22.2943 27.6464 22.8804 27.5698 23.3667 27.3714ZM14.5348 27.6464C16.6011 27.6464 17.8501 26.4151 17.8501 24.3172V19.7807H16.1601V22.3297C15.8505 22.0005 15.2303 21.6687 14.3924 21.6687C12.5579 21.6687 11.3289 22.8677 11.3289 24.6583C11.3289 26.3729 12.6226 27.6464 14.5348 27.6464ZM30.6951 23.6599C30.7093 23.6599 30.6867 23.662 30.6988 23.6599C30.8775 22.2224 31.9619 21.6687 33.3554 21.6687C33.6198 21.6687 33.941 21.7219 34.1702 21.7594C34.2579 21.774 34.3321 21.7859 34.3846 21.7922L34.0634 23.2641C33.9531 23.2068 33.6445 23.1323 33.3901 23.1323C32.5843 23.1323 32.3609 23.6583 32.3609 24.4828V27.5349H30.6604V24.0646C30.6604 22.4068 29.4462 21.6687 27.833 21.6687C26.2183 21.6687 25.0019 22.4068 25.0019 24.0646V27.5354H26.6945V24.4828C26.6945 23.6578 27.0136 23.1323 27.833 23.1323C28.6488 23.1323 28.97 23.6583 28.97 24.4828V27.5349H30.6604C29.2954 32.974 24.3181 37 18.4256 37C12.6657 37 7.81241 33.151 6.32117 27.899C6.31118 27.8667 6.18082 27.426 6.08147 26.9042C6.06308 26.8115 6.0226 26.563 6 26.3771L6.01472 26.4344C6.01997 26.4526 6.02523 26.4719 6.03469 26.5104C6.10565 26.7932 6.25021 26.9651 6.25809 26.9734C6.61447 27.4344 7.18795 27.4969 7.18795 27.4969V27.4948C7.33408 27.5208 7.48914 27.5354 7.64946 27.5354H10.9668L11.2091 26.0432H8.21295C7.74933 26.0432 7.50491 25.7786 7.50491 25.2187V24.2948H10.4369L10.6787 22.8557H7.50491V21.2745H11.0099L11.2412 19.7807H6.77742C8.65238 15.2188 13.1598 12 18.4256 12C25.0871 12 30.2557 17.149 30.6951 23.6599ZM43.8383 23.1391C42.941 23.1391 42.3744 23.7719 42.3744 24.6552C42.3744 25.5286 42.951 26.1833 43.8383 26.1833C44.7256 26.1833 45.3258 25.5609 45.3258 24.6552C45.3258 23.7521 44.7256 23.1396 43.8383 23.1396V23.1391ZM45.3626 22.3422V19.8125H47V24.3177C47 26.4021 45.7921 27.625 43.791 27.625C41.9418 27.625 40.6923 26.3578 40.6923 24.6552C40.6923 22.8786 41.8766 21.688 43.6532 21.688C44.4659 21.688 45.0641 22.0151 45.3632 22.3422H45.3626ZM36.227 24.0859C36.371 23.4849 36.8415 23.0339 37.5768 23.0339C38.2691 23.0339 38.7595 23.4229 38.8484 24.0859H36.227ZM34.3846 24.6964C34.3846 26.5401 35.767 27.625 37.7329 27.625C38.3243 27.625 38.9183 27.5516 39.4071 27.3615L39.549 26.088C39.1133 26.276 38.6491 26.4135 38.1477 26.4135C37.355 26.4135 36.4388 26.0646 36.2701 25.1599H40.6907C40.7359 23.1807 39.6636 21.8958 37.5211 21.8958C35.6236 21.8958 34.3846 23.0953 34.3846 24.6964ZM21.5811 22.8562C22.2665 22.8562 22.7532 23.2625 22.8405 23.9542H20.2449C20.3868 23.3292 20.853 22.8562 21.5811 22.8562ZM12.8333 24.6583C12.8333 25.5375 13.4294 26.1964 14.3467 26.1964C15.2639 26.1964 15.8821 25.5698 15.8821 24.6578C15.8821 23.7464 15.2639 23.1318 14.3467 23.1318C13.4173 23.1318 12.8333 23.7682 12.8333 24.6578V24.6583Z" fill="#F72717"/>
</svg>
