<svg width="263" height="35" viewBox="0 0 263 35" fill="none" xmlns="http://www.w3.org/2000/svg">
<rect width="263" height="35" rx="4" fill="#F4F5F6"/>
<path d="M227 0H259C261.209 0 263 1.79086 263 4V31C263 33.2091 261.209 35 259 35H227V0Z" fill="#FF8B00"/>
<path d="M253.78 23.833L250.664 20.7177C250.524 20.5771 250.333 20.499 250.133 20.499H249.624C250.486 19.396 250.999 18.0086 250.999 16.4994C250.999 12.9091 248.09 10 244.499 10C240.909 10 238 12.9091 238 16.4994C238 20.0896 240.909 22.9987 244.499 22.9987C246.009 22.9987 247.396 22.4863 248.499 21.6239V22.1332C248.499 22.3332 248.577 22.5238 248.718 22.6644L251.833 25.7797C252.127 26.0734 252.602 26.0734 252.892 25.7797L253.777 24.8954C254.07 24.6017 254.07 24.1267 253.78 23.833ZM244.499 20.499C242.29 20.499 240.5 18.7116 240.5 16.4994C240.5 14.2902 242.287 12.4998 244.499 12.4998C246.709 12.4998 248.499 14.2871 248.499 16.4994C248.499 18.7085 246.712 20.499 244.499 20.499Z" fill="white"/>
</svg>
