<svg width="87" height="365" viewBox="0 0 87 365" fill="none" xmlns="http://www.w3.org/2000/svg">
<path d="M17.1961 106.048L69.4149 106.048L69.4149 83.8335L17.1961 83.8335L17.1961 106.048Z" fill="#808080"/>
<path d="M27.8542 106.043L59.913 106.043L59.913 97.1817L27.8542 97.1817L27.8542 106.043Z" fill="#666666"/>
<path d="M6.24226 36.7646L80.0869 36.7646C80.8596 36.7646 81.486 36.2497 81.486 35.6145L81.486 15.9252C81.486 15.29 80.8596 14.7751 80.0869 14.7751L6.24226 14.7751C5.46957 14.7751 4.84318 15.29 4.84318 15.9252L4.84319 35.6145C4.84319 36.2497 5.46957 36.7646 6.24226 36.7646Z" fill="#666666"/>
<path d="M20.108 92.3235L67.0971 92.3235C72.0072 92.3235 76.0112 89.0867 76.0912 85.0502L77.6901 9.39282C77.7434 6.71464 75.8713 4.23909 72.8799 3.17658C68.4029 1.59377 59.8619 3.03537e-07 43.5992 2.05493e-07C27.3433 1.07489e-07 18.8022 1.59377 14.3252 3.17658C11.3338 4.23362 9.46173 6.71464 9.51503 9.39282L11.114 85.0502C11.1939 89.0867 15.198 92.3235 20.108 92.3235Z" fill="#D2D3D4"/>
<path d="M72.1476 36.7658L68.1236 48.5848C68.1236 48.5848 60.2155 47.1663 43.1734 47.1663C26.1314 47.1663 18.2233 48.5848 18.2233 48.5848L13.9061 36.7658C13.9061 36.7658 26.4178 33.2168 43.0268 33.2168C59.6358 33.2168 72.1476 36.7658 72.1476 36.7658Z" fill="#808080"/>
<path d="M63.3947 34.9177L59.344 0.632655C57.4786 0.457396 55.4266 0.314998 53.1681 0.210938L61.7891 34.6603L63.3947 34.9177Z" fill="#83838B"/>
<path d="M24.3521 34.6635L32.9597 0.268799C30.6879 0.38929 28.6426 0.553596 26.7838 0.745286L22.7465 34.9209L24.3521 34.6635Z" fill="#83838B"/>
<path d="M54.1861 4.29839C54.1861 4.29839 50.2887 1.89404 43.0268 1.89404C35.7649 1.89404 31.9541 4.29838 31.9541 4.29838" fill="#D2D3D4"/>
<path d="M54.2029 83.3397L54.2029 53.551" stroke="#E6E6E6" stroke-width="3" stroke-miterlimit="10" stroke-linecap="round"/>
<path d="M43.5961 83.3399L43.5961 53.5513" stroke="#E6E6E6" stroke-width="3" stroke-miterlimit="10" stroke-linecap="round"/>
<path d="M32.9993 83.3399L32.9993 53.5513" stroke="#E6E6E6" stroke-width="3" stroke-miterlimit="10" stroke-linecap="round"/>
<path d="M72.1463 49.0564L69.4148 53.5529L69.4148 71.046L72.1463 72.8424L72.1463 49.0564Z" fill="#808080"/>
<path d="M13.9061 49.0564L16.6377 53.5529L16.6377 71.046L13.9061 72.8424L13.9061 49.0564Z" fill="#808080"/>
<path d="M13.902 38.02C13.902 38.6498 13.1825 39.1208 12.443 38.9675C11.2904 38.7265 9.57156 38.5074 7.71945 38.7703C4.41498 39.2413 2.82936 40.6598 2.10984 39.3618C1.39031 38.0638 3.4756 37.3518 6.24043 36.7603C8.21912 36.3386 11.2838 36.5193 12.8694 36.6562C13.4557 36.7055 13.902 37.1163 13.902 37.6037L13.902 38.02Z" fill="#D2D3D4"/>
<path d="M72.1451 38.019C72.1451 38.6488 72.8647 39.1198 73.6042 38.9665C74.7567 38.7255 76.4756 38.5064 78.3277 38.7693C81.6322 39.2403 83.2178 40.6588 83.9373 39.3608C84.6569 38.0628 82.5716 37.3508 79.8067 36.7593C77.828 36.3376 74.7634 36.5183 73.1778 36.6552C72.5915 36.7045 72.1451 37.1153 72.1451 37.6027L72.1451 38.019Z" fill="#D2D3D4"/>
<path d="M14.3218 4.97299C18.7989 3.39018 27.3399 1.79641 43.6025 1.79641C59.8585 1.79641 68.4062 3.39018 72.8832 4.97299C75.7147 5.97526 77.5201 8.25363 77.66 10.762L77.6867 9.39282C77.74 6.71463 75.8679 4.23909 72.8765 3.17658C68.3995 1.59377 59.8585 3.03577e-07 43.5959 2.05533e-07C27.3399 1.07529e-07 18.7922 1.59377 14.3152 3.17658C11.3238 4.23361 9.45172 6.71463 9.50502 9.39282L9.53166 10.762C9.67157 8.25363 11.477 5.97526 14.3085 4.97299L14.3218 4.97299Z" fill="#808080"/>
<path d="M9.51168 9.39087L9.53833 10.7601C11.7369 5.68851 17.4798 3.95782 20.3512 3.3937C21.3439 3.20201 22.0368 2.46811 22.0368 1.62467L22.0368 1.35083C18.6323 1.88756 16.134 2.53383 14.3152 3.17463C11.3238 4.23166 9.45172 6.71268 9.50502 9.39087L9.51168 9.39087Z" fill="#83838B"/>
<path d="M77.6879 9.39062L77.6613 10.7598C75.4627 5.68826 69.7198 3.95757 66.8484 3.39346C65.8557 3.20177 65.1628 2.46787 65.1628 1.62443L65.1628 1.35059C68.5673 1.88732 71.0656 2.53359 72.8844 3.17438C75.8758 4.23142 77.7479 6.71243 77.6946 9.39062L77.6879 9.39062Z" fill="#83838B"/>
<path d="M71.4214 91.4094L68.3635 86.2118C67.9704 85.5491 66.9977 85.2917 66.1982 85.6313C63.8864 86.6007 57.9037 88.1287 43.1734 88.1287C29.5823 88.1287 23.7329 86.8307 21.2612 85.8668C20.1752 85.4451 18.8827 85.7956 18.3031 86.6609L15.2784 91.1684C15.2784 91.1684 17.0173 92.3295 20.1153 92.3295C23.2132 92.3295 65.1656 92.3295 65.1656 92.3295C65.1656 92.3295 69.516 92.5705 71.4348 91.4149L71.4214 91.4094Z" fill="#83838B"/>
<path d="M0.000106812 151.04L86.2565 151.04L86.2565 125.123L0.000105546 125.123L0.000106812 151.04Z" fill="#666666"/>
<path d="M0.000106812 179.924L86.2565 179.924L86.2565 154.008L0.000105546 154.008L0.000106812 179.924Z" fill="#666666"/>
<path d="M0.000106812 311.989L86.2565 311.989L86.2565 286.072L0.000105546 286.072L0.000106812 311.989Z" fill="#666666"/>
<path d="M0.000106812 340.875L86.2565 340.875L86.2565 314.958L0.000105546 314.958L0.000106812 340.875Z" fill="#666666"/>
<path d="M25.6618 365L60.5988 365L60.5988 360.739L25.6618 360.739L25.6618 365Z" fill="#666666"/>
<path d="M4.22949 362.87L82.9774 362.87L82.9774 104.828L4.22948 104.828L4.22949 362.87Z" fill="#D2D3D4"/>
</svg>
