<svg width="190" height="190" viewBox="0 0 190 190" fill="none" xmlns="http://www.w3.org/2000/svg">
<path opacity="0.5" d="M94.1972 6.62922C71.0459 6.83953 48.9017 16.1265 32.5263 32.4933C16.1508 48.86 6.85201 70.9992 6.62935 94.1503C6.40669 117.301 15.278 139.615 31.3356 156.294C47.3932 172.973 69.3547 182.684 92.4976 183.34L93.2483 156.838C77.0483 156.379 61.6753 149.581 50.4349 137.906C39.1946 126.231 32.9847 110.611 33.1405 94.4053C33.2964 78.1995 39.8056 62.7021 51.2684 51.2454C62.7312 39.7887 78.2321 33.2878 94.438 33.1405L94.1972 6.62922Z" fill="#FF8B00"/>
<path opacity="0.5" d="M155.057 159.833C146.543 167.719 136.559 173.852 125.675 177.88C114.791 181.909 103.22 183.754 91.6234 183.31L92.6363 156.817C100.754 157.128 108.854 155.836 116.473 153.016C124.091 150.196 131.08 145.904 137.04 140.383L155.057 159.833Z" fill="#FFDCB3"/>
<path d="M94.1972 6.62922C117.168 6.42055 139.318 15.1646 155.952 31.0083L137.666 50.2059C126.022 39.1153 110.518 32.9945 94.438 33.1405L94.1972 6.62922Z" fill="#FF8B00"/>
<path opacity="0.7" d="M155.841 30.9028C164.604 39.2205 171.568 49.2466 176.303 60.3617C181.039 71.4768 183.445 83.4449 183.373 95.5265C183.301 107.608 180.753 119.547 175.885 130.605C171.018 141.663 163.934 151.605 155.073 159.818L137.051 140.373C143.254 134.624 148.212 127.664 151.62 119.923C155.027 112.183 156.811 103.826 156.861 95.3686C156.911 86.9115 155.227 78.5338 151.912 70.7533C148.598 62.9727 143.723 55.9544 137.589 50.1321L155.841 30.9028Z" fill="#FFC580"/>
<path d="M76.8622 99.3882C75.8756 99.3882 74.9089 99.2482 73.9622 98.9682C73.0289 98.6749 72.2422 98.2749 71.6022 97.7682L72.7022 95.7482C73.2089 96.1616 73.8222 96.4949 74.5422 96.7482C75.2756 97.0016 76.0356 97.1282 76.8222 97.1282C77.7422 97.1282 78.4622 96.9349 78.9822 96.5482C79.5156 96.1616 79.7822 95.6416 79.7822 94.9882C79.7822 94.5482 79.6689 94.1616 79.4422 93.8282C79.2289 93.4949 78.8422 93.2416 78.2822 93.0682C77.7356 92.8949 76.9822 92.8082 76.0222 92.8082H72.6422L73.3622 85.1882H81.5822V87.3682H74.3222L75.6822 86.1282L75.1422 91.8282L73.7822 90.6082H76.6022C77.9889 90.6082 79.1022 90.7949 79.9422 91.1682C80.7956 91.5282 81.4156 92.0349 81.8022 92.6882C82.2022 93.3282 82.4022 94.0616 82.4022 94.8882C82.4022 95.7016 82.2022 96.4482 81.8022 97.1282C81.4022 97.8082 80.7889 98.3549 79.9622 98.7682C79.1489 99.1816 78.1156 99.3882 76.8622 99.3882ZM84.1519 102.208L85.3119 97.7882L85.6519 99.2682C85.1852 99.2682 84.7919 99.1282 84.4719 98.8482C84.1652 98.5549 84.0119 98.1616 84.0119 97.6682C84.0119 97.1616 84.1652 96.7616 84.4719 96.4682C84.7919 96.1616 85.1786 96.0082 85.6319 96.0082C86.0986 96.0082 86.4852 96.1616 86.7919 96.4682C87.0986 96.7749 87.2519 97.1749 87.2519 97.6682C87.2519 97.8016 87.2386 97.9482 87.2119 98.1082C87.1852 98.2549 87.1386 98.4282 87.0719 98.6282C87.0186 98.8282 86.9252 99.0816 86.7919 99.3882L85.7719 102.208H84.1519ZM89.1 99.1882V97.4482L94.66 92.1682C95.1267 91.7282 95.4734 91.3416 95.7 91.0082C95.9267 90.6749 96.0734 90.3682 96.14 90.0882C96.22 89.7949 96.26 89.5216 96.26 89.2682C96.26 88.6282 96.04 88.1349 95.6 87.7882C95.16 87.4282 94.5134 87.2482 93.66 87.2482C92.98 87.2482 92.36 87.3682 91.8 87.6082C91.2534 87.8482 90.78 88.2149 90.38 88.7082L88.56 87.3082C89.1067 86.5749 89.84 86.0082 90.76 85.6082C91.6934 85.1949 92.7334 84.9882 93.88 84.9882C94.8934 84.9882 95.7734 85.1549 96.52 85.4882C97.28 85.8082 97.86 86.2682 98.26 86.8682C98.6734 87.4682 98.88 88.1816 98.88 89.0082C98.88 89.4616 98.82 89.9149 98.7 90.3682C98.58 90.8082 98.3534 91.2749 98.02 91.7682C97.6867 92.2616 97.2 92.8149 96.56 93.4282L91.78 97.9682L91.24 96.9882H99.42V99.1882H89.1ZM100.891 99.1882V97.4482L106.451 92.1682C106.917 91.7282 107.264 91.3416 107.491 91.0082C107.717 90.6749 107.864 90.3682 107.931 90.0882C108.011 89.7949 108.051 89.5216 108.051 89.2682C108.051 88.6282 107.831 88.1349 107.391 87.7882C106.951 87.4282 106.304 87.2482 105.451 87.2482C104.771 87.2482 104.151 87.3682 103.591 87.6082C103.044 87.8482 102.571 88.2149 102.171 88.7082L100.351 87.3082C100.897 86.5749 101.631 86.0082 102.551 85.6082C103.484 85.1949 104.524 84.9882 105.671 84.9882C106.684 84.9882 107.564 85.1549 108.311 85.4882C109.071 85.8082 109.651 86.2682 110.051 86.8682C110.464 87.4682 110.671 88.1816 110.671 89.0082C110.671 89.4616 110.611 89.9149 110.491 90.3682C110.371 90.8082 110.144 91.2749 109.811 91.7682C109.477 92.2616 108.991 92.8149 108.351 93.4282L103.571 97.9682L103.031 96.9882H111.211V99.1882H100.891ZM115.101 99.1882V86.1882L116.241 87.3682H112.141V85.1882H117.701V99.1882H115.101Z" fill="#59595B"/>
<path d="M83.2105 114.477V106.845H80.2585V106.077H87.0505V106.845H84.0985V114.477H83.2105ZM90.6008 114.537C89.9928 114.537 89.4448 114.401 88.9568 114.129C88.4768 113.849 88.0968 113.469 87.8168 112.989C87.5368 112.501 87.3968 111.945 87.3968 111.321C87.3968 110.689 87.5368 110.133 87.8168 109.653C88.0968 109.173 88.4768 108.797 88.9568 108.525C89.4368 108.253 89.9848 108.117 90.6008 108.117C91.2248 108.117 91.7768 108.253 92.2568 108.525C92.7448 108.797 93.1248 109.173 93.3968 109.653C93.6768 110.133 93.8168 110.689 93.8168 111.321C93.8168 111.945 93.6768 112.501 93.3968 112.989C93.1248 113.469 92.7448 113.849 92.2568 114.129C91.7688 114.401 91.2168 114.537 90.6008 114.537ZM90.6008 113.781C91.0568 113.781 91.4608 113.681 91.8128 113.481C92.1648 113.273 92.4408 112.985 92.6408 112.617C92.8488 112.241 92.9528 111.809 92.9528 111.321C92.9528 110.825 92.8488 110.393 92.6408 110.025C92.4408 109.657 92.1648 109.373 91.8128 109.173C91.4608 108.965 91.0608 108.861 90.6128 108.861C90.1648 108.861 89.7648 108.965 89.4128 109.173C89.0608 109.373 88.7808 109.657 88.5728 110.025C88.3648 110.393 88.2608 110.825 88.2608 111.321C88.2608 111.809 88.3648 112.241 88.5728 112.617C88.7808 112.985 89.0608 113.273 89.4128 113.481C89.7648 113.681 90.1608 113.781 90.6008 113.781ZM97.9483 114.537C97.3563 114.537 96.9003 114.377 96.5803 114.057C96.2603 113.737 96.1003 113.285 96.1003 112.701V106.785H96.9523V112.653C96.9523 113.021 97.0443 113.305 97.2283 113.505C97.4203 113.705 97.6923 113.805 98.0443 113.805C98.4203 113.805 98.7323 113.697 98.9803 113.481L99.2803 114.093C99.1123 114.245 98.9083 114.357 98.6683 114.429C98.4363 114.501 98.1963 114.537 97.9483 114.537ZM94.9723 108.885V108.177H98.8723V108.885H94.9723ZM105.179 114.477V113.085L105.143 112.857V110.529C105.143 109.993 104.991 109.581 104.687 109.293C104.391 109.005 103.947 108.861 103.355 108.861C102.947 108.861 102.559 108.929 102.191 109.065C101.823 109.201 101.511 109.381 101.255 109.605L100.871 108.969C101.191 108.697 101.575 108.489 102.023 108.345C102.471 108.193 102.943 108.117 103.439 108.117C104.255 108.117 104.883 108.321 105.323 108.729C105.771 109.129 105.995 109.741 105.995 110.565V114.477H105.179ZM103.007 114.537C102.535 114.537 102.123 114.461 101.771 114.309C101.427 114.149 101.163 113.933 100.979 113.661C100.795 113.381 100.703 113.061 100.703 112.701C100.703 112.373 100.779 112.077 100.931 111.813C101.091 111.541 101.347 111.325 101.699 111.165C102.059 110.997 102.539 110.913 103.139 110.913H105.311V111.549H103.163C102.555 111.549 102.131 111.657 101.891 111.873C101.659 112.089 101.543 112.357 101.543 112.677C101.543 113.037 101.683 113.325 101.963 113.541C102.243 113.757 102.635 113.865 103.139 113.865C103.619 113.865 104.031 113.757 104.375 113.541C104.727 113.317 104.983 112.997 105.143 112.581L105.335 113.169C105.175 113.585 104.895 113.917 104.495 114.165C104.103 114.413 103.607 114.537 103.007 114.537ZM108.709 114.477V105.573H109.561V114.477H108.709Z" fill="#59595B"/>
</svg>
