<svg width="21" height="20" viewBox="0 0 21 20" fill="none" xmlns="http://www.w3.org/2000/svg">
<path d="M20.546 5.818L18.174 3.446C17.778 3.05 17.142 3.05 16.748 3.446C16.352 3.842 16.352 4.478 16.748 4.872L18.834 6.958V14.028C18.834 14.358 18.548 14.642 18.22 14.642C17.89 14.642 17.606 14.356 17.606 14.028C17.606 12.36 16.244 10.998 14.576 10.998H14.532V1.01C14.532 0.44 14.07 0 13.522 0H2.568C2.02 0 1.558 0.44 1.558 1.01V17.98H1.01C0.462 17.98 0 18.442 0 18.99C0 19.56 0.462 20 1.01 20H15.06C15.608 20 16.07 19.56 16.07 18.99C16.07 18.442 15.608 17.98 15.06 17.98H14.512V13.018H14.556C15.104 13.018 15.566 13.48 15.566 14.028C15.566 15.476 16.752 16.662 18.2 16.662C19.648 16.662 20.834 15.476 20.834 14.028V6.542C20.852 6.278 20.744 6.016 20.546 5.818ZM8.032 16.378C6.934 16.378 6.034 15.478 6.034 14.38C6.034 13.502 7.286 11.548 7.812 10.78C7.922 10.626 8.164 10.626 8.274 10.78C8.8 11.548 10.052 13.48 10.052 14.38C10.03 15.478 9.13 16.378 8.032 16.378ZM12.488 7.596H3.576V2.02H12.49V7.596H12.488Z" fill="#59595B"/>
</svg>
