<svg width="12" height="17" viewBox="0 0 12 17" fill="none" xmlns="http://www.w3.org/2000/svg">
<g clip-path="url(#clip0_394_3161)">
<path d="M2 0.5C0.896875 0.5 0 1.39688 0 2.5V14.5C0 15.6031 0.896875 16.5 2 16.5H10C11.1031 16.5 12 15.6031 12 14.5V5.5H8C7.44688 5.5 7 5.05312 7 4.5V0.5H2ZM8 0.5V4.5H12L8 0.5ZM6.75 7.75V10.9406L7.71875 9.97188C8.0125 9.67813 8.4875 9.67813 8.77812 9.97188C9.06875 10.2656 9.07187 10.7406 8.77812 11.0312L6.52812 13.2812C6.23438 13.575 5.75938 13.575 5.46875 13.2812L3.21875 11.0312C2.925 10.7375 2.925 10.2625 3.21875 9.97188C3.5125 9.68125 3.9875 9.67813 4.27812 9.97188L5.24687 10.9406V7.75C5.24687 7.33437 5.58125 7 5.99687 7C6.4125 7 6.74687 7.33437 6.74687 7.75H6.75Z" fill="#FF8B00"/>
</g>
<defs>
<clipPath id="clip0_394_3161">
<rect width="12" height="16" fill="white" transform="translate(0 0.5)"/>
</clipPath>
</defs>
</svg>
