<svg width="105" height="24" viewBox="0 0 105 24" fill="none" xmlns="http://www.w3.org/2000/svg">
<rect x="0.5" y="0.5" width="104" height="23" rx="11.5" fill="white"/>
<circle cx="15" cy="12" r="5" fill="#22C55E"/>
<path d="M29.26 16V7.6H32.8C33.696 7.6 34.484 7.776 35.164 8.128C35.852 8.48 36.384 8.972 36.76 9.604C37.144 10.236 37.336 10.968 37.336 11.8C37.336 12.632 37.144 13.364 36.76 13.996C36.384 14.628 35.852 15.12 35.164 15.472C34.484 15.824 33.696 16 32.8 16H29.26ZM30.46 14.956H32.728C33.424 14.956 34.024 14.824 34.528 14.56C35.04 14.296 35.436 13.928 35.716 13.456C35.996 12.976 36.136 12.424 36.136 11.8C36.136 11.168 35.996 10.616 35.716 10.144C35.436 9.672 35.04 9.304 34.528 9.04C34.024 8.776 33.424 8.644 32.728 8.644H30.46V14.956ZM39.1661 16V9.64H40.3181V16H39.1661ZM39.7421 8.416C39.5181 8.416 39.3301 8.344 39.1781 8.2C39.0341 8.056 38.9621 7.88 38.9621 7.672C38.9621 7.456 39.0341 7.276 39.1781 7.132C39.3301 6.988 39.5181 6.916 39.7421 6.916C39.9661 6.916 40.1501 6.988 40.2941 7.132C40.4461 7.268 40.5221 7.44 40.5221 7.648C40.5221 7.864 40.4501 8.048 40.3061 8.2C40.1621 8.344 39.9741 8.416 39.7421 8.416ZM44.5016 16.072C43.9736 16.072 43.4696 16 42.9896 15.856C42.5176 15.712 42.1456 15.536 41.8736 15.328L42.3536 14.416C42.6256 14.6 42.9616 14.756 43.3616 14.884C43.7616 15.012 44.1696 15.076 44.5856 15.076C45.1216 15.076 45.5056 15 45.7376 14.848C45.9776 14.696 46.0976 14.484 46.0976 14.212C46.0976 14.012 46.0256 13.856 45.8816 13.744C45.7376 13.632 45.5456 13.548 45.3056 13.492C45.0736 13.436 44.8136 13.388 44.5256 13.348C44.2376 13.3 43.9496 13.244 43.6616 13.18C43.3736 13.108 43.1096 13.012 42.8696 12.892C42.6296 12.764 42.4376 12.592 42.2936 12.376C42.1496 12.152 42.0776 11.856 42.0776 11.488C42.0776 11.104 42.1856 10.768 42.4016 10.48C42.6176 10.192 42.9216 9.972 43.3136 9.82C43.7136 9.66 44.1856 9.58 44.7296 9.58C45.1456 9.58 45.5656 9.632 45.9896 9.736C46.4216 9.832 46.7736 9.972 47.0456 10.156L46.5536 11.068C46.2656 10.876 45.9656 10.744 45.6536 10.672C45.3416 10.6 45.0296 10.564 44.7176 10.564C44.2136 10.564 43.8376 10.648 43.5896 10.816C43.3416 10.976 43.2176 11.184 43.2176 11.44C43.2176 11.656 43.2896 11.824 43.4336 11.944C43.5856 12.056 43.7776 12.144 44.0096 12.208C44.2496 12.272 44.5136 12.328 44.8016 12.376C45.0896 12.416 45.3776 12.472 45.6656 12.544C45.9536 12.608 46.2136 12.7 46.4456 12.82C46.6856 12.94 46.8776 13.108 47.0216 13.324C47.1736 13.54 47.2496 13.828 47.2496 14.188C47.2496 14.572 47.1376 14.904 46.9136 15.184C46.6896 15.464 46.3736 15.684 45.9656 15.844C45.5576 15.996 45.0696 16.072 44.5016 16.072ZM52.2213 16.072C51.6933 16.072 51.2093 15.952 50.7693 15.712C50.3373 15.464 49.9893 15.1 49.7253 14.62C49.4693 14.14 49.3413 13.54 49.3413 12.82C49.3413 12.1 49.4653 11.5 49.7133 11.02C49.9693 10.54 50.3133 10.18 50.7453 9.94C51.1853 9.7 51.6773 9.58 52.2213 9.58C52.8453 9.58 53.3973 9.716 53.8773 9.988C54.3573 10.26 54.7373 10.64 55.0173 11.128C55.2973 11.608 55.4373 12.172 55.4373 12.82C55.4373 13.468 55.2973 14.036 55.0173 14.524C54.7373 15.012 54.3573 15.392 53.8773 15.664C53.3973 15.936 52.8453 16.072 52.2213 16.072ZM48.8493 18.328V9.64H49.9533V11.356L49.8813 12.832L50.0013 14.308V18.328H48.8493ZM52.1253 15.064C52.5333 15.064 52.8973 14.972 53.2173 14.788C53.5453 14.604 53.8013 14.344 53.9853 14.008C54.1773 13.664 54.2733 13.268 54.2733 12.82C54.2733 12.364 54.1773 11.972 53.9853 11.644C53.8013 11.308 53.5453 11.048 53.2173 10.864C52.8973 10.68 52.5333 10.588 52.1253 10.588C51.7253 10.588 51.3613 10.68 51.0333 10.864C50.7133 11.048 50.4573 11.308 50.2653 11.644C50.0813 11.972 49.9893 12.364 49.9893 12.82C49.9893 13.268 50.0813 13.664 50.2653 14.008C50.4573 14.344 50.7133 14.604 51.0333 14.788C51.3613 14.972 51.7253 15.064 52.1253 15.064ZM59.913 16.072C59.273 16.072 58.705 15.932 58.209 15.652C57.713 15.372 57.321 14.988 57.033 14.5C56.745 14.004 56.601 13.444 56.601 12.82C56.601 12.188 56.745 11.628 57.033 11.14C57.321 10.652 57.713 10.272 58.209 10C58.705 9.72 59.273 9.58 59.913 9.58C60.545 9.58 61.109 9.72 61.605 10C62.109 10.272 62.501 10.652 62.781 11.14C63.069 11.62 63.213 12.18 63.213 12.82C63.213 13.452 63.069 14.012 62.781 14.5C62.501 14.988 62.109 15.372 61.605 15.652C61.109 15.932 60.545 16.072 59.913 16.072ZM59.913 15.064C60.321 15.064 60.685 14.972 61.005 14.788C61.333 14.604 61.589 14.344 61.773 14.008C61.957 13.664 62.049 13.268 62.049 12.82C62.049 12.364 61.957 11.972 61.773 11.644C61.589 11.308 61.333 11.048 61.005 10.864C60.685 10.68 60.321 10.588 59.913 10.588C59.505 10.588 59.141 10.68 58.821 10.864C58.501 11.048 58.245 11.308 58.053 11.644C57.861 11.972 57.765 12.364 57.765 12.82C57.765 13.268 57.861 13.664 58.053 14.008C58.245 14.344 58.501 14.604 58.821 14.788C59.141 14.972 59.505 15.064 59.913 15.064ZM68.3622 9.58C68.8822 9.58 69.3382 9.68 69.7302 9.88C70.1302 10.08 70.4422 10.384 70.6662 10.792C70.8902 11.2 71.0022 11.716 71.0022 12.34V16H69.8502V12.472C69.8502 11.856 69.6982 11.392 69.3942 11.08C69.0982 10.768 68.6782 10.612 68.1342 10.612C67.7262 10.612 67.3702 10.692 67.0662 10.852C66.7622 11.012 66.5262 11.248 66.3582 11.56C66.1982 11.872 66.1182 12.26 66.1182 12.724V16H64.9662V9.64H66.0702V11.356L65.8902 10.9C66.0982 10.484 66.4182 10.16 66.8502 9.928C67.2822 9.696 67.7862 9.58 68.3622 9.58ZM73.2942 16V9.64H74.4462V16H73.2942ZM73.8702 8.416C73.6462 8.416 73.4582 8.344 73.3062 8.2C73.1622 8.056 73.0902 7.88 73.0902 7.672C73.0902 7.456 73.1622 7.276 73.3062 7.132C73.4582 6.988 73.6462 6.916 73.8702 6.916C74.0942 6.916 74.2782 6.988 74.4222 7.132C74.5742 7.268 74.6502 7.44 74.6502 7.648C74.6502 7.864 74.5782 8.048 74.4342 8.2C74.2902 8.344 74.1022 8.416 73.8702 8.416ZM80.1777 16.072C79.6337 16.072 79.1417 15.952 78.7017 15.712C78.2697 15.464 77.9257 15.1 77.6697 14.62C77.4217 14.14 77.2977 13.54 77.2977 12.82C77.2977 12.1 77.4257 11.5 77.6817 11.02C77.9457 10.54 78.2937 10.18 78.7257 9.94C79.1657 9.7 79.6497 9.58 80.1777 9.58C80.8017 9.58 81.3537 9.716 81.8337 9.988C82.3137 10.26 82.6937 10.64 82.9737 11.128C83.2537 11.608 83.3937 12.172 83.3937 12.82C83.3937 13.468 83.2537 14.036 82.9737 14.524C82.6937 15.012 82.3137 15.392 81.8337 15.664C81.3537 15.936 80.8017 16.072 80.1777 16.072ZM76.8057 16V7.096H77.9577V11.332L77.8377 12.808L77.9097 14.284V16H76.8057ZM80.0817 15.064C80.4897 15.064 80.8537 14.972 81.1737 14.788C81.5017 14.604 81.7577 14.344 81.9417 14.008C82.1337 13.664 82.2297 13.268 82.2297 12.82C82.2297 12.364 82.1337 11.972 81.9417 11.644C81.7577 11.308 81.5017 11.048 81.1737 10.864C80.8537 10.68 80.4897 10.588 80.0817 10.588C79.6817 10.588 79.3177 10.68 78.9897 10.864C78.6697 11.048 78.4137 11.308 78.2217 11.644C78.0377 11.972 77.9457 12.364 77.9457 12.82C77.9457 13.268 78.0377 13.664 78.2217 14.008C78.4137 14.344 78.6697 14.604 78.9897 14.788C79.3177 14.972 79.6817 15.064 80.0817 15.064ZM85.1454 16V7.096H86.2974V16H85.1454ZM91.489 16.072C90.809 16.072 90.209 15.932 89.689 15.652C89.177 15.372 88.777 14.988 88.489 14.5C88.209 14.012 88.069 13.452 88.069 12.82C88.069 12.188 88.205 11.628 88.477 11.14C88.757 10.652 89.137 10.272 89.617 10C90.105 9.72 90.653 9.58 91.261 9.58C91.877 9.58 92.421 9.716 92.893 9.988C93.365 10.26 93.733 10.644 93.997 11.14C94.269 11.628 94.405 12.2 94.405 12.856C94.405 12.904 94.401 12.96 94.393 13.024C94.393 13.088 94.389 13.148 94.381 13.204H88.969V12.376H93.781L93.313 12.664C93.321 12.256 93.237 11.892 93.061 11.572C92.885 11.252 92.641 11.004 92.329 10.828C92.025 10.644 91.669 10.552 91.261 10.552C90.861 10.552 90.505 10.644 90.193 10.828C89.881 11.004 89.637 11.256 89.461 11.584C89.285 11.904 89.197 12.272 89.197 12.688V12.88C89.197 13.304 89.293 13.684 89.485 14.02C89.685 14.348 89.961 14.604 90.313 14.788C90.665 14.972 91.069 15.064 91.525 15.064C91.901 15.064 92.241 15 92.545 14.872C92.857 14.744 93.129 14.552 93.361 14.296L93.997 15.04C93.709 15.376 93.349 15.632 92.917 15.808C92.493 15.984 92.017 16.072 91.489 16.072Z" fill="#59595B"/>
<rect x="0.5" y="0.5" width="104" height="23" rx="11.5" stroke="#22C55E"/>
</svg>
