<svg width="19" height="18" viewBox="0 0 19 18" fill="none" xmlns="http://www.w3.org/2000/svg">
<path d="M17.2926 0.762866C16.529 -0.00705567 15.2949 -0.00705567 14.5313 0.762866L13.4819 1.81755L16.8951 5.25935L17.9445 4.20115C18.7081 3.43123 18.7081 2.18669 17.9445 1.41677L17.2926 0.762866ZM6.86119 8.49724C6.64851 8.71169 6.48465 8.97537 6.39052 9.26716L5.35854 12.389C5.25743 12.6914 5.33762 13.0254 5.56075 13.2539C5.78388 13.4824 6.11509 13.5597 6.41841 13.4578L9.51436 12.4172C9.80024 12.3187 10.0617 12.157 10.2779 11.9426L16.1107 6.0574L12.694 2.61209L6.86119 8.49724ZM4.19756 2.24998C2.34975 2.24998 0.850586 3.76169 0.850586 5.62498V14.625C0.850586 16.4883 2.34975 18 4.19756 18H13.1228C14.9706 18 16.4698 16.4883 16.4698 14.625V11.25C16.4698 10.6277 15.9712 10.125 15.3541 10.125C14.737 10.125 14.2385 10.6277 14.2385 11.25V14.625C14.2385 15.2472 13.7399 15.75 13.1228 15.75H4.19756C3.58046 15.75 3.0819 15.2472 3.0819 14.625V5.62498C3.0819 5.00271 3.58046 4.49998 4.19756 4.49998H7.54453C8.16162 4.49998 8.66018 3.99724 8.66018 3.37498C8.66018 2.75271 8.16162 2.24998 7.54453 2.24998H4.19756Z" fill="#83838B"/>
</svg>
