<svg width="118" height="24" viewBox="0 0 118 24" fill="none" xmlns="http://www.w3.org/2000/svg">
<path fill-rule="evenodd" clip-rule="evenodd" d="M14.75 17C14.75 17 18.5 13.4462 18.5 10.75C18.5 9.75544 18.1049 8.80161 17.4017 8.09835C16.6984 7.39509 15.7446 7 14.75 7C13.7554 7 12.8016 7.39509 12.0983 8.09835C11.3951 8.80161 11 9.75544 11 10.75C11 13.4462 14.75 17 14.75 17ZM14.75 12.625C15.2473 12.625 15.7242 12.4275 16.0758 12.0758C16.4275 11.7242 16.625 11.2473 16.625 10.75C16.625 10.2527 16.4275 9.77581 16.0758 9.42417C15.7242 9.07254 15.2473 8.875 14.75 8.875C14.2527 8.875 13.7758 9.07254 13.4242 9.42417C13.0725 9.77581 12.875 10.2527 12.875 10.75C12.875 11.2473 13.0725 11.7242 13.4242 12.0758C13.7758 12.4275 14.2527 12.625 14.75 12.625Z" fill="#83838B"/>
<path d="M29.872 16V8.2L30.556 8.908H28.096V7.6H31.432V16H29.872ZM36.0423 16.12C35.4503 16.12 34.8703 16.036 34.3023 15.868C33.7423 15.692 33.2703 15.452 32.8863 15.148L33.5463 13.936C33.8503 14.184 34.2183 14.384 34.6503 14.536C35.0903 14.688 35.5463 14.764 36.0183 14.764C36.5703 14.764 37.0023 14.648 37.3143 14.416C37.6343 14.184 37.7943 13.872 37.7943 13.48C37.7943 13.216 37.7263 12.984 37.5903 12.784C37.4623 12.584 37.2303 12.432 36.8943 12.328C36.5663 12.224 36.1143 12.172 35.5383 12.172H33.5103L33.9423 7.6H38.8743V8.908H34.5183L35.3343 8.164L35.0103 11.584L34.1943 10.852H35.8863C36.7183 10.852 37.3863 10.964 37.8903 11.188C38.4023 11.404 38.7743 11.708 39.0063 12.1C39.2463 12.484 39.3663 12.924 39.3663 13.42C39.3663 13.908 39.2463 14.356 39.0063 14.764C38.7663 15.172 38.3983 15.5 37.9023 15.748C37.4143 15.996 36.7943 16.12 36.0423 16.12ZM43.9301 16.12C43.2661 16.12 42.6661 15.952 42.1301 15.616C41.6021 15.28 41.1861 14.792 40.8821 14.152C40.5781 13.504 40.4261 12.72 40.4261 11.8C40.4261 10.88 40.5781 10.1 40.8821 9.46C41.1861 8.812 41.6021 8.32 42.1301 7.984C42.6661 7.648 43.2661 7.48 43.9301 7.48C44.6021 7.48 45.2021 7.648 45.7301 7.984C46.2581 8.32 46.6741 8.812 46.9781 9.46C47.2901 10.1 47.4461 10.88 47.4461 11.8C47.4461 12.72 47.2901 13.504 46.9781 14.152C46.6741 14.792 46.2581 15.28 45.7301 15.616C45.2021 15.952 44.6021 16.12 43.9301 16.12ZM43.9301 14.764C44.3221 14.764 44.6621 14.66 44.9501 14.452C45.2381 14.236 45.4621 13.908 45.6221 13.468C45.7901 13.028 45.8741 12.472 45.8741 11.8C45.8741 11.12 45.7901 10.564 45.6221 10.132C45.4621 9.692 45.2381 9.368 44.9501 9.16C44.6621 8.944 44.3221 8.836 43.9301 8.836C43.5541 8.836 43.2181 8.944 42.9221 9.16C42.6341 9.368 42.4061 9.692 42.2381 10.132C42.0781 10.564 41.9981 11.12 41.9981 11.8C41.9981 12.472 42.0781 13.028 42.2381 13.468C42.4061 13.908 42.6341 14.236 42.9221 14.452C43.2181 14.66 43.5541 14.764 43.9301 14.764ZM53.8167 14.572L53.8527 12.688L57.2007 9.592H59.0008L56.1567 12.448L55.3647 13.108L53.8167 14.572ZM52.5927 16V7.096H54.0927V16H52.5927ZM57.4287 16L55.0887 13.108L56.0367 11.908L59.2527 16H57.4287ZM68.4111 9.52C68.9231 9.52 69.3751 9.62 69.7671 9.82C70.1671 10.02 70.4791 10.328 70.7031 10.744C70.9271 11.152 71.0391 11.68 71.0391 12.328V16H69.5391V12.52C69.5391 11.952 69.4151 11.528 69.1671 11.248C68.9191 10.968 68.5631 10.828 68.0991 10.828C67.7711 10.828 67.4791 10.9 67.2231 11.044C66.9751 11.188 66.7791 11.4 66.6351 11.68C66.4991 11.96 66.4311 12.316 66.4311 12.748V16H64.9311V12.52C64.9311 11.952 64.8071 11.528 64.5591 11.248C64.3111 10.968 63.9551 10.828 63.4911 10.828C63.1631 10.828 62.8711 10.9 62.6151 11.044C62.3671 11.188 62.1711 11.4 62.0271 11.68C61.8911 11.96 61.8231 12.316 61.8231 12.748V16H60.3231V9.592H61.7511V11.296L61.4991 10.792C61.7151 10.376 62.0271 10.06 62.4351 9.844C62.8511 9.628 63.3231 9.52 63.8511 9.52C64.4511 9.52 64.9711 9.668 65.4111 9.964C65.8591 10.26 66.1551 10.708 66.2991 11.308L65.7111 11.104C65.9191 10.624 66.2631 10.24 66.7431 9.952C67.2231 9.664 67.7791 9.52 68.4111 9.52Z" fill="#585863"/>
<path d="M104 5.33337C100.313 5.33337 97.3333 8.31337 97.3333 12C97.3333 15.6867 100.313 18.6667 104 18.6667C107.687 18.6667 110.667 15.6867 110.667 12C110.667 8.31337 107.687 5.33337 104 5.33337ZM107.333 14.3934L106.393 15.3334L104 12.94L101.607 15.3334L100.667 14.3934L103.06 12L100.667 9.60671L101.607 8.66671L104 11.06L106.393 8.66671L107.333 9.60671L104.94 12L107.333 14.3934Z" fill="black" fill-opacity="0.23"/>
<rect x="0.5" y="0.5" width="117" height="23" rx="11.5" stroke="#D9D9D9"/>
</svg>
