<svg width="458" height="222" viewBox="0 0 458 222" fill="none" xmlns="http://www.w3.org/2000/svg">
<line x1="38" y1="188.5" x2="458" y2="188.5" stroke="#D9D9D9"/>
<line x1="47.5" y1="189" x2="47.5" y2="9" stroke="#D9D9D9"/>
<line opacity="0.5" x1="38" y1="158.5" x2="458" y2="158.5" stroke="#D9D9D9"/>
<line opacity="0.5" x1="38" y1="128.5" x2="458" y2="128.5" stroke="#D9D9D9"/>
<line opacity="0.5" x1="38" y1="98.5" x2="458" y2="98.5" stroke="#D9D9D9"/>
<line opacity="0.5" x1="38" y1="68.5" x2="458" y2="68.5" stroke="#D9D9D9"/>
<line opacity="0.5" x1="38" y1="38.5" x2="458" y2="38.5" stroke="#D9D9D9"/>
<line opacity="0.5" x1="38" y1="8.5" x2="458" y2="8.5" stroke="#D9D9D9"/>
<path d="M344.048 17.3333C344.048 7.76039 351.808 0 361.381 0C370.954 0 378.714 7.7604 378.714 17.3333V203.714C378.714 213.287 370.954 221.048 361.381 221.048C351.808 221.048 344.048 213.287 344.048 203.714V17.3333Z" fill="#F4F5F6"/>
<rect x="68.9331" y="139.333" width="8.91428" height="52.4952" rx="4" fill="url(#paint0_linear_394_1539)"/>
<rect x="58.5332" y="154.19" width="8.91428" height="37.6381" rx="4" fill="url(#paint1_linear_394_1539)"/>
<rect x="178.876" y="71.981" width="8.91428" height="119.848" rx="4" fill="url(#paint2_linear_394_1539)"/>
<rect x="168" y="62" width="9" height="130" rx="4" fill="url(#paint3_linear_394_1539)"/>
<rect x="105.581" y="93.7715" width="8.91428" height="98.0571" rx="4" fill="url(#paint4_linear_394_1539)"/>
<rect x="95.1809" y="121.505" width="8.91428" height="70.3238" rx="4" fill="url(#paint5_linear_394_1539)"/>
<rect x="215.524" y="154.19" width="8.91428" height="37.6381" rx="4" fill="url(#paint6_linear_394_1539)"/>
<rect x="205.124" y="164.591" width="8.91428" height="27.2381" rx="4" fill="url(#paint7_linear_394_1539)"/>
<rect x="142.229" y="42.2666" width="8.91428" height="149.562" rx="4" fill="url(#paint8_linear_394_1539)"/>
<rect x="131.829" y="84.3618" width="8.91428" height="107.467" rx="4" fill="url(#paint9_linear_394_1539)"/>
<rect x="288.819" y="89.3142" width="8.91428" height="102.514" rx="4" fill="url(#paint10_linear_394_1539)"/>
<rect x="278" y="72" width="9" height="120" rx="4" fill="url(#paint11_linear_394_1539)"/>
<rect x="325.524" y="154.19" width="8.91428" height="37.6381" rx="4" fill="url(#paint12_linear_394_1539)"/>
<rect x="315.124" y="164.591" width="8.91428" height="27.2381" rx="4" fill="url(#paint13_linear_394_1539)"/>
<rect x="362.172" y="46.2285" width="8.91428" height="145.6" rx="4" fill="url(#paint14_linear_394_1539)"/>
<rect x="351.771" y="87.3333" width="8.91428" height="104.495" rx="4" fill="url(#paint15_linear_394_1539)"/>
<rect x="398.819" y="89.3142" width="8.91428" height="102.514" rx="4" fill="url(#paint16_linear_394_1539)"/>
<rect x="388" y="69" width="9" height="123" rx="4" fill="url(#paint17_linear_394_1539)"/>
<path opacity="0.5" d="M59.3601 207.355H63.3201V208.29H59.3601V207.355ZM59.4591 210.776H63.9471V211.733H58.3591V204.033H63.7931V204.99H59.4591V210.776ZM68.6872 205.848C69.1639 205.848 69.5819 205.94 69.9412 206.123C70.3079 206.307 70.5939 206.585 70.7992 206.959C71.0046 207.333 71.1072 207.806 71.1072 208.378V211.733H70.0512V208.499C70.0512 207.935 69.9119 207.509 69.6332 207.223C69.3619 206.937 68.9769 206.794 68.4782 206.794C68.1042 206.794 67.7779 206.868 67.4992 207.014C67.2206 207.161 67.0042 207.377 66.8502 207.663C66.7036 207.949 66.6302 208.305 66.6302 208.73V211.733H65.5742V205.903H66.5862V207.476L66.4212 207.058C66.6119 206.677 66.9052 206.38 67.3012 206.167C67.6972 205.955 68.1592 205.848 68.6872 205.848ZM75.6575 211.799C75.0342 211.799 74.4842 211.671 74.0075 211.414C73.5382 211.158 73.1715 210.806 72.9075 210.358C72.6509 209.911 72.5225 209.398 72.5225 208.818C72.5225 208.239 72.6472 207.726 72.8965 207.278C73.1532 206.831 73.5015 206.483 73.9415 206.233C74.3889 205.977 74.8912 205.848 75.4485 205.848C76.0132 205.848 76.5119 205.973 76.9445 206.222C77.3772 206.472 77.7145 206.824 77.9565 207.278C78.2059 207.726 78.3305 208.25 78.3305 208.851C78.3305 208.895 78.3269 208.947 78.3195 209.005C78.3195 209.064 78.3159 209.119 78.3085 209.17H73.3475V208.411H77.7585L77.3295 208.675C77.3369 208.301 77.2599 207.968 77.0985 207.674C76.9372 207.381 76.7135 207.154 76.4275 206.992C76.1489 206.824 75.8225 206.739 75.4485 206.739C75.0819 206.739 74.7555 206.824 74.4695 206.992C74.1835 207.154 73.9599 207.385 73.7985 207.685C73.6372 207.979 73.5565 208.316 73.5565 208.697V208.873C73.5565 209.262 73.6445 209.61 73.8205 209.918C74.0039 210.219 74.2569 210.454 74.5795 210.622C74.9022 210.791 75.2725 210.875 75.6905 210.875C76.0352 210.875 76.3469 210.817 76.6255 210.699C76.9115 210.582 77.1609 210.406 77.3735 210.171L77.9565 210.853C77.6925 211.161 77.3625 211.396 76.9665 211.557C76.5779 211.719 76.1415 211.799 75.6575 211.799Z" fill="#59595B"/>
<path opacity="0.5" d="M26.3371 192.088C25.7358 192.088 25.1968 191.934 24.7201 191.626C24.2508 191.318 23.8768 190.871 23.5981 190.284C23.3268 189.697 23.1911 188.986 23.1911 188.15C23.1911 187.314 23.3268 186.603 23.5981 186.016C23.8768 185.429 24.2508 184.982 24.7201 184.674C25.1968 184.366 25.7358 184.212 26.3371 184.212C26.9311 184.212 27.4664 184.366 27.9431 184.674C28.4198 184.982 28.7938 185.429 29.0651 186.016C29.3364 186.603 29.4721 187.314 29.4721 188.15C29.4721 188.986 29.3364 189.697 29.0651 190.284C28.7938 190.871 28.4198 191.318 27.9431 191.626C27.4664 191.934 26.9311 192.088 26.3371 192.088ZM26.3371 191.109C26.7404 191.109 27.0924 190.999 27.3931 190.779C27.7011 190.559 27.9394 190.229 28.1081 189.789C28.2841 189.349 28.3721 188.803 28.3721 188.15C28.3721 187.497 28.2841 186.951 28.1081 186.511C27.9394 186.071 27.7011 185.741 27.3931 185.521C27.0924 185.301 26.7404 185.191 26.3371 185.191C25.9338 185.191 25.5781 185.301 25.2701 185.521C24.9621 185.741 24.7201 186.071 24.5441 186.511C24.3754 186.951 24.2911 187.497 24.2911 188.15C24.2911 188.803 24.3754 189.349 24.5441 189.789C24.7201 190.229 24.9621 190.559 25.2701 190.779C25.5781 190.999 25.9338 191.109 26.3371 191.109Z" fill="#59595B"/>
<path opacity="0.5" d="M12.0238 162.088C11.4811 162.088 10.9531 162.004 10.4398 161.835C9.93377 161.666 9.51943 161.439 9.19677 161.153L9.70277 160.284C9.95943 160.526 10.2931 160.724 10.7038 160.878C11.1144 161.032 11.5508 161.109 12.0128 161.109C12.5994 161.109 13.0504 160.984 13.3658 160.735C13.6811 160.486 13.8388 160.152 13.8388 159.734C13.8388 159.448 13.7691 159.199 13.6298 158.986C13.4904 158.773 13.2484 158.612 12.9038 158.502C12.5664 158.385 12.1008 158.326 11.5068 158.326H9.75777L10.1648 154.3H14.5098V155.257H10.5718L11.1438 154.718L10.8248 157.897L10.2528 157.369H11.7378C12.5078 157.369 13.1274 157.468 13.5968 157.666C14.0661 157.864 14.4071 158.139 14.6198 158.491C14.8324 158.836 14.9388 159.235 14.9388 159.69C14.9388 160.13 14.8324 160.533 14.6198 160.9C14.4071 161.259 14.0844 161.549 13.6518 161.769C13.2264 161.982 12.6838 162.088 12.0238 162.088ZM19.0002 162.088C18.3988 162.088 17.8598 161.934 17.3832 161.626C16.9138 161.318 16.5398 160.871 16.2612 160.284C15.9898 159.697 15.8542 158.986 15.8542 158.15C15.8542 157.314 15.9898 156.603 16.2612 156.016C16.5398 155.429 16.9138 154.982 17.3832 154.674C17.8598 154.366 18.3988 154.212 19.0002 154.212C19.5942 154.212 20.1295 154.366 20.6062 154.674C21.0828 154.982 21.4568 155.429 21.7282 156.016C21.9995 156.603 22.1352 157.314 22.1352 158.15C22.1352 158.986 21.9995 159.697 21.7282 160.284C21.4568 160.871 21.0828 161.318 20.6062 161.626C20.1295 161.934 19.5942 162.088 19.0002 162.088ZM19.0002 161.109C19.4035 161.109 19.7555 160.999 20.0562 160.779C20.3642 160.559 20.6025 160.229 20.7712 159.789C20.9472 159.349 21.0352 158.803 21.0352 158.15C21.0352 157.497 20.9472 156.951 20.7712 156.511C20.6025 156.071 20.3642 155.741 20.0562 155.521C19.7555 155.301 19.4035 155.191 19.0002 155.191C18.5968 155.191 18.2412 155.301 17.9332 155.521C17.6252 155.741 17.3832 156.071 17.2072 156.511C17.0385 156.951 16.9542 157.497 16.9542 158.15C16.9542 158.803 17.0385 159.349 17.2072 159.789C17.3832 160.229 17.6252 160.559 17.9332 160.779C18.2412 160.999 18.5968 161.109 19.0002 161.109ZM26.3371 162.088C25.7358 162.088 25.1968 161.934 24.7201 161.626C24.2508 161.318 23.8768 160.871 23.5981 160.284C23.3268 159.697 23.1911 158.986 23.1911 158.15C23.1911 157.314 23.3268 156.603 23.5981 156.016C23.8768 155.429 24.2508 154.982 24.7201 154.674C25.1968 154.366 25.7358 154.212 26.3371 154.212C26.9311 154.212 27.4664 154.366 27.9431 154.674C28.4198 154.982 28.7938 155.429 29.0651 156.016C29.3364 156.603 29.4721 157.314 29.4721 158.15C29.4721 158.986 29.3364 159.697 29.0651 160.284C28.7938 160.871 28.4198 161.318 27.9431 161.626C27.4664 161.934 26.9311 162.088 26.3371 162.088ZM26.3371 161.109C26.7404 161.109 27.0924 160.999 27.3931 160.779C27.7011 160.559 27.9394 160.229 28.1081 159.789C28.2841 159.349 28.3721 158.803 28.3721 158.15C28.3721 157.497 28.2841 156.951 28.1081 156.511C27.9394 156.071 27.7011 155.741 27.3931 155.521C27.0924 155.301 26.7404 155.191 26.3371 155.191C25.9338 155.191 25.5781 155.301 25.2701 155.521C24.9621 155.741 24.7201 156.071 24.5441 156.511C24.3754 156.951 24.2911 157.497 24.2911 158.15C24.2911 158.803 24.3754 159.349 24.5441 159.789C24.7201 160.229 24.9621 160.559 25.2701 160.779C25.5781 160.999 25.9338 161.109 26.3371 161.109Z" fill="#59595B"/>
<path opacity="0.5" d="M5.74397 132V124.74L6.21697 125.257H4.00597V124.3H6.83297V132H5.74397ZM11.6633 132.088C11.0619 132.088 10.5229 131.934 10.0463 131.626C9.57692 131.318 9.20292 130.871 8.92426 130.284C8.65292 129.697 8.51726 128.986 8.51726 128.15C8.51726 127.314 8.65292 126.603 8.92426 126.016C9.20292 125.429 9.57692 124.982 10.0463 124.674C10.5229 124.366 11.0619 124.212 11.6633 124.212C12.2573 124.212 12.7926 124.366 13.2693 124.674C13.7459 124.982 14.1199 125.429 14.3913 126.016C14.6626 126.603 14.7983 127.314 14.7983 128.15C14.7983 128.986 14.6626 129.697 14.3913 130.284C14.1199 130.871 13.7459 131.318 13.2693 131.626C12.7926 131.934 12.2573 132.088 11.6633 132.088ZM11.6633 131.109C12.0666 131.109 12.4186 130.999 12.7193 130.779C13.0273 130.559 13.2656 130.229 13.4343 129.789C13.6103 129.349 13.6983 128.803 13.6983 128.15C13.6983 127.497 13.6103 126.951 13.4343 126.511C13.2656 126.071 13.0273 125.741 12.7193 125.521C12.4186 125.301 12.0666 125.191 11.6633 125.191C11.2599 125.191 10.9043 125.301 10.5963 125.521C10.2883 125.741 10.0463 126.071 9.87026 126.511C9.70159 126.951 9.61726 127.497 9.61726 128.15C9.61726 128.803 9.70159 129.349 9.87026 129.789C10.0463 130.229 10.2883 130.559 10.5963 130.779C10.9043 130.999 11.2599 131.109 11.6633 131.109ZM19.0002 132.088C18.3988 132.088 17.8598 131.934 17.3832 131.626C16.9138 131.318 16.5398 130.871 16.2612 130.284C15.9898 129.697 15.8542 128.986 15.8542 128.15C15.8542 127.314 15.9898 126.603 16.2612 126.016C16.5398 125.429 16.9138 124.982 17.3832 124.674C17.8598 124.366 18.3988 124.212 19.0002 124.212C19.5942 124.212 20.1295 124.366 20.6062 124.674C21.0828 124.982 21.4568 125.429 21.7282 126.016C21.9995 126.603 22.1352 127.314 22.1352 128.15C22.1352 128.986 21.9995 129.697 21.7282 130.284C21.4568 130.871 21.0828 131.318 20.6062 131.626C20.1295 131.934 19.5942 132.088 19.0002 132.088ZM19.0002 131.109C19.4035 131.109 19.7555 130.999 20.0562 130.779C20.3642 130.559 20.6025 130.229 20.7712 129.789C20.9472 129.349 21.0352 128.803 21.0352 128.15C21.0352 127.497 20.9472 126.951 20.7712 126.511C20.6025 126.071 20.3642 125.741 20.0562 125.521C19.7555 125.301 19.4035 125.191 19.0002 125.191C18.5968 125.191 18.2412 125.301 17.9332 125.521C17.6252 125.741 17.3832 126.071 17.2072 126.511C17.0385 126.951 16.9542 127.497 16.9542 128.15C16.9542 128.803 17.0385 129.349 17.2072 129.789C17.3832 130.229 17.6252 130.559 17.9332 130.779C18.2412 130.999 18.5968 131.109 19.0002 131.109ZM26.3371 132.088C25.7358 132.088 25.1968 131.934 24.7201 131.626C24.2508 131.318 23.8768 130.871 23.5981 130.284C23.3268 129.697 23.1911 128.986 23.1911 128.15C23.1911 127.314 23.3268 126.603 23.5981 126.016C23.8768 125.429 24.2508 124.982 24.7201 124.674C25.1968 124.366 25.7358 124.212 26.3371 124.212C26.9311 124.212 27.4664 124.366 27.9431 124.674C28.4198 124.982 28.7938 125.429 29.0651 126.016C29.3364 126.603 29.4721 127.314 29.4721 128.15C29.4721 128.986 29.3364 129.697 29.0651 130.284C28.7938 130.871 28.4198 131.318 27.9431 131.626C27.4664 131.934 26.9311 132.088 26.3371 132.088ZM26.3371 131.109C26.7404 131.109 27.0924 130.999 27.3931 130.779C27.7011 130.559 27.9394 130.229 28.1081 129.789C28.2841 129.349 28.3721 128.803 28.3721 128.15C28.3721 127.497 28.2841 126.951 28.1081 126.511C27.9394 126.071 27.7011 125.741 27.3931 125.521C27.0924 125.301 26.7404 125.191 26.3371 125.191C25.9338 125.191 25.5781 125.301 25.2701 125.521C24.9621 125.741 24.7201 126.071 24.5441 126.511C24.3754 126.951 24.2911 127.497 24.2911 128.15C24.2911 128.803 24.3754 129.349 24.5441 129.789C24.7201 130.229 24.9621 130.559 25.2701 130.779C25.5781 130.999 25.9338 131.109 26.3371 131.109Z" fill="#59595B"/>
<path opacity="0.5" d="M6.76448 102V94.74L7.23748 95.257H5.02648V94.3H7.85348V102H6.76448ZM12.0238 102.088C11.4811 102.088 10.9531 102.004 10.4398 101.835C9.93377 101.666 9.51943 101.439 9.19677 101.153L9.70277 100.284C9.95943 100.526 10.2931 100.724 10.7038 100.878C11.1144 101.032 11.5508 101.109 12.0128 101.109C12.5994 101.109 13.0504 100.984 13.3658 100.735C13.6811 100.486 13.8388 100.152 13.8388 99.734C13.8388 99.448 13.7691 99.1987 13.6298 98.986C13.4904 98.7733 13.2484 98.612 12.9038 98.502C12.5664 98.3847 12.1008 98.326 11.5068 98.326H9.75777L10.1648 94.3H14.5098V95.257H10.5718L11.1438 94.718L10.8248 97.897L10.2528 97.369H11.7378C12.5078 97.369 13.1274 97.468 13.5968 97.666C14.0661 97.864 14.4071 98.139 14.6198 98.491C14.8324 98.8357 14.9388 99.2353 14.9388 99.69C14.9388 100.13 14.8324 100.533 14.6198 100.9C14.4071 101.259 14.0844 101.549 13.6518 101.769C13.2264 101.982 12.6838 102.088 12.0238 102.088ZM19.0002 102.088C18.3988 102.088 17.8598 101.934 17.3832 101.626C16.9138 101.318 16.5398 100.871 16.2612 100.284C15.9898 99.6973 15.8542 98.986 15.8542 98.15C15.8542 97.314 15.9898 96.6027 16.2612 96.016C16.5398 95.4293 16.9138 94.982 17.3832 94.674C17.8598 94.366 18.3988 94.212 19.0002 94.212C19.5942 94.212 20.1295 94.366 20.6062 94.674C21.0828 94.982 21.4568 95.4293 21.7282 96.016C21.9995 96.6027 22.1352 97.314 22.1352 98.15C22.1352 98.986 21.9995 99.6973 21.7282 100.284C21.4568 100.871 21.0828 101.318 20.6062 101.626C20.1295 101.934 19.5942 102.088 19.0002 102.088ZM19.0002 101.109C19.4035 101.109 19.7555 100.999 20.0562 100.779C20.3642 100.559 20.6025 100.229 20.7712 99.789C20.9472 99.349 21.0352 98.8027 21.0352 98.15C21.0352 97.4973 20.9472 96.951 20.7712 96.511C20.6025 96.071 20.3642 95.741 20.0562 95.521C19.7555 95.301 19.4035 95.191 19.0002 95.191C18.5968 95.191 18.2412 95.301 17.9332 95.521C17.6252 95.741 17.3832 96.071 17.2072 96.511C17.0385 96.951 16.9542 97.4973 16.9542 98.15C16.9542 98.8027 17.0385 99.349 17.2072 99.789C17.3832 100.229 17.6252 100.559 17.9332 100.779C18.2412 100.999 18.5968 101.109 19.0002 101.109ZM26.3371 102.088C25.7358 102.088 25.1968 101.934 24.7201 101.626C24.2508 101.318 23.8768 100.871 23.5981 100.284C23.3268 99.6973 23.1911 98.986 23.1911 98.15C23.1911 97.314 23.3268 96.6027 23.5981 96.016C23.8768 95.4293 24.2508 94.982 24.7201 94.674C25.1968 94.366 25.7358 94.212 26.3371 94.212C26.9311 94.212 27.4664 94.366 27.9431 94.674C28.4198 94.982 28.7938 95.4293 29.0651 96.016C29.3364 96.6027 29.4721 97.314 29.4721 98.15C29.4721 98.986 29.3364 99.6973 29.0651 100.284C28.7938 100.871 28.4198 101.318 27.9431 101.626C27.4664 101.934 26.9311 102.088 26.3371 102.088ZM26.3371 101.109C26.7404 101.109 27.0924 100.999 27.3931 100.779C27.7011 100.559 27.9394 100.229 28.1081 99.789C28.2841 99.349 28.3721 98.8027 28.3721 98.15C28.3721 97.4973 28.2841 96.951 28.1081 96.511C27.9394 96.071 27.7011 95.741 27.3931 95.521C27.0924 95.301 26.7404 95.191 26.3371 95.191C25.9338 95.191 25.5781 95.301 25.2701 95.521C24.9621 95.741 24.7201 96.071 24.5441 96.511C24.3754 96.951 24.2911 97.4973 24.2911 98.15C24.2911 98.8027 24.3754 99.349 24.5441 99.789C24.7201 100.229 24.9621 100.559 25.2701 100.779C25.5781 100.999 25.9338 101.109 26.3371 101.109Z" fill="#59595B"/>
<path opacity="0.5" d="M2.09059 72V71.252L5.22559 68.227C5.50426 67.963 5.70959 67.732 5.84159 67.534C5.98093 67.3287 6.07259 67.1417 6.11659 66.973C6.16793 66.797 6.19359 66.6283 6.19359 66.467C6.19359 66.071 6.05426 65.7593 5.77559 65.532C5.49693 65.3047 5.08993 65.191 4.55459 65.191C4.14393 65.191 3.77359 65.2607 3.44359 65.4C3.11359 65.532 2.82759 65.741 2.58559 66.027L1.83759 65.378C2.13093 65.004 2.52326 64.718 3.01459 64.52C3.51326 64.3147 4.05959 64.212 4.65359 64.212C5.18893 64.212 5.65459 64.3 6.05059 64.476C6.44659 64.6447 6.75093 64.8903 6.96359 65.213C7.18359 65.5357 7.29359 65.917 7.29359 66.357C7.29359 66.6063 7.26059 66.852 7.19459 67.094C7.12859 67.336 7.00393 67.5927 6.82059 67.864C6.63726 68.1353 6.37326 68.4397 6.02859 68.777L3.23459 71.472L2.97059 71.043H7.62359V72H2.09059ZM11.6633 72.088C11.0619 72.088 10.5229 71.934 10.0463 71.626C9.57692 71.318 9.20292 70.8707 8.92426 70.284C8.65292 69.6973 8.51726 68.986 8.51726 68.15C8.51726 67.314 8.65292 66.6027 8.92426 66.016C9.20292 65.4293 9.57692 64.982 10.0463 64.674C10.5229 64.366 11.0619 64.212 11.6633 64.212C12.2573 64.212 12.7926 64.366 13.2693 64.674C13.7459 64.982 14.1199 65.4293 14.3913 66.016C14.6626 66.6027 14.7983 67.314 14.7983 68.15C14.7983 68.986 14.6626 69.6973 14.3913 70.284C14.1199 70.8707 13.7459 71.318 13.2693 71.626C12.7926 71.934 12.2573 72.088 11.6633 72.088ZM11.6633 71.109C12.0666 71.109 12.4186 70.999 12.7193 70.779C13.0273 70.559 13.2656 70.229 13.4343 69.789C13.6103 69.349 13.6983 68.8027 13.6983 68.15C13.6983 67.4973 13.6103 66.951 13.4343 66.511C13.2656 66.071 13.0273 65.741 12.7193 65.521C12.4186 65.301 12.0666 65.191 11.6633 65.191C11.2599 65.191 10.9043 65.301 10.5963 65.521C10.2883 65.741 10.0463 66.071 9.87026 66.511C9.70159 66.951 9.61726 67.4973 9.61726 68.15C9.61726 68.8027 9.70159 69.349 9.87026 69.789C10.0463 70.229 10.2883 70.559 10.5963 70.779C10.9043 70.999 11.2599 71.109 11.6633 71.109ZM19.0002 72.088C18.3988 72.088 17.8598 71.934 17.3832 71.626C16.9138 71.318 16.5398 70.8707 16.2612 70.284C15.9898 69.6973 15.8542 68.986 15.8542 68.15C15.8542 67.314 15.9898 66.6027 16.2612 66.016C16.5398 65.4293 16.9138 64.982 17.3832 64.674C17.8598 64.366 18.3988 64.212 19.0002 64.212C19.5942 64.212 20.1295 64.366 20.6062 64.674C21.0828 64.982 21.4568 65.4293 21.7282 66.016C21.9995 66.6027 22.1352 67.314 22.1352 68.15C22.1352 68.986 21.9995 69.6973 21.7282 70.284C21.4568 70.8707 21.0828 71.318 20.6062 71.626C20.1295 71.934 19.5942 72.088 19.0002 72.088ZM19.0002 71.109C19.4035 71.109 19.7555 70.999 20.0562 70.779C20.3642 70.559 20.6025 70.229 20.7712 69.789C20.9472 69.349 21.0352 68.8027 21.0352 68.15C21.0352 67.4973 20.9472 66.951 20.7712 66.511C20.6025 66.071 20.3642 65.741 20.0562 65.521C19.7555 65.301 19.4035 65.191 19.0002 65.191C18.5968 65.191 18.2412 65.301 17.9332 65.521C17.6252 65.741 17.3832 66.071 17.2072 66.511C17.0385 66.951 16.9542 67.4973 16.9542 68.15C16.9542 68.8027 17.0385 69.349 17.2072 69.789C17.3832 70.229 17.6252 70.559 17.9332 70.779C18.2412 70.999 18.5968 71.109 19.0002 71.109ZM26.3371 72.088C25.7358 72.088 25.1968 71.934 24.7201 71.626C24.2508 71.318 23.8768 70.8707 23.5981 70.284C23.3268 69.6973 23.1911 68.986 23.1911 68.15C23.1911 67.314 23.3268 66.6027 23.5981 66.016C23.8768 65.4293 24.2508 64.982 24.7201 64.674C25.1968 64.366 25.7358 64.212 26.3371 64.212C26.9311 64.212 27.4664 64.366 27.9431 64.674C28.4198 64.982 28.7938 65.4293 29.0651 66.016C29.3364 66.6027 29.4721 67.314 29.4721 68.15C29.4721 68.986 29.3364 69.6973 29.0651 70.284C28.7938 70.8707 28.4198 71.318 27.9431 71.626C27.4664 71.934 26.9311 72.088 26.3371 72.088ZM26.3371 71.109C26.7404 71.109 27.0924 70.999 27.3931 70.779C27.7011 70.559 27.9394 70.229 28.1081 69.789C28.2841 69.349 28.3721 68.8027 28.3721 68.15C28.3721 67.4973 28.2841 66.951 28.1081 66.511C27.9394 66.071 27.7011 65.741 27.3931 65.521C27.0924 65.301 26.7404 65.191 26.3371 65.191C25.9338 65.191 25.5781 65.301 25.2701 65.521C24.9621 65.741 24.7201 66.071 24.5441 66.511C24.3754 66.951 24.2911 67.4973 24.2911 68.15C24.2911 68.8027 24.3754 69.349 24.5441 69.789C24.7201 70.229 24.9621 70.559 25.2701 70.779C25.5781 70.999 25.9338 71.109 26.3371 71.109Z" fill="#59595B"/>
<path opacity="0.5" d="M4.57634 42.088C4.03367 42.088 3.50567 42.0037 2.99234 41.835C2.48634 41.6663 2.072 41.439 1.74934 41.153L2.25534 40.284C2.512 40.526 2.84567 40.724 3.25634 40.878C3.667 41.032 4.107 41.109 4.57634 41.109C5.14834 41.109 5.592 40.988 5.90734 40.746C6.23 40.4967 6.39134 40.163 6.39134 39.745C6.39134 39.3417 6.23734 39.019 5.92934 38.777C5.62867 38.5277 5.14834 38.403 4.48834 38.403H3.87234V37.633L6.16034 34.817L6.31434 35.257H2.10134V34.3H7.18334V35.048L4.90634 37.853L4.33434 37.512H4.69734C5.62867 37.512 6.32534 37.721 6.78734 38.139C7.25667 38.557 7.49134 39.0887 7.49134 39.734C7.49134 40.1667 7.385 40.5627 7.17234 40.922C6.95967 41.2813 6.637 41.5673 6.20434 41.78C5.779 41.9853 5.23634 42.088 4.57634 42.088ZM11.6633 42.088C11.0619 42.088 10.5229 41.934 10.0463 41.626C9.57692 41.318 9.20292 40.8707 8.92426 40.284C8.65292 39.6973 8.51726 38.986 8.51726 38.15C8.51726 37.314 8.65292 36.6027 8.92426 36.016C9.20292 35.4293 9.57692 34.982 10.0463 34.674C10.5229 34.366 11.0619 34.212 11.6633 34.212C12.2573 34.212 12.7926 34.366 13.2693 34.674C13.7459 34.982 14.1199 35.4293 14.3913 36.016C14.6626 36.6027 14.7983 37.314 14.7983 38.15C14.7983 38.986 14.6626 39.6973 14.3913 40.284C14.1199 40.8707 13.7459 41.318 13.2693 41.626C12.7926 41.934 12.2573 42.088 11.6633 42.088ZM11.6633 41.109C12.0666 41.109 12.4186 40.999 12.7193 40.779C13.0273 40.559 13.2656 40.229 13.4343 39.789C13.6103 39.349 13.6983 38.8027 13.6983 38.15C13.6983 37.4973 13.6103 36.951 13.4343 36.511C13.2656 36.071 13.0273 35.741 12.7193 35.521C12.4186 35.301 12.0666 35.191 11.6633 35.191C11.2599 35.191 10.9043 35.301 10.5963 35.521C10.2883 35.741 10.0463 36.071 9.87026 36.511C9.70159 36.951 9.61726 37.4973 9.61726 38.15C9.61726 38.8027 9.70159 39.349 9.87026 39.789C10.0463 40.229 10.2883 40.559 10.5963 40.779C10.9043 40.999 11.2599 41.109 11.6633 41.109ZM19.0002 42.088C18.3988 42.088 17.8598 41.934 17.3832 41.626C16.9138 41.318 16.5398 40.8707 16.2612 40.284C15.9898 39.6973 15.8542 38.986 15.8542 38.15C15.8542 37.314 15.9898 36.6027 16.2612 36.016C16.5398 35.4293 16.9138 34.982 17.3832 34.674C17.8598 34.366 18.3988 34.212 19.0002 34.212C19.5942 34.212 20.1295 34.366 20.6062 34.674C21.0828 34.982 21.4568 35.4293 21.7282 36.016C21.9995 36.6027 22.1352 37.314 22.1352 38.15C22.1352 38.986 21.9995 39.6973 21.7282 40.284C21.4568 40.8707 21.0828 41.318 20.6062 41.626C20.1295 41.934 19.5942 42.088 19.0002 42.088ZM19.0002 41.109C19.4035 41.109 19.7555 40.999 20.0562 40.779C20.3642 40.559 20.6025 40.229 20.7712 39.789C20.9472 39.349 21.0352 38.8027 21.0352 38.15C21.0352 37.4973 20.9472 36.951 20.7712 36.511C20.6025 36.071 20.3642 35.741 20.0562 35.521C19.7555 35.301 19.4035 35.191 19.0002 35.191C18.5968 35.191 18.2412 35.301 17.9332 35.521C17.6252 35.741 17.3832 36.071 17.2072 36.511C17.0385 36.951 16.9542 37.4973 16.9542 38.15C16.9542 38.8027 17.0385 39.349 17.2072 39.789C17.3832 40.229 17.6252 40.559 17.9332 40.779C18.2412 40.999 18.5968 41.109 19.0002 41.109ZM26.3371 42.088C25.7358 42.088 25.1968 41.934 24.7201 41.626C24.2508 41.318 23.8768 40.8707 23.5981 40.284C23.3268 39.6973 23.1911 38.986 23.1911 38.15C23.1911 37.314 23.3268 36.6027 23.5981 36.016C23.8768 35.4293 24.2508 34.982 24.7201 34.674C25.1968 34.366 25.7358 34.212 26.3371 34.212C26.9311 34.212 27.4664 34.366 27.9431 34.674C28.4198 34.982 28.7938 35.4293 29.0651 36.016C29.3364 36.6027 29.4721 37.314 29.4721 38.15C29.4721 38.986 29.3364 39.6973 29.0651 40.284C28.7938 40.8707 28.4198 41.318 27.9431 41.626C27.4664 41.934 26.9311 42.088 26.3371 42.088ZM26.3371 41.109C26.7404 41.109 27.0924 40.999 27.3931 40.779C27.7011 40.559 27.9394 40.229 28.1081 39.789C28.2841 39.349 28.3721 38.8027 28.3721 38.15C28.3721 37.4973 28.2841 36.951 28.1081 36.511C27.9394 36.071 27.7011 35.741 27.3931 35.521C27.0924 35.301 26.7404 35.191 26.3371 35.191C25.9338 35.191 25.5781 35.301 25.2701 35.521C24.9621 35.741 24.7201 36.071 24.5441 36.511C24.3754 36.951 24.2911 37.4973 24.2911 38.15C24.2911 38.8027 24.3754 39.349 24.5441 39.789C24.7201 40.229 24.9621 40.559 25.2701 40.779C25.5781 40.999 25.9338 41.109 26.3371 41.109Z" fill="#59595B"/>
<path opacity="0.5" d="M1.04886 10.108V9.338L4.98686 4.3H6.17486L2.26986 9.338L1.70886 9.162H7.85786V10.108H1.04886ZM5.32786 12V10.108L5.36086 9.162V7.49H6.39486V12H5.32786ZM11.6633 12.088C11.0619 12.088 10.5229 11.934 10.0463 11.626C9.57692 11.318 9.20292 10.8707 8.92426 10.284C8.65292 9.69733 8.51726 8.986 8.51726 8.15C8.51726 7.314 8.65292 6.60267 8.92426 6.016C9.20292 5.42933 9.57692 4.982 10.0463 4.674C10.5229 4.366 11.0619 4.212 11.6633 4.212C12.2573 4.212 12.7926 4.366 13.2693 4.674C13.7459 4.982 14.1199 5.42933 14.3913 6.016C14.6626 6.60267 14.7983 7.314 14.7983 8.15C14.7983 8.986 14.6626 9.69733 14.3913 10.284C14.1199 10.8707 13.7459 11.318 13.2693 11.626C12.7926 11.934 12.2573 12.088 11.6633 12.088ZM11.6633 11.109C12.0666 11.109 12.4186 10.999 12.7193 10.779C13.0273 10.559 13.2656 10.229 13.4343 9.789C13.6103 9.349 13.6983 8.80267 13.6983 8.15C13.6983 7.49733 13.6103 6.951 13.4343 6.511C13.2656 6.071 13.0273 5.741 12.7193 5.521C12.4186 5.301 12.0666 5.191 11.6633 5.191C11.2599 5.191 10.9043 5.301 10.5963 5.521C10.2883 5.741 10.0463 6.071 9.87026 6.511C9.70159 6.951 9.61726 7.49733 9.61726 8.15C9.61726 8.80267 9.70159 9.349 9.87026 9.789C10.0463 10.229 10.2883 10.559 10.5963 10.779C10.9043 10.999 11.2599 11.109 11.6633 11.109ZM19.0002 12.088C18.3988 12.088 17.8598 11.934 17.3832 11.626C16.9138 11.318 16.5398 10.8707 16.2612 10.284C15.9898 9.69733 15.8542 8.986 15.8542 8.15C15.8542 7.314 15.9898 6.60267 16.2612 6.016C16.5398 5.42933 16.9138 4.982 17.3832 4.674C17.8598 4.366 18.3988 4.212 19.0002 4.212C19.5942 4.212 20.1295 4.366 20.6062 4.674C21.0828 4.982 21.4568 5.42933 21.7282 6.016C21.9995 6.60267 22.1352 7.314 22.1352 8.15C22.1352 8.986 21.9995 9.69733 21.7282 10.284C21.4568 10.8707 21.0828 11.318 20.6062 11.626C20.1295 11.934 19.5942 12.088 19.0002 12.088ZM19.0002 11.109C19.4035 11.109 19.7555 10.999 20.0562 10.779C20.3642 10.559 20.6025 10.229 20.7712 9.789C20.9472 9.349 21.0352 8.80267 21.0352 8.15C21.0352 7.49733 20.9472 6.951 20.7712 6.511C20.6025 6.071 20.3642 5.741 20.0562 5.521C19.7555 5.301 19.4035 5.191 19.0002 5.191C18.5968 5.191 18.2412 5.301 17.9332 5.521C17.6252 5.741 17.3832 6.071 17.2072 6.511C17.0385 6.951 16.9542 7.49733 16.9542 8.15C16.9542 8.80267 17.0385 9.349 17.2072 9.789C17.3832 10.229 17.6252 10.559 17.9332 10.779C18.2412 10.999 18.5968 11.109 19.0002 11.109ZM26.3371 12.088C25.7358 12.088 25.1968 11.934 24.7201 11.626C24.2508 11.318 23.8768 10.8707 23.5981 10.284C23.3268 9.69733 23.1911 8.986 23.1911 8.15C23.1911 7.314 23.3268 6.60267 23.5981 6.016C23.8768 5.42933 24.2508 4.982 24.7201 4.674C25.1968 4.366 25.7358 4.212 26.3371 4.212C26.9311 4.212 27.4664 4.366 27.9431 4.674C28.4198 4.982 28.7938 5.42933 29.0651 6.016C29.3364 6.60267 29.4721 7.314 29.4721 8.15C29.4721 8.986 29.3364 9.69733 29.0651 10.284C28.7938 10.8707 28.4198 11.318 27.9431 11.626C27.4664 11.934 26.9311 12.088 26.3371 12.088ZM26.3371 11.109C26.7404 11.109 27.0924 10.999 27.3931 10.779C27.7011 10.559 27.9394 10.229 28.1081 9.789C28.2841 9.349 28.3721 8.80267 28.3721 8.15C28.3721 7.49733 28.2841 6.951 28.1081 6.511C27.9394 6.071 27.7011 5.741 27.3931 5.521C27.0924 5.301 26.7404 5.191 26.3371 5.191C25.9338 5.191 25.5781 5.301 25.2701 5.521C24.9621 5.741 24.7201 6.071 24.5441 6.511C24.3754 6.951 24.2911 7.49733 24.2911 8.15C24.2911 8.80267 24.3754 9.349 24.5441 9.789C24.7201 10.229 24.9621 10.559 25.2701 10.779C25.5781 10.999 25.9338 11.109 26.3371 11.109Z" fill="#59595B"/>
<path opacity="0.5" d="M203.663 211.733V204.033H204.565L208.019 209.852H207.535L210.945 204.033H211.847L211.858 211.733H210.802L210.791 205.694H211.044L208.008 210.798H207.502L204.444 205.694H204.719V211.733H203.663ZM217.634 211.733V210.501L217.579 210.27V208.169C217.579 207.722 217.447 207.377 217.183 207.135C216.926 206.886 216.538 206.761 216.017 206.761C215.672 206.761 215.335 206.82 215.005 206.937C214.675 207.047 214.396 207.198 214.169 207.388L213.729 206.596C214.03 206.354 214.389 206.171 214.807 206.046C215.232 205.914 215.676 205.848 216.138 205.848C216.937 205.848 217.553 206.043 217.986 206.431C218.419 206.82 218.635 207.414 218.635 208.213V211.733H217.634ZM215.72 211.799C215.287 211.799 214.906 211.726 214.576 211.579C214.253 211.433 214.004 211.231 213.828 210.974C213.652 210.71 213.564 210.413 213.564 210.083C213.564 209.768 213.637 209.482 213.784 209.225C213.938 208.969 214.184 208.763 214.521 208.609C214.866 208.455 215.328 208.378 215.907 208.378H217.755V209.137H215.951C215.423 209.137 215.067 209.225 214.884 209.401C214.701 209.577 214.609 209.79 214.609 210.039C214.609 210.325 214.723 210.556 214.95 210.732C215.177 210.901 215.493 210.985 215.896 210.985C216.292 210.985 216.637 210.897 216.93 210.721C217.231 210.545 217.447 210.289 217.579 209.951L217.788 210.677C217.649 211.022 217.403 211.297 217.051 211.502C216.699 211.7 216.255 211.799 215.72 211.799ZM220.735 213.933C220.456 213.933 220.185 213.886 219.921 213.79C219.657 213.702 219.429 213.57 219.239 213.394L219.69 212.602C219.836 212.742 219.998 212.848 220.174 212.921C220.35 212.995 220.537 213.031 220.735 213.031C220.991 213.031 221.204 212.965 221.373 212.833C221.541 212.701 221.699 212.467 221.846 212.129L222.209 211.326L222.319 211.194L224.607 205.903H225.641L222.814 212.316C222.645 212.727 222.454 213.05 222.242 213.284C222.036 213.519 221.809 213.684 221.56 213.779C221.31 213.882 221.035 213.933 220.735 213.933ZM222.121 211.92L219.459 205.903H220.559L222.825 211.095L222.121 211.92Z" fill="#59595B"/>
<path opacity="0.5" d="M95.2666 207.674H99.2376V208.62H95.2666V207.674ZM95.3766 211.733H94.2766V204.033H99.7106V204.99H95.3766V211.733ZM103.518 211.799C102.895 211.799 102.345 211.671 101.868 211.414C101.399 211.158 101.032 210.806 100.768 210.358C100.512 209.911 100.383 209.398 100.383 208.818C100.383 208.239 100.508 207.726 100.757 207.278C101.014 206.831 101.362 206.483 101.802 206.233C102.25 205.977 102.752 205.848 103.309 205.848C103.874 205.848 104.373 205.973 104.805 206.222C105.238 206.472 105.575 206.824 105.817 207.278C106.067 207.726 106.191 208.25 106.191 208.851C106.191 208.895 106.188 208.947 106.18 209.005C106.18 209.064 106.177 209.119 106.169 209.17H101.208V208.411H105.619L105.19 208.675C105.198 208.301 105.121 207.968 104.959 207.674C104.798 207.381 104.574 207.154 104.288 206.992C104.01 206.824 103.683 206.739 103.309 206.739C102.943 206.739 102.616 206.824 102.33 206.992C102.044 207.154 101.821 207.385 101.659 207.685C101.498 207.979 101.417 208.316 101.417 208.697V208.873C101.417 209.262 101.505 209.61 101.681 209.918C101.865 210.219 102.118 210.454 102.44 210.622C102.763 210.791 103.133 210.875 103.551 210.875C103.896 210.875 104.208 210.817 104.486 210.699C104.772 210.582 105.022 210.406 105.234 210.171L105.817 210.853C105.553 211.161 105.223 211.396 104.827 211.557C104.439 211.719 104.002 211.799 103.518 211.799ZM110.749 211.799C110.25 211.799 109.799 211.689 109.396 211.469C109 211.242 108.684 210.908 108.45 210.468C108.222 210.028 108.109 209.478 108.109 208.818C108.109 208.158 108.226 207.608 108.461 207.168C108.703 206.728 109.022 206.398 109.418 206.178C109.821 205.958 110.265 205.848 110.749 205.848C111.321 205.848 111.827 205.973 112.267 206.222C112.707 206.472 113.055 206.82 113.312 207.267C113.568 207.707 113.697 208.224 113.697 208.818C113.697 209.412 113.568 209.933 113.312 210.38C113.055 210.828 112.707 211.176 112.267 211.425C111.827 211.675 111.321 211.799 110.749 211.799ZM107.658 211.733V203.571H108.714V207.454L108.604 208.807L108.67 210.16V211.733H107.658ZM110.661 210.875C111.035 210.875 111.368 210.791 111.662 210.622C111.962 210.454 112.197 210.215 112.366 209.907C112.542 209.592 112.63 209.229 112.63 208.818C112.63 208.4 112.542 208.041 112.366 207.74C112.197 207.432 111.962 207.194 111.662 207.025C111.368 206.857 111.035 206.772 110.661 206.772C110.294 206.772 109.96 206.857 109.66 207.025C109.366 207.194 109.132 207.432 108.956 207.74C108.787 208.041 108.703 208.4 108.703 208.818C108.703 209.229 108.787 209.592 108.956 209.907C109.132 210.215 109.366 210.454 109.66 210.622C109.96 210.791 110.294 210.875 110.661 210.875Z" fill="#59595B"/>
<path opacity="0.5" d="M131.159 211.733V204.033H132.061L135.515 209.852H135.031L138.441 204.033H139.343L139.354 211.733H138.298L138.287 205.694H138.54L135.504 210.798H134.998L131.94 205.694H132.215V211.733H131.159ZM145.13 211.733V210.501L145.075 210.27V208.169C145.075 207.722 144.943 207.377 144.679 207.135C144.422 206.886 144.034 206.761 143.513 206.761C143.168 206.761 142.831 206.82 142.501 206.937C142.171 207.047 141.892 207.198 141.665 207.388L141.225 206.596C141.526 206.354 141.885 206.171 142.303 206.046C142.728 205.914 143.172 205.848 143.634 205.848C144.433 205.848 145.049 206.043 145.482 206.431C145.915 206.82 146.131 207.414 146.131 208.213V211.733H145.13ZM143.216 211.799C142.783 211.799 142.402 211.726 142.072 211.579C141.749 211.433 141.5 211.231 141.324 210.974C141.148 210.71 141.06 210.413 141.06 210.083C141.06 209.768 141.133 209.482 141.28 209.225C141.434 208.969 141.68 208.763 142.017 208.609C142.362 208.455 142.824 208.378 143.403 208.378H145.251V209.137H143.447C142.919 209.137 142.563 209.225 142.38 209.401C142.197 209.577 142.105 209.79 142.105 210.039C142.105 210.325 142.219 210.556 142.446 210.732C142.673 210.901 142.989 210.985 143.392 210.985C143.788 210.985 144.133 210.897 144.426 210.721C144.727 210.545 144.943 210.289 145.075 209.951L145.284 210.677C145.145 211.022 144.899 211.297 144.547 211.502C144.195 211.7 143.751 211.799 143.216 211.799ZM148.085 211.733V205.903H149.097V207.487L148.998 207.091C149.16 206.688 149.431 206.38 149.812 206.167C150.194 205.955 150.663 205.848 151.22 205.848V206.871C151.176 206.864 151.132 206.86 151.088 206.86C151.052 206.86 151.015 206.86 150.978 206.86C150.414 206.86 149.966 207.029 149.636 207.366C149.306 207.704 149.141 208.191 149.141 208.829V211.733H148.085Z" fill="#59595B"/>
<path opacity="0.5" d="M243.083 211.821C242.629 211.821 242.203 211.726 241.807 211.535C241.411 211.345 241.089 211.07 240.839 210.71L241.477 209.962C241.69 210.256 241.928 210.483 242.192 210.644C242.464 210.798 242.761 210.875 243.083 210.875C243.963 210.875 244.403 210.355 244.403 209.313V204.99H241.62V204.033H245.492V209.258C245.492 210.116 245.287 210.758 244.876 211.183C244.473 211.609 243.875 211.821 243.083 211.821ZM250.032 211.799C249.533 211.799 249.093 211.708 248.712 211.524C248.338 211.341 248.045 211.062 247.832 210.688C247.627 210.307 247.524 209.83 247.524 209.258V205.903H248.58V209.137C248.58 209.709 248.716 210.138 248.987 210.424C249.266 210.71 249.654 210.853 250.153 210.853C250.52 210.853 250.839 210.78 251.11 210.633C251.381 210.479 251.59 210.259 251.737 209.973C251.884 209.68 251.957 209.328 251.957 208.917V205.903H253.013V211.733H252.012V210.16L252.177 210.578C251.986 210.967 251.7 211.268 251.319 211.48C250.938 211.693 250.509 211.799 250.032 211.799ZM258.136 205.848C258.613 205.848 259.031 205.94 259.39 206.123C259.757 206.307 260.043 206.585 260.248 206.959C260.454 207.333 260.556 207.806 260.556 208.378V211.733H259.5V208.499C259.5 207.935 259.361 207.509 259.082 207.223C258.811 206.937 258.426 206.794 257.927 206.794C257.553 206.794 257.227 206.868 256.948 207.014C256.67 207.161 256.453 207.377 256.299 207.663C256.153 207.949 256.079 208.305 256.079 208.73V211.733H255.023V205.903H256.035V207.476L255.87 207.058C256.061 206.677 256.354 206.38 256.75 206.167C257.146 205.955 257.608 205.848 258.136 205.848Z" fill="#59595B"/>
<path opacity="0.5" d="M167.894 211.733L171.381 204.033H172.47L175.968 211.733H174.813L171.7 204.649H172.14L169.027 211.733H167.894ZM169.379 209.808L169.676 208.928H174.01L174.329 209.808H169.379ZM180.053 211.799C179.555 211.799 179.104 211.689 178.7 211.469C178.304 211.242 177.989 210.908 177.754 210.468C177.527 210.028 177.413 209.478 177.413 208.818C177.413 208.158 177.531 207.608 177.765 207.168C178.007 206.728 178.326 206.398 178.722 206.178C179.126 205.958 179.569 205.848 180.053 205.848C180.625 205.848 181.131 205.973 181.571 206.222C182.011 206.472 182.36 206.82 182.616 207.267C182.873 207.707 183.001 208.224 183.001 208.818C183.001 209.412 182.873 209.933 182.616 210.38C182.36 210.828 182.011 211.176 181.571 211.425C181.131 211.675 180.625 211.799 180.053 211.799ZM176.962 211.733V203.571H178.018V207.454L177.908 208.807L177.974 210.16V211.733H176.962ZM179.965 210.875C180.339 210.875 180.673 210.791 180.966 210.622C181.267 210.454 181.502 210.215 181.67 209.907C181.846 209.592 181.934 209.229 181.934 208.818C181.934 208.4 181.846 208.041 181.67 207.74C181.502 207.432 181.267 207.194 180.966 207.025C180.673 206.857 180.339 206.772 179.965 206.772C179.599 206.772 179.265 206.857 178.964 207.025C178.671 207.194 178.436 207.432 178.26 207.74C178.092 208.041 178.007 208.4 178.007 208.818C178.007 209.229 178.092 209.592 178.26 209.907C178.436 210.215 178.671 210.454 178.964 210.622C179.265 210.791 179.599 210.875 179.965 210.875ZM184.46 211.733V205.903H185.472V207.487L185.373 207.091C185.535 206.688 185.806 206.38 186.187 206.167C186.569 205.955 187.038 205.848 187.595 205.848V206.871C187.551 206.864 187.507 206.86 187.463 206.86C187.427 206.86 187.39 206.86 187.353 206.86C186.789 206.86 186.341 207.029 186.011 207.366C185.681 207.704 185.516 208.191 185.516 208.829V211.733H184.46Z" fill="#59595B"/>
<path opacity="0.5" d="M281.948 211.821C281.493 211.821 281.068 211.726 280.672 211.535C280.276 211.345 279.953 211.07 279.704 210.71L280.342 209.962C280.554 210.256 280.793 210.483 281.057 210.644C281.328 210.798 281.625 210.875 281.948 210.875C282.828 210.875 283.268 210.355 283.268 209.313V204.99H280.485V204.033H284.357V209.258C284.357 210.116 284.151 210.758 283.741 211.183C283.337 211.609 282.74 211.821 281.948 211.821ZM288.896 211.799C288.398 211.799 287.958 211.708 287.576 211.524C287.202 211.341 286.909 211.062 286.696 210.688C286.491 210.307 286.388 209.83 286.388 209.258V205.903H287.444V209.137C287.444 209.709 287.58 210.138 287.851 210.424C288.13 210.71 288.519 210.853 289.017 210.853C289.384 210.853 289.703 210.78 289.974 210.633C290.246 210.479 290.455 210.259 290.601 209.973C290.748 209.68 290.821 209.328 290.821 208.917V205.903H291.877V211.733H290.876V210.16L291.041 210.578C290.851 210.967 290.565 211.268 290.183 211.48C289.802 211.693 289.373 211.799 288.896 211.799ZM293.888 211.733V203.571H294.944V211.733H293.888Z" fill="#59595B"/>
<path opacity="0.5" d="M312.58 211.733L316.067 204.033H317.156L320.654 211.733H319.499L316.386 204.649H316.826L313.713 211.733H312.58ZM314.065 209.808L314.362 208.928H318.696L319.015 209.808H314.065ZM324.147 213.933C323.611 213.933 323.091 213.856 322.585 213.702C322.086 213.556 321.679 213.343 321.364 213.064L321.87 212.25C322.141 212.485 322.475 212.668 322.871 212.8C323.267 212.94 323.681 213.009 324.114 213.009C324.803 213.009 325.309 212.848 325.632 212.525C325.954 212.203 326.116 211.711 326.116 211.051V209.819L326.226 208.664L326.171 207.498V205.903H327.172V210.941C327.172 211.968 326.915 212.723 326.402 213.207C325.888 213.691 325.137 213.933 324.147 213.933ZM324.015 211.491C323.45 211.491 322.944 211.374 322.497 211.139C322.057 210.897 321.705 210.564 321.441 210.138C321.184 209.713 321.056 209.222 321.056 208.664C321.056 208.1 321.184 207.608 321.441 207.19C321.705 206.765 322.057 206.435 322.497 206.2C322.944 205.966 323.45 205.848 324.015 205.848C324.513 205.848 324.968 205.951 325.379 206.156C325.789 206.354 326.116 206.662 326.358 207.08C326.607 207.498 326.732 208.026 326.732 208.664C326.732 209.295 326.607 209.819 326.358 210.237C326.116 210.655 325.789 210.971 325.379 211.183C324.968 211.389 324.513 211.491 324.015 211.491ZM324.136 210.567C324.524 210.567 324.869 210.487 325.17 210.325C325.47 210.164 325.705 209.94 325.874 209.654C326.05 209.368 326.138 209.038 326.138 208.664C326.138 208.29 326.05 207.96 325.874 207.674C325.705 207.388 325.47 207.168 325.17 207.014C324.869 206.853 324.524 206.772 324.136 206.772C323.747 206.772 323.399 206.853 323.091 207.014C322.79 207.168 322.552 207.388 322.376 207.674C322.207 207.96 322.123 208.29 322.123 208.664C322.123 209.038 322.207 209.368 322.376 209.654C322.552 209.94 322.79 210.164 323.091 210.325C323.399 210.487 323.747 210.567 324.136 210.567ZM331.686 211.799C331.1 211.799 330.579 211.671 330.124 211.414C329.67 211.158 329.31 210.806 329.046 210.358C328.782 209.904 328.65 209.39 328.65 208.818C328.65 208.239 328.782 207.726 329.046 207.278C329.31 206.831 329.67 206.483 330.124 206.233C330.579 205.977 331.1 205.848 331.686 205.848C332.266 205.848 332.783 205.977 333.237 206.233C333.699 206.483 334.059 206.831 334.315 207.278C334.579 207.718 334.711 208.232 334.711 208.818C334.711 209.398 334.579 209.911 334.315 210.358C334.059 210.806 333.699 211.158 333.237 211.414C332.783 211.671 332.266 211.799 331.686 211.799ZM331.686 210.875C332.06 210.875 332.394 210.791 332.687 210.622C332.988 210.454 333.223 210.215 333.391 209.907C333.56 209.592 333.644 209.229 333.644 208.818C333.644 208.4 333.56 208.041 333.391 207.74C333.223 207.432 332.988 207.194 332.687 207.025C332.394 206.857 332.06 206.772 331.686 206.772C331.312 206.772 330.979 206.857 330.685 207.025C330.392 207.194 330.157 207.432 329.981 207.74C329.805 208.041 329.717 208.4 329.717 208.818C329.717 209.229 329.805 209.592 329.981 209.907C330.157 210.215 330.392 210.454 330.685 210.622C330.979 210.791 331.312 210.875 331.686 210.875Z" fill="#59595B"/>
<path opacity="0.5" d="M353.247 211.821C352.66 211.821 352.099 211.733 351.564 211.557C351.029 211.374 350.607 211.139 350.299 210.853L350.706 209.995C350.999 210.252 351.373 210.465 351.828 210.633C352.283 210.802 352.756 210.886 353.247 210.886C353.694 210.886 354.057 210.835 354.336 210.732C354.615 210.63 354.82 210.49 354.952 210.314C355.084 210.131 355.15 209.926 355.15 209.698C355.15 209.434 355.062 209.222 354.886 209.06C354.717 208.899 354.494 208.771 354.215 208.675C353.944 208.573 353.643 208.485 353.313 208.411C352.983 208.338 352.649 208.254 352.312 208.158C351.982 208.056 351.678 207.927 351.399 207.773C351.128 207.619 350.908 207.414 350.739 207.157C350.57 206.893 350.486 206.556 350.486 206.145C350.486 205.749 350.589 205.386 350.794 205.056C351.007 204.719 351.329 204.451 351.762 204.253C352.202 204.048 352.759 203.945 353.434 203.945C353.881 203.945 354.325 204.004 354.765 204.121C355.205 204.239 355.586 204.407 355.909 204.627L355.546 205.507C355.216 205.287 354.868 205.13 354.501 205.034C354.134 204.932 353.779 204.88 353.434 204.88C353.001 204.88 352.646 204.935 352.367 205.045C352.088 205.155 351.883 205.302 351.751 205.485C351.626 205.669 351.564 205.874 351.564 206.101C351.564 206.373 351.648 206.589 351.817 206.75C351.993 206.912 352.217 207.04 352.488 207.135C352.767 207.231 353.071 207.319 353.401 207.399C353.731 207.473 354.061 207.557 354.391 207.652C354.728 207.748 355.033 207.872 355.304 208.026C355.583 208.18 355.806 208.386 355.975 208.642C356.144 208.899 356.228 209.229 356.228 209.632C356.228 210.021 356.122 210.384 355.909 210.721C355.696 211.051 355.366 211.319 354.919 211.524C354.479 211.722 353.922 211.821 353.247 211.821ZM360.277 211.799C359.654 211.799 359.104 211.671 358.627 211.414C358.158 211.158 357.791 210.806 357.527 210.358C357.271 209.911 357.142 209.398 357.142 208.818C357.142 208.239 357.267 207.726 357.516 207.278C357.773 206.831 358.121 206.483 358.561 206.233C359.009 205.977 359.511 205.848 360.068 205.848C360.633 205.848 361.132 205.973 361.564 206.222C361.997 206.472 362.334 206.824 362.576 207.278C362.826 207.726 362.95 208.25 362.95 208.851C362.95 208.895 362.947 208.947 362.939 209.005C362.939 209.064 362.936 209.119 362.928 209.17H357.967V208.411H362.378L361.949 208.675C361.957 208.301 361.88 207.968 361.718 207.674C361.557 207.381 361.333 207.154 361.047 206.992C360.769 206.824 360.442 206.739 360.068 206.739C359.702 206.739 359.375 206.824 359.089 206.992C358.803 207.154 358.58 207.385 358.418 207.685C358.257 207.979 358.176 208.316 358.176 208.697V208.873C358.176 209.262 358.264 209.61 358.44 209.918C358.624 210.219 358.877 210.454 359.199 210.622C359.522 210.791 359.892 210.875 360.31 210.875C360.655 210.875 360.967 210.817 361.245 210.699C361.531 210.582 361.781 210.406 361.993 210.171L362.576 210.853C362.312 211.161 361.982 211.396 361.586 211.557C361.198 211.719 360.761 211.799 360.277 211.799ZM367.508 211.799C367.024 211.799 366.58 211.689 366.177 211.469C365.781 211.242 365.462 210.908 365.22 210.468C364.985 210.028 364.868 209.478 364.868 208.818C364.868 208.158 364.981 207.608 365.209 207.168C365.443 206.728 365.759 206.398 366.155 206.178C366.558 205.958 367.009 205.848 367.508 205.848C368.08 205.848 368.586 205.973 369.026 206.222C369.466 206.472 369.814 206.82 370.071 207.267C370.327 207.707 370.456 208.224 370.456 208.818C370.456 209.412 370.327 209.933 370.071 210.38C369.814 210.828 369.466 211.176 369.026 211.425C368.586 211.675 368.08 211.799 367.508 211.799ZM364.417 213.867V205.903H365.429V207.476L365.363 208.829L365.473 210.182V213.867H364.417ZM367.42 210.875C367.794 210.875 368.127 210.791 368.421 210.622C368.721 210.454 368.956 210.215 369.125 209.907C369.301 209.592 369.389 209.229 369.389 208.818C369.389 208.4 369.301 208.041 369.125 207.74C368.956 207.432 368.721 207.194 368.421 207.025C368.127 206.857 367.794 206.772 367.42 206.772C367.053 206.772 366.719 206.857 366.419 207.025C366.125 207.194 365.891 207.432 365.715 207.74C365.546 208.041 365.462 208.4 365.462 208.818C365.462 209.229 365.546 209.592 365.715 209.907C365.891 210.215 366.125 210.454 366.419 210.622C366.719 210.791 367.053 210.875 367.42 210.875Z" fill="#59595B"/>
<path opacity="0.5" d="M391.436 211.821C390.849 211.821 390.303 211.722 389.797 211.524C389.298 211.326 388.865 211.051 388.499 210.699C388.132 210.34 387.846 209.922 387.641 209.445C387.435 208.969 387.333 208.448 387.333 207.883C387.333 207.319 387.435 206.798 387.641 206.321C387.846 205.845 388.132 205.43 388.499 205.078C388.865 204.719 389.298 204.44 389.797 204.242C390.295 204.044 390.842 203.945 391.436 203.945C392.022 203.945 392.561 204.044 393.053 204.242C393.551 204.433 393.984 204.708 394.351 205.067C394.725 205.419 395.011 205.834 395.209 206.31C395.414 206.787 395.517 207.311 395.517 207.883C395.517 208.455 395.414 208.98 395.209 209.456C395.011 209.933 394.725 210.351 394.351 210.71C393.984 211.062 393.551 211.337 393.053 211.535C392.561 211.726 392.022 211.821 391.436 211.821ZM391.436 210.842C391.861 210.842 392.253 210.769 392.613 210.622C392.979 210.476 393.295 210.27 393.559 210.006C393.83 209.735 394.039 209.42 394.186 209.06C394.34 208.701 394.417 208.309 394.417 207.883C394.417 207.458 394.34 207.066 394.186 206.706C394.039 206.347 393.83 206.035 393.559 205.771C393.295 205.5 392.979 205.291 392.613 205.144C392.253 204.998 391.861 204.924 391.436 204.924C391.003 204.924 390.603 204.998 390.237 205.144C389.877 205.291 389.562 205.5 389.291 205.771C389.019 206.035 388.807 206.347 388.653 206.706C388.506 207.066 388.433 207.458 388.433 207.883C388.433 208.309 388.506 208.701 388.653 209.06C388.807 209.42 389.019 209.735 389.291 210.006C389.562 210.27 389.877 210.476 390.237 210.622C390.603 210.769 391.003 210.842 391.436 210.842ZM399.585 211.799C398.991 211.799 398.459 211.671 397.99 211.414C397.528 211.158 397.165 210.806 396.901 210.358C396.637 209.911 396.505 209.398 396.505 208.818C396.505 208.239 396.637 207.726 396.901 207.278C397.165 206.831 397.528 206.483 397.99 206.233C398.459 205.977 398.991 205.848 399.585 205.848C400.113 205.848 400.582 205.955 400.993 206.167C401.411 206.373 401.734 206.681 401.961 207.091L401.158 207.608C400.967 207.322 400.733 207.113 400.454 206.981C400.183 206.842 399.889 206.772 399.574 206.772C399.193 206.772 398.852 206.857 398.551 207.025C398.25 207.194 398.012 207.432 397.836 207.74C397.66 208.041 397.572 208.4 397.572 208.818C397.572 209.236 397.66 209.599 397.836 209.907C398.012 210.215 398.25 210.454 398.551 210.622C398.852 210.791 399.193 210.875 399.574 210.875C399.889 210.875 400.183 210.809 400.454 210.677C400.733 210.538 400.967 210.325 401.158 210.039L401.961 210.545C401.734 210.949 401.411 211.26 400.993 211.48C400.582 211.693 400.113 211.799 399.585 211.799ZM405.405 211.799C404.819 211.799 404.364 211.642 404.041 211.326C403.719 211.011 403.557 210.56 403.557 209.973V204.627H404.613V209.929C404.613 210.245 404.69 210.487 404.844 210.655C405.006 210.824 405.233 210.908 405.526 210.908C405.856 210.908 406.131 210.817 406.351 210.633L406.681 211.392C406.52 211.532 406.326 211.634 406.098 211.7C405.878 211.766 405.647 211.799 405.405 211.799ZM402.567 206.772V205.903H406.285V206.772H402.567Z" fill="#59595B"/>
<rect x="438.819" y="18" width="8.91428" height="173.829" rx="4" fill="url(#paint18_linear_394_1539)"/>
<rect x="428.419" y="66.7056" width="8.91428" height="125.123" rx="4" fill="url(#paint19_linear_394_1539)"/>
<path opacity="0.5" d="M426.59 211.733V204.033H427.492L432.585 210.358H432.112V204.033H433.212V211.733H432.31L427.217 205.408H427.69V211.733H426.59ZM437.859 211.799C437.273 211.799 436.752 211.671 436.297 211.414C435.843 211.158 435.483 210.806 435.219 210.358C434.955 209.904 434.823 209.39 434.823 208.818C434.823 208.239 434.955 207.726 435.219 207.278C435.483 206.831 435.843 206.483 436.297 206.233C436.752 205.977 437.273 205.848 437.859 205.848C438.439 205.848 438.956 205.977 439.41 206.233C439.872 206.483 440.232 206.831 440.488 207.278C440.752 207.718 440.884 208.232 440.884 208.818C440.884 209.398 440.752 209.911 440.488 210.358C440.232 210.806 439.872 211.158 439.41 211.414C438.956 211.671 438.439 211.799 437.859 211.799ZM437.859 210.875C438.233 210.875 438.567 210.791 438.86 210.622C439.161 210.454 439.396 210.215 439.564 209.907C439.733 209.592 439.817 209.229 439.817 208.818C439.817 208.4 439.733 208.041 439.564 207.74C439.396 207.432 439.161 207.194 438.86 207.025C438.567 206.857 438.233 206.772 437.859 206.772C437.485 206.772 437.152 206.857 436.858 207.025C436.565 207.194 436.33 207.432 436.154 207.74C435.978 208.041 435.89 208.4 435.89 208.818C435.89 209.229 435.978 209.592 436.154 209.907C436.33 210.215 436.565 210.454 436.858 210.622C437.152 210.791 437.485 210.875 437.859 210.875ZM443.713 211.733L441.161 205.903H442.261L444.527 211.183H443.999L446.309 205.903H447.343L444.791 211.733H443.713Z" fill="#59595B"/>
<rect x="252.171" y="46.2285" width="8.91428" height="145.6" rx="4" fill="url(#paint20_linear_394_1539)"/>
<rect x="242" y="39" width="9" height="153" rx="4" fill="url(#paint21_linear_394_1539)"/>
<defs>
<linearGradient id="paint0_linear_394_1539" x1="73.3902" y1="139.333" x2="73.3902" y2="191.828" gradientUnits="userSpaceOnUse">
<stop stop-color="#FEE2E2"/>
<stop offset="1" stop-color="#F69393"/>
</linearGradient>
<linearGradient id="paint1_linear_394_1539" x1="62.9903" y1="154.19" x2="62.9903" y2="191.829" gradientUnits="userSpaceOnUse">
<stop stop-color="#FFF3C5"/>
<stop offset="1" stop-color="#FCD84B"/>
</linearGradient>
<linearGradient id="paint2_linear_394_1539" x1="183.333" y1="71.981" x2="183.333" y2="191.829" gradientUnits="userSpaceOnUse">
<stop stop-color="#FEE2E2"/>
<stop offset="1" stop-color="#F69393"/>
</linearGradient>
<linearGradient id="paint3_linear_394_1539" x1="172.5" y1="62" x2="172.5" y2="192" gradientUnits="userSpaceOnUse">
<stop stop-color="#FFF3C5"/>
<stop offset="1" stop-color="#FCD84B"/>
</linearGradient>
<linearGradient id="paint4_linear_394_1539" x1="110.038" y1="93.7715" x2="110.038" y2="191.829" gradientUnits="userSpaceOnUse">
<stop stop-color="#FEE2E2"/>
<stop offset="1" stop-color="#F69393"/>
</linearGradient>
<linearGradient id="paint5_linear_394_1539" x1="99.6381" y1="121.505" x2="99.6381" y2="191.829" gradientUnits="userSpaceOnUse">
<stop stop-color="#FFF3C5"/>
<stop offset="1" stop-color="#FCD84B"/>
</linearGradient>
<linearGradient id="paint6_linear_394_1539" x1="219.981" y1="154.19" x2="219.981" y2="191.829" gradientUnits="userSpaceOnUse">
<stop stop-color="#FEE2E2"/>
<stop offset="1" stop-color="#F69393"/>
</linearGradient>
<linearGradient id="paint7_linear_394_1539" x1="209.581" y1="164.591" x2="209.581" y2="191.829" gradientUnits="userSpaceOnUse">
<stop stop-color="#FFF3C5"/>
<stop offset="1" stop-color="#FCD84B"/>
</linearGradient>
<linearGradient id="paint8_linear_394_1539" x1="146.686" y1="42.2666" x2="146.686" y2="191.828" gradientUnits="userSpaceOnUse">
<stop stop-color="#FEE2E2"/>
<stop offset="1" stop-color="#F69393"/>
</linearGradient>
<linearGradient id="paint9_linear_394_1539" x1="136.286" y1="84.3618" x2="136.286" y2="191.828" gradientUnits="userSpaceOnUse">
<stop stop-color="#FFF3C5"/>
<stop offset="1" stop-color="#FCD84B"/>
</linearGradient>
<linearGradient id="paint10_linear_394_1539" x1="293.276" y1="89.3142" x2="293.276" y2="191.828" gradientUnits="userSpaceOnUse">
<stop stop-color="#FEE2E2"/>
<stop offset="1" stop-color="#F69393"/>
</linearGradient>
<linearGradient id="paint11_linear_394_1539" x1="282.5" y1="72" x2="282.5" y2="192" gradientUnits="userSpaceOnUse">
<stop stop-color="#FFF3C5"/>
<stop offset="1" stop-color="#FCD84B"/>
</linearGradient>
<linearGradient id="paint12_linear_394_1539" x1="329.981" y1="154.19" x2="329.981" y2="191.829" gradientUnits="userSpaceOnUse">
<stop stop-color="#FEE2E2"/>
<stop offset="1" stop-color="#F69393"/>
</linearGradient>
<linearGradient id="paint13_linear_394_1539" x1="319.581" y1="164.591" x2="319.581" y2="191.829" gradientUnits="userSpaceOnUse">
<stop stop-color="#FFF3C5"/>
<stop offset="1" stop-color="#FCD84B"/>
</linearGradient>
<linearGradient id="paint14_linear_394_1539" x1="366.629" y1="46.2285" x2="366.629" y2="191.829" gradientUnits="userSpaceOnUse">
<stop stop-color="#FEE2E2"/>
<stop offset="1" stop-color="#F69393"/>
</linearGradient>
<linearGradient id="paint15_linear_394_1539" x1="356.229" y1="87.3333" x2="356.229" y2="191.828" gradientUnits="userSpaceOnUse">
<stop stop-color="#FFF3C5"/>
<stop offset="1" stop-color="#FCD84B"/>
</linearGradient>
<linearGradient id="paint16_linear_394_1539" x1="403.276" y1="89.3142" x2="403.276" y2="191.828" gradientUnits="userSpaceOnUse">
<stop stop-color="#FEE2E2"/>
<stop offset="1" stop-color="#F69393"/>
</linearGradient>
<linearGradient id="paint17_linear_394_1539" x1="392.5" y1="69" x2="392.5" y2="192" gradientUnits="userSpaceOnUse">
<stop stop-color="#FFF3C5"/>
<stop offset="1" stop-color="#FCD84B"/>
</linearGradient>
<linearGradient id="paint18_linear_394_1539" x1="443.276" y1="18" x2="443.276" y2="191.829" gradientUnits="userSpaceOnUse">
<stop stop-color="#FEE2E2"/>
<stop offset="1" stop-color="#F69393"/>
</linearGradient>
<linearGradient id="paint19_linear_394_1539" x1="432.876" y1="66.7056" x2="432.876" y2="191.829" gradientUnits="userSpaceOnUse">
<stop stop-color="#FFF3C5"/>
<stop offset="1" stop-color="#FCD84B"/>
</linearGradient>
<linearGradient id="paint20_linear_394_1539" x1="256.629" y1="46.2285" x2="256.629" y2="191.829" gradientUnits="userSpaceOnUse">
<stop stop-color="#FEE2E2"/>
<stop offset="1" stop-color="#F69393"/>
</linearGradient>
<linearGradient id="paint21_linear_394_1539" x1="246.5" y1="39" x2="246.5" y2="192" gradientUnits="userSpaceOnUse">
<stop stop-color="#FFF3C5"/>
<stop offset="1" stop-color="#FCD84B"/>
</linearGradient>
</defs>
</svg>
