<svg width="22" height="16" viewBox="0 0 22 16" fill="none" xmlns="http://www.w3.org/2000/svg">
<path d="M13.8667 10.6667H15.4667C15.7333 10.6667 16 10.4 16 10.1333V4.53333C16 4.26667 15.7333 4 15.4667 4H13.8667C13.6 4 13.3333 4.26667 13.3333 4.53333V10.1333C13.3333 10.4 13.6 10.6667 13.8667 10.6667ZM17.8667 10.6667H19.4667C19.7333 10.6667 20 10.4 20 10.1333V0.533333C20 0.266667 19.7333 0 19.4667 0H17.8667C17.6 0 17.3333 0.266667 17.3333 0.533333V10.1333C17.3333 10.4 17.6 10.6667 17.8667 10.6667ZM5.86667 10.6667H7.46667C7.73333 10.6667 8 10.4 8 10.1333V7.2C8 6.93333 7.73333 6.66667 7.46667 6.66667H5.86667C5.6 6.66667 5.33333 6.93333 5.33333 7.2V10.1333C5.33333 10.4 5.6 10.6667 5.86667 10.6667ZM9.86667 10.6667H11.4667C11.7333 10.6667 12 10.4 12 10.1333V1.86667C12 1.6 11.7333 1.33333 11.4667 1.33333H9.86667C9.6 1.33333 9.33333 1.6 9.33333 1.86667V10.1333C9.33333 10.4 9.6 10.6667 9.86667 10.6667ZM20.6667 13.3333H2.66667V0.666667C2.66667 0.298333 2.36833 0 2 0H0.666667C0.298333 0 0 0.298333 0 0.666667V14.6667C0 15.4029 0.597083 16 1.33333 16H20.6667C21.035 16 21.3333 15.7017 21.3333 15.3333V14C21.3333 13.6317 21.035 13.3333 20.6667 13.3333Z" fill="#FF8B00"/>
</svg>
