<svg width="19" height="20" viewBox="0 0 19 20" fill="none" xmlns="http://www.w3.org/2000/svg">
<path d="M14.6299 6.99994C12.9699 6.99994 11.6299 5.65994 11.6299 3.99994V0.999938C11.6299 0.599938 11.8699 0.229938 12.2499 0.0799376C12.6199 -0.0700624 13.0499 0.00993761 13.3399 0.299938L18.3399 5.29994C18.6299 5.58994 18.7099 6.01994 18.5599 6.38994C18.4099 6.75994 18.0399 7.00994 17.6399 7.00994H14.6399L14.6299 6.99994Z" fill="white"/>
<path fill-rule="evenodd" clip-rule="evenodd" d="M10.8999 0C10.7299 0.3 10.6299 0.64 10.6299 1V4C10.6299 6.21 12.4199 8 14.6299 8H17.6299C17.9899 8 18.3299 7.9 18.6299 7.73V17C18.6299 18.66 17.2899 20 15.6299 20H3.62988C1.96988 20 0.629883 18.66 0.629883 17V3C0.629883 1.34 1.96988 0 3.62988 0H10.8999ZM4.62988 16C4.62988 16.55 5.07988 17 5.62988 17C6.17988 17 6.62988 16.55 6.62988 16V14C6.62988 13.45 6.17988 13 5.62988 13C5.07988 13 4.62988 13.45 4.62988 14V16ZM9.62988 17C9.07988 17 8.62988 16.55 8.62988 16V10C8.62988 9.45 9.07988 9 9.62988 9C10.1799 9 10.6299 9.45 10.6299 10V16C10.6299 16.55 10.1799 17 9.62988 17ZM12.6299 16C12.6299 16.55 13.0799 17 13.6299 17C14.1799 17 14.6299 16.55 14.6299 16V12C14.6299 11.45 14.1799 11 13.6299 11C13.0799 11 12.6299 11.45 12.6299 12V16Z" fill="white"/>
</svg>
