<svg width="52" height="50" viewBox="0 0 52 50" fill="none" xmlns="http://www.w3.org/2000/svg">
<rect width="51.4493" height="50" rx="10" fill="#F4F5F6"/>
<path d="M23 17V32.7078H27.5829V24.8539V17H23ZM23.241 20.4659H24.5696V20.6644H23.241V20.4659ZM23.241 23.0179H24.5696V23.2164H23.241V23.0179ZM23.241 25.5841H24.5696V25.7826H23.241V25.5841ZM23.241 28.1361H24.5696V28.3346H23.241V28.1361ZM24.5696 30.9149H23.2406V30.7164H24.5692L24.5696 30.9149ZM25.0317 29.6389H23.241V29.4404H25.0313L25.0317 29.6389ZM25.0317 27.0586H23.241V26.8601H25.0313L25.0317 27.0586ZM25.0317 24.5066H23.241V24.3081H25.0313L25.0317 24.5066ZM25.0317 21.9404H23.241V21.7419H25.0313L25.0317 21.9404ZM25.0317 19.3884H23.241V19.1899H25.0313L25.0317 19.3884ZM26.565 18.5053C26.2609 18.5053 26.0137 18.263 26.0137 17.9641C26.0137 17.6651 26.2605 17.4229 26.565 17.4229C26.8695 17.4229 27.1167 17.6651 27.1167 17.9641C27.1167 18.263 26.8699 18.5053 26.565 18.5053Z" fill="#83838B"/>
</svg>
