<svg width="52" height="50" viewBox="0 0 52 50" fill="none" xmlns="http://www.w3.org/2000/svg">
<rect width="51.4493" height="50" rx="10" fill="#F4F5F6"/>
<path d="M38.135 25.6395C38.0523 24.8948 37.4731 24.2604 36.7284 24.1777L32.3153 23.6261L29.2262 18.2753C29.0332 17.9443 28.6746 17.7512 28.2885 17.7512H14.3599C13.8358 17.7512 13.3669 18.1374 13.3118 18.6614L12.3464 25.3913C12.3188 25.474 12.3188 25.6671 12.3188 25.6671V29.9146C12.3188 30.4111 12.7326 30.7972 13.2015 30.7972H14.5805C14.7184 28.7286 16.4285 27.1013 18.4971 27.1013C20.5657 27.1013 22.2757 28.7286 22.4136 30.7696H28.4264C28.5643 28.7286 30.2467 27.1013 32.3429 27.1013C34.4391 27.1013 36.1216 28.7286 36.2595 30.7696H37.6385C38.1626 30.7696 38.5763 30.3283 38.5212 29.8043L38.135 25.6395ZM21.862 23.4606H14.7736L15.2701 19.9026H21.862V23.4606ZM23.9858 23.4606V19.875H27.6817L29.7503 23.433H23.9858V23.4606Z" fill="#83838B"/>
<path d="M21.1726 31.0179C21.1726 32.4955 19.9747 33.6933 18.4972 33.6933C17.0196 33.6933 15.8218 32.4955 15.8218 31.0179C15.8218 29.5403 17.0196 28.3425 18.4972 28.3425C19.9747 28.3425 21.1726 29.5403 21.1726 31.0179Z" fill="#83838B"/>
<path d="M35.0183 31.0179C35.0183 32.4955 33.8204 33.6933 32.3429 33.6933C30.8653 33.6933 29.6675 32.4955 29.6675 31.0179C29.6675 29.5403 30.8653 28.3425 32.3429 28.3425C33.8204 28.3425 35.0183 29.5403 35.0183 31.0179Z" fill="#83838B"/>
</svg>
