<svg width="52" height="50" viewBox="0 0 52 50" fill="none" xmlns="http://www.w3.org/2000/svg">
<rect width="51.4493" height="50" rx="10" fill="#F4F5F6"/>
<path d="M18 18.9635C18 18.4427 18.2107 17.9433 18.5858 17.5751C18.9609 17.2069 19.4696 17 20 17H32C32.5304 17 33.0391 17.2069 33.4142 17.5751C33.7893 17.9433 34 18.4427 34 18.9635H18Z" fill="#83838B"/>
<path fill-rule="evenodd" clip-rule="evenodd" d="M18 19.9453H34V30.7444C34 31.2652 33.7893 31.7646 33.4142 32.1328C33.0391 32.501 32.5304 32.7079 32 32.7079H20C19.4696 32.7079 18.9609 32.501 18.5858 32.1328C18.2107 31.7646 18 31.2652 18 30.7444V19.9453ZM24.5 23.8723C24.7652 23.8723 25.0196 23.7688 25.2071 23.5847C25.3946 23.4006 25.5 23.1509 25.5 22.8905C25.5 22.6302 25.3946 22.3804 25.2071 22.1963C25.0196 22.0122 24.7652 21.9088 24.5 21.9088C24.2348 21.9088 23.9804 22.0122 23.7929 22.1963C23.6054 22.3804 23.5 22.6302 23.5 22.8905C23.5 23.1509 23.6054 23.4006 23.7929 23.5847C23.9804 23.7688 24.2348 23.8723 24.5 23.8723ZM28.5 22.8905C28.5 23.1509 28.3946 23.4006 28.2071 23.5847C28.0196 23.7688 27.7652 23.8723 27.5 23.8723C27.2348 23.8723 26.9804 23.7688 26.7929 23.5847C26.6054 23.4006 26.5 23.1509 26.5 22.8905C26.5 22.6302 26.6054 22.3804 26.7929 22.1963C26.9804 22.0122 27.2348 21.9088 27.5 21.9088C27.7652 21.9088 28.0196 22.0122 28.2071 22.1963C28.3946 22.3804 28.5 22.6302 28.5 22.8905ZM30.5 23.8723C30.7652 23.8723 31.0196 23.7688 31.2071 23.5847C31.3946 23.4006 31.5 23.1509 31.5 22.8905C31.5 22.6302 31.3946 22.3804 31.2071 22.1963C31.0196 22.0122 30.7652 21.9088 30.5 21.9088C30.2348 21.9088 29.9804 22.0122 29.7929 22.1963C29.6054 22.3804 29.5 22.6302 29.5 22.8905C29.5 23.1509 29.6054 23.4006 29.7929 23.5847C29.9804 23.7688 30.2348 23.8723 30.5 23.8723ZM22.5 25.8357C22.5 26.0961 22.3946 26.3458 22.2071 26.5299C22.0196 26.714 21.7652 26.8175 21.5 26.8175C21.2348 26.8175 20.9804 26.714 20.7929 26.5299C20.6054 26.3458 20.5 26.0961 20.5 25.8357C20.5 25.5754 20.6054 25.3257 20.7929 25.1415C20.9804 24.9574 21.2348 24.854 21.5 24.854C21.7652 24.854 22.0196 24.9574 22.2071 25.1415C22.3946 25.3257 22.5 25.5754 22.5 25.8357ZM24.5 26.8175C24.7652 26.8175 25.0196 26.714 25.2071 26.5299C25.3946 26.3458 25.5 26.0961 25.5 25.8357C25.5 25.5754 25.3946 25.3257 25.2071 25.1415C25.0196 24.9574 24.7652 24.854 24.5 24.854C24.2348 24.854 23.9804 24.9574 23.7929 25.1415C23.6054 25.3257 23.5 25.5754 23.5 25.8357C23.5 26.0961 23.6054 26.3458 23.7929 26.5299C23.9804 26.714 24.2348 26.8175 24.5 26.8175ZM28.5 25.8357C28.5 26.0961 28.3946 26.3458 28.2071 26.5299C28.0196 26.714 27.7652 26.8175 27.5 26.8175C27.2348 26.8175 26.9804 26.714 26.7929 26.5299C26.6054 26.3458 26.5 26.0961 26.5 25.8357C26.5 25.5754 26.6054 25.3257 26.7929 25.1415C26.9804 24.9574 27.2348 24.854 27.5 24.854C27.7652 24.854 28.0196 24.9574 28.2071 25.1415C28.3946 25.3257 28.5 25.5754 28.5 25.8357ZM30.5 26.8175C30.7652 26.8175 31.0196 26.714 31.2071 26.5299C31.3946 26.3458 31.5 26.0961 31.5 25.8357C31.5 25.5754 31.3946 25.3257 31.2071 25.1415C31.0196 24.9574 30.7652 24.854 30.5 24.854C30.2348 24.854 29.9804 24.9574 29.7929 25.1415C29.6054 25.3257 29.5 25.5754 29.5 25.8357C29.5 26.0961 29.6054 26.3458 29.7929 26.5299C29.9804 26.714 30.2348 26.8175 30.5 26.8175ZM22.5 28.781C22.5 29.0413 22.3946 29.291 22.2071 29.4752C22.0196 29.6593 21.7652 29.7627 21.5 29.7627C21.2348 29.7627 20.9804 29.6593 20.7929 29.4752C20.6054 29.291 20.5 29.0413 20.5 28.781C20.5 28.5206 20.6054 28.2709 20.7929 28.0868C20.9804 27.9027 21.2348 27.7992 21.5 27.7992C21.7652 27.7992 22.0196 27.9027 22.2071 28.0868C22.3946 28.2709 22.5 28.5206 22.5 28.781ZM24.5 29.7627C24.7652 29.7627 25.0196 29.6593 25.2071 29.4752C25.3946 29.291 25.5 29.0413 25.5 28.781C25.5 28.5206 25.3946 28.2709 25.2071 28.0868C25.0196 27.9027 24.7652 27.7992 24.5 27.7992C24.2348 27.7992 23.9804 27.9027 23.7929 28.0868C23.6054 28.2709 23.5 28.5206 23.5 28.781C23.5 29.0413 23.6054 29.291 23.7929 29.4752C23.9804 29.6593 24.2348 29.7627 24.5 29.7627ZM28.5 28.781C28.5 29.0413 28.3946 29.291 28.2071 29.4752C28.0196 29.6593 27.7652 29.7627 27.5 29.7627C27.2348 29.7627 26.9804 29.6593 26.7929 29.4752C26.6054 29.291 26.5 29.0413 26.5 28.781C26.5 28.5206 26.6054 28.2709 26.7929 28.0868C26.9804 27.9027 27.2348 27.7992 27.5 27.7992C27.7652 27.7992 28.0196 27.9027 28.2071 28.0868C28.3946 28.2709 28.5 28.5206 28.5 28.781Z" fill="#83838B"/>
</svg>
