<svg width="52" height="50" viewBox="0 0 52 50" fill="none" xmlns="http://www.w3.org/2000/svg">
<rect width="51.4493" height="50" rx="10" fill="#F4F5F6"/>
<path fill-rule="evenodd" clip-rule="evenodd" d="M26 17C30.3837 17 34 20.4967 34 24.8539C34 29.2111 30.3837 32.7078 26 32.7078C21.6163 32.7078 18 29.1576 18 24.8539C18 20.5502 21.5617 17 26 17ZM28.3014 23.8856C29.5617 24.6388 30.9863 24.5313 31.8083 24.5849C31.7534 23.1864 31.1506 21.9491 30.274 20.9808C29.7809 21.5727 28.63 22.4871 28.3014 23.8856ZM31.8083 25.1229C30.9863 25.1768 29.5617 25.0152 28.3014 25.7686C28.6303 27.221 29.7809 28.0816 30.274 28.6734C31.1506 27.7052 31.7534 26.4679 31.8083 25.1232V25.1229ZM29.8906 29.0496C29.2877 28.5654 28.4111 27.4356 26.9317 27.113C26.1646 28.3503 26.3289 29.7489 26.274 30.5558C27.644 30.502 28.904 29.9101 29.8903 29.0496H29.8906ZM25.7263 30.5558C25.6714 29.7489 25.7811 28.3503 25.014 27.113C23.5894 27.4359 22.658 28.5654 22.0551 29.0496C23.0414 29.9101 24.3017 30.502 25.7263 30.5558ZM21.6714 28.6729C22.2194 28.081 23.3151 27.2205 23.6989 25.768C22.3837 25.0149 20.9591 25.1762 20.192 25.1223C20.2469 26.4673 20.7949 27.7043 21.6714 28.6726V28.6729ZM20.192 24.5849C20.9591 24.5311 22.3837 24.6388 23.6989 23.8856C23.3151 22.4871 22.2194 21.5727 21.6714 20.9808C20.7949 21.9491 20.2469 23.1864 20.192 24.5849ZM22.0551 20.6041C22.658 21.1421 23.5894 22.2181 25.014 22.5945C25.7811 21.3034 25.6717 19.9048 25.7263 19.1517C24.3017 19.2055 23.0414 19.7435 22.0551 20.6041ZM26.2743 19.1517C26.3291 19.9048 26.1646 21.3034 26.932 22.5945C28.4114 22.2178 29.288 21.1421 29.8909 20.6041C28.9046 19.7435 27.6443 19.2055 26.2746 19.1517H26.2743ZM26.0003 23.4554C26.7674 23.4554 27.3703 24.1011 27.3703 24.8539C27.3703 25.6068 26.7674 26.1989 26.0003 26.1989C25.2331 26.1989 24.5757 25.607 24.5757 24.8539C24.5757 24.1008 25.2334 23.4554 26.0003 23.4554ZM31.5346 24.3159C31.4249 23.2402 30.9866 22.2181 30.2743 21.3572C29.562 22.1104 28.9043 22.7558 28.5757 23.7779C29.562 24.3159 30.4934 24.2621 31.5346 24.3159ZM30.2743 28.2967C30.9866 27.4897 31.4249 26.4676 31.5346 25.3919C30.4934 25.3919 29.562 25.3919 28.5757 25.876C28.9046 26.952 29.562 27.5436 30.2743 28.2967ZM29.5071 29.0499C28.74 28.3506 28.1371 27.7049 27.0414 27.3823C26.5483 28.3506 26.5483 29.265 26.5483 30.2871C27.6443 30.1794 28.6851 29.7491 29.5071 29.0499ZM22.4386 29.0499C23.3151 29.7491 24.3563 30.1794 25.4523 30.2871C25.3974 29.265 25.4523 28.3506 24.9043 27.3823C23.8631 27.7052 23.2057 28.3506 22.4386 29.0499ZM21.6714 28.2967C22.3837 27.5436 23.0414 26.9517 23.37 25.876C22.3837 25.3919 21.5069 25.3919 20.466 25.3919C20.5757 26.4679 20.9591 27.4897 21.6714 28.2967ZM21.6714 21.3572C20.9591 22.2178 20.5757 23.2399 20.466 24.3159C21.5071 24.2621 22.3837 24.3159 23.37 23.7779C23.0411 22.7558 22.3837 22.1104 21.6714 21.3572ZM22.4386 20.6041C23.2057 21.3034 23.8631 21.9491 24.9043 22.2717C25.4523 21.3034 25.3974 20.4425 25.4523 19.4207C24.3563 19.5284 23.3154 19.9048 22.4386 20.6041ZM29.5071 20.6041C28.6851 19.9048 27.644 19.5284 26.5483 19.4207C26.5483 20.4428 26.5483 21.3034 27.0414 22.2717C28.1374 21.9488 28.74 21.3034 29.5071 20.6041ZM26.0003 23.7241C25.3426 23.7241 24.8497 24.2082 24.8497 24.8536C24.8497 25.4455 25.3429 25.9296 26.0003 25.9296C26.6031 25.9296 27.0963 25.4455 27.0963 24.8536C27.0963 24.2079 26.6031 23.7241 26.0003 23.7241ZM26.0003 17.8606C29.8906 17.8606 33.0689 20.9805 33.0689 24.8539C33.0689 28.7273 29.8909 31.7934 26.0003 31.7934C22.1097 31.7934 18.8766 28.6737 18.8766 24.8542C18.8766 21.0347 22.0546 17.8608 26 17.8608L26.0003 17.8606Z" fill="#83838B" stroke="#83838B" stroke-width="0.35"/>
</svg>
