<svg width="278" height="203" viewBox="0 0 278 203" fill="none" xmlns="http://www.w3.org/2000/svg">
<line x1="20" y1="2.5" x2="258" y2="2.5" stroke="#F4F5F6"/>
<path d="M21.2873 25.5V17.1H22.2713L26.0393 23.448H25.5113L29.2313 17.1H30.2153L30.2273 25.5H29.0753L29.0633 18.912H29.3393L26.0273 24.48H25.4753L22.1393 18.912H22.4393V25.5H21.2873ZM32.5803 25.5V19.14H33.7323V25.5H32.5803ZM33.1563 17.916C32.9323 17.916 32.7443 17.844 32.5923 17.7C32.4483 17.556 32.3763 17.38 32.3763 17.172C32.3763 16.956 32.4483 16.776 32.5923 16.632C32.7443 16.488 32.9323 16.416 33.1563 16.416C33.3803 16.416 33.5643 16.488 33.7083 16.632C33.8603 16.768 33.9363 16.94 33.9363 17.148C33.9363 17.364 33.8643 17.548 33.7203 17.7C33.5763 17.844 33.3883 17.916 33.1563 17.916ZM38.7038 25.572C38.0558 25.572 37.4758 25.432 36.9638 25.152C36.4598 24.872 36.0638 24.488 35.7758 24C35.4878 23.512 35.3438 22.952 35.3438 22.32C35.3438 21.688 35.4878 21.128 35.7758 20.64C36.0638 20.152 36.4598 19.772 36.9638 19.5C37.4758 19.22 38.0558 19.08 38.7038 19.08C39.2798 19.08 39.7918 19.196 40.2398 19.428C40.6958 19.652 41.0478 19.988 41.2958 20.436L40.4198 21C40.2118 20.688 39.9558 20.46 39.6518 20.316C39.3558 20.164 39.0358 20.088 38.6918 20.088C38.2758 20.088 37.9038 20.18 37.5758 20.364C37.2478 20.548 36.9878 20.808 36.7958 21.144C36.6038 21.472 36.5078 21.864 36.5078 22.32C36.5078 22.776 36.6038 23.172 36.7958 23.508C36.9878 23.844 37.2478 24.104 37.5758 24.288C37.9038 24.472 38.2758 24.564 38.6918 24.564C39.0358 24.564 39.3558 24.492 39.6518 24.348C39.9558 24.196 40.2118 23.964 40.4198 23.652L41.2958 24.204C41.0478 24.644 40.6958 24.984 40.2398 25.224C39.7918 25.456 39.2798 25.572 38.7038 25.572ZM46.1013 19.08C46.6213 19.08 47.0773 19.18 47.4693 19.38C47.8693 19.58 48.1813 19.884 48.4053 20.292C48.6293 20.7 48.7413 21.216 48.7413 21.84V25.5H47.5893V21.972C47.5893 21.356 47.4373 20.892 47.1333 20.58C46.8373 20.268 46.4173 20.112 45.8733 20.112C45.4653 20.112 45.1093 20.192 44.8053 20.352C44.5013 20.512 44.2653 20.748 44.0973 21.06C43.9373 21.372 43.8573 21.76 43.8573 22.224V25.5H42.7053V16.596H43.8573V20.856L43.6293 20.4C43.8373 19.984 44.1573 19.66 44.5893 19.428C45.0213 19.196 45.5253 19.08 46.1013 19.08ZM53.7053 25.572C53.0253 25.572 52.4253 25.432 51.9053 25.152C51.3933 24.872 50.9933 24.488 50.7053 24C50.4253 23.512 50.2853 22.952 50.2853 22.32C50.2853 21.688 50.4213 21.128 50.6933 20.64C50.9733 20.152 51.3533 19.772 51.8333 19.5C52.3213 19.22 52.8693 19.08 53.4773 19.08C54.0933 19.08 54.6373 19.216 55.1093 19.488C55.5813 19.76 55.9493 20.144 56.2133 20.64C56.4853 21.128 56.6213 21.7 56.6213 22.356C56.6213 22.404 56.6173 22.46 56.6093 22.524C56.6093 22.588 56.6053 22.648 56.5973 22.704H51.1853V21.876H55.9973L55.5293 22.164C55.5373 21.756 55.4533 21.392 55.2773 21.072C55.1013 20.752 54.8573 20.504 54.5453 20.328C54.2413 20.144 53.8853 20.052 53.4773 20.052C53.0773 20.052 52.7213 20.144 52.4093 20.328C52.0973 20.504 51.8533 20.756 51.6773 21.084C51.5013 21.404 51.4133 21.772 51.4133 22.188V22.38C51.4133 22.804 51.5093 23.184 51.7013 23.52C51.9013 23.848 52.1773 24.104 52.5293 24.288C52.8813 24.472 53.2853 24.564 53.7413 24.564C54.1173 24.564 54.4573 24.5 54.7613 24.372C55.0733 24.244 55.3453 24.052 55.5773 23.796L56.2133 24.54C55.9253 24.876 55.5653 25.132 55.1333 25.308C54.7093 25.484 54.2333 25.572 53.7053 25.572ZM58.2209 25.5V16.596H59.3729V25.5H58.2209ZM61.5725 25.5V19.14H62.7245V25.5H61.5725ZM62.1485 17.916C61.9245 17.916 61.7365 17.844 61.5845 17.7C61.4405 17.556 61.3685 17.38 61.3685 17.172C61.3685 16.956 61.4405 16.776 61.5845 16.632C61.7365 16.488 61.9245 16.416 62.1485 16.416C62.3725 16.416 62.5565 16.488 62.7005 16.632C62.8525 16.768 62.9285 16.94 62.9285 17.148C62.9285 17.364 62.8565 17.548 62.7125 17.7C62.5685 17.844 62.3805 17.916 62.1485 17.916ZM68.32 19.08C68.84 19.08 69.296 19.18 69.688 19.38C70.088 19.58 70.4 19.884 70.624 20.292C70.848 20.7 70.96 21.216 70.96 21.84V25.5H69.808V21.972C69.808 21.356 69.656 20.892 69.352 20.58C69.056 20.268 68.636 20.112 68.092 20.112C67.684 20.112 67.328 20.192 67.024 20.352C66.72 20.512 66.484 20.748 66.316 21.06C66.156 21.372 66.076 21.76 66.076 22.224V25.5H64.924V19.14H66.028V20.856L65.848 20.4C66.056 19.984 66.376 19.66 66.808 19.428C67.24 19.196 67.744 19.08 68.32 19.08Z" fill="#59595B"/>
<path d="M155.671 26V24.782L159.563 21.086C159.89 20.778 160.133 20.5073 160.291 20.274C160.45 20.0407 160.553 19.826 160.599 19.63C160.655 19.4247 160.683 19.2333 160.683 19.056C160.683 18.608 160.529 18.2627 160.221 18.02C159.913 17.768 159.461 17.642 158.863 17.642C158.387 17.642 157.953 17.726 157.561 17.894C157.179 18.062 156.847 18.3187 156.567 18.664L155.293 17.684C155.676 17.1707 156.189 16.774 156.833 16.494C157.487 16.2047 158.215 16.06 159.017 16.06C159.727 16.06 160.343 16.1767 160.865 16.41C161.397 16.634 161.803 16.956 162.083 17.376C162.373 17.796 162.517 18.2953 162.517 18.874C162.517 19.1913 162.475 19.5087 162.391 19.826C162.307 20.134 162.149 20.4607 161.915 20.806C161.682 21.1513 161.341 21.5387 160.893 21.968L157.547 25.146L157.169 24.46H162.895V26H155.671ZM164.302 28.114L165.114 25.02L165.352 26.056C165.026 26.056 164.75 25.958 164.526 25.762C164.312 25.5567 164.204 25.2813 164.204 24.936C164.204 24.5813 164.312 24.3013 164.526 24.096C164.75 23.8813 165.021 23.774 165.338 23.774C165.665 23.774 165.936 23.8813 166.15 24.096C166.365 24.3107 166.472 24.5907 166.472 24.936C166.472 25.0293 166.463 25.132 166.444 25.244C166.426 25.3467 166.393 25.468 166.346 25.608C166.309 25.748 166.244 25.9253 166.15 26.14L165.436 28.114H164.302ZM171.048 26.14C170.358 26.14 169.681 26.042 169.018 25.846C168.365 25.6407 167.814 25.3607 167.366 25.006L168.136 23.592C168.491 23.8813 168.92 24.1147 169.424 24.292C169.938 24.4693 170.47 24.558 171.02 24.558C171.664 24.558 172.168 24.4227 172.532 24.152C172.906 23.8813 173.092 23.5173 173.092 23.06C173.092 22.752 173.013 22.4813 172.854 22.248C172.705 22.0147 172.434 21.8373 172.042 21.716C171.66 21.5947 171.132 21.534 170.46 21.534H168.094L168.598 16.2H174.352V17.726H169.27L170.222 16.858L169.844 20.848L168.892 19.994H170.866C171.837 19.994 172.616 20.1247 173.204 20.386C173.802 20.638 174.236 20.9927 174.506 21.45C174.786 21.898 174.926 22.4113 174.926 22.99C174.926 23.5593 174.786 24.082 174.506 24.558C174.226 25.034 173.797 25.4167 173.218 25.706C172.649 25.9953 171.926 26.14 171.048 26.14ZM180.214 26.14C179.439 26.14 178.739 25.944 178.114 25.552C177.498 25.16 177.013 24.5907 176.658 23.844C176.303 23.088 176.126 22.1733 176.126 21.1C176.126 20.0267 176.303 19.1167 176.658 18.37C177.013 17.614 177.498 17.04 178.114 16.648C178.739 16.256 179.439 16.06 180.214 16.06C180.998 16.06 181.698 16.256 182.314 16.648C182.93 17.04 183.415 17.614 183.77 18.37C184.134 19.1167 184.316 20.0267 184.316 21.1C184.316 22.1733 184.134 23.088 183.77 23.844C183.415 24.5907 182.93 25.16 182.314 25.552C181.698 25.944 180.998 26.14 180.214 26.14ZM180.214 24.558C180.671 24.558 181.068 24.4367 181.404 24.194C181.74 23.942 182.001 23.5593 182.188 23.046C182.384 22.5327 182.482 21.884 182.482 21.1C182.482 20.3067 182.384 19.658 182.188 19.154C182.001 18.6407 181.74 18.2627 181.404 18.02C181.068 17.768 180.671 17.642 180.214 17.642C179.775 17.642 179.383 17.768 179.038 18.02C178.702 18.2627 178.436 18.6407 178.24 19.154C178.053 19.658 177.96 20.3067 177.96 21.1C177.96 21.884 178.053 22.5327 178.24 23.046C178.436 23.5593 178.702 23.942 179.038 24.194C179.383 24.4367 179.775 24.558 180.214 24.558ZM189.784 26.14C189.009 26.14 188.309 25.944 187.684 25.552C187.068 25.16 186.583 24.5907 186.228 23.844C185.873 23.088 185.696 22.1733 185.696 21.1C185.696 20.0267 185.873 19.1167 186.228 18.37C186.583 17.614 187.068 17.04 187.684 16.648C188.309 16.256 189.009 16.06 189.784 16.06C190.568 16.06 191.268 16.256 191.884 16.648C192.5 17.04 192.985 17.614 193.34 18.37C193.704 19.1167 193.886 20.0267 193.886 21.1C193.886 22.1733 193.704 23.088 193.34 23.844C192.985 24.5907 192.5 25.16 191.884 25.552C191.268 25.944 190.568 26.14 189.784 26.14ZM189.784 24.558C190.241 24.558 190.638 24.4367 190.974 24.194C191.31 23.942 191.571 23.5593 191.758 23.046C191.954 22.5327 192.052 21.884 192.052 21.1C192.052 20.3067 191.954 19.658 191.758 19.154C191.571 18.6407 191.31 18.2627 190.974 18.02C190.638 17.768 190.241 17.642 189.784 17.642C189.345 17.642 188.953 17.768 188.608 18.02C188.272 18.2627 188.006 18.6407 187.81 19.154C187.623 19.658 187.53 20.3067 187.53 21.1C187.53 21.884 187.623 22.5327 187.81 23.046C188.006 23.5593 188.272 23.942 188.608 24.194C188.953 24.4367 189.345 24.558 189.784 24.558Z" fill="#59595B"/>
<path d="M209.923 26.14C209.233 26.14 208.556 26.042 207.893 25.846C207.24 25.6407 206.689 25.3607 206.241 25.006L207.011 23.592C207.366 23.8813 207.795 24.1147 208.299 24.292C208.813 24.4693 209.345 24.558 209.895 24.558C210.539 24.558 211.043 24.4227 211.407 24.152C211.781 23.8813 211.967 23.5173 211.967 23.06C211.967 22.752 211.888 22.4813 211.729 22.248C211.58 22.0147 211.309 21.8373 210.917 21.716C210.535 21.5947 210.007 21.534 209.335 21.534H206.969L207.473 16.2H213.227V17.726H208.145L209.097 16.858L208.719 20.848L207.767 19.994H209.741C210.712 19.994 211.491 20.1247 212.079 20.386C212.677 20.638 213.111 20.9927 213.381 21.45C213.661 21.898 213.801 22.4113 213.801 22.99C213.801 23.5593 213.661 24.082 213.381 24.558C213.101 25.034 212.672 25.4167 212.093 25.706C211.524 25.9953 210.801 26.14 209.923 26.14ZM219.089 26.14C218.314 26.14 217.614 25.944 216.989 25.552C216.373 25.16 215.888 24.5907 215.533 23.844C215.178 23.088 215.001 22.1733 215.001 21.1C215.001 20.0267 215.178 19.1167 215.533 18.37C215.888 17.614 216.373 17.04 216.989 16.648C217.614 16.256 218.314 16.06 219.089 16.06C219.873 16.06 220.573 16.256 221.189 16.648C221.805 17.04 222.29 17.614 222.645 18.37C223.009 19.1167 223.191 20.0267 223.191 21.1C223.191 22.1733 223.009 23.088 222.645 23.844C222.29 24.5907 221.805 25.16 221.189 25.552C220.573 25.944 219.873 26.14 219.089 26.14ZM219.089 24.558C219.546 24.558 219.943 24.4367 220.279 24.194C220.615 23.942 220.876 23.5593 221.063 23.046C221.259 22.5327 221.357 21.884 221.357 21.1C221.357 20.3067 221.259 19.658 221.063 19.154C220.876 18.6407 220.615 18.2627 220.279 18.02C219.943 17.768 219.546 17.642 219.089 17.642C218.65 17.642 218.258 17.768 217.913 18.02C217.577 18.2627 217.311 18.6407 217.115 19.154C216.928 19.658 216.835 20.3067 216.835 21.1C216.835 21.884 216.928 22.5327 217.115 23.046C217.311 23.5593 217.577 23.942 217.913 24.194C218.258 24.4367 218.65 24.558 219.089 24.558ZM225.943 26L232.635 16.2H234.007L227.315 26H225.943ZM226.755 21.478C226.298 21.478 225.892 21.366 225.537 21.142C225.182 20.918 224.907 20.6053 224.711 20.204C224.515 19.8027 224.417 19.3313 224.417 18.79C224.417 18.2487 224.515 17.7773 224.711 17.376C224.907 16.9747 225.182 16.662 225.537 16.438C225.892 16.214 226.298 16.102 226.755 16.102C227.231 16.102 227.642 16.214 227.987 16.438C228.342 16.662 228.617 16.9747 228.813 17.376C229.009 17.7773 229.107 18.2487 229.107 18.79C229.107 19.3313 229.009 19.8027 228.813 20.204C228.617 20.6053 228.342 20.918 227.987 21.142C227.642 21.366 227.231 21.478 226.755 21.478ZM226.769 20.498C227.142 20.498 227.432 20.3533 227.637 20.064C227.852 19.7653 227.959 19.3407 227.959 18.79C227.959 18.2393 227.852 17.8193 227.637 17.53C227.432 17.2313 227.142 17.082 226.769 17.082C226.396 17.082 226.097 17.2313 225.873 17.53C225.658 17.8287 225.551 18.2487 225.551 18.79C225.551 19.3313 225.658 19.7513 225.873 20.05C226.097 20.3487 226.396 20.498 226.769 20.498ZM233.181 26.098C232.724 26.098 232.318 25.986 231.963 25.762C231.608 25.538 231.333 25.2253 231.137 24.824C230.941 24.4227 230.843 23.9513 230.843 23.41C230.843 22.8687 230.941 22.3973 231.137 21.996C231.333 21.5947 231.608 21.282 231.963 21.058C232.318 20.834 232.724 20.722 233.181 20.722C233.657 20.722 234.068 20.834 234.413 21.058C234.768 21.282 235.043 21.5947 235.239 21.996C235.435 22.3973 235.533 22.8687 235.533 23.41C235.533 23.9513 235.435 24.4227 235.239 24.824C235.043 25.2253 234.768 25.538 234.413 25.762C234.068 25.986 233.657 26.098 233.181 26.098ZM233.181 25.118C233.554 25.118 233.848 24.9687 234.063 24.67C234.278 24.3713 234.385 23.9513 234.385 23.41C234.385 22.8687 234.278 22.4487 234.063 22.15C233.848 21.8513 233.554 21.702 233.181 21.702C232.817 21.702 232.523 21.8513 232.299 22.15C232.084 22.4393 231.977 22.8593 231.977 23.41C231.977 23.9607 232.084 24.3853 232.299 24.684C232.523 24.9733 232.817 25.118 233.181 25.118Z" fill="#59595B"/>
<line x1="20" y1="38.5" x2="258" y2="38.5" stroke="#F4F5F6"/>
<path d="M22.0647 61.5V53.1H25.3407C26.0767 53.1 26.7047 53.216 27.2247 53.448C27.7447 53.68 28.1447 54.016 28.4247 54.456C28.7047 54.896 28.8447 55.42 28.8447 56.028C28.8447 56.636 28.7047 57.16 28.4247 57.6C28.1447 58.032 27.7447 58.368 27.2247 58.608C26.7047 58.84 26.0767 58.956 25.3407 58.956H22.7247L23.2647 58.392V61.5H22.0647ZM23.2647 58.512L22.7247 57.912H25.3047C26.0727 57.912 26.6527 57.748 27.0447 57.42C27.4447 57.092 27.6447 56.628 27.6447 56.028C27.6447 55.428 27.4447 54.964 27.0447 54.636C26.6527 54.308 26.0727 54.144 25.3047 54.144H22.7247L23.2647 53.544V58.512ZM30.5568 61.5V55.14H31.7088V61.5H30.5568ZM31.1328 53.916C30.9088 53.916 30.7208 53.844 30.5688 53.7C30.4248 53.556 30.3528 53.38 30.3528 53.172C30.3528 52.956 30.4248 52.776 30.5688 52.632C30.7208 52.488 30.9088 52.416 31.1328 52.416C31.3568 52.416 31.5408 52.488 31.6848 52.632C31.8368 52.768 31.9128 52.94 31.9128 53.148C31.9128 53.364 31.8408 53.548 31.6968 53.7C31.5528 53.844 31.3648 53.916 31.1328 53.916ZM33.9084 61.5V55.14H35.0124V56.868L34.9044 56.436C35.0804 55.996 35.3764 55.66 35.7924 55.428C36.2084 55.196 36.7204 55.08 37.3284 55.08V56.196C37.2804 56.188 37.2324 56.184 37.1844 56.184C37.1444 56.184 37.1044 56.184 37.0644 56.184C36.4484 56.184 35.9604 56.368 35.6004 56.736C35.2404 57.104 35.0604 57.636 35.0604 58.332V61.5H33.9084ZM41.5217 61.572C40.8417 61.572 40.2417 61.432 39.7217 61.152C39.2097 60.872 38.8097 60.488 38.5217 60C38.2417 59.512 38.1017 58.952 38.1017 58.32C38.1017 57.688 38.2377 57.128 38.5097 56.64C38.7897 56.152 39.1697 55.772 39.6497 55.5C40.1377 55.22 40.6857 55.08 41.2937 55.08C41.9097 55.08 42.4537 55.216 42.9257 55.488C43.3977 55.76 43.7657 56.144 44.0297 56.64C44.3017 57.128 44.4377 57.7 44.4377 58.356C44.4377 58.404 44.4337 58.46 44.4257 58.524C44.4257 58.588 44.4217 58.648 44.4137 58.704H39.0017V57.876H43.8137L43.3457 58.164C43.3537 57.756 43.2697 57.392 43.0937 57.072C42.9177 56.752 42.6737 56.504 42.3617 56.328C42.0577 56.144 41.7017 56.052 41.2937 56.052C40.8937 56.052 40.5377 56.144 40.2257 56.328C39.9137 56.504 39.6697 56.756 39.4937 57.084C39.3177 57.404 39.2297 57.772 39.2297 58.188V58.38C39.2297 58.804 39.3257 59.184 39.5177 59.52C39.7177 59.848 39.9937 60.104 40.3457 60.288C40.6977 60.472 41.1017 60.564 41.5577 60.564C41.9337 60.564 42.2737 60.5 42.5777 60.372C42.8897 60.244 43.1617 60.052 43.3937 59.796L44.0297 60.54C43.7417 60.876 43.3817 61.132 42.9497 61.308C42.5257 61.484 42.0497 61.572 41.5217 61.572ZM46.0373 61.5V52.596H47.1893V61.5H46.0373ZM49.3889 61.5V52.596H50.5409V61.5H49.3889ZM52.7404 61.5V55.14H53.8924V61.5H52.7404ZM53.3164 53.916C53.0924 53.916 52.9044 53.844 52.7524 53.7C52.6084 53.556 52.5364 53.38 52.5364 53.172C52.5364 52.956 52.6084 52.776 52.7524 52.632C52.9044 52.488 53.0924 52.416 53.3164 52.416C53.5404 52.416 53.7244 52.488 53.8684 52.632C54.0204 52.768 54.0964 52.94 54.0964 53.148C54.0964 53.364 54.0244 53.548 53.8804 53.7C53.7364 53.844 53.5484 53.916 53.3164 53.916Z" fill="#59595B"/>
<path d="M159.453 62V52.9L160.251 53.726H157.381V52.2H161.273V62H159.453ZM163.437 64.114L164.249 61.02L164.487 62.056C164.161 62.056 163.885 61.958 163.661 61.762C163.447 61.5567 163.339 61.2813 163.339 60.936C163.339 60.5813 163.447 60.3013 163.661 60.096C163.885 59.8813 164.156 59.774 164.473 59.774C164.8 59.774 165.071 59.8813 165.285 60.096C165.5 60.3107 165.607 60.5907 165.607 60.936C165.607 61.0293 165.598 61.132 165.579 61.244C165.561 61.3467 165.528 61.468 165.481 61.608C165.444 61.748 165.379 61.9253 165.285 62.14L164.571 64.114H163.437ZM166.946 62V60.782L170.838 57.086C171.165 56.778 171.407 56.5073 171.566 56.274C171.725 56.0407 171.827 55.826 171.874 55.63C171.93 55.4247 171.958 55.2333 171.958 55.056C171.958 54.608 171.804 54.2627 171.496 54.02C171.188 53.768 170.735 53.642 170.138 53.642C169.662 53.642 169.228 53.726 168.836 53.894C168.453 54.062 168.122 54.3187 167.842 54.664L166.568 53.684C166.951 53.1707 167.464 52.774 168.108 52.494C168.761 52.2047 169.489 52.06 170.292 52.06C171.001 52.06 171.617 52.1767 172.14 52.41C172.672 52.634 173.078 52.956 173.358 53.376C173.647 53.796 173.792 54.2953 173.792 54.874C173.792 55.1913 173.75 55.5087 173.666 55.826C173.582 56.134 173.423 56.4607 173.19 56.806C172.957 57.1513 172.616 57.5387 172.168 57.968L168.822 61.146L168.444 60.46H174.17V62H166.946ZM178.618 62.14C177.928 62.14 177.251 62.042 176.588 61.846C175.935 61.6407 175.384 61.3607 174.936 61.006L175.706 59.592C176.061 59.8813 176.49 60.1147 176.994 60.292C177.508 60.4693 178.04 60.558 178.59 60.558C179.234 60.558 179.738 60.4227 180.102 60.152C180.476 59.8813 180.662 59.5173 180.662 59.06C180.662 58.752 180.583 58.4813 180.424 58.248C180.275 58.0147 180.004 57.8373 179.612 57.716C179.23 57.5947 178.702 57.534 178.03 57.534H175.664L176.168 52.2H181.922V53.726H176.84L177.792 52.858L177.414 56.848L176.462 55.994H178.436C179.407 55.994 180.186 56.1247 180.774 56.386C181.372 56.638 181.806 56.9927 182.076 57.45C182.356 57.898 182.496 58.4113 182.496 58.99C182.496 59.5593 182.356 60.082 182.076 60.558C181.796 61.034 181.367 61.4167 180.788 61.706C180.219 61.9953 179.496 62.14 178.618 62.14ZM187.784 62.14C187.009 62.14 186.309 61.944 185.684 61.552C185.068 61.16 184.583 60.5907 184.228 59.844C183.873 59.088 183.696 58.1733 183.696 57.1C183.696 56.0267 183.873 55.1167 184.228 54.37C184.583 53.614 185.068 53.04 185.684 52.648C186.309 52.256 187.009 52.06 187.784 52.06C188.568 52.06 189.268 52.256 189.884 52.648C190.5 53.04 190.985 53.614 191.34 54.37C191.704 55.1167 191.886 56.0267 191.886 57.1C191.886 58.1733 191.704 59.088 191.34 59.844C190.985 60.5907 190.5 61.16 189.884 61.552C189.268 61.944 188.568 62.14 187.784 62.14ZM187.784 60.558C188.241 60.558 188.638 60.4367 188.974 60.194C189.31 59.942 189.571 59.5593 189.758 59.046C189.954 58.5327 190.052 57.884 190.052 57.1C190.052 56.3067 189.954 55.658 189.758 55.154C189.571 54.6407 189.31 54.2627 188.974 54.02C188.638 53.768 188.241 53.642 187.784 53.642C187.345 53.642 186.953 53.768 186.608 54.02C186.272 54.2627 186.006 54.6407 185.81 55.154C185.623 55.658 185.53 56.3067 185.53 57.1C185.53 57.884 185.623 58.5327 185.81 59.046C186.006 59.5593 186.272 59.942 186.608 60.194C186.953 60.4367 187.345 60.558 187.784 60.558Z" fill="#59595B"/>
<path d="M207.958 62V60.782L211.85 57.086C212.176 56.778 212.419 56.5073 212.578 56.274C212.736 56.0407 212.839 55.826 212.886 55.63C212.942 55.4247 212.97 55.2333 212.97 55.056C212.97 54.608 212.816 54.2627 212.508 54.02C212.2 53.768 211.747 53.642 211.15 53.642C210.674 53.642 210.24 53.726 209.848 53.894C209.465 54.062 209.134 54.3187 208.854 54.664L207.58 53.684C207.962 53.1707 208.476 52.774 209.12 52.494C209.773 52.2047 210.501 52.06 211.304 52.06C212.013 52.06 212.629 52.1767 213.152 52.41C213.684 52.634 214.09 52.956 214.37 53.376C214.659 53.796 214.804 54.2953 214.804 54.874C214.804 55.1913 214.762 55.5087 214.678 55.826C214.594 56.134 214.435 56.4607 214.202 56.806C213.968 57.1513 213.628 57.5387 213.18 57.968L209.834 61.146L209.456 60.46H215.182V62H207.958ZM219.63 62.14C218.939 62.14 218.263 62.042 217.6 61.846C216.947 61.6407 216.396 61.3607 215.948 61.006L216.718 59.592C217.073 59.8813 217.502 60.1147 218.006 60.292C218.519 60.4693 219.051 60.558 219.602 60.558C220.246 60.558 220.75 60.4227 221.114 60.152C221.487 59.8813 221.674 59.5173 221.674 59.06C221.674 58.752 221.595 58.4813 221.436 58.248C221.287 58.0147 221.016 57.8373 220.624 57.716C220.241 57.5947 219.714 57.534 219.042 57.534H216.676L217.18 52.2H222.934V53.726H217.852L218.804 52.858L218.426 56.848L217.474 55.994H219.448C220.419 55.994 221.198 56.1247 221.786 56.386C222.383 56.638 222.817 56.9927 223.088 57.45C223.368 57.898 223.508 58.4113 223.508 58.99C223.508 59.5593 223.368 60.082 223.088 60.558C222.808 61.034 222.379 61.4167 221.8 61.706C221.231 61.9953 220.507 62.14 219.63 62.14ZM225.943 62L232.635 52.2H234.007L227.315 62H225.943ZM226.755 57.478C226.298 57.478 225.892 57.366 225.537 57.142C225.182 56.918 224.907 56.6053 224.711 56.204C224.515 55.8027 224.417 55.3313 224.417 54.79C224.417 54.2487 224.515 53.7773 224.711 53.376C224.907 52.9747 225.182 52.662 225.537 52.438C225.892 52.214 226.298 52.102 226.755 52.102C227.231 52.102 227.642 52.214 227.987 52.438C228.342 52.662 228.617 52.9747 228.813 53.376C229.009 53.7773 229.107 54.2487 229.107 54.79C229.107 55.3313 229.009 55.8027 228.813 56.204C228.617 56.6053 228.342 56.918 227.987 57.142C227.642 57.366 227.231 57.478 226.755 57.478ZM226.769 56.498C227.142 56.498 227.432 56.3533 227.637 56.064C227.852 55.7653 227.959 55.3407 227.959 54.79C227.959 54.2393 227.852 53.8193 227.637 53.53C227.432 53.2313 227.142 53.082 226.769 53.082C226.396 53.082 226.097 53.2313 225.873 53.53C225.658 53.8287 225.551 54.2487 225.551 54.79C225.551 55.3313 225.658 55.7513 225.873 56.05C226.097 56.3487 226.396 56.498 226.769 56.498ZM233.181 62.098C232.724 62.098 232.318 61.986 231.963 61.762C231.608 61.538 231.333 61.2253 231.137 60.824C230.941 60.4227 230.843 59.9513 230.843 59.41C230.843 58.8687 230.941 58.3973 231.137 57.996C231.333 57.5947 231.608 57.282 231.963 57.058C232.318 56.834 232.724 56.722 233.181 56.722C233.657 56.722 234.068 56.834 234.413 57.058C234.768 57.282 235.043 57.5947 235.239 57.996C235.435 58.3973 235.533 58.8687 235.533 59.41C235.533 59.9513 235.435 60.4227 235.239 60.824C235.043 61.2253 234.768 61.538 234.413 61.762C234.068 61.986 233.657 62.098 233.181 62.098ZM233.181 61.118C233.554 61.118 233.848 60.9687 234.063 60.67C234.278 60.3713 234.385 59.9513 234.385 59.41C234.385 58.8687 234.278 58.4487 234.063 58.15C233.848 57.8513 233.554 57.702 233.181 57.702C232.817 57.702 232.523 57.8513 232.299 58.15C232.084 58.4393 231.977 58.8593 231.977 59.41C231.977 59.9607 232.084 60.3853 232.299 60.684C232.523 60.9733 232.817 61.118 233.181 61.118Z" fill="#59595B"/>
<line x1="20" y1="74.5" x2="258" y2="74.5" stroke="#F4F5F6"/>
<path d="M25.5754 97.596C24.9274 97.596 24.3314 97.492 23.7874 97.284C23.2434 97.068 22.7714 96.768 22.3714 96.384C21.9714 95.992 21.6594 95.536 21.4354 95.016C21.2114 94.496 21.0994 93.924 21.0994 93.3C21.0994 92.676 21.2114 92.104 21.4354 91.584C21.6594 91.064 21.9714 90.612 22.3714 90.228C22.7794 89.836 23.2554 89.536 23.7994 89.328C24.3434 89.112 24.9434 89.004 25.5994 89.004C26.2634 89.004 26.8714 89.112 27.4234 89.328C27.9754 89.544 28.4434 89.868 28.8274 90.3L28.0834 91.044C27.7394 90.708 27.3634 90.464 26.9554 90.312C26.5554 90.152 26.1194 90.072 25.6474 90.072C25.1674 90.072 24.7194 90.152 24.3034 90.312C23.8954 90.472 23.5394 90.696 23.2354 90.984C22.9394 91.272 22.7074 91.616 22.5394 92.016C22.3794 92.408 22.2994 92.836 22.2994 93.3C22.2994 93.756 22.3794 94.184 22.5394 94.584C22.7074 94.976 22.9394 95.32 23.2354 95.616C23.5394 95.904 23.8954 96.128 24.3034 96.288C24.7114 96.448 25.1554 96.528 25.6354 96.528C26.0834 96.528 26.5114 96.46 26.9194 96.324C27.3354 96.18 27.7194 95.944 28.0714 95.616L28.7554 96.528C28.3394 96.88 27.8514 97.148 27.2914 97.332C26.7394 97.508 26.1674 97.596 25.5754 97.596ZM27.6034 96.372V93.252H28.7554V96.528L27.6034 96.372ZM33.609 97.572C32.969 97.572 32.401 97.432 31.905 97.152C31.409 96.872 31.017 96.488 30.729 96C30.441 95.504 30.297 94.944 30.297 94.32C30.297 93.688 30.441 93.128 30.729 92.64C31.017 92.152 31.409 91.772 31.905 91.5C32.401 91.22 32.969 91.08 33.609 91.08C34.241 91.08 34.805 91.22 35.301 91.5C35.805 91.772 36.197 92.152 36.477 92.64C36.765 93.12 36.909 93.68 36.909 94.32C36.909 94.952 36.765 95.512 36.477 96C36.197 96.488 35.805 96.872 35.301 97.152C34.805 97.432 34.241 97.572 33.609 97.572ZM33.609 96.564C34.017 96.564 34.381 96.472 34.701 96.288C35.029 96.104 35.285 95.844 35.469 95.508C35.653 95.164 35.745 94.768 35.745 94.32C35.745 93.864 35.653 93.472 35.469 93.144C35.285 92.808 35.029 92.548 34.701 92.364C34.381 92.18 34.017 92.088 33.609 92.088C33.201 92.088 32.837 92.18 32.517 92.364C32.197 92.548 31.941 92.808 31.749 93.144C31.557 93.472 31.461 93.864 31.461 94.32C31.461 94.768 31.557 95.164 31.749 95.508C31.941 95.844 32.197 96.104 32.517 96.288C32.837 96.472 33.201 96.564 33.609 96.564ZM41.2262 97.572C40.5862 97.572 40.0182 97.432 39.5222 97.152C39.0262 96.872 38.6342 96.488 38.3462 96C38.0582 95.504 37.9142 94.944 37.9142 94.32C37.9142 93.688 38.0582 93.128 38.3462 92.64C38.6342 92.152 39.0262 91.772 39.5222 91.5C40.0182 91.22 40.5862 91.08 41.2262 91.08C41.8582 91.08 42.4222 91.22 42.9182 91.5C43.4222 91.772 43.8142 92.152 44.0942 92.64C44.3822 93.12 44.5262 93.68 44.5262 94.32C44.5262 94.952 44.3822 95.512 44.0942 96C43.8142 96.488 43.4222 96.872 42.9182 97.152C42.4222 97.432 41.8582 97.572 41.2262 97.572ZM41.2262 96.564C41.6342 96.564 41.9982 96.472 42.3182 96.288C42.6462 96.104 42.9022 95.844 43.0862 95.508C43.2702 95.164 43.3622 94.768 43.3622 94.32C43.3622 93.864 43.2702 93.472 43.0862 93.144C42.9022 92.808 42.6462 92.548 42.3182 92.364C41.9982 92.18 41.6342 92.088 41.2262 92.088C40.8182 92.088 40.4542 92.18 40.1342 92.364C39.8142 92.548 39.5582 92.808 39.3662 93.144C39.1742 93.472 39.0782 93.864 39.0782 94.32C39.0782 94.768 39.1742 95.164 39.3662 95.508C39.5582 95.844 39.8142 96.104 40.1342 96.288C40.4542 96.472 40.8182 96.564 41.2262 96.564ZM48.7473 97.572C48.1313 97.572 47.5793 97.436 47.0913 97.164C46.6113 96.892 46.2313 96.512 45.9513 96.024C45.6713 95.536 45.5313 94.968 45.5313 94.32C45.5313 93.672 45.6713 93.108 45.9513 92.628C46.2313 92.14 46.6113 91.76 47.0913 91.488C47.5793 91.216 48.1313 91.08 48.7473 91.08C49.2833 91.08 49.7673 91.2 50.1993 91.44C50.6313 91.68 50.9753 92.04 51.2313 92.52C51.4953 93 51.6273 93.6 51.6273 94.32C51.6273 95.04 51.4993 95.64 51.2433 96.12C50.9953 96.6 50.6553 96.964 50.2233 97.212C49.7913 97.452 49.2993 97.572 48.7473 97.572ZM48.8433 96.564C49.2433 96.564 49.6033 96.472 49.9233 96.288C50.2513 96.104 50.5073 95.844 50.6913 95.508C50.8833 95.164 50.9793 94.768 50.9793 94.32C50.9793 93.864 50.8833 93.472 50.6913 93.144C50.5073 92.808 50.2513 92.548 49.9233 92.364C49.6033 92.18 49.2433 92.088 48.8433 92.088C48.4353 92.088 48.0713 92.18 47.7513 92.364C47.4313 92.548 47.1753 92.808 46.9833 93.144C46.7913 93.472 46.6953 93.864 46.6953 94.32C46.6953 94.768 46.7913 95.164 46.9833 95.508C47.1753 95.844 47.4313 96.104 47.7513 96.288C48.0713 96.472 48.4353 96.564 48.8433 96.564ZM51.0153 97.5V95.784L51.0873 94.308L50.9673 92.832V88.596H52.1193V97.5H51.0153ZM54.575 99.9C54.271 99.9 53.975 99.848 53.687 99.744C53.399 99.648 53.151 99.504 52.943 99.312L53.435 98.448C53.595 98.6 53.771 98.716 53.963 98.796C54.155 98.876 54.359 98.916 54.575 98.916C54.855 98.916 55.087 98.844 55.271 98.7C55.455 98.556 55.627 98.3 55.787 97.932L56.183 97.056L56.303 96.912L58.799 91.14H59.927L56.843 98.136C56.659 98.584 56.451 98.936 56.219 99.192C55.995 99.448 55.747 99.628 55.475 99.732C55.203 99.844 54.903 99.9 54.575 99.9ZM56.087 97.704L53.183 91.14H54.383L56.855 96.804L56.087 97.704ZM63.6584 97.572C62.9784 97.572 62.3784 97.432 61.8584 97.152C61.3464 96.872 60.9464 96.488 60.6584 96C60.3784 95.512 60.2384 94.952 60.2384 94.32C60.2384 93.688 60.3744 93.128 60.6464 92.64C60.9264 92.152 61.3064 91.772 61.7864 91.5C62.2744 91.22 62.8224 91.08 63.4304 91.08C64.0464 91.08 64.5904 91.216 65.0624 91.488C65.5344 91.76 65.9024 92.144 66.1664 92.64C66.4384 93.128 66.5744 93.7 66.5744 94.356C66.5744 94.404 66.5704 94.46 66.5624 94.524C66.5624 94.588 66.5584 94.648 66.5504 94.704H61.1384V93.876H65.9504L65.4824 94.164C65.4904 93.756 65.4064 93.392 65.2304 93.072C65.0544 92.752 64.8104 92.504 64.4984 92.328C64.1944 92.144 63.8384 92.052 63.4304 92.052C63.0304 92.052 62.6744 92.144 62.3624 92.328C62.0504 92.504 61.8064 92.756 61.6304 93.084C61.4544 93.404 61.3664 93.772 61.3664 94.188V94.38C61.3664 94.804 61.4624 95.184 61.6544 95.52C61.8544 95.848 62.1304 96.104 62.4824 96.288C62.8344 96.472 63.2384 96.564 63.6944 96.564C64.0704 96.564 64.4104 96.5 64.7144 96.372C65.0264 96.244 65.2984 96.052 65.5304 95.796L66.1664 96.54C65.8784 96.876 65.5184 97.132 65.0864 97.308C64.6624 97.484 64.1864 97.572 63.6584 97.572ZM71.9463 97.5V96.156L71.8863 95.904V93.612C71.8863 93.124 71.7423 92.748 71.4543 92.484C71.1743 92.212 70.7503 92.076 70.1823 92.076C69.8063 92.076 69.4383 92.14 69.0783 92.268C68.7183 92.388 68.4143 92.552 68.1663 92.76L67.6863 91.896C68.0143 91.632 68.4063 91.432 68.8623 91.296C69.3263 91.152 69.8103 91.08 70.3143 91.08C71.1863 91.08 71.8583 91.292 72.3303 91.716C72.8023 92.14 73.0383 92.788 73.0383 93.66V97.5H71.9463ZM69.8583 97.572C69.3863 97.572 68.9703 97.492 68.6103 97.332C68.2583 97.172 67.9863 96.952 67.7943 96.672C67.6023 96.384 67.5063 96.06 67.5063 95.7C67.5063 95.356 67.5863 95.044 67.7463 94.764C67.9143 94.484 68.1823 94.26 68.5503 94.092C68.9263 93.924 69.4303 93.84 70.0623 93.84H72.0783V94.668H70.1103C69.5343 94.668 69.1463 94.764 68.9463 94.956C68.7463 95.148 68.6463 95.38 68.6463 95.652C68.6463 95.964 68.7703 96.216 69.0183 96.408C69.2663 96.592 69.6103 96.684 70.0503 96.684C70.4823 96.684 70.8583 96.588 71.1783 96.396C71.5063 96.204 71.7423 95.924 71.8863 95.556L72.1143 96.348C71.9623 96.724 71.6943 97.024 71.3103 97.248C70.9263 97.464 70.4423 97.572 69.8583 97.572ZM75.1701 97.5V91.14H76.2741V92.868L76.1661 92.436C76.3421 91.996 76.6381 91.66 77.0541 91.428C77.4701 91.196 77.9821 91.08 78.5901 91.08V92.196C78.5421 92.188 78.4941 92.184 78.4461 92.184C78.4061 92.184 78.3661 92.184 78.3261 92.184C77.7101 92.184 77.2221 92.368 76.8621 92.736C76.5021 93.104 76.3221 93.636 76.3221 94.332V97.5H75.1701Z" fill="#59595B"/>
<path d="M163.37 98L167.416 88.928L167.892 89.74H162.334L163.202 88.858V91.406H161.508V88.2H169.124V89.418L165.316 98H163.37ZM174.214 98.14C173.439 98.14 172.739 97.944 172.114 97.552C171.498 97.16 171.013 96.5907 170.658 95.844C170.303 95.088 170.126 94.1733 170.126 93.1C170.126 92.0267 170.303 91.1167 170.658 90.37C171.013 89.614 171.498 89.04 172.114 88.648C172.739 88.256 173.439 88.06 174.214 88.06C174.998 88.06 175.698 88.256 176.314 88.648C176.93 89.04 177.415 89.614 177.77 90.37C178.134 91.1167 178.316 92.0267 178.316 93.1C178.316 94.1733 178.134 95.088 177.77 95.844C177.415 96.5907 176.93 97.16 176.314 97.552C175.698 97.944 174.998 98.14 174.214 98.14ZM174.214 96.558C174.671 96.558 175.068 96.4367 175.404 96.194C175.74 95.942 176.001 95.5593 176.188 95.046C176.384 94.5327 176.482 93.884 176.482 93.1C176.482 92.3067 176.384 91.658 176.188 91.154C176.001 90.6407 175.74 90.2627 175.404 90.02C175.068 89.768 174.671 89.642 174.214 89.642C173.775 89.642 173.383 89.768 173.038 90.02C172.702 90.2627 172.436 90.6407 172.24 91.154C172.053 91.658 171.96 92.3067 171.96 93.1C171.96 93.884 172.053 94.5327 172.24 95.046C172.436 95.5593 172.702 95.942 173.038 96.194C173.383 96.4367 173.775 96.558 174.214 96.558ZM183.784 98.14C183.009 98.14 182.309 97.944 181.684 97.552C181.068 97.16 180.583 96.5907 180.228 95.844C179.873 95.088 179.696 94.1733 179.696 93.1C179.696 92.0267 179.873 91.1167 180.228 90.37C180.583 89.614 181.068 89.04 181.684 88.648C182.309 88.256 183.009 88.06 183.784 88.06C184.568 88.06 185.268 88.256 185.884 88.648C186.5 89.04 186.985 89.614 187.34 90.37C187.704 91.1167 187.886 92.0267 187.886 93.1C187.886 94.1733 187.704 95.088 187.34 95.844C186.985 96.5907 186.5 97.16 185.884 97.552C185.268 97.944 184.568 98.14 183.784 98.14ZM183.784 96.558C184.241 96.558 184.638 96.4367 184.974 96.194C185.31 95.942 185.571 95.5593 185.758 95.046C185.954 94.5327 186.052 93.884 186.052 93.1C186.052 92.3067 185.954 91.658 185.758 91.154C185.571 90.6407 185.31 90.2627 184.974 90.02C184.638 89.768 184.241 89.642 183.784 89.642C183.345 89.642 182.953 89.768 182.608 90.02C182.272 90.2627 182.006 90.6407 181.81 91.154C181.623 91.658 181.53 92.3067 181.53 93.1C181.53 93.884 181.623 94.5327 181.81 95.046C182.006 95.5593 182.272 95.942 182.608 96.194C182.953 96.4367 183.345 96.558 183.784 96.558Z" fill="#59595B"/>
<path d="M212.003 98V88.9L212.801 89.726H209.931V88.2H213.823V98H212.003ZM220.159 98.14C219.273 98.14 218.512 97.9533 217.877 97.58C217.243 97.1973 216.757 96.6467 216.421 95.928C216.085 95.2093 215.917 94.3227 215.917 93.268C215.917 92.148 216.118 91.2007 216.519 90.426C216.93 89.6513 217.495 89.0633 218.213 88.662C218.941 88.2607 219.777 88.06 220.719 88.06C221.214 88.06 221.685 88.1113 222.133 88.214C222.591 88.3167 222.978 88.4753 223.295 88.69L222.623 90.062C222.353 89.8847 222.059 89.7633 221.741 89.698C221.433 89.6233 221.107 89.586 220.761 89.586C219.837 89.586 219.105 89.8707 218.563 90.44C218.022 91.0093 217.751 91.8493 217.751 92.96C217.751 93.1373 217.756 93.3473 217.765 93.59C217.775 93.8233 217.807 94.0613 217.863 94.304L217.303 93.688C217.471 93.3053 217.7 92.988 217.989 92.736C218.288 92.4747 218.638 92.2787 219.039 92.148C219.45 92.0173 219.893 91.952 220.369 91.952C221.013 91.952 221.587 92.078 222.091 92.33C222.595 92.5727 222.997 92.9227 223.295 93.38C223.594 93.828 223.743 94.3553 223.743 94.962C223.743 95.606 223.585 96.166 223.267 96.642C222.95 97.118 222.521 97.4867 221.979 97.748C221.438 98.0093 220.831 98.14 220.159 98.14ZM220.061 96.712C220.435 96.712 220.766 96.6467 221.055 96.516C221.345 96.376 221.569 96.18 221.727 95.928C221.895 95.676 221.979 95.382 221.979 95.046C221.979 94.5327 221.802 94.1267 221.447 93.828C221.093 93.5293 220.617 93.38 220.019 93.38C219.627 93.38 219.282 93.4547 218.983 93.604C218.694 93.744 218.461 93.94 218.283 94.192C218.115 94.444 218.031 94.7333 218.031 95.06C218.031 95.3587 218.111 95.634 218.269 95.886C218.428 96.138 218.657 96.3387 218.955 96.488C219.263 96.6373 219.632 96.712 220.061 96.712ZM225.943 98L232.635 88.2H234.007L227.315 98H225.943ZM226.755 93.478C226.298 93.478 225.892 93.366 225.537 93.142C225.182 92.918 224.907 92.6053 224.711 92.204C224.515 91.8027 224.417 91.3313 224.417 90.79C224.417 90.2487 224.515 89.7773 224.711 89.376C224.907 88.9747 225.182 88.662 225.537 88.438C225.892 88.214 226.298 88.102 226.755 88.102C227.231 88.102 227.642 88.214 227.987 88.438C228.342 88.662 228.617 88.9747 228.813 89.376C229.009 89.7773 229.107 90.2487 229.107 90.79C229.107 91.3313 229.009 91.8027 228.813 92.204C228.617 92.6053 228.342 92.918 227.987 93.142C227.642 93.366 227.231 93.478 226.755 93.478ZM226.769 92.498C227.142 92.498 227.432 92.3533 227.637 92.064C227.852 91.7653 227.959 91.3407 227.959 90.79C227.959 90.2393 227.852 89.8193 227.637 89.53C227.432 89.2313 227.142 89.082 226.769 89.082C226.396 89.082 226.097 89.2313 225.873 89.53C225.658 89.8287 225.551 90.2487 225.551 90.79C225.551 91.3313 225.658 91.7513 225.873 92.05C226.097 92.3487 226.396 92.498 226.769 92.498ZM233.181 98.098C232.724 98.098 232.318 97.986 231.963 97.762C231.608 97.538 231.333 97.2253 231.137 96.824C230.941 96.4227 230.843 95.9513 230.843 95.41C230.843 94.8687 230.941 94.3973 231.137 93.996C231.333 93.5947 231.608 93.282 231.963 93.058C232.318 92.834 232.724 92.722 233.181 92.722C233.657 92.722 234.068 92.834 234.413 93.058C234.768 93.282 235.043 93.5947 235.239 93.996C235.435 94.3973 235.533 94.8687 235.533 95.41C235.533 95.9513 235.435 96.4227 235.239 96.824C235.043 97.2253 234.768 97.538 234.413 97.762C234.068 97.986 233.657 98.098 233.181 98.098ZM233.181 97.118C233.554 97.118 233.848 96.9687 234.063 96.67C234.278 96.3713 234.385 95.9513 234.385 95.41C234.385 94.8687 234.278 94.4487 234.063 94.15C233.848 93.8513 233.554 93.702 233.181 93.702C232.817 93.702 232.523 93.8513 232.299 94.15C232.084 94.4393 231.977 94.8593 231.977 95.41C231.977 95.9607 232.084 96.3853 232.299 96.684C232.523 96.9733 232.817 97.118 233.181 97.118Z" fill="#59595B"/>
<line x1="20" y1="110.5" x2="258" y2="110.5" stroke="#F4F5F6"/>
<path d="M25.3324 133.596C24.6924 133.596 24.1004 133.492 23.5564 133.284C23.0204 133.068 22.5524 132.768 22.1524 132.384C21.7604 131.992 21.4524 131.536 21.2284 131.016C21.0044 130.496 20.8924 129.924 20.8924 129.3C20.8924 128.676 21.0044 128.104 21.2284 127.584C21.4524 127.064 21.7644 126.612 22.1644 126.228C22.5644 125.836 23.0324 125.536 23.5684 125.328C24.1124 125.112 24.7044 125.004 25.3444 125.004C25.9924 125.004 26.5884 125.116 27.1324 125.34C27.6844 125.556 28.1524 125.88 28.5364 126.312L27.7564 127.068C27.4364 126.732 27.0764 126.484 26.6764 126.324C26.2764 126.156 25.8484 126.072 25.3924 126.072C24.9204 126.072 24.4804 126.152 24.0724 126.312C23.6724 126.472 23.3244 126.696 23.0284 126.984C22.7324 127.272 22.5004 127.616 22.3324 128.016C22.1724 128.408 22.0924 128.836 22.0924 129.3C22.0924 129.764 22.1724 130.196 22.3324 130.596C22.5004 130.988 22.7324 131.328 23.0284 131.616C23.3244 131.904 23.6724 132.128 24.0724 132.288C24.4804 132.448 24.9204 132.528 25.3924 132.528C25.8484 132.528 26.2764 132.448 26.6764 132.288C27.0764 132.12 27.4364 131.864 27.7564 131.52L28.5364 132.276C28.1524 132.708 27.6844 133.036 27.1324 133.26C26.5884 133.484 25.9884 133.596 25.3324 133.596ZM32.5348 133.572C31.8948 133.572 31.3268 133.432 30.8308 133.152C30.3348 132.872 29.9428 132.488 29.6548 132C29.3668 131.504 29.2228 130.944 29.2228 130.32C29.2228 129.688 29.3668 129.128 29.6548 128.64C29.9428 128.152 30.3348 127.772 30.8308 127.5C31.3268 127.22 31.8948 127.08 32.5348 127.08C33.1668 127.08 33.7308 127.22 34.2268 127.5C34.7308 127.772 35.1228 128.152 35.4028 128.64C35.6908 129.12 35.8348 129.68 35.8348 130.32C35.8348 130.952 35.6908 131.512 35.4028 132C35.1228 132.488 34.7308 132.872 34.2268 133.152C33.7308 133.432 33.1668 133.572 32.5348 133.572ZM32.5348 132.564C32.9428 132.564 33.3068 132.472 33.6268 132.288C33.9548 132.104 34.2108 131.844 34.3948 131.508C34.5788 131.164 34.6708 130.768 34.6708 130.32C34.6708 129.864 34.5788 129.472 34.3948 129.144C34.2108 128.808 33.9548 128.548 33.6268 128.364C33.3068 128.18 32.9428 128.088 32.5348 128.088C32.1268 128.088 31.7628 128.18 31.4428 128.364C31.1228 128.548 30.8668 128.808 30.6748 129.144C30.4828 129.472 30.3868 129.864 30.3868 130.32C30.3868 130.768 30.4828 131.164 30.6748 131.508C30.8668 131.844 31.1228 132.104 31.4428 132.288C31.7628 132.472 32.1268 132.564 32.5348 132.564ZM40.8239 127.08C41.3439 127.08 41.7999 127.18 42.1919 127.38C42.5919 127.58 42.9039 127.884 43.1279 128.292C43.3519 128.7 43.4639 129.216 43.4639 129.84V133.5H42.3119V129.972C42.3119 129.356 42.1599 128.892 41.8559 128.58C41.5599 128.268 41.1399 128.112 40.5959 128.112C40.1879 128.112 39.8319 128.192 39.5279 128.352C39.2239 128.512 38.9879 128.748 38.8199 129.06C38.6599 129.372 38.5799 129.76 38.5799 130.224V133.5H37.4279V127.14H38.5319V128.856L38.3519 128.4C38.5599 127.984 38.8799 127.66 39.3119 127.428C39.7439 127.196 40.2479 127.08 40.8239 127.08ZM47.7799 133.572C47.1399 133.572 46.6439 133.4 46.2919 133.056C45.9399 132.712 45.7639 132.22 45.7639 131.58V125.748H46.9159V131.532C46.9159 131.876 46.9999 132.14 47.1679 132.324C47.3439 132.508 47.5919 132.6 47.9119 132.6C48.2719 132.6 48.5719 132.5 48.8119 132.3L49.1719 133.128C48.9959 133.28 48.7839 133.392 48.5359 133.464C48.2959 133.536 48.0439 133.572 47.7799 133.572ZM44.6839 128.088V127.14H48.7399V128.088H44.6839ZM50.5647 133.5V127.14H51.7167V133.5H50.5647ZM51.1407 125.916C50.9167 125.916 50.7287 125.844 50.5767 125.7C50.4327 125.556 50.3607 125.38 50.3607 125.172C50.3607 124.956 50.4327 124.776 50.5767 124.632C50.7287 124.488 50.9167 124.416 51.1407 124.416C51.3647 124.416 51.5487 124.488 51.6927 124.632C51.8447 124.768 51.9207 124.94 51.9207 125.148C51.9207 125.364 51.8487 125.548 51.7047 125.7C51.5607 125.844 51.3727 125.916 51.1407 125.916ZM57.3122 127.08C57.8322 127.08 58.2882 127.18 58.6802 127.38C59.0802 127.58 59.3922 127.884 59.6162 128.292C59.8402 128.7 59.9522 129.216 59.9522 129.84V133.5H58.8002V129.972C58.8002 129.356 58.6482 128.892 58.3442 128.58C58.0482 128.268 57.6282 128.112 57.0842 128.112C56.6762 128.112 56.3202 128.192 56.0162 128.352C55.7122 128.512 55.4762 128.748 55.3082 129.06C55.1482 129.372 55.0682 129.76 55.0682 130.224V133.5H53.9162V127.14H55.0202V128.856L54.8402 128.4C55.0482 127.984 55.3682 127.66 55.8002 127.428C56.2322 127.196 56.7362 127.08 57.3122 127.08ZM64.9162 133.572C64.2362 133.572 63.6362 133.432 63.1162 133.152C62.6042 132.872 62.2042 132.488 61.9162 132C61.6362 131.512 61.4962 130.952 61.4962 130.32C61.4962 129.688 61.6322 129.128 61.9042 128.64C62.1842 128.152 62.5642 127.772 63.0442 127.5C63.5322 127.22 64.0802 127.08 64.6882 127.08C65.3042 127.08 65.8482 127.216 66.3202 127.488C66.7922 127.76 67.1602 128.144 67.4242 128.64C67.6962 129.128 67.8322 129.7 67.8322 130.356C67.8322 130.404 67.8282 130.46 67.8202 130.524C67.8202 130.588 67.8162 130.648 67.8082 130.704H62.3962V129.876H67.2082L66.7402 130.164C66.7482 129.756 66.6642 129.392 66.4882 129.072C66.3122 128.752 66.0682 128.504 65.7562 128.328C65.4522 128.144 65.0962 128.052 64.6882 128.052C64.2882 128.052 63.9322 128.144 63.6202 128.328C63.3082 128.504 63.0642 128.756 62.8882 129.084C62.7122 129.404 62.6242 129.772 62.6242 130.188V130.38C62.6242 130.804 62.7202 131.184 62.9122 131.52C63.1122 131.848 63.3882 132.104 63.7402 132.288C64.0922 132.472 64.4962 132.564 64.9522 132.564C65.3282 132.564 65.6682 132.5 65.9722 132.372C66.2842 132.244 66.5562 132.052 66.7882 131.796L67.4242 132.54C67.1362 132.876 66.7762 133.132 66.3442 133.308C65.9202 133.484 65.4442 133.572 64.9162 133.572ZM72.8278 127.08C73.3478 127.08 73.8038 127.18 74.1958 127.38C74.5958 127.58 74.9078 127.884 75.1318 128.292C75.3558 128.7 75.4678 129.216 75.4678 129.84V133.5H74.3158V129.972C74.3158 129.356 74.1638 128.892 73.8598 128.58C73.5638 128.268 73.1438 128.112 72.5998 128.112C72.1918 128.112 71.8358 128.192 71.5318 128.352C71.2278 128.512 70.9918 128.748 70.8238 129.06C70.6638 129.372 70.5838 129.76 70.5838 130.224V133.5H69.4318V127.14H70.5358V128.856L70.3558 128.4C70.5638 127.984 70.8838 127.66 71.3158 127.428C71.7478 127.196 72.2518 127.08 72.8278 127.08ZM79.7838 133.572C79.1438 133.572 78.6478 133.4 78.2958 133.056C77.9438 132.712 77.7678 132.22 77.7678 131.58V125.748H78.9198V131.532C78.9198 131.876 79.0038 132.14 79.1718 132.324C79.3478 132.508 79.5958 132.6 79.9158 132.6C80.2758 132.6 80.5758 132.5 80.8158 132.3L81.1758 133.128C80.9998 133.28 80.7878 133.392 80.5398 133.464C80.2998 133.536 80.0478 133.572 79.7838 133.572ZM76.6878 128.088V127.14H80.7438V128.088H76.6878ZM86.5166 133.5V132.156L86.4566 131.904V129.612C86.4566 129.124 86.3126 128.748 86.0246 128.484C85.7446 128.212 85.3206 128.076 84.7526 128.076C84.3766 128.076 84.0086 128.14 83.6486 128.268C83.2886 128.388 82.9846 128.552 82.7366 128.76L82.2566 127.896C82.5846 127.632 82.9766 127.432 83.4326 127.296C83.8966 127.152 84.3806 127.08 84.8846 127.08C85.7566 127.08 86.4286 127.292 86.9006 127.716C87.3726 128.14 87.6086 128.788 87.6086 129.66V133.5H86.5166ZM84.4286 133.572C83.9566 133.572 83.5406 133.492 83.1806 133.332C82.8286 133.172 82.5566 132.952 82.3646 132.672C82.1726 132.384 82.0766 132.06 82.0766 131.7C82.0766 131.356 82.1566 131.044 82.3166 130.764C82.4846 130.484 82.7526 130.26 83.1206 130.092C83.4966 129.924 84.0006 129.84 84.6326 129.84H86.6486V130.668H84.6806C84.1046 130.668 83.7166 130.764 83.5166 130.956C83.3166 131.148 83.2166 131.38 83.2166 131.652C83.2166 131.964 83.3406 132.216 83.5886 132.408C83.8366 132.592 84.1806 132.684 84.6206 132.684C85.0526 132.684 85.4286 132.588 85.7486 132.396C86.0766 132.204 86.3126 131.924 86.4566 131.556L86.6846 132.348C86.5326 132.724 86.2646 133.024 85.8806 133.248C85.4966 133.464 85.0126 133.572 84.4286 133.572ZM89.7404 133.5V124.596H90.8924V133.5H89.7404Z" fill="#59595B"/>
<path d="M165.048 134.14C164.358 134.14 163.681 134.042 163.018 133.846C162.365 133.641 161.814 133.361 161.366 133.006L162.136 131.592C162.491 131.881 162.92 132.115 163.424 132.292C163.938 132.469 164.47 132.558 165.02 132.558C165.664 132.558 166.168 132.423 166.532 132.152C166.906 131.881 167.092 131.517 167.092 131.06C167.092 130.752 167.013 130.481 166.854 130.248C166.705 130.015 166.434 129.837 166.042 129.716C165.66 129.595 165.132 129.534 164.46 129.534H162.094L162.598 124.2H168.352V125.726H163.27L164.222 124.858L163.844 128.848L162.892 127.994H164.866C165.837 127.994 166.616 128.125 167.204 128.386C167.802 128.638 168.236 128.993 168.506 129.45C168.786 129.898 168.926 130.411 168.926 130.99C168.926 131.559 168.786 132.082 168.506 132.558C168.226 133.034 167.797 133.417 167.218 133.706C166.649 133.995 165.926 134.14 165.048 134.14ZM174.214 134.14C173.439 134.14 172.739 133.944 172.114 133.552C171.498 133.16 171.013 132.591 170.658 131.844C170.303 131.088 170.126 130.173 170.126 129.1C170.126 128.027 170.303 127.117 170.658 126.37C171.013 125.614 171.498 125.04 172.114 124.648C172.739 124.256 173.439 124.06 174.214 124.06C174.998 124.06 175.698 124.256 176.314 124.648C176.93 125.04 177.415 125.614 177.77 126.37C178.134 127.117 178.316 128.027 178.316 129.1C178.316 130.173 178.134 131.088 177.77 131.844C177.415 132.591 176.93 133.16 176.314 133.552C175.698 133.944 174.998 134.14 174.214 134.14ZM174.214 132.558C174.671 132.558 175.068 132.437 175.404 132.194C175.74 131.942 176.001 131.559 176.188 131.046C176.384 130.533 176.482 129.884 176.482 129.1C176.482 128.307 176.384 127.658 176.188 127.154C176.001 126.641 175.74 126.263 175.404 126.02C175.068 125.768 174.671 125.642 174.214 125.642C173.775 125.642 173.383 125.768 173.038 126.02C172.702 126.263 172.436 126.641 172.24 127.154C172.053 127.658 171.96 128.307 171.96 129.1C171.96 129.884 172.053 130.533 172.24 131.046C172.436 131.559 172.702 131.942 173.038 132.194C173.383 132.437 173.775 132.558 174.214 132.558ZM183.784 134.14C183.009 134.14 182.309 133.944 181.684 133.552C181.068 133.16 180.583 132.591 180.228 131.844C179.873 131.088 179.696 130.173 179.696 129.1C179.696 128.027 179.873 127.117 180.228 126.37C180.583 125.614 181.068 125.04 181.684 124.648C182.309 124.256 183.009 124.06 183.784 124.06C184.568 124.06 185.268 124.256 185.884 124.648C186.5 125.04 186.985 125.614 187.34 126.37C187.704 127.117 187.886 128.027 187.886 129.1C187.886 130.173 187.704 131.088 187.34 131.844C186.985 132.591 186.5 133.16 185.884 133.552C185.268 133.944 184.568 134.14 183.784 134.14ZM183.784 132.558C184.241 132.558 184.638 132.437 184.974 132.194C185.31 131.942 185.571 131.559 185.758 131.046C185.954 130.533 186.052 129.884 186.052 129.1C186.052 128.307 185.954 127.658 185.758 127.154C185.571 126.641 185.31 126.263 184.974 126.02C184.638 125.768 184.241 125.642 183.784 125.642C183.345 125.642 182.953 125.768 182.608 126.02C182.272 126.263 182.006 126.641 181.81 127.154C181.623 127.658 181.53 128.307 181.53 129.1C181.53 129.884 181.623 130.533 181.81 131.046C182.006 131.559 182.272 131.942 182.608 132.194C182.953 132.437 183.345 132.558 183.784 132.558Z" fill="#59595B"/>
<path d="M218.948 124.06C219.844 124.06 220.604 124.251 221.23 124.634C221.864 125.007 222.35 125.553 222.686 126.272C223.022 126.991 223.19 127.877 223.19 128.932C223.19 130.052 222.984 130.999 222.574 131.774C222.172 132.549 221.612 133.137 220.894 133.538C220.175 133.939 219.34 134.14 218.388 134.14C217.893 134.14 217.422 134.089 216.974 133.986C216.526 133.883 216.138 133.725 215.812 133.51L216.484 132.138C216.754 132.315 217.048 132.441 217.366 132.516C217.683 132.581 218.01 132.614 218.346 132.614C219.27 132.614 220.002 132.329 220.544 131.76C221.085 131.191 221.356 130.351 221.356 129.24C221.356 129.063 221.351 128.857 221.342 128.624C221.332 128.381 221.3 128.139 221.244 127.896L221.804 128.512C221.645 128.895 221.416 129.217 221.118 129.478C220.819 129.73 220.469 129.921 220.068 130.052C219.666 130.183 219.223 130.248 218.738 130.248C218.103 130.248 217.529 130.127 217.016 129.884C216.512 129.632 216.11 129.282 215.812 128.834C215.513 128.377 215.364 127.845 215.364 127.238C215.364 126.585 215.522 126.025 215.84 125.558C216.157 125.082 216.586 124.713 217.128 124.452C217.678 124.191 218.285 124.06 218.948 124.06ZM219.046 125.488C218.672 125.488 218.341 125.558 218.052 125.698C217.762 125.829 217.534 126.02 217.366 126.272C217.207 126.515 217.128 126.809 217.128 127.154C217.128 127.667 217.305 128.073 217.66 128.372C218.014 128.671 218.49 128.82 219.088 128.82C219.48 128.82 219.825 128.75 220.124 128.61C220.422 128.461 220.656 128.26 220.824 128.008C220.992 127.747 221.076 127.457 221.076 127.14C221.076 126.832 220.996 126.557 220.838 126.314C220.679 126.062 220.45 125.861 220.152 125.712C219.853 125.563 219.484 125.488 219.046 125.488ZM225.943 134L232.635 124.2H234.007L227.315 134H225.943ZM226.755 129.478C226.298 129.478 225.892 129.366 225.537 129.142C225.182 128.918 224.907 128.605 224.711 128.204C224.515 127.803 224.417 127.331 224.417 126.79C224.417 126.249 224.515 125.777 224.711 125.376C224.907 124.975 225.182 124.662 225.537 124.438C225.892 124.214 226.298 124.102 226.755 124.102C227.231 124.102 227.642 124.214 227.987 124.438C228.342 124.662 228.617 124.975 228.813 125.376C229.009 125.777 229.107 126.249 229.107 126.79C229.107 127.331 229.009 127.803 228.813 128.204C228.617 128.605 228.342 128.918 227.987 129.142C227.642 129.366 227.231 129.478 226.755 129.478ZM226.769 128.498C227.142 128.498 227.432 128.353 227.637 128.064C227.852 127.765 227.959 127.341 227.959 126.79C227.959 126.239 227.852 125.819 227.637 125.53C227.432 125.231 227.142 125.082 226.769 125.082C226.396 125.082 226.097 125.231 225.873 125.53C225.658 125.829 225.551 126.249 225.551 126.79C225.551 127.331 225.658 127.751 225.873 128.05C226.097 128.349 226.396 128.498 226.769 128.498ZM233.181 134.098C232.724 134.098 232.318 133.986 231.963 133.762C231.608 133.538 231.333 133.225 231.137 132.824C230.941 132.423 230.843 131.951 230.843 131.41C230.843 130.869 230.941 130.397 231.137 129.996C231.333 129.595 231.608 129.282 231.963 129.058C232.318 128.834 232.724 128.722 233.181 128.722C233.657 128.722 234.068 128.834 234.413 129.058C234.768 129.282 235.043 129.595 235.239 129.996C235.435 130.397 235.533 130.869 235.533 131.41C235.533 131.951 235.435 132.423 235.239 132.824C235.043 133.225 234.768 133.538 234.413 133.762C234.068 133.986 233.657 134.098 233.181 134.098ZM233.181 133.118C233.554 133.118 233.848 132.969 234.063 132.67C234.278 132.371 234.385 131.951 234.385 131.41C234.385 130.869 234.278 130.449 234.063 130.15C233.848 129.851 233.554 129.702 233.181 129.702C232.817 129.702 232.523 129.851 232.299 130.15C232.084 130.439 231.977 130.859 231.977 131.41C231.977 131.961 232.084 132.385 232.299 132.684C232.523 132.973 232.817 133.118 233.181 133.118Z" fill="#59595B"/>
<line x1="20" y1="146.5" x2="258" y2="146.5" stroke="#F4F5F6"/>
<path d="M22.1116 169.5V161.1H25.8796C26.8476 161.1 27.5916 161.296 28.1116 161.688C28.6316 162.072 28.8916 162.6 28.8916 163.272C28.8916 163.728 28.7876 164.112 28.5796 164.424C28.3796 164.736 28.1076 164.976 27.7636 165.144C27.4196 165.312 27.0476 165.396 26.6476 165.396L26.8636 165.036C27.3436 165.036 27.7676 165.12 28.1356 165.288C28.5036 165.456 28.7956 165.704 29.0116 166.032C29.2276 166.352 29.3356 166.752 29.3356 167.232C29.3356 167.952 29.0636 168.512 28.5196 168.912C27.9836 169.304 27.1836 169.5 26.1196 169.5H22.1116ZM23.3116 168.528H26.0716C26.7356 168.528 27.2436 168.416 27.5956 168.192C27.9476 167.968 28.1236 167.616 28.1236 167.136C28.1236 166.648 27.9476 166.292 27.5956 166.068C27.2436 165.844 26.7356 165.732 26.0716 165.732H23.2036V164.76H25.7716C26.3796 164.76 26.8516 164.648 27.1876 164.424C27.5236 164.2 27.6916 163.864 27.6916 163.416C27.6916 162.968 27.5236 162.632 27.1876 162.408C26.8516 162.184 26.3796 162.072 25.7716 162.072H23.3116V168.528ZM31.0256 169.5V163.14H32.1776V169.5H31.0256ZM31.6016 161.916C31.3776 161.916 31.1896 161.844 31.0376 161.7C30.8936 161.556 30.8216 161.38 30.8216 161.172C30.8216 160.956 30.8936 160.776 31.0376 160.632C31.1896 160.488 31.3776 160.416 31.6016 160.416C31.8256 160.416 32.0096 160.488 32.1536 160.632C32.3056 160.768 32.3816 160.94 32.3816 161.148C32.3816 161.364 32.3096 161.548 32.1656 161.7C32.0216 161.844 31.8336 161.916 31.6016 161.916ZM37.0052 169.572C36.3892 169.572 35.8372 169.436 35.3492 169.164C34.8692 168.892 34.4892 168.512 34.2092 168.024C33.9292 167.536 33.7892 166.968 33.7892 166.32C33.7892 165.672 33.9292 165.108 34.2092 164.628C34.4892 164.14 34.8692 163.76 35.3492 163.488C35.8372 163.216 36.3892 163.08 37.0052 163.08C37.5412 163.08 38.0252 163.2 38.4572 163.44C38.8892 163.68 39.2332 164.04 39.4892 164.52C39.7532 165 39.8852 165.6 39.8852 166.32C39.8852 167.04 39.7572 167.64 39.5012 168.12C39.2532 168.6 38.9132 168.964 38.4812 169.212C38.0492 169.452 37.5572 169.572 37.0052 169.572ZM37.1012 168.564C37.5012 168.564 37.8612 168.472 38.1812 168.288C38.5092 168.104 38.7652 167.844 38.9492 167.508C39.1412 167.164 39.2372 166.768 39.2372 166.32C39.2372 165.864 39.1412 165.472 38.9492 165.144C38.7652 164.808 38.5092 164.548 38.1812 164.364C37.8612 164.18 37.5012 164.088 37.1012 164.088C36.6932 164.088 36.3292 164.18 36.0092 164.364C35.6892 164.548 35.4332 164.808 35.2412 165.144C35.0492 165.472 34.9532 165.864 34.9532 166.32C34.9532 166.768 35.0492 167.164 35.2412 167.508C35.4332 167.844 35.6892 168.104 36.0092 168.288C36.3292 168.472 36.6932 168.564 37.1012 168.564ZM39.2732 169.5V167.784L39.3452 166.308L39.2252 164.832V160.596H40.3772V169.5H39.2732ZM45.3408 171.9C44.7568 171.9 44.1888 171.816 43.6368 171.648C43.0928 171.488 42.6488 171.256 42.3048 170.952L42.8568 170.064C43.1528 170.32 43.5168 170.52 43.9488 170.664C44.3808 170.816 44.8328 170.892 45.3048 170.892C46.0568 170.892 46.6088 170.716 46.9608 170.364C47.3128 170.012 47.4888 169.476 47.4888 168.756V167.412L47.6088 166.152L47.5488 164.88V163.14H48.6408V168.636C48.6408 169.756 48.3608 170.58 47.8008 171.108C47.2408 171.636 46.4208 171.9 45.3408 171.9ZM45.1968 169.236C44.5808 169.236 44.0288 169.108 43.5408 168.852C43.0608 168.588 42.6768 168.224 42.3888 167.76C42.1088 167.296 41.9688 166.76 41.9688 166.152C41.9688 165.536 42.1088 165 42.3888 164.544C42.6768 164.08 43.0608 163.72 43.5408 163.464C44.0288 163.208 44.5808 163.08 45.1968 163.08C45.7408 163.08 46.2368 163.192 46.6848 163.416C47.1328 163.632 47.4888 163.968 47.7528 164.424C48.0248 164.88 48.1608 165.456 48.1608 166.152C48.1608 166.84 48.0248 167.412 47.7528 167.868C47.4888 168.324 47.1328 168.668 46.6848 168.9C46.2368 169.124 45.7408 169.236 45.1968 169.236ZM45.3288 168.228C45.7528 168.228 46.1288 168.14 46.4568 167.964C46.7848 167.788 47.0408 167.544 47.2248 167.232C47.4168 166.92 47.5128 166.56 47.5128 166.152C47.5128 165.744 47.4168 165.384 47.2248 165.072C47.0408 164.76 46.7848 164.52 46.4568 164.352C46.1288 164.176 45.7528 164.088 45.3288 164.088C44.9048 164.088 44.5248 164.176 44.1888 164.352C43.8608 164.52 43.6008 164.76 43.4088 165.072C43.2248 165.384 43.1328 165.744 43.1328 166.152C43.1328 166.56 43.2248 166.92 43.4088 167.232C43.6008 167.544 43.8608 167.788 44.1888 167.964C44.5248 168.14 44.9048 168.228 45.3288 168.228ZM53.674 169.572C52.994 169.572 52.394 169.432 51.874 169.152C51.362 168.872 50.962 168.488 50.674 168C50.394 167.512 50.254 166.952 50.254 166.32C50.254 165.688 50.39 165.128 50.662 164.64C50.942 164.152 51.322 163.772 51.802 163.5C52.29 163.22 52.838 163.08 53.446 163.08C54.062 163.08 54.606 163.216 55.078 163.488C55.55 163.76 55.918 164.144 56.182 164.64C56.454 165.128 56.59 165.7 56.59 166.356C56.59 166.404 56.586 166.46 56.578 166.524C56.578 166.588 56.574 166.648 56.566 166.704H51.154V165.876H55.966L55.498 166.164C55.506 165.756 55.422 165.392 55.246 165.072C55.07 164.752 54.826 164.504 54.514 164.328C54.21 164.144 53.854 164.052 53.446 164.052C53.046 164.052 52.69 164.144 52.378 164.328C52.066 164.504 51.822 164.756 51.646 165.084C51.47 165.404 51.382 165.772 51.382 166.188V166.38C51.382 166.804 51.478 167.184 51.67 167.52C51.87 167.848 52.146 168.104 52.498 168.288C52.85 168.472 53.254 168.564 53.71 168.564C54.086 168.564 54.426 168.5 54.73 168.372C55.042 168.244 55.314 168.052 55.546 167.796L56.182 168.54C55.894 168.876 55.534 169.132 55.102 169.308C54.678 169.484 54.202 169.572 53.674 169.572ZM60.0137 169.572C59.4857 169.572 58.9817 169.5 58.5017 169.356C58.0297 169.212 57.6577 169.036 57.3857 168.828L57.8657 167.916C58.1377 168.1 58.4737 168.256 58.8737 168.384C59.2737 168.512 59.6817 168.576 60.0977 168.576C60.6337 168.576 61.0177 168.5 61.2497 168.348C61.4897 168.196 61.6097 167.984 61.6097 167.712C61.6097 167.512 61.5377 167.356 61.3937 167.244C61.2497 167.132 61.0577 167.048 60.8177 166.992C60.5857 166.936 60.3257 166.888 60.0377 166.848C59.7497 166.8 59.4617 166.744 59.1737 166.68C58.8857 166.608 58.6217 166.512 58.3817 166.392C58.1417 166.264 57.9497 166.092 57.8057 165.876C57.6617 165.652 57.5897 165.356 57.5897 164.988C57.5897 164.604 57.6977 164.268 57.9137 163.98C58.1297 163.692 58.4337 163.472 58.8257 163.32C59.2257 163.16 59.6977 163.08 60.2417 163.08C60.6577 163.08 61.0777 163.132 61.5017 163.236C61.9337 163.332 62.2857 163.472 62.5577 163.656L62.0657 164.568C61.7777 164.376 61.4777 164.244 61.1657 164.172C60.8537 164.1 60.5417 164.064 60.2297 164.064C59.7257 164.064 59.3497 164.148 59.1017 164.316C58.8537 164.476 58.7297 164.684 58.7297 164.94C58.7297 165.156 58.8017 165.324 58.9457 165.444C59.0977 165.556 59.2897 165.644 59.5217 165.708C59.7617 165.772 60.0257 165.828 60.3137 165.876C60.6017 165.916 60.8897 165.972 61.1777 166.044C61.4657 166.108 61.7257 166.2 61.9577 166.32C62.1977 166.44 62.3897 166.608 62.5337 166.824C62.6857 167.04 62.7617 167.328 62.7617 167.688C62.7617 168.072 62.6497 168.404 62.4257 168.684C62.2017 168.964 61.8857 169.184 61.4777 169.344C61.0697 169.496 60.5817 169.572 60.0137 169.572ZM66.3854 169.572C65.7454 169.572 65.2494 169.4 64.8974 169.056C64.5454 168.712 64.3694 168.22 64.3694 167.58V161.748H65.5214V167.532C65.5214 167.876 65.6054 168.14 65.7734 168.324C65.9494 168.508 66.1974 168.6 66.5174 168.6C66.8774 168.6 67.1774 168.5 67.4174 168.3L67.7774 169.128C67.6014 169.28 67.3894 169.392 67.1414 169.464C66.9014 169.536 66.6494 169.572 66.3854 169.572ZM63.2894 164.088V163.14H67.3454V164.088H63.2894ZM71.6832 169.572C71.0432 169.572 70.4752 169.432 69.9792 169.152C69.4832 168.872 69.0912 168.488 68.8032 168C68.5152 167.504 68.3712 166.944 68.3712 166.32C68.3712 165.688 68.5152 165.128 68.8032 164.64C69.0912 164.152 69.4832 163.772 69.9792 163.5C70.4752 163.22 71.0432 163.08 71.6832 163.08C72.3152 163.08 72.8792 163.22 73.3752 163.5C73.8792 163.772 74.2712 164.152 74.5512 164.64C74.8392 165.12 74.9832 165.68 74.9832 166.32C74.9832 166.952 74.8392 167.512 74.5512 168C74.2712 168.488 73.8792 168.872 73.3752 169.152C72.8792 169.432 72.3152 169.572 71.6832 169.572ZM71.6832 168.564C72.0912 168.564 72.4552 168.472 72.7752 168.288C73.1032 168.104 73.3592 167.844 73.5432 167.508C73.7272 167.164 73.8192 166.768 73.8192 166.32C73.8192 165.864 73.7272 165.472 73.5432 165.144C73.3592 164.808 73.1032 164.548 72.7752 164.364C72.4552 164.18 72.0912 164.088 71.6832 164.088C71.2752 164.088 70.9112 164.18 70.5912 164.364C70.2712 164.548 70.0152 164.808 69.8232 165.144C69.6312 165.472 69.5352 165.864 69.5352 166.32C69.5352 166.768 69.6312 167.164 69.8232 167.508C70.0152 167.844 70.2712 168.104 70.5912 168.288C70.9112 168.472 71.2752 168.564 71.6832 168.564ZM79.9724 163.08C80.4924 163.08 80.9484 163.18 81.3404 163.38C81.7404 163.58 82.0524 163.884 82.2764 164.292C82.5004 164.7 82.6124 165.216 82.6124 165.84V169.5H81.4604V165.972C81.4604 165.356 81.3084 164.892 81.0044 164.58C80.7084 164.268 80.2884 164.112 79.7444 164.112C79.3364 164.112 78.9804 164.192 78.6764 164.352C78.3724 164.512 78.1364 164.748 77.9684 165.06C77.8084 165.372 77.7284 165.76 77.7284 166.224V169.5H76.5764V163.14H77.6804V164.856L77.5004 164.4C77.7084 163.984 78.0284 163.66 78.4604 163.428C78.8924 163.196 79.3964 163.08 79.9724 163.08ZM87.5763 169.572C86.8963 169.572 86.2963 169.432 85.7763 169.152C85.2643 168.872 84.8643 168.488 84.5763 168C84.2963 167.512 84.1563 166.952 84.1563 166.32C84.1563 165.688 84.2923 165.128 84.5643 164.64C84.8443 164.152 85.2243 163.772 85.7043 163.5C86.1923 163.22 86.7403 163.08 87.3483 163.08C87.9643 163.08 88.5083 163.216 88.9803 163.488C89.4523 163.76 89.8203 164.144 90.0843 164.64C90.3563 165.128 90.4923 165.7 90.4923 166.356C90.4923 166.404 90.4883 166.46 90.4803 166.524C90.4803 166.588 90.4763 166.648 90.4683 166.704H85.0563V165.876H89.8683L89.4003 166.164C89.4083 165.756 89.3243 165.392 89.1483 165.072C88.9723 164.752 88.7283 164.504 88.4163 164.328C88.1123 164.144 87.7563 164.052 87.3483 164.052C86.9483 164.052 86.5923 164.144 86.2803 164.328C85.9683 164.504 85.7243 164.756 85.5483 165.084C85.3723 165.404 85.2843 165.772 85.2843 166.188V166.38C85.2843 166.804 85.3803 167.184 85.5723 167.52C85.7723 167.848 86.0483 168.104 86.4003 168.288C86.7523 168.472 87.1563 168.564 87.6123 168.564C87.9883 168.564 88.3283 168.5 88.6323 168.372C88.9443 168.244 89.2163 168.052 89.4483 167.796L90.0843 168.54C89.7963 168.876 89.4363 169.132 89.0043 169.308C88.5803 169.484 88.1043 169.572 87.5763 169.572Z" fill="#59595B"/>
<path d="M162.473 170V168.782L166.365 165.086C166.692 164.778 166.935 164.507 167.093 164.274C167.252 164.041 167.355 163.826 167.401 163.63C167.457 163.425 167.485 163.233 167.485 163.056C167.485 162.608 167.331 162.263 167.023 162.02C166.715 161.768 166.263 161.642 165.665 161.642C165.189 161.642 164.755 161.726 164.363 161.894C163.981 162.062 163.649 162.319 163.369 162.664L162.095 161.684C162.478 161.171 162.991 160.774 163.635 160.494C164.289 160.205 165.017 160.06 165.819 160.06C166.529 160.06 167.145 160.177 167.667 160.41C168.199 160.634 168.605 160.956 168.885 161.376C169.175 161.796 169.319 162.295 169.319 162.874C169.319 163.191 169.277 163.509 169.193 163.826C169.109 164.134 168.951 164.461 168.717 164.806C168.484 165.151 168.143 165.539 167.695 165.968L164.349 169.146L163.971 168.46H169.697V170H162.473ZM173.978 170.14C173.287 170.14 172.61 170.042 171.948 169.846C171.294 169.641 170.744 169.361 170.296 169.006L171.08 167.592C171.434 167.881 171.864 168.115 172.368 168.292C172.872 168.469 173.399 168.558 173.95 168.558C174.603 168.558 175.112 168.427 175.476 168.166C175.84 167.895 176.022 167.531 176.022 167.074C176.022 166.626 175.854 166.271 175.518 166.01C175.182 165.749 174.64 165.618 173.894 165.618H172.998V164.372L175.798 161.04L176.036 161.726H170.772V160.2H177.45V161.418L174.65 164.75L173.698 164.19H174.244C175.448 164.19 176.348 164.461 176.946 165.002C177.552 165.534 177.856 166.22 177.856 167.06C177.856 167.611 177.716 168.119 177.436 168.586C177.156 169.053 176.726 169.431 176.148 169.72C175.578 170 174.855 170.14 173.978 170.14ZM183.284 170.14C182.509 170.14 181.809 169.944 181.184 169.552C180.568 169.16 180.083 168.591 179.728 167.844C179.373 167.088 179.196 166.173 179.196 165.1C179.196 164.027 179.373 163.117 179.728 162.37C180.083 161.614 180.568 161.04 181.184 160.648C181.809 160.256 182.509 160.06 183.284 160.06C184.068 160.06 184.768 160.256 185.384 160.648C186 161.04 186.485 161.614 186.84 162.37C187.204 163.117 187.386 164.027 187.386 165.1C187.386 166.173 187.204 167.088 186.84 167.844C186.485 168.591 186 169.16 185.384 169.552C184.768 169.944 184.068 170.14 183.284 170.14ZM183.284 168.558C183.741 168.558 184.138 168.437 184.474 168.194C184.81 167.942 185.071 167.559 185.258 167.046C185.454 166.533 185.552 165.884 185.552 165.1C185.552 164.307 185.454 163.658 185.258 163.154C185.071 162.641 184.81 162.263 184.474 162.02C184.138 161.768 183.741 161.642 183.284 161.642C182.845 161.642 182.453 161.768 182.108 162.02C181.772 162.263 181.506 162.641 181.31 163.154C181.123 163.658 181.03 164.307 181.03 165.1C181.03 165.884 181.123 166.533 181.31 167.046C181.506 167.559 181.772 167.942 182.108 168.194C182.453 168.437 182.845 168.558 183.284 168.558Z" fill="#59595B"/>
<path d="M219.63 170.14C218.939 170.14 218.263 170.042 217.6 169.846C216.947 169.641 216.396 169.361 215.948 169.006L216.718 167.592C217.073 167.881 217.502 168.115 218.006 168.292C218.519 168.469 219.051 168.558 219.602 168.558C220.246 168.558 220.75 168.423 221.114 168.152C221.487 167.881 221.674 167.517 221.674 167.06C221.674 166.752 221.595 166.481 221.436 166.248C221.287 166.015 221.016 165.837 220.624 165.716C220.241 165.595 219.714 165.534 219.042 165.534H216.676L217.18 160.2H222.934V161.726H217.852L218.804 160.858L218.426 164.848L217.474 163.994H219.448C220.419 163.994 221.198 164.125 221.786 164.386C222.383 164.638 222.817 164.993 223.088 165.45C223.368 165.898 223.508 166.411 223.508 166.99C223.508 167.559 223.368 168.082 223.088 168.558C222.808 169.034 222.379 169.417 221.8 169.706C221.231 169.995 220.507 170.14 219.63 170.14ZM225.943 170L232.635 160.2H234.007L227.315 170H225.943ZM226.755 165.478C226.298 165.478 225.892 165.366 225.537 165.142C225.182 164.918 224.907 164.605 224.711 164.204C224.515 163.803 224.417 163.331 224.417 162.79C224.417 162.249 224.515 161.777 224.711 161.376C224.907 160.975 225.182 160.662 225.537 160.438C225.892 160.214 226.298 160.102 226.755 160.102C227.231 160.102 227.642 160.214 227.987 160.438C228.342 160.662 228.617 160.975 228.813 161.376C229.009 161.777 229.107 162.249 229.107 162.79C229.107 163.331 229.009 163.803 228.813 164.204C228.617 164.605 228.342 164.918 227.987 165.142C227.642 165.366 227.231 165.478 226.755 165.478ZM226.769 164.498C227.142 164.498 227.432 164.353 227.637 164.064C227.852 163.765 227.959 163.341 227.959 162.79C227.959 162.239 227.852 161.819 227.637 161.53C227.432 161.231 227.142 161.082 226.769 161.082C226.396 161.082 226.097 161.231 225.873 161.53C225.658 161.829 225.551 162.249 225.551 162.79C225.551 163.331 225.658 163.751 225.873 164.05C226.097 164.349 226.396 164.498 226.769 164.498ZM233.181 170.098C232.724 170.098 232.318 169.986 231.963 169.762C231.608 169.538 231.333 169.225 231.137 168.824C230.941 168.423 230.843 167.951 230.843 167.41C230.843 166.869 230.941 166.397 231.137 165.996C231.333 165.595 231.608 165.282 231.963 165.058C232.318 164.834 232.724 164.722 233.181 164.722C233.657 164.722 234.068 164.834 234.413 165.058C234.768 165.282 235.043 165.595 235.239 165.996C235.435 166.397 235.533 166.869 235.533 167.41C235.533 167.951 235.435 168.423 235.239 168.824C235.043 169.225 234.768 169.538 234.413 169.762C234.068 169.986 233.657 170.098 233.181 170.098ZM233.181 169.118C233.554 169.118 233.848 168.969 234.063 168.67C234.278 168.371 234.385 167.951 234.385 167.41C234.385 166.869 234.278 166.449 234.063 166.15C233.848 165.851 233.554 165.702 233.181 165.702C232.817 165.702 232.523 165.851 232.299 166.15C232.084 166.439 231.977 166.859 231.977 167.41C231.977 167.961 232.084 168.385 232.299 168.684C232.523 168.973 232.817 169.118 233.181 169.118Z" fill="#59595B"/>
<line x1="20" y1="182.5" x2="258" y2="182.5" stroke="#F4F5F6"/>
</svg>
