<svg width="18" height="20" viewBox="0 0 18 20" fill="none" xmlns="http://www.w3.org/2000/svg">
	<path d="M0.263467 17.892L5.24347 19.888L5.87348 11.096L2.45548 10.08C2.34748 10.05 2.23346 10.064 2.13346 10.118C2.03746 10.172 1.96146 10.264 1.93346 10.372L0.0154689 17.394C-0.0425311 17.6 0.067467 17.816 0.263467 17.892Z" fill="#59595B"/>
	<path d="M6.0835 19.842L10.7295 18.108L10.1575 10.146L6.7115 11.12L6.0835 19.842Z" fill="#59595B"/>
	<path d="M11.5634 18.0922L16.9474 19.9762C16.9934 19.9922 17.0394 20.0002 17.0854 20.0002C17.1894 20.0002 17.2894 19.9582 17.3694 19.8882C17.4814 19.7802 17.5274 19.6202 17.4854 19.4702L15.3214 11.5542C15.2834 11.4122 15.1714 11.3002 15.0294 11.2622L10.9934 10.1802L11.5634 18.0922Z" fill="#59595B"/>
	<path d="M7.67947 10.356C7.79547 10.356 7.90945 10.306 7.98945 10.218C8.36545 9.796 11.6655 6.054 11.6655 3.986C11.6655 1.788 9.87747 0 7.67947 0C5.47747 0 3.68945 1.788 3.68945 3.986C3.68945 6.054 6.98945 9.796 7.36545 10.218C7.44545 10.306 7.55747 10.356 7.67947 10.356ZM5.87146 3.986C5.87146 2.99 6.68346 2.182 7.67546 2.182C8.67146 2.182 9.48345 2.988 9.48345 3.986C9.48345 4.978 8.67146 5.79 7.67546 5.79C6.68146 5.788 5.87146 4.978 5.87146 3.986Z" fill="#59595B"/>
</svg>
