<svg width="20" height="20" viewBox="0 0 20 20" fill="none" xmlns="http://www.w3.org/2000/svg">
<path d="M6.23813 9.63111H7.76567C8.15555 9.63111 8.34949 9.16125 8.07557 8.88533L6.96991 7.77967C6.76797 7.57773 6.42607 7.61971 6.28211 7.86764C6.06418 8.24753 5.90423 8.6614 5.81026 9.10327C5.75227 9.37319 5.96021 9.63111 6.23813 9.63111ZM11.3246 9.997C11.3246 9.26522 10.7308 8.6714 9.999 8.6714C9.26722 8.6714 8.6734 9.26522 8.6734 9.997C8.6734 10.7288 9.26722 11.3226 9.999 11.3226C10.7308 11.3226 11.3246 10.7288 11.3246 9.997ZM7.76567 10.6088H6.29811C6.0102 10.6088 5.79826 10.8827 5.87623 11.1607C5.9902 11.5645 6.16015 11.9444 6.38009 12.2903C6.53204 12.5282 6.86194 12.5682 7.06188 12.3683L8.07557 11.3546C8.34949 11.0787 8.15555 10.6088 7.76567 10.6088ZM8.76537 8.19354C9.04129 8.46946 9.51115 8.27352 9.51115 7.88364V6.26212C9.51115 5.97821 9.24522 5.76827 8.96931 5.83625C8.51544 5.94822 8.08757 6.13416 7.70369 6.37809C7.46776 6.52804 7.43377 6.85794 7.62971 7.05588L8.76537 8.19354ZM11.2346 8.19354L12.3703 7.05788C12.5682 6.85994 12.5322 6.53004 12.2963 6.38009C11.9124 6.13616 11.4846 5.95021 11.0307 5.83825C10.7548 5.77027 10.4889 5.98021 10.4889 6.26412V7.88563C10.4889 8.27352 10.9607 8.46946 11.2346 8.19354ZM8.76537 12.0444L7.78166 13.0261C7.57772 13.23 7.62371 13.5719 7.87364 13.7159C8.21354 13.9098 8.58343 14.0598 8.97331 14.1558C9.24723 14.2237 9.51115 14.0118 9.51115 13.7299V12.3523C9.51115 11.9644 9.04129 11.7705 8.76537 12.0444ZM13.0321 7.77967L11.9264 8.88533C11.6505 9.16125 11.8464 9.63111 12.2343 9.63111H13.7619C14.0398 9.63111 14.2477 9.37519 14.1897 9.10327C14.0958 8.6634 13.9358 8.24753 13.7179 7.86764C13.5759 7.61971 13.234 7.57773 13.0321 7.77967ZM10.001 4.3407C6.88193 4.3407 4.34469 6.87794 4.34469 9.997C4.34469 13.1161 6.88193 15.6533 10.001 15.6533C13.1201 15.6533 15.6573 13.1161 15.6573 9.997C15.6573 6.87794 13.1201 4.3407 10.001 4.3407ZM10.001 14.8675C7.3158 14.8675 5.13046 12.6822 5.13046 9.997C5.13046 7.31181 7.3158 5.12646 10.001 5.12646C12.6862 5.12646 14.8715 7.31181 14.8715 9.997C14.8715 12.6822 12.6862 14.8675 10.001 14.8675ZM13.7039 10.6088H12.2363C11.8464 10.6088 11.6525 11.0787 11.9284 11.3546L12.9421 12.3683C13.1401 12.5662 13.472 12.5282 13.6219 12.2903C13.8418 11.9444 14.0138 11.5645 14.1258 11.1607C14.2037 10.8827 13.9918 10.6088 13.7039 10.6088ZM11.2346 12.0444C10.9587 11.7685 10.4889 11.9644 10.4889 12.3543V13.7299C10.4889 14.0118 10.7528 14.2237 11.0267 14.1558C11.4166 14.0598 11.7865 13.9098 12.1264 13.7159C12.3763 13.5719 12.4223 13.23 12.2183 13.0261L11.2346 12.0444ZM19.958 10.8847C19.984 10.5928 19.998 10.2949 19.998 9.997C19.998 9.75507 19.988 9.51715 19.972 9.27922L19.6241 9.31121L19.5941 8.97531L19.942 8.94532C19.884 8.39548 19.7821 7.85764 19.6381 7.3378L19.3022 7.43777L19.2062 7.11387L19.5441 7.0139C19.3882 6.51805 19.1962 6.03819 18.9683 5.57633L18.6564 5.73628L18.5025 5.43637L18.8144 5.27642C18.5444 4.77257 18.2305 4.29471 17.8806 3.84485L17.6087 4.06478L17.3968 3.80286L17.6687 3.58292C17.3248 3.17105 16.9489 2.78916 16.543 2.43727L16.3191 2.70519L16.0612 2.48925L16.2851 2.22133C15.8612 1.87944 15.4094 1.56953 14.9335 1.29961L14.7656 1.60752L14.4697 1.44757L14.6376 1.13966C14.1837 0.90173 13.7079 0.695791 13.216 0.527842L13.1081 0.863741L12.7862 0.759772L12.8941 0.425872C12.3543 0.263921 11.7965 0.143957 11.2226 0.0739776L11.1866 0.421874L10.8507 0.385884L10.8867 0.0399882C10.5948 0.013996 10.2969 0 9.999 0C9.75708 0 9.51914 0.00999722 9.28121 0.0259924L9.3132 0.373888L8.97731 0.403879L8.94732 0.055983C8.39548 0.113966 7.85964 0.215935 7.3398 0.359892L7.43977 0.695791L7.11586 0.791762L7.01589 0.453864C6.52004 0.609817 6.04019 0.80176 5.57833 1.02969L5.73828 1.3416L5.43836 1.49555L5.27842 1.18364C4.77457 1.45356 4.29671 1.76747 3.84684 2.11736L4.06678 2.38928L3.80486 2.60122L3.58492 2.3293C3.17305 2.6732 2.79116 3.04909 2.43926 3.45496L2.70719 3.6789L2.49125 3.93682L2.22333 3.71289C1.88143 4.13676 1.57153 4.58662 1.30161 5.06448L1.60951 5.23243L1.44756 5.52834L1.13965 5.36039C0.901726 5.81426 0.695788 6.29011 0.527838 6.78197L0.863742 6.88993L0.75977 7.21184L0.425873 7.10387C0.263922 7.64371 0.143956 8.20154 0.0739768 8.77537L0.421871 8.81336L0.385883 9.14926L0.0399843 9.11327C0.0139921 9.40518 0 9.70309 0 10.001C0 10.2429 0.00999798 10.4809 0.0259932 10.7188L0.373887 10.6888L0.403877 11.0247L0.055983 11.0547C0.113966 11.6045 0.215933 12.1424 0.35989 12.6622L0.695787 12.5622L0.791761 12.8861L0.453862 12.9861C0.609815 13.482 0.801758 13.9618 1.02969 14.4217L1.3416 14.2617L1.49555 14.5616L1.18364 14.7216C1.45356 15.2254 1.76547 15.7053 2.11736 16.1532L2.38928 15.9332L2.60122 16.1951L2.3293 16.4151C2.6732 16.827 3.04909 17.2088 3.45496 17.5607L3.6789 17.2928L3.93682 17.5087L3.71289 17.7767C4.13676 18.1186 4.58862 18.4285 5.06448 18.6984L5.23243 18.3905L5.52834 18.5524L5.36039 18.8603C5.81426 19.0983 6.29011 19.3042 6.78196 19.4702L6.88993 19.1363L7.21184 19.2382L7.10387 19.5721C7.64371 19.7341 8.20154 19.854 8.77536 19.924L8.81136 19.5761L9.14726 19.6121L9.11127 19.96C9.40318 19.986 9.70109 20 9.999 20C10.2409 20 10.4789 19.99 10.7168 19.974L10.6868 19.6261L11.0227 19.5961L11.0527 19.944C11.6025 19.886 12.1404 19.7841 12.6602 19.6401L12.5622 19.3042L12.8861 19.2082L12.9861 19.5461C13.482 19.3902 13.9618 19.1982 14.4217 18.9703L14.2617 18.6584L14.5616 18.5044L14.7216 18.8164C15.2254 18.5464 15.7033 18.2325 16.1532 17.8826L15.9332 17.6107L16.1951 17.3988L16.4151 17.6707C16.827 17.3268 17.2088 16.9509 17.5607 16.545L17.2928 16.3211L17.5087 16.0632L17.7767 16.2871C18.1186 15.8632 18.4285 15.4114 18.6984 14.9355L18.3905 14.7676L18.5524 14.4717L18.8603 14.6396C19.0983 14.1857 19.3042 13.7099 19.4702 13.218L19.1363 13.1101L19.2382 12.7882L19.5721 12.8961C19.7361 12.3563 19.854 11.7985 19.924 11.2246L19.5761 11.1866L19.6121 10.8507L19.958 10.8847ZM10.001 16.4931C6.41407 16.4931 3.50495 13.5839 3.50495 9.997C3.50495 6.41008 6.41407 3.50095 10.001 3.50095C13.5879 3.50095 16.4971 6.41008 16.4971 9.997C16.4971 13.5839 13.5879 16.4931 10.001 16.4931Z" fill="#59595B"/>
</svg>
