<svg width="78" height="24" viewBox="0 0 78 24" fill="none" xmlns="http://www.w3.org/2000/svg">
<rect x="0.5" y="0.5" width="77" height="23" rx="11.5" fill="white"/>
<circle cx="15" cy="12" r="5" fill="url(#paint0_linear_394_1879)"/>
<path d="M29.6428 16.5V8.1H30.6268L36.1828 15H35.6668V8.1H36.8668V16.5H35.8828L30.3268 9.6H30.8428V16.5H29.6428ZM41.8891 16.572C41.3451 16.572 40.8651 16.472 40.4491 16.272C40.0411 16.072 39.7211 15.768 39.4891 15.36C39.2651 14.944 39.1531 14.424 39.1531 13.8V10.14H40.3051V13.668C40.3051 14.292 40.4531 14.76 40.7491 15.072C41.0531 15.384 41.4771 15.54 42.0211 15.54C42.4211 15.54 42.7691 15.46 43.0651 15.3C43.3611 15.132 43.5891 14.892 43.7491 14.58C43.9091 14.26 43.9891 13.876 43.9891 13.428V10.14H45.1411V16.5H44.0491V14.784L44.2291 15.24C44.0211 15.664 43.7091 15.992 43.2931 16.224C42.8771 16.456 42.4091 16.572 41.8891 16.572ZM50.1662 16.572C49.4862 16.572 48.8862 16.432 48.3662 16.152C47.8542 15.872 47.4542 15.488 47.1662 15C46.8862 14.512 46.7462 13.952 46.7462 13.32C46.7462 12.688 46.8822 12.128 47.1542 11.64C47.4342 11.152 47.8142 10.772 48.2942 10.5C48.7822 10.22 49.3302 10.08 49.9382 10.08C50.5542 10.08 51.0982 10.216 51.5702 10.488C52.0422 10.76 52.4102 11.144 52.6742 11.64C52.9462 12.128 53.0822 12.7 53.0822 13.356C53.0822 13.404 53.0782 13.46 53.0702 13.524C53.0702 13.588 53.0662 13.648 53.0582 13.704H47.6462V12.876H52.4582L51.9902 13.164C51.9982 12.756 51.9142 12.392 51.7382 12.072C51.5622 11.752 51.3182 11.504 51.0062 11.328C50.7022 11.144 50.3462 11.052 49.9382 11.052C49.5382 11.052 49.1822 11.144 48.8702 11.328C48.5582 11.504 48.3142 11.756 48.1382 12.084C47.9622 12.404 47.8742 12.772 47.8742 13.188V13.38C47.8742 13.804 47.9702 14.184 48.1622 14.52C48.3622 14.848 48.6382 15.104 48.9902 15.288C49.3422 15.472 49.7462 15.564 50.2022 15.564C50.5782 15.564 50.9182 15.5 51.2222 15.372C51.5342 15.244 51.8062 15.052 52.0382 14.796L52.6742 15.54C52.3862 15.876 52.0262 16.132 51.5942 16.308C51.1702 16.484 50.6942 16.572 50.1662 16.572ZM56.2327 16.5L53.4487 10.14H54.6487L57.1207 15.9H56.5447L59.0647 10.14H60.1927L57.4087 16.5H56.2327ZM63.816 16.572C63.176 16.572 62.608 16.432 62.112 16.152C61.616 15.872 61.224 15.488 60.936 15C60.648 14.504 60.504 13.944 60.504 13.32C60.504 12.688 60.648 12.128 60.936 11.64C61.224 11.152 61.616 10.772 62.112 10.5C62.608 10.22 63.176 10.08 63.816 10.08C64.448 10.08 65.012 10.22 65.508 10.5C66.012 10.772 66.404 11.152 66.684 11.64C66.972 12.12 67.116 12.68 67.116 13.32C67.116 13.952 66.972 14.512 66.684 15C66.404 15.488 66.012 15.872 65.508 16.152C65.012 16.432 64.448 16.572 63.816 16.572ZM63.816 15.564C64.224 15.564 64.588 15.472 64.908 15.288C65.236 15.104 65.492 14.844 65.676 14.508C65.86 14.164 65.952 13.768 65.952 13.32C65.952 12.864 65.86 12.472 65.676 12.144C65.492 11.808 65.236 11.548 64.908 11.364C64.588 11.18 64.224 11.088 63.816 11.088C63.408 11.088 63.044 11.18 62.724 11.364C62.404 11.548 62.148 11.808 61.956 12.144C61.764 12.472 61.668 12.864 61.668 13.32C61.668 13.768 61.764 14.164 61.956 14.508C62.148 14.844 62.404 15.104 62.724 15.288C63.044 15.472 63.408 15.564 63.816 15.564Z" fill="#59595B"/>
<rect x="0.5" y="0.5" width="77" height="23" rx="11.5" stroke="#F69393"/>
<defs>
<linearGradient id="paint0_linear_394_1879" x1="15" y1="7" x2="15" y2="17" gradientUnits="userSpaceOnUse">
<stop stop-color="#FEE2E2"/>
<stop offset="1" stop-color="#F69393"/>
</linearGradient>
</defs>
</svg>
