<svg width="190" height="375" viewBox="0 0 190 375" fill="none" xmlns="http://www.w3.org/2000/svg">
<rect x="58" y="21" width="31" height="37" rx="5" fill="#F4F5F6"/>
<path d="M64.8823 34.18V32.248L69.3063 25.92H71.9803V32.108H73.1283V34.18H71.9803V36H69.5863V34.18H64.8823ZM69.7543 28.552L67.4023 32.108H69.7543V28.552ZM74.3009 30.75C74.3009 29.1447 74.6089 27.88 75.2249 26.956C75.8502 26.032 76.8536 25.57 78.2349 25.57C79.6162 25.57 80.6149 26.032 81.2309 26.956C81.8562 27.88 82.1689 29.1447 82.1689 30.75C82.1689 32.374 81.8562 33.648 81.2309 34.572C80.6149 35.496 79.6162 35.958 78.2349 35.958C76.8536 35.958 75.8502 35.496 75.2249 34.572C74.6089 33.648 74.3009 32.374 74.3009 30.75ZM79.8169 30.75C79.8169 29.8073 79.7142 29.084 79.5089 28.58C79.3036 28.0667 78.8789 27.81 78.2349 27.81C77.5909 27.81 77.1662 28.0667 76.9609 28.58C76.7556 29.084 76.6529 29.8073 76.6529 30.75C76.6529 31.3847 76.6902 31.912 76.7649 32.332C76.8396 32.7427 76.9889 33.0787 77.2129 33.34C77.4462 33.592 77.7869 33.718 78.2349 33.718C78.6829 33.718 79.0189 33.592 79.2429 33.34C79.4762 33.0787 79.6302 32.7427 79.7049 32.332C79.7796 31.912 79.8169 31.3847 79.8169 30.75Z" fill="#59595B"/>
<path d="M66.2883 52V45H69.0183C69.6316 45 70.1549 45.0967 70.5883 45.29C71.0216 45.4833 71.3549 45.7633 71.5883 46.13C71.8216 46.4967 71.9383 46.9333 71.9383 47.44C71.9383 47.9467 71.8216 48.3833 71.5883 48.75C71.3549 49.11 71.0216 49.39 70.5883 49.59C70.1549 49.7833 69.6316 49.88 69.0183 49.88H66.8383L67.2883 49.41V52H66.2883ZM67.2883 49.51L66.8383 49.01H68.9883C69.6283 49.01 70.1116 48.8733 70.4383 48.6C70.7716 48.3267 70.9383 47.94 70.9383 47.44C70.9383 46.94 70.7716 46.5533 70.4383 46.28C70.1116 46.0067 69.6283 45.87 68.9883 45.87H66.8383L67.2883 45.37V49.51ZM75.5451 52.08C75.0117 52.08 74.5017 52 74.0151 51.84C73.5284 51.6733 73.1451 51.46 72.8651 51.2L73.2351 50.42C73.5017 50.6533 73.8417 50.8467 74.2551 51C74.6684 51.1533 75.0984 51.23 75.5451 51.23C75.9517 51.23 76.2817 51.1833 76.5351 51.09C76.7884 50.9967 76.9751 50.87 77.0951 50.71C77.2151 50.5433 77.2751 50.3567 77.2751 50.15C77.2751 49.91 77.1951 49.7167 77.0351 49.57C76.8817 49.4233 76.6784 49.3067 76.4251 49.22C76.1784 49.1267 75.9051 49.0467 75.6051 48.98C75.3051 48.9133 75.0017 48.8367 74.6951 48.75C74.3951 48.6567 74.1184 48.54 73.8651 48.4C73.6184 48.26 73.4184 48.0733 73.2651 47.84C73.1117 47.6 73.0351 47.2933 73.0351 46.92C73.0351 46.56 73.1284 46.23 73.3151 45.93C73.5084 45.6233 73.8017 45.38 74.1951 45.2C74.5951 45.0133 75.1017 44.92 75.7151 44.92C76.1217 44.92 76.5251 44.9733 76.9251 45.08C77.3251 45.1867 77.6717 45.34 77.9651 45.54L77.6351 46.34C77.3351 46.14 77.0184 45.9967 76.6851 45.91C76.3517 45.8167 76.0284 45.77 75.7151 45.77C75.3217 45.77 74.9984 45.82 74.7451 45.92C74.4917 46.02 74.3051 46.1533 74.1851 46.32C74.0717 46.4867 74.0151 46.6733 74.0151 46.88C74.0151 47.1267 74.0917 47.3233 74.2451 47.47C74.4051 47.6167 74.6084 47.7333 74.8551 47.82C75.1084 47.9067 75.3851 47.9867 75.6851 48.06C75.9851 48.1267 76.2851 48.2033 76.5851 48.29C76.8917 48.3767 77.1684 48.49 77.4151 48.63C77.6684 48.77 77.8717 48.9567 78.0251 49.19C78.1784 49.4233 78.2551 49.7233 78.2551 50.09C78.2551 50.4433 78.1584 50.7733 77.9651 51.08C77.7717 51.38 77.4717 51.6233 77.0651 51.81C76.6651 51.99 76.1584 52.08 75.5451 52.08ZM79.716 52V45H80.716V52H79.716Z" fill="#59595B"/>
<rect x="99" y="21" width="32" height="37" rx="5" fill="#DCFCE7"/>
<path d="M118.408 27.572L114.894 36H112.444L116 27.838H111.646V25.794H118.408V27.572Z" fill="#22C55E"/>
<path d="M106.499 52V45H107.319L110.459 50.29H110.019L113.119 45H113.939L113.949 52H112.989L112.979 46.51H113.209L110.449 51.15H109.989L107.209 46.51H107.459V52H106.499ZM116.05 52V45H116.87L120.01 50.29H119.57L122.67 45H123.49L123.5 52H122.54L122.53 46.51H122.76L120 51.15H119.54L116.76 46.51H117.01V52H116.05Z" fill="#22C55E"/>
<path d="M60.26 12V3.6H63.8C64.696 3.6 65.484 3.776 66.164 4.128C66.852 4.48 67.384 4.972 67.76 5.604C68.144 6.236 68.336 6.968 68.336 7.8C68.336 8.632 68.144 9.364 67.76 9.996C67.384 10.628 66.852 11.12 66.164 11.472C65.484 11.824 64.696 12 63.8 12H60.26ZM61.46 10.956H63.728C64.424 10.956 65.024 10.824 65.528 10.56C66.04 10.296 66.436 9.928 66.716 9.456C66.996 8.976 67.136 8.424 67.136 7.8C67.136 7.168 66.996 6.616 66.716 6.144C66.436 5.672 66.04 5.304 65.528 5.04C65.024 4.776 64.424 4.644 63.728 4.644H61.46V10.956ZM69.6801 9.204V8.208H72.9081V9.204H69.6801ZM75.3709 12V4.08L75.8869 4.644H73.4749V3.6H76.5589V12H75.3709Z" fill="#59595B"/>
<rect x="11" y="98" width="31" height="37" rx="5" fill="#F4F5F6"/>
<path d="M17.8823 111.18V109.248L22.3063 102.92H24.9803V109.108H26.1283V111.18H24.9803V113H22.5863V111.18H17.8823ZM22.7543 105.552L20.4023 109.108H22.7543V105.552ZM27.3009 107.75C27.3009 106.145 27.6089 104.88 28.2249 103.956C28.8502 103.032 29.8536 102.57 31.2349 102.57C32.6162 102.57 33.6149 103.032 34.2309 103.956C34.8562 104.88 35.1689 106.145 35.1689 107.75C35.1689 109.374 34.8562 110.648 34.2309 111.572C33.6149 112.496 32.6162 112.958 31.2349 112.958C29.8536 112.958 28.8502 112.496 28.2249 111.572C27.6089 110.648 27.3009 109.374 27.3009 107.75ZM32.8169 107.75C32.8169 106.807 32.7142 106.084 32.5089 105.58C32.3036 105.067 31.8789 104.81 31.2349 104.81C30.5909 104.81 30.1662 105.067 29.9609 105.58C29.7556 106.084 29.6529 106.807 29.6529 107.75C29.6529 108.385 29.6902 108.912 29.7649 109.332C29.8396 109.743 29.9889 110.079 30.2129 110.34C30.4462 110.592 30.7869 110.718 31.2349 110.718C31.6829 110.718 32.0189 110.592 32.2429 110.34C32.4762 110.079 32.6302 109.743 32.7049 109.332C32.7796 108.912 32.8169 108.385 32.8169 107.75Z" fill="#59595B"/>
<path d="M19.2883 129V122H22.0183C22.6316 122 23.1549 122.097 23.5883 122.29C24.0216 122.483 24.3549 122.763 24.5883 123.13C24.8216 123.497 24.9383 123.933 24.9383 124.44C24.9383 124.947 24.8216 125.383 24.5883 125.75C24.3549 126.11 24.0216 126.39 23.5883 126.59C23.1549 126.783 22.6316 126.88 22.0183 126.88H19.8383L20.2883 126.41V129H19.2883ZM20.2883 126.51L19.8383 126.01H21.9883C22.6283 126.01 23.1116 125.873 23.4383 125.6C23.7716 125.327 23.9383 124.94 23.9383 124.44C23.9383 123.94 23.7716 123.553 23.4383 123.28C23.1116 123.007 22.6283 122.87 21.9883 122.87H19.8383L20.2883 122.37V126.51ZM28.5451 129.08C28.0117 129.08 27.5017 129 27.0151 128.84C26.5284 128.673 26.1451 128.46 25.8651 128.2L26.2351 127.42C26.5017 127.653 26.8417 127.847 27.2551 128C27.6684 128.153 28.0984 128.23 28.5451 128.23C28.9517 128.23 29.2817 128.183 29.5351 128.09C29.7884 127.997 29.9751 127.87 30.0951 127.71C30.2151 127.543 30.2751 127.357 30.2751 127.15C30.2751 126.91 30.1951 126.717 30.0351 126.57C29.8817 126.423 29.6784 126.307 29.4251 126.22C29.1784 126.127 28.9051 126.047 28.6051 125.98C28.3051 125.913 28.0017 125.837 27.6951 125.75C27.3951 125.657 27.1184 125.54 26.8651 125.4C26.6184 125.26 26.4184 125.073 26.2651 124.84C26.1117 124.6 26.0351 124.293 26.0351 123.92C26.0351 123.56 26.1284 123.23 26.3151 122.93C26.5084 122.623 26.8017 122.38 27.1951 122.2C27.5951 122.013 28.1017 121.92 28.7151 121.92C29.1217 121.92 29.5251 121.973 29.9251 122.08C30.3251 122.187 30.6717 122.34 30.9651 122.54L30.6351 123.34C30.3351 123.14 30.0184 122.997 29.6851 122.91C29.3517 122.817 29.0284 122.77 28.7151 122.77C28.3217 122.77 27.9984 122.82 27.7451 122.92C27.4917 123.02 27.3051 123.153 27.1851 123.32C27.0717 123.487 27.0151 123.673 27.0151 123.88C27.0151 124.127 27.0917 124.323 27.2451 124.47C27.4051 124.617 27.6084 124.733 27.8551 124.82C28.1084 124.907 28.3851 124.987 28.6851 125.06C28.9851 125.127 29.2851 125.203 29.5851 125.29C29.8917 125.377 30.1684 125.49 30.4151 125.63C30.6684 125.77 30.8717 125.957 31.0251 126.19C31.1784 126.423 31.2551 126.723 31.2551 127.09C31.2551 127.443 31.1584 127.773 30.9651 128.08C30.7717 128.38 30.4717 128.623 30.0651 128.81C29.6651 128.99 29.1584 129.08 28.5451 129.08ZM32.716 129V122H33.716V129H32.716Z" fill="#59595B"/>
<rect x="52" y="98" width="32" height="37" rx="5" fill="#DCFCE7"/>
<path d="M71.2733 104.866H66.9053V106.798C67.0919 106.593 67.3533 106.425 67.6893 106.294C68.0253 106.163 68.3893 106.098 68.7813 106.098C69.4813 106.098 70.0599 106.257 70.5173 106.574C70.9839 106.891 71.3246 107.302 71.5393 107.806C71.7539 108.31 71.8613 108.856 71.8613 109.444C71.8613 110.536 71.5533 111.404 70.9373 112.048C70.3213 112.683 69.4533 113 68.3333 113C67.5866 113 66.9379 112.874 66.3873 112.622C65.8366 112.361 65.4119 112.001 65.1133 111.544C64.8146 111.087 64.6513 110.559 64.6233 109.962H66.9613C67.0173 110.251 67.1526 110.494 67.3673 110.69C67.5819 110.877 67.8759 110.97 68.2493 110.97C68.6879 110.97 69.0146 110.83 69.2293 110.55C69.4439 110.27 69.5513 109.897 69.5513 109.43C69.5513 108.973 69.4393 108.623 69.2153 108.38C68.9913 108.137 68.6646 108.016 68.2353 108.016C67.9179 108.016 67.6566 108.095 67.4513 108.254C67.2459 108.403 67.1106 108.604 67.0453 108.856H64.7353V102.766H71.2733V104.866Z" fill="#22C55E"/>
<path d="M59.4992 129V122H60.3192L63.4592 127.29H63.0192L66.1192 122H66.9392L66.9492 129H65.9892L65.9792 123.51H66.2092L63.4492 128.15H62.9892L60.2092 123.51H60.4592V129H59.4992ZM69.05 129V122H69.87L73.01 127.29H72.57L75.67 122H76.49L76.5 129H75.54L75.53 123.51H75.76L73 128.15H72.54L69.76 123.51H70.01V129H69.05Z" fill="#22C55E"/>
<path d="M14.928 89V81.644H12.048V80.6H18.996V81.644H16.116V89H14.928ZM19.3285 86.204V85.208H22.5565V86.204H19.3285ZM26.1479 89.096C25.5559 89.096 24.9799 89.004 24.4199 88.82C23.8679 88.636 23.4159 88.388 23.0639 88.076L23.6159 87.128C23.8959 87.392 24.2599 87.608 24.7079 87.776C25.1559 87.944 25.6359 88.028 26.1479 88.028C26.7719 88.028 27.2559 87.896 27.5999 87.632C27.9519 87.36 28.1279 86.996 28.1279 86.54C28.1279 86.1 27.9599 85.748 27.6239 85.484C27.2959 85.212 26.7719 85.076 26.0519 85.076H25.3799V84.236L27.8759 81.164L28.0439 81.644H23.4479V80.6H28.9919V81.416L26.5079 84.476L25.8839 84.104H26.2799C27.2959 84.104 28.0559 84.332 28.5599 84.788C29.0719 85.244 29.3279 85.824 29.3279 86.528C29.3279 87 29.2119 87.432 28.9799 87.824C28.7479 88.216 28.3959 88.528 27.9239 88.76C27.4599 88.984 26.8679 89.096 26.1479 89.096Z" fill="#59595B"/>
<rect x="105" y="98" width="31" height="37" rx="5" fill="#F4F5F6"/>
<path d="M111.882 111.18V109.248L116.306 102.92H118.98V109.108H120.128V111.18H118.98V113H116.586V111.18H111.882ZM116.754 105.552L114.402 109.108H116.754V105.552ZM121.301 107.75C121.301 106.145 121.609 104.88 122.225 103.956C122.85 103.032 123.854 102.57 125.235 102.57C126.616 102.57 127.615 103.032 128.231 103.956C128.856 104.88 129.169 106.145 129.169 107.75C129.169 109.374 128.856 110.648 128.231 111.572C127.615 112.496 126.616 112.958 125.235 112.958C123.854 112.958 122.85 112.496 122.225 111.572C121.609 110.648 121.301 109.374 121.301 107.75ZM126.817 107.75C126.817 106.807 126.714 106.084 126.509 105.58C126.304 105.067 125.879 104.81 125.235 104.81C124.591 104.81 124.166 105.067 123.961 105.58C123.756 106.084 123.653 106.807 123.653 107.75C123.653 108.385 123.69 108.912 123.765 109.332C123.84 109.743 123.989 110.079 124.213 110.34C124.446 110.592 124.787 110.718 125.235 110.718C125.683 110.718 126.019 110.592 126.243 110.34C126.476 110.079 126.63 109.743 126.705 109.332C126.78 108.912 126.817 108.385 126.817 107.75Z" fill="#59595B"/>
<path d="M113.288 129V122H116.018C116.632 122 117.155 122.097 117.588 122.29C118.022 122.483 118.355 122.763 118.588 123.13C118.822 123.497 118.938 123.933 118.938 124.44C118.938 124.947 118.822 125.383 118.588 125.75C118.355 126.11 118.022 126.39 117.588 126.59C117.155 126.783 116.632 126.88 116.018 126.88H113.838L114.288 126.41V129H113.288ZM114.288 126.51L113.838 126.01H115.988C116.628 126.01 117.112 125.873 117.438 125.6C117.772 125.327 117.938 124.94 117.938 124.44C117.938 123.94 117.772 123.553 117.438 123.28C117.112 123.007 116.628 122.87 115.988 122.87H113.838L114.288 122.37V126.51ZM122.545 129.08C122.012 129.08 121.502 129 121.015 128.84C120.528 128.673 120.145 128.46 119.865 128.2L120.235 127.42C120.502 127.653 120.842 127.847 121.255 128C121.668 128.153 122.098 128.23 122.545 128.23C122.952 128.23 123.282 128.183 123.535 128.09C123.788 127.997 123.975 127.87 124.095 127.71C124.215 127.543 124.275 127.357 124.275 127.15C124.275 126.91 124.195 126.717 124.035 126.57C123.882 126.423 123.678 126.307 123.425 126.22C123.178 126.127 122.905 126.047 122.605 125.98C122.305 125.913 122.002 125.837 121.695 125.75C121.395 125.657 121.118 125.54 120.865 125.4C120.618 125.26 120.418 125.073 120.265 124.84C120.112 124.6 120.035 124.293 120.035 123.92C120.035 123.56 120.128 123.23 120.315 122.93C120.508 122.623 120.802 122.38 121.195 122.2C121.595 122.013 122.102 121.92 122.715 121.92C123.122 121.92 123.525 121.973 123.925 122.08C124.325 122.187 124.672 122.34 124.965 122.54L124.635 123.34C124.335 123.14 124.018 122.997 123.685 122.91C123.352 122.817 123.028 122.77 122.715 122.77C122.322 122.77 121.998 122.82 121.745 122.92C121.492 123.02 121.305 123.153 121.185 123.32C121.072 123.487 121.015 123.673 121.015 123.88C121.015 124.127 121.092 124.323 121.245 124.47C121.405 124.617 121.608 124.733 121.855 124.82C122.108 124.907 122.385 124.987 122.685 125.06C122.985 125.127 123.285 125.203 123.585 125.29C123.892 125.377 124.168 125.49 124.415 125.63C124.668 125.77 124.872 125.957 125.025 126.19C125.178 126.423 125.255 126.723 125.255 127.09C125.255 127.443 125.158 127.773 124.965 128.08C124.772 128.38 124.472 128.623 124.065 128.81C123.665 128.99 123.158 129.08 122.545 129.08ZM126.716 129V122H127.716V129H126.716Z" fill="#59595B"/>
<rect x="146" y="98" width="32" height="37" rx="5" fill="#DCFCE7"/>
<path d="M163.227 105.538C163.152 105.193 163.022 104.936 162.835 104.768C162.648 104.591 162.382 104.502 162.037 104.502C161.505 104.502 161.122 104.735 160.889 105.202C160.656 105.659 160.534 106.387 160.525 107.386C160.73 107.059 161.024 106.803 161.407 106.616C161.799 106.429 162.228 106.336 162.695 106.336C163.61 106.336 164.342 106.625 164.893 107.204C165.453 107.783 165.733 108.59 165.733 109.626C165.733 110.307 165.593 110.905 165.313 111.418C165.042 111.931 164.641 112.333 164.109 112.622C163.586 112.911 162.966 113.056 162.247 113.056C160.81 113.056 159.811 112.608 159.251 111.712C158.691 110.807 158.411 109.509 158.411 107.82C158.411 106.047 158.705 104.731 159.293 103.872C159.89 103.004 160.842 102.57 162.149 102.57C162.849 102.57 163.437 102.71 163.913 102.99C164.398 103.261 164.762 103.62 165.005 104.068C165.257 104.516 165.406 105.006 165.453 105.538H163.227ZM162.121 108.226C161.72 108.226 161.384 108.347 161.113 108.59C160.852 108.823 160.721 109.159 160.721 109.598C160.721 110.046 160.842 110.396 161.085 110.648C161.337 110.9 161.692 111.026 162.149 111.026C162.56 111.026 162.882 110.905 163.115 110.662C163.358 110.41 163.479 110.069 163.479 109.64C163.479 109.201 163.362 108.856 163.129 108.604C162.896 108.352 162.56 108.226 162.121 108.226Z" fill="#22C55E"/>
<path d="M153.499 129V122H154.319L157.459 127.29H157.019L160.119 122H160.939L160.949 129H159.989L159.979 123.51H160.209L157.449 128.15H156.989L154.209 123.51H154.459V129H153.499ZM163.05 129V122H163.87L167.01 127.29H166.57L169.67 122H170.49L170.5 129H169.54L169.53 123.51H169.76L167 128.15H166.54L163.76 123.51H164.01V129H163.05Z" fill="#22C55E"/>
<path d="M108.928 89V81.644H106.048V80.6H112.996V81.644H110.116V89H108.928ZM113.329 86.204V85.208H116.557V86.204H113.329ZM117.776 86.936V86.096L122.072 80.6H123.368L119.108 86.096L118.496 85.904H125.204V86.936H117.776ZM122.444 89V86.936L122.48 85.904V84.08H123.608V89H122.444Z" fill="#59595B"/>
<rect x="11" y="174" width="31" height="37" rx="5" fill="#F4F5F6"/>
<path d="M17.8823 187.18V185.248L22.3063 178.92H24.9803V185.108H26.1283V187.18H24.9803V189H22.5863V187.18H17.8823ZM22.7543 181.552L20.4023 185.108H22.7543V181.552ZM27.3009 183.75C27.3009 182.145 27.6089 180.88 28.2249 179.956C28.8502 179.032 29.8536 178.57 31.2349 178.57C32.6162 178.57 33.6149 179.032 34.2309 179.956C34.8562 180.88 35.1689 182.145 35.1689 183.75C35.1689 185.374 34.8562 186.648 34.2309 187.572C33.6149 188.496 32.6162 188.958 31.2349 188.958C29.8536 188.958 28.8502 188.496 28.2249 187.572C27.6089 186.648 27.3009 185.374 27.3009 183.75ZM32.8169 183.75C32.8169 182.807 32.7142 182.084 32.5089 181.58C32.3036 181.067 31.8789 180.81 31.2349 180.81C30.5909 180.81 30.1662 181.067 29.9609 181.58C29.7556 182.084 29.6529 182.807 29.6529 183.75C29.6529 184.385 29.6902 184.912 29.7649 185.332C29.8396 185.743 29.9889 186.079 30.2129 186.34C30.4462 186.592 30.7869 186.718 31.2349 186.718C31.6829 186.718 32.0189 186.592 32.2429 186.34C32.4762 186.079 32.6302 185.743 32.7049 185.332C32.7796 184.912 32.8169 184.385 32.8169 183.75Z" fill="#59595B"/>
<path d="M19.2883 205V198H22.0183C22.6316 198 23.1549 198.097 23.5883 198.29C24.0216 198.483 24.3549 198.763 24.5883 199.13C24.8216 199.497 24.9383 199.933 24.9383 200.44C24.9383 200.947 24.8216 201.383 24.5883 201.75C24.3549 202.11 24.0216 202.39 23.5883 202.59C23.1549 202.783 22.6316 202.88 22.0183 202.88H19.8383L20.2883 202.41V205H19.2883ZM20.2883 202.51L19.8383 202.01H21.9883C22.6283 202.01 23.1116 201.873 23.4383 201.6C23.7716 201.327 23.9383 200.94 23.9383 200.44C23.9383 199.94 23.7716 199.553 23.4383 199.28C23.1116 199.007 22.6283 198.87 21.9883 198.87H19.8383L20.2883 198.37V202.51ZM28.5451 205.08C28.0117 205.08 27.5017 205 27.0151 204.84C26.5284 204.673 26.1451 204.46 25.8651 204.2L26.2351 203.42C26.5017 203.653 26.8417 203.847 27.2551 204C27.6684 204.153 28.0984 204.23 28.5451 204.23C28.9517 204.23 29.2817 204.183 29.5351 204.09C29.7884 203.997 29.9751 203.87 30.0951 203.71C30.2151 203.543 30.2751 203.357 30.2751 203.15C30.2751 202.91 30.1951 202.717 30.0351 202.57C29.8817 202.423 29.6784 202.307 29.4251 202.22C29.1784 202.127 28.9051 202.047 28.6051 201.98C28.3051 201.913 28.0017 201.837 27.6951 201.75C27.3951 201.657 27.1184 201.54 26.8651 201.4C26.6184 201.26 26.4184 201.073 26.2651 200.84C26.1117 200.6 26.0351 200.293 26.0351 199.92C26.0351 199.56 26.1284 199.23 26.3151 198.93C26.5084 198.623 26.8017 198.38 27.1951 198.2C27.5951 198.013 28.1017 197.92 28.7151 197.92C29.1217 197.92 29.5251 197.973 29.9251 198.08C30.3251 198.187 30.6717 198.34 30.9651 198.54L30.6351 199.34C30.3351 199.14 30.0184 198.997 29.6851 198.91C29.3517 198.817 29.0284 198.77 28.7151 198.77C28.3217 198.77 27.9984 198.82 27.7451 198.92C27.4917 199.02 27.3051 199.153 27.1851 199.32C27.0717 199.487 27.0151 199.673 27.0151 199.88C27.0151 200.127 27.0917 200.323 27.2451 200.47C27.4051 200.617 27.6084 200.733 27.8551 200.82C28.1084 200.907 28.3851 200.987 28.6851 201.06C28.9851 201.127 29.2851 201.203 29.5851 201.29C29.8917 201.377 30.1684 201.49 30.4151 201.63C30.6684 201.77 30.8717 201.957 31.0251 202.19C31.1784 202.423 31.2551 202.723 31.2551 203.09C31.2551 203.443 31.1584 203.773 30.9651 204.08C30.7717 204.38 30.4717 204.623 30.0651 204.81C29.6651 204.99 29.1584 205.08 28.5451 205.08ZM32.716 205V198H33.716V205H32.716Z" fill="#59595B"/>
<rect x="52" y="174" width="32" height="37" rx="5" fill="#FEE2E2"/>
<path d="M64.4757 181.664C64.5131 180.665 64.8397 179.895 65.4557 179.354C66.0717 178.813 66.9071 178.542 67.9617 178.542C68.6617 178.542 69.2591 178.663 69.7537 178.906C70.2577 179.149 70.6357 179.48 70.8877 179.9C71.1491 180.32 71.2797 180.791 71.2797 181.314C71.2797 181.93 71.1257 182.434 70.8177 182.826C70.5097 183.209 70.1504 183.47 69.7397 183.61V183.666C70.2717 183.843 70.6917 184.137 70.9997 184.548C71.3077 184.959 71.4617 185.486 71.4617 186.13C71.4617 186.709 71.3264 187.222 71.0557 187.67C70.7944 188.109 70.4071 188.454 69.8937 188.706C69.3897 188.958 68.7877 189.084 68.0877 189.084C66.9677 189.084 66.0717 188.809 65.3997 188.258C64.7371 187.707 64.3871 186.877 64.3497 185.766H66.6737C66.6831 186.177 66.7997 186.503 67.0237 186.746C67.2477 186.979 67.5744 187.096 68.0037 187.096C68.3677 187.096 68.6477 186.993 68.8437 186.788C69.0491 186.573 69.1517 186.293 69.1517 185.948C69.1517 185.5 69.0071 185.178 68.7177 184.982C68.4377 184.777 67.9851 184.674 67.3597 184.674H66.9117V182.728H67.3597C67.8357 182.728 68.2184 182.649 68.5077 182.49C68.8064 182.322 68.9557 182.028 68.9557 181.608C68.9557 181.272 68.8624 181.011 68.6757 180.824C68.4891 180.637 68.2324 180.544 67.9057 180.544C67.5511 180.544 67.2851 180.651 67.1077 180.866C66.9397 181.081 66.8417 181.347 66.8137 181.664H64.4757Z" fill="#EF4444"/>
<path d="M59.4992 205V198H60.3192L63.4592 203.29H63.0192L66.1192 198H66.9392L66.9492 205H65.9892L65.9792 199.51H66.2092L63.4492 204.15H62.9892L60.2092 199.51H60.4592V205H59.4992ZM69.05 205V198H69.87L73.01 203.29H72.57L75.67 198H76.49L76.5 205H75.54L75.53 199.51H75.76L73 204.15H72.54L69.76 199.51H70.01V205H69.05Z" fill="#EF4444"/>
<path d="M14.928 165V157.644H12.048V156.6H18.996V157.644H16.116V165H14.928ZM19.3285 162.204V161.208H22.5565V162.204H19.3285ZM25.1491 165L28.7131 157.104L29.0251 157.644H24.0331L24.6331 157.056V159.144H23.4811V156.6H29.8171V157.416L26.4211 165H25.1491Z" fill="#59595B"/>
<rect x="105" y="174" width="31" height="37" rx="5" fill="#F4F5F6"/>
<path d="M111.882 187.18V185.248L116.306 178.92H118.98V185.108H120.128V187.18H118.98V189H116.586V187.18H111.882ZM116.754 181.552L114.402 185.108H116.754V181.552ZM121.301 183.75C121.301 182.145 121.609 180.88 122.225 179.956C122.85 179.032 123.854 178.57 125.235 178.57C126.616 178.57 127.615 179.032 128.231 179.956C128.856 180.88 129.169 182.145 129.169 183.75C129.169 185.374 128.856 186.648 128.231 187.572C127.615 188.496 126.616 188.958 125.235 188.958C123.854 188.958 122.85 188.496 122.225 187.572C121.609 186.648 121.301 185.374 121.301 183.75ZM126.817 183.75C126.817 182.807 126.714 182.084 126.509 181.58C126.304 181.067 125.879 180.81 125.235 180.81C124.591 180.81 124.166 181.067 123.961 181.58C123.756 182.084 123.653 182.807 123.653 183.75C123.653 184.385 123.69 184.912 123.765 185.332C123.84 185.743 123.989 186.079 124.213 186.34C124.446 186.592 124.787 186.718 125.235 186.718C125.683 186.718 126.019 186.592 126.243 186.34C126.476 186.079 126.63 185.743 126.705 185.332C126.78 184.912 126.817 184.385 126.817 183.75Z" fill="#59595B"/>
<path d="M113.288 205V198H116.018C116.632 198 117.155 198.097 117.588 198.29C118.022 198.483 118.355 198.763 118.588 199.13C118.822 199.497 118.938 199.933 118.938 200.44C118.938 200.947 118.822 201.383 118.588 201.75C118.355 202.11 118.022 202.39 117.588 202.59C117.155 202.783 116.632 202.88 116.018 202.88H113.838L114.288 202.41V205H113.288ZM114.288 202.51L113.838 202.01H115.988C116.628 202.01 117.112 201.873 117.438 201.6C117.772 201.327 117.938 200.94 117.938 200.44C117.938 199.94 117.772 199.553 117.438 199.28C117.112 199.007 116.628 198.87 115.988 198.87H113.838L114.288 198.37V202.51ZM122.545 205.08C122.012 205.08 121.502 205 121.015 204.84C120.528 204.673 120.145 204.46 119.865 204.2L120.235 203.42C120.502 203.653 120.842 203.847 121.255 204C121.668 204.153 122.098 204.23 122.545 204.23C122.952 204.23 123.282 204.183 123.535 204.09C123.788 203.997 123.975 203.87 124.095 203.71C124.215 203.543 124.275 203.357 124.275 203.15C124.275 202.91 124.195 202.717 124.035 202.57C123.882 202.423 123.678 202.307 123.425 202.22C123.178 202.127 122.905 202.047 122.605 201.98C122.305 201.913 122.002 201.837 121.695 201.75C121.395 201.657 121.118 201.54 120.865 201.4C120.618 201.26 120.418 201.073 120.265 200.84C120.112 200.6 120.035 200.293 120.035 199.92C120.035 199.56 120.128 199.23 120.315 198.93C120.508 198.623 120.802 198.38 121.195 198.2C121.595 198.013 122.102 197.92 122.715 197.92C123.122 197.92 123.525 197.973 123.925 198.08C124.325 198.187 124.672 198.34 124.965 198.54L124.635 199.34C124.335 199.14 124.018 198.997 123.685 198.91C123.352 198.817 123.028 198.77 122.715 198.77C122.322 198.77 121.998 198.82 121.745 198.92C121.492 199.02 121.305 199.153 121.185 199.32C121.072 199.487 121.015 199.673 121.015 199.88C121.015 200.127 121.092 200.323 121.245 200.47C121.405 200.617 121.608 200.733 121.855 200.82C122.108 200.907 122.385 200.987 122.685 201.06C122.985 201.127 123.285 201.203 123.585 201.29C123.892 201.377 124.168 201.49 124.415 201.63C124.668 201.77 124.872 201.957 125.025 202.19C125.178 202.423 125.255 202.723 125.255 203.09C125.255 203.443 125.158 203.773 124.965 204.08C124.772 204.38 124.472 204.623 124.065 204.81C123.665 204.99 123.158 205.08 122.545 205.08ZM126.716 205V198H127.716V205H126.716Z" fill="#59595B"/>
<rect x="146" y="174" width="32" height="37" rx="5" fill="#FEE2E2"/>
<path d="M158.476 181.664C158.513 180.665 158.84 179.895 159.456 179.354C160.072 178.813 160.907 178.542 161.962 178.542C162.662 178.542 163.259 178.663 163.754 178.906C164.258 179.149 164.636 179.48 164.888 179.9C165.149 180.32 165.28 180.791 165.28 181.314C165.28 181.93 165.126 182.434 164.818 182.826C164.51 183.209 164.15 183.47 163.74 183.61V183.666C164.272 183.843 164.692 184.137 165 184.548C165.308 184.959 165.462 185.486 165.462 186.13C165.462 186.709 165.326 187.222 165.056 187.67C164.794 188.109 164.407 188.454 163.894 188.706C163.39 188.958 162.788 189.084 162.088 189.084C160.968 189.084 160.072 188.809 159.4 188.258C158.737 187.707 158.387 186.877 158.35 185.766H160.674C160.683 186.177 160.8 186.503 161.024 186.746C161.248 186.979 161.574 187.096 162.004 187.096C162.368 187.096 162.648 186.993 162.844 186.788C163.049 186.573 163.152 186.293 163.152 185.948C163.152 185.5 163.007 185.178 162.718 184.982C162.438 184.777 161.985 184.674 161.36 184.674H160.912V182.728H161.36C161.836 182.728 162.218 182.649 162.508 182.49C162.806 182.322 162.956 182.028 162.956 181.608C162.956 181.272 162.862 181.011 162.676 180.824C162.489 180.637 162.232 180.544 161.906 180.544C161.551 180.544 161.285 180.651 161.108 180.866C160.94 181.081 160.842 181.347 160.814 181.664H158.476Z" fill="#EF4444"/>
<path d="M153.499 205V198H154.319L157.459 203.29H157.019L160.119 198H160.939L160.949 205H159.989L159.979 199.51H160.209L157.449 204.15H156.989L154.209 199.51H154.459V205H153.499ZM163.05 205V198H163.87L167.01 203.29H166.57L169.67 198H170.49L170.5 205H169.54L169.53 199.51H169.76L167 204.15H166.54L163.76 199.51H164.01V205H163.05Z" fill="#EF4444"/>
<path d="M108.928 165V157.644H106.048V156.6H112.996V157.644H110.116V165H108.928ZM113.329 162.204V161.208H116.557V162.204H113.329ZM121.09 165.096C120.41 165.096 119.822 164.996 119.326 164.796C118.83 164.596 118.446 164.312 118.174 163.944C117.902 163.568 117.766 163.128 117.766 162.624C117.766 162.128 117.894 161.708 118.15 161.364C118.414 161.012 118.794 160.748 119.29 160.572C119.786 160.388 120.386 160.296 121.09 160.296C121.794 160.296 122.394 160.388 122.89 160.572C123.394 160.748 123.778 161.012 124.042 161.364C124.306 161.716 124.438 162.136 124.438 162.624C124.438 163.128 124.302 163.568 124.03 163.944C123.758 164.312 123.37 164.596 122.866 164.796C122.362 164.996 121.77 165.096 121.09 165.096ZM121.09 164.124C121.762 164.124 122.286 163.988 122.662 163.716C123.046 163.436 123.238 163.06 123.238 162.588C123.238 162.124 123.046 161.76 122.662 161.496C122.286 161.224 121.762 161.088 121.09 161.088C120.426 161.088 119.906 161.224 119.53 161.496C119.154 161.76 118.966 162.124 118.966 162.588C118.966 163.06 119.154 163.436 119.53 163.716C119.906 163.988 120.426 164.124 121.09 164.124ZM121.09 160.944C120.45 160.944 119.906 160.86 119.458 160.692C119.01 160.516 118.666 160.268 118.426 159.948C118.186 159.62 118.066 159.232 118.066 158.784C118.066 158.312 118.19 157.908 118.438 157.572C118.694 157.228 119.05 156.964 119.506 156.78C119.962 156.596 120.49 156.504 121.09 156.504C121.698 156.504 122.23 156.596 122.686 156.78C123.142 156.964 123.498 157.228 123.754 157.572C124.01 157.908 124.138 158.312 124.138 158.784C124.138 159.232 124.018 159.62 123.778 159.948C123.538 160.268 123.19 160.516 122.734 160.692C122.278 160.86 121.73 160.944 121.09 160.944ZM121.09 160.176C121.674 160.176 122.13 160.056 122.458 159.816C122.794 159.576 122.962 159.248 122.962 158.832C122.962 158.408 122.79 158.076 122.446 157.836C122.102 157.596 121.65 157.476 121.09 157.476C120.53 157.476 120.082 157.596 119.746 157.836C119.418 158.076 119.254 158.408 119.254 158.832C119.254 159.248 119.414 159.576 119.734 159.816C120.062 160.056 120.514 160.176 121.09 160.176Z" fill="#59595B"/>
<rect x="11" y="251" width="31" height="37" rx="5" fill="#F4F5F6"/>
<path d="M17.8823 264.18V262.248L22.3063 255.92H24.9803V262.108H26.1283V264.18H24.9803V266H22.5863V264.18H17.8823ZM22.7543 258.552L20.4023 262.108H22.7543V258.552ZM27.3009 260.75C27.3009 259.145 27.6089 257.88 28.2249 256.956C28.8502 256.032 29.8536 255.57 31.2349 255.57C32.6162 255.57 33.6149 256.032 34.2309 256.956C34.8562 257.88 35.1689 259.145 35.1689 260.75C35.1689 262.374 34.8562 263.648 34.2309 264.572C33.6149 265.496 32.6162 265.958 31.2349 265.958C29.8536 265.958 28.8502 265.496 28.2249 264.572C27.6089 263.648 27.3009 262.374 27.3009 260.75ZM32.8169 260.75C32.8169 259.807 32.7142 259.084 32.5089 258.58C32.3036 258.067 31.8789 257.81 31.2349 257.81C30.5909 257.81 30.1662 258.067 29.9609 258.58C29.7556 259.084 29.6529 259.807 29.6529 260.75C29.6529 261.385 29.6902 261.912 29.7649 262.332C29.8396 262.743 29.9889 263.079 30.2129 263.34C30.4462 263.592 30.7869 263.718 31.2349 263.718C31.6829 263.718 32.0189 263.592 32.2429 263.34C32.4762 263.079 32.6302 262.743 32.7049 262.332C32.7796 261.912 32.8169 261.385 32.8169 260.75Z" fill="#59595B"/>
<path d="M19.2883 282V275H22.0183C22.6316 275 23.1549 275.097 23.5883 275.29C24.0216 275.483 24.3549 275.763 24.5883 276.13C24.8216 276.497 24.9383 276.933 24.9383 277.44C24.9383 277.947 24.8216 278.383 24.5883 278.75C24.3549 279.11 24.0216 279.39 23.5883 279.59C23.1549 279.783 22.6316 279.88 22.0183 279.88H19.8383L20.2883 279.41V282H19.2883ZM20.2883 279.51L19.8383 279.01H21.9883C22.6283 279.01 23.1116 278.873 23.4383 278.6C23.7716 278.327 23.9383 277.94 23.9383 277.44C23.9383 276.94 23.7716 276.553 23.4383 276.28C23.1116 276.007 22.6283 275.87 21.9883 275.87H19.8383L20.2883 275.37V279.51ZM28.5451 282.08C28.0117 282.08 27.5017 282 27.0151 281.84C26.5284 281.673 26.1451 281.46 25.8651 281.2L26.2351 280.42C26.5017 280.653 26.8417 280.847 27.2551 281C27.6684 281.153 28.0984 281.23 28.5451 281.23C28.9517 281.23 29.2817 281.183 29.5351 281.09C29.7884 280.997 29.9751 280.87 30.0951 280.71C30.2151 280.543 30.2751 280.357 30.2751 280.15C30.2751 279.91 30.1951 279.717 30.0351 279.57C29.8817 279.423 29.6784 279.307 29.4251 279.22C29.1784 279.127 28.9051 279.047 28.6051 278.98C28.3051 278.913 28.0017 278.837 27.6951 278.75C27.3951 278.657 27.1184 278.54 26.8651 278.4C26.6184 278.26 26.4184 278.073 26.2651 277.84C26.1117 277.6 26.0351 277.293 26.0351 276.92C26.0351 276.56 26.1284 276.23 26.3151 275.93C26.5084 275.623 26.8017 275.38 27.1951 275.2C27.5951 275.013 28.1017 274.92 28.7151 274.92C29.1217 274.92 29.5251 274.973 29.9251 275.08C30.3251 275.187 30.6717 275.34 30.9651 275.54L30.6351 276.34C30.3351 276.14 30.0184 275.997 29.6851 275.91C29.3517 275.817 29.0284 275.77 28.7151 275.77C28.3217 275.77 27.9984 275.82 27.7451 275.92C27.4917 276.02 27.3051 276.153 27.1851 276.32C27.0717 276.487 27.0151 276.673 27.0151 276.88C27.0151 277.127 27.0917 277.323 27.2451 277.47C27.4051 277.617 27.6084 277.733 27.8551 277.82C28.1084 277.907 28.3851 277.987 28.6851 278.06C28.9851 278.127 29.2851 278.203 29.5851 278.29C29.8917 278.377 30.1684 278.49 30.4151 278.63C30.6684 278.77 30.8717 278.957 31.0251 279.19C31.1784 279.423 31.2551 279.723 31.2551 280.09C31.2551 280.443 31.1584 280.773 30.9651 281.08C30.7717 281.38 30.4717 281.623 30.0651 281.81C29.6651 281.99 29.1584 282.08 28.5451 282.08ZM32.716 282V275H33.716V282H32.716Z" fill="#59595B"/>
<rect x="52" y="251" width="32" height="37" rx="5" fill="#DCFCE7"/>
<path d="M71.2733 257.866H66.9053V259.798C67.0919 259.593 67.3533 259.425 67.6893 259.294C68.0253 259.163 68.3893 259.098 68.7813 259.098C69.4813 259.098 70.0599 259.257 70.5173 259.574C70.9839 259.891 71.3246 260.302 71.5393 260.806C71.7539 261.31 71.8613 261.856 71.8613 262.444C71.8613 263.536 71.5533 264.404 70.9373 265.048C70.3213 265.683 69.4533 266 68.3333 266C67.5866 266 66.9379 265.874 66.3873 265.622C65.8366 265.361 65.4119 265.001 65.1133 264.544C64.8146 264.087 64.6513 263.559 64.6233 262.962H66.9613C67.0173 263.251 67.1526 263.494 67.3673 263.69C67.5819 263.877 67.8759 263.97 68.2493 263.97C68.6879 263.97 69.0146 263.83 69.2293 263.55C69.4439 263.27 69.5513 262.897 69.5513 262.43C69.5513 261.973 69.4393 261.623 69.2153 261.38C68.9913 261.137 68.6646 261.016 68.2353 261.016C67.9179 261.016 67.6566 261.095 67.4513 261.254C67.2459 261.403 67.1106 261.604 67.0453 261.856H64.7353V255.766H71.2733V257.866Z" fill="#22C55E"/>
<path d="M59.4992 282V275H60.3192L63.4592 280.29H63.0192L66.1192 275H66.9392L66.9492 282H65.9892L65.9792 276.51H66.2092L63.4492 281.15H62.9892L60.2092 276.51H60.4592V282H59.4992ZM69.05 282V275H69.87L73.01 280.29H72.57L75.67 275H76.49L76.5 282H75.54L75.53 276.51H75.76L73 281.15H72.54L69.76 276.51H70.01V282H69.05Z" fill="#22C55E"/>
<path d="M14.928 242V234.644H12.048V233.6H18.996V234.644H16.116V242H14.928ZM19.3285 239.204V238.208H22.5565V239.204H19.3285ZM25.0193 242V234.08L25.5353 234.644H23.1233V233.6H26.2073V242H25.0193ZM29.4608 242V234.08L29.9768 234.644H27.5648V233.6H30.6488V242H29.4608Z" fill="#59595B"/>
<rect x="105" y="251" width="31" height="37" rx="5" fill="#F4F5F6"/>
<path d="M111.882 264.18V262.248L116.306 255.92H118.98V262.108H120.128V264.18H118.98V266H116.586V264.18H111.882ZM116.754 258.552L114.402 262.108H116.754V258.552ZM121.301 260.75C121.301 259.145 121.609 257.88 122.225 256.956C122.85 256.032 123.854 255.57 125.235 255.57C126.616 255.57 127.615 256.032 128.231 256.956C128.856 257.88 129.169 259.145 129.169 260.75C129.169 262.374 128.856 263.648 128.231 264.572C127.615 265.496 126.616 265.958 125.235 265.958C123.854 265.958 122.85 265.496 122.225 264.572C121.609 263.648 121.301 262.374 121.301 260.75ZM126.817 260.75C126.817 259.807 126.714 259.084 126.509 258.58C126.304 258.067 125.879 257.81 125.235 257.81C124.591 257.81 124.166 258.067 123.961 258.58C123.756 259.084 123.653 259.807 123.653 260.75C123.653 261.385 123.69 261.912 123.765 262.332C123.84 262.743 123.989 263.079 124.213 263.34C124.446 263.592 124.787 263.718 125.235 263.718C125.683 263.718 126.019 263.592 126.243 263.34C126.476 263.079 126.63 262.743 126.705 262.332C126.78 261.912 126.817 261.385 126.817 260.75Z" fill="#59595B"/>
<path d="M113.288 282V275H116.018C116.632 275 117.155 275.097 117.588 275.29C118.022 275.483 118.355 275.763 118.588 276.13C118.822 276.497 118.938 276.933 118.938 277.44C118.938 277.947 118.822 278.383 118.588 278.75C118.355 279.11 118.022 279.39 117.588 279.59C117.155 279.783 116.632 279.88 116.018 279.88H113.838L114.288 279.41V282H113.288ZM114.288 279.51L113.838 279.01H115.988C116.628 279.01 117.112 278.873 117.438 278.6C117.772 278.327 117.938 277.94 117.938 277.44C117.938 276.94 117.772 276.553 117.438 276.28C117.112 276.007 116.628 275.87 115.988 275.87H113.838L114.288 275.37V279.51ZM122.545 282.08C122.012 282.08 121.502 282 121.015 281.84C120.528 281.673 120.145 281.46 119.865 281.2L120.235 280.42C120.502 280.653 120.842 280.847 121.255 281C121.668 281.153 122.098 281.23 122.545 281.23C122.952 281.23 123.282 281.183 123.535 281.09C123.788 280.997 123.975 280.87 124.095 280.71C124.215 280.543 124.275 280.357 124.275 280.15C124.275 279.91 124.195 279.717 124.035 279.57C123.882 279.423 123.678 279.307 123.425 279.22C123.178 279.127 122.905 279.047 122.605 278.98C122.305 278.913 122.002 278.837 121.695 278.75C121.395 278.657 121.118 278.54 120.865 278.4C120.618 278.26 120.418 278.073 120.265 277.84C120.112 277.6 120.035 277.293 120.035 276.92C120.035 276.56 120.128 276.23 120.315 275.93C120.508 275.623 120.802 275.38 121.195 275.2C121.595 275.013 122.102 274.92 122.715 274.92C123.122 274.92 123.525 274.973 123.925 275.08C124.325 275.187 124.672 275.34 124.965 275.54L124.635 276.34C124.335 276.14 124.018 275.997 123.685 275.91C123.352 275.817 123.028 275.77 122.715 275.77C122.322 275.77 121.998 275.82 121.745 275.92C121.492 276.02 121.305 276.153 121.185 276.32C121.072 276.487 121.015 276.673 121.015 276.88C121.015 277.127 121.092 277.323 121.245 277.47C121.405 277.617 121.608 277.733 121.855 277.82C122.108 277.907 122.385 277.987 122.685 278.06C122.985 278.127 123.285 278.203 123.585 278.29C123.892 278.377 124.168 278.49 124.415 278.63C124.668 278.77 124.872 278.957 125.025 279.19C125.178 279.423 125.255 279.723 125.255 280.09C125.255 280.443 125.158 280.773 124.965 281.08C124.772 281.38 124.472 281.623 124.065 281.81C123.665 281.99 123.158 282.08 122.545 282.08ZM126.716 282V275H127.716V282H126.716Z" fill="#59595B"/>
<rect x="146" y="251" width="32" height="37" rx="5" fill="#DCFCE7"/>
<path d="M165.273 257.866H160.905V259.798C161.092 259.593 161.353 259.425 161.689 259.294C162.025 259.163 162.389 259.098 162.781 259.098C163.481 259.098 164.06 259.257 164.517 259.574C164.984 259.891 165.325 260.302 165.539 260.806C165.754 261.31 165.861 261.856 165.861 262.444C165.861 263.536 165.553 264.404 164.937 265.048C164.321 265.683 163.453 266 162.333 266C161.587 266 160.938 265.874 160.387 265.622C159.837 265.361 159.412 265.001 159.113 264.544C158.815 264.087 158.651 263.559 158.623 262.962H160.961C161.017 263.251 161.153 263.494 161.367 263.69C161.582 263.877 161.876 263.97 162.249 263.97C162.688 263.97 163.015 263.83 163.229 263.55C163.444 263.27 163.551 262.897 163.551 262.43C163.551 261.973 163.439 261.623 163.215 261.38C162.991 261.137 162.665 261.016 162.235 261.016C161.918 261.016 161.657 261.095 161.451 261.254C161.246 261.403 161.111 261.604 161.045 261.856H158.735V255.766H165.273V257.866Z" fill="#22C55E"/>
<path d="M153.499 282V275H154.319L157.459 280.29H157.019L160.119 275H160.939L160.949 282H159.989L159.979 276.51H160.209L157.449 281.15H156.989L154.209 276.51H154.459V282H153.499ZM163.05 282V275H163.87L167.01 280.29H166.57L169.67 275H170.49L170.5 282H169.54L169.53 276.51H169.76L167 281.15H166.54L163.76 276.51H164.01V282H163.05Z" fill="#22C55E"/>
<path d="M108.928 242V234.644H106.048V233.6H112.996V234.644H110.116V242H108.928ZM113.329 239.204V238.208H116.557V239.204H113.329ZM119.019 242V234.08L119.535 234.644H117.123V233.6H120.207V242H119.019ZM121.913 242V241.184L125.333 237.884C125.637 237.596 125.861 237.344 126.005 237.128C126.157 236.904 126.257 236.7 126.305 236.516C126.361 236.324 126.389 236.14 126.389 235.964C126.389 235.532 126.237 235.192 125.933 234.944C125.629 234.696 125.185 234.572 124.601 234.572C124.153 234.572 123.749 234.648 123.389 234.8C123.029 234.944 122.717 235.172 122.453 235.484L121.637 234.776C121.957 234.368 122.385 234.056 122.921 233.84C123.465 233.616 124.061 233.504 124.709 233.504C125.293 233.504 125.801 233.6 126.233 233.792C126.665 233.976 126.997 234.244 127.229 234.596C127.469 234.948 127.589 235.364 127.589 235.844C127.589 236.116 127.553 236.384 127.481 236.648C127.409 236.912 127.273 237.192 127.073 237.488C126.873 237.784 126.585 238.116 126.209 238.484L123.161 241.424L122.873 240.956H127.949V242H121.913Z" fill="#59595B"/>
<line x1="94.5" y1="68" x2="94.5" y2="374" stroke="#D9D9D9"/>
<line x1="190" y1="68.5" y2="68.5" stroke="#D9D9D9"/>
<line x1="190" y1="221.5" y2="221.5" stroke="#D9D9D9"/>
<line x1="190" y1="298.5" y2="298.5" stroke="#D9D9D9"/>
<rect x="11" y="327" width="31" height="37" rx="5" fill="#F4F5F6"/>
<path d="M17.8823 340.18V338.248L22.3063 331.92H24.9803V338.108H26.1283V340.18H24.9803V342H22.5863V340.18H17.8823ZM22.7543 334.552L20.4023 338.108H22.7543V334.552ZM27.3009 336.75C27.3009 335.145 27.6089 333.88 28.2249 332.956C28.8502 332.032 29.8536 331.57 31.2349 331.57C32.6162 331.57 33.6149 332.032 34.2309 332.956C34.8562 333.88 35.1689 335.145 35.1689 336.75C35.1689 338.374 34.8562 339.648 34.2309 340.572C33.6149 341.496 32.6162 341.958 31.2349 341.958C29.8536 341.958 28.8502 341.496 28.2249 340.572C27.6089 339.648 27.3009 338.374 27.3009 336.75ZM32.8169 336.75C32.8169 335.807 32.7142 335.084 32.5089 334.58C32.3036 334.067 31.8789 333.81 31.2349 333.81C30.5909 333.81 30.1662 334.067 29.9609 334.58C29.7556 335.084 29.6529 335.807 29.6529 336.75C29.6529 337.385 29.6902 337.912 29.7649 338.332C29.8396 338.743 29.9889 339.079 30.2129 339.34C30.4462 339.592 30.7869 339.718 31.2349 339.718C31.6829 339.718 32.0189 339.592 32.2429 339.34C32.4762 339.079 32.6302 338.743 32.7049 338.332C32.7796 337.912 32.8169 337.385 32.8169 336.75Z" fill="#59595B"/>
<path d="M19.2883 358V351H22.0183C22.6316 351 23.1549 351.097 23.5883 351.29C24.0216 351.483 24.3549 351.763 24.5883 352.13C24.8216 352.497 24.9383 352.933 24.9383 353.44C24.9383 353.947 24.8216 354.383 24.5883 354.75C24.3549 355.11 24.0216 355.39 23.5883 355.59C23.1549 355.783 22.6316 355.88 22.0183 355.88H19.8383L20.2883 355.41V358H19.2883ZM20.2883 355.51L19.8383 355.01H21.9883C22.6283 355.01 23.1116 354.873 23.4383 354.6C23.7716 354.327 23.9383 353.94 23.9383 353.44C23.9383 352.94 23.7716 352.553 23.4383 352.28C23.1116 352.007 22.6283 351.87 21.9883 351.87H19.8383L20.2883 351.37V355.51ZM28.5451 358.08C28.0117 358.08 27.5017 358 27.0151 357.84C26.5284 357.673 26.1451 357.46 25.8651 357.2L26.2351 356.42C26.5017 356.653 26.8417 356.847 27.2551 357C27.6684 357.153 28.0984 357.23 28.5451 357.23C28.9517 357.23 29.2817 357.183 29.5351 357.09C29.7884 356.997 29.9751 356.87 30.0951 356.71C30.2151 356.543 30.2751 356.357 30.2751 356.15C30.2751 355.91 30.1951 355.717 30.0351 355.57C29.8817 355.423 29.6784 355.307 29.4251 355.22C29.1784 355.127 28.9051 355.047 28.6051 354.98C28.3051 354.913 28.0017 354.837 27.6951 354.75C27.3951 354.657 27.1184 354.54 26.8651 354.4C26.6184 354.26 26.4184 354.073 26.2651 353.84C26.1117 353.6 26.0351 353.293 26.0351 352.92C26.0351 352.56 26.1284 352.23 26.3151 351.93C26.5084 351.623 26.8017 351.38 27.1951 351.2C27.5951 351.013 28.1017 350.92 28.7151 350.92C29.1217 350.92 29.5251 350.973 29.9251 351.08C30.3251 351.187 30.6717 351.34 30.9651 351.54L30.6351 352.34C30.3351 352.14 30.0184 351.997 29.6851 351.91C29.3517 351.817 29.0284 351.77 28.7151 351.77C28.3217 351.77 27.9984 351.82 27.7451 351.92C27.4917 352.02 27.3051 352.153 27.1851 352.32C27.0717 352.487 27.0151 352.673 27.0151 352.88C27.0151 353.127 27.0917 353.323 27.2451 353.47C27.4051 353.617 27.6084 353.733 27.8551 353.82C28.1084 353.907 28.3851 353.987 28.6851 354.06C28.9851 354.127 29.2851 354.203 29.5851 354.29C29.8917 354.377 30.1684 354.49 30.4151 354.63C30.6684 354.77 30.8717 354.957 31.0251 355.19C31.1784 355.423 31.2551 355.723 31.2551 356.09C31.2551 356.443 31.1584 356.773 30.9651 357.08C30.7717 357.38 30.4717 357.623 30.0651 357.81C29.6651 357.99 29.1584 358.08 28.5451 358.08ZM32.716 358V351H33.716V358H32.716Z" fill="#59595B"/>
<rect x="52" y="327" width="32" height="37" rx="5" fill="#DCFCE7"/>
<path d="M64.4757 334.664C64.5131 333.665 64.8397 332.895 65.4557 332.354C66.0717 331.813 66.9071 331.542 67.9617 331.542C68.6617 331.542 69.2591 331.663 69.7537 331.906C70.2577 332.149 70.6357 332.48 70.8877 332.9C71.1491 333.32 71.2797 333.791 71.2797 334.314C71.2797 334.93 71.1257 335.434 70.8177 335.826C70.5097 336.209 70.1504 336.47 69.7397 336.61V336.666C70.2717 336.843 70.6917 337.137 70.9997 337.548C71.3077 337.959 71.4617 338.486 71.4617 339.13C71.4617 339.709 71.3264 340.222 71.0557 340.67C70.7944 341.109 70.4071 341.454 69.8937 341.706C69.3897 341.958 68.7877 342.084 68.0877 342.084C66.9677 342.084 66.0717 341.809 65.3997 341.258C64.7371 340.707 64.3871 339.877 64.3497 338.766H66.6737C66.6831 339.177 66.7997 339.503 67.0237 339.746C67.2477 339.979 67.5744 340.096 68.0037 340.096C68.3677 340.096 68.6477 339.993 68.8437 339.788C69.0491 339.573 69.1517 339.293 69.1517 338.948C69.1517 338.5 69.0071 338.178 68.7177 337.982C68.4377 337.777 67.9851 337.674 67.3597 337.674H66.9117V335.728H67.3597C67.8357 335.728 68.2184 335.649 68.5077 335.49C68.8064 335.322 68.9557 335.028 68.9557 334.608C68.9557 334.272 68.8624 334.011 68.6757 333.824C68.4891 333.637 68.2324 333.544 67.9057 333.544C67.5511 333.544 67.2851 333.651 67.1077 333.866C66.9397 334.081 66.8417 334.347 66.8137 334.664H64.4757Z" fill="#22C55E"/>
<path d="M59.4992 358V351H60.3192L63.4592 356.29H63.0192L66.1192 351H66.9392L66.9492 358H65.9892L65.9792 352.51H66.2092L63.4492 357.15H62.9892L60.2092 352.51H60.4592V358H59.4992ZM69.05 358V351H69.87L73.01 356.29H72.57L75.67 351H76.49L76.5 358H75.54L75.53 352.51H75.76L73 357.15H72.54L69.76 352.51H70.01V358H69.05Z" fill="#22C55E"/>
<path d="M14.928 318V310.644H12.048V309.6H18.996V310.644H16.116V318H14.928ZM19.3285 315.204V314.208H22.5565V315.204H19.3285ZM25.0193 318V310.08L25.5353 310.644H23.1233V309.6H26.2073V318H25.0193ZM30.7568 318.096C30.1648 318.096 29.5888 318.004 29.0288 317.82C28.4768 317.636 28.0248 317.388 27.6728 317.076L28.2248 316.128C28.5048 316.392 28.8688 316.608 29.3168 316.776C29.7648 316.944 30.2408 317.028 30.7448 317.028C31.3848 317.028 31.8768 316.892 32.2208 316.62C32.5648 316.348 32.7368 315.984 32.7368 315.528C32.7368 315.216 32.6608 314.944 32.5088 314.712C32.3568 314.48 32.0928 314.304 31.7168 314.184C31.3488 314.056 30.8408 313.992 30.1928 313.992H28.2848L28.7288 309.6H33.4688V310.644H29.1728L29.7968 310.056L29.4488 313.524L28.8248 312.948H30.4448C31.2848 312.948 31.9608 313.056 32.4728 313.272C32.9848 313.488 33.3568 313.788 33.5888 314.172C33.8208 314.548 33.9368 314.984 33.9368 315.48C33.9368 315.96 33.8208 316.4 33.5888 316.8C33.3568 317.192 33.0048 317.508 32.5328 317.748C32.0688 317.98 31.4768 318.096 30.7568 318.096Z" fill="#59595B"/>
<rect x="105" y="327" width="31" height="37" rx="5" fill="#F4F5F6"/>
<path d="M111.882 340.18V338.248L116.306 331.92H118.98V338.108H120.128V340.18H118.98V342H116.586V340.18H111.882ZM116.754 334.552L114.402 338.108H116.754V334.552ZM121.301 336.75C121.301 335.145 121.609 333.88 122.225 332.956C122.85 332.032 123.854 331.57 125.235 331.57C126.616 331.57 127.615 332.032 128.231 332.956C128.856 333.88 129.169 335.145 129.169 336.75C129.169 338.374 128.856 339.648 128.231 340.572C127.615 341.496 126.616 341.958 125.235 341.958C123.854 341.958 122.85 341.496 122.225 340.572C121.609 339.648 121.301 338.374 121.301 336.75ZM126.817 336.75C126.817 335.807 126.714 335.084 126.509 334.58C126.304 334.067 125.879 333.81 125.235 333.81C124.591 333.81 124.166 334.067 123.961 334.58C123.756 335.084 123.653 335.807 123.653 336.75C123.653 337.385 123.69 337.912 123.765 338.332C123.84 338.743 123.989 339.079 124.213 339.34C124.446 339.592 124.787 339.718 125.235 339.718C125.683 339.718 126.019 339.592 126.243 339.34C126.476 339.079 126.63 338.743 126.705 338.332C126.78 337.912 126.817 337.385 126.817 336.75Z" fill="#59595B"/>
<path d="M113.288 358V351H116.018C116.632 351 117.155 351.097 117.588 351.29C118.022 351.483 118.355 351.763 118.588 352.13C118.822 352.497 118.938 352.933 118.938 353.44C118.938 353.947 118.822 354.383 118.588 354.75C118.355 355.11 118.022 355.39 117.588 355.59C117.155 355.783 116.632 355.88 116.018 355.88H113.838L114.288 355.41V358H113.288ZM114.288 355.51L113.838 355.01H115.988C116.628 355.01 117.112 354.873 117.438 354.6C117.772 354.327 117.938 353.94 117.938 353.44C117.938 352.94 117.772 352.553 117.438 352.28C117.112 352.007 116.628 351.87 115.988 351.87H113.838L114.288 351.37V355.51ZM122.545 358.08C122.012 358.08 121.502 358 121.015 357.84C120.528 357.673 120.145 357.46 119.865 357.2L120.235 356.42C120.502 356.653 120.842 356.847 121.255 357C121.668 357.153 122.098 357.23 122.545 357.23C122.952 357.23 123.282 357.183 123.535 357.09C123.788 356.997 123.975 356.87 124.095 356.71C124.215 356.543 124.275 356.357 124.275 356.15C124.275 355.91 124.195 355.717 124.035 355.57C123.882 355.423 123.678 355.307 123.425 355.22C123.178 355.127 122.905 355.047 122.605 354.98C122.305 354.913 122.002 354.837 121.695 354.75C121.395 354.657 121.118 354.54 120.865 354.4C120.618 354.26 120.418 354.073 120.265 353.84C120.112 353.6 120.035 353.293 120.035 352.92C120.035 352.56 120.128 352.23 120.315 351.93C120.508 351.623 120.802 351.38 121.195 351.2C121.595 351.013 122.102 350.92 122.715 350.92C123.122 350.92 123.525 350.973 123.925 351.08C124.325 351.187 124.672 351.34 124.965 351.54L124.635 352.34C124.335 352.14 124.018 351.997 123.685 351.91C123.352 351.817 123.028 351.77 122.715 351.77C122.322 351.77 121.998 351.82 121.745 351.92C121.492 352.02 121.305 352.153 121.185 352.32C121.072 352.487 121.015 352.673 121.015 352.88C121.015 353.127 121.092 353.323 121.245 353.47C121.405 353.617 121.608 353.733 121.855 353.82C122.108 353.907 122.385 353.987 122.685 354.06C122.985 354.127 123.285 354.203 123.585 354.29C123.892 354.377 124.168 354.49 124.415 354.63C124.668 354.77 124.872 354.957 125.025 355.19C125.178 355.423 125.255 355.723 125.255 356.09C125.255 356.443 125.158 356.773 124.965 357.08C124.772 357.38 124.472 357.623 124.065 357.81C123.665 357.99 123.158 358.08 122.545 358.08ZM126.716 358V351H127.716V358H126.716Z" fill="#59595B"/>
<rect x="146" y="327" width="32" height="37" rx="5" fill="#DCFCE7"/>
<path d="M158.476 334.664C158.513 333.665 158.84 332.895 159.456 332.354C160.072 331.813 160.907 331.542 161.962 331.542C162.662 331.542 163.259 331.663 163.754 331.906C164.258 332.149 164.636 332.48 164.888 332.9C165.149 333.32 165.28 333.791 165.28 334.314C165.28 334.93 165.126 335.434 164.818 335.826C164.51 336.209 164.15 336.47 163.74 336.61V336.666C164.272 336.843 164.692 337.137 165 337.548C165.308 337.959 165.462 338.486 165.462 339.13C165.462 339.709 165.326 340.222 165.056 340.67C164.794 341.109 164.407 341.454 163.894 341.706C163.39 341.958 162.788 342.084 162.088 342.084C160.968 342.084 160.072 341.809 159.4 341.258C158.737 340.707 158.387 339.877 158.35 338.766H160.674C160.683 339.177 160.8 339.503 161.024 339.746C161.248 339.979 161.574 340.096 162.004 340.096C162.368 340.096 162.648 339.993 162.844 339.788C163.049 339.573 163.152 339.293 163.152 338.948C163.152 338.5 163.007 338.178 162.718 337.982C162.438 337.777 161.985 337.674 161.36 337.674H160.912V335.728H161.36C161.836 335.728 162.218 335.649 162.508 335.49C162.806 335.322 162.956 335.028 162.956 334.608C162.956 334.272 162.862 334.011 162.676 333.824C162.489 333.637 162.232 333.544 161.906 333.544C161.551 333.544 161.285 333.651 161.108 333.866C160.94 334.081 160.842 334.347 160.814 334.664H158.476Z" fill="#22C55E"/>
<path d="M153.499 358V351H154.319L157.459 356.29H157.019L160.119 351H160.939L160.949 358H159.989L159.979 352.51H160.209L157.449 357.15H156.989L154.209 352.51H154.459V358H153.499ZM163.05 358V351H163.87L167.01 356.29H166.57L169.67 351H170.49L170.5 358H169.54L169.53 352.51H169.76L167 357.15H166.54L163.76 352.51H164.01V358H163.05Z" fill="#22C55E"/>
<path d="M108.928 318V310.644H106.048V309.6H112.996V310.644H110.116V318H108.928ZM113.329 315.204V314.208H116.557V315.204H113.329ZM119.019 318V310.08L119.535 310.644H117.123V309.6H120.207V318H119.019ZM125.573 318.096C124.829 318.096 124.193 317.932 123.665 317.604C123.137 317.276 122.733 316.804 122.453 316.188C122.181 315.564 122.045 314.804 122.045 313.908C122.045 312.956 122.213 312.152 122.549 311.496C122.885 310.84 123.353 310.344 123.953 310.008C124.553 309.672 125.241 309.504 126.017 309.504C126.417 309.504 126.797 309.544 127.157 309.624C127.525 309.704 127.841 309.828 128.105 309.996L127.649 310.932C127.433 310.78 127.185 310.676 126.905 310.62C126.633 310.564 126.345 310.536 126.041 310.536C125.185 310.536 124.505 310.804 124.001 311.34C123.497 311.868 123.245 312.656 123.245 313.704C123.245 313.872 123.253 314.072 123.269 314.304C123.285 314.536 123.325 314.764 123.389 314.988L122.981 314.58C123.101 314.212 123.289 313.904 123.545 313.656C123.809 313.4 124.121 313.212 124.481 313.092C124.849 312.964 125.245 312.9 125.669 312.9C126.229 312.9 126.725 313.004 127.157 313.212C127.589 313.42 127.929 313.716 128.177 314.1C128.425 314.476 128.549 314.924 128.549 315.444C128.549 315.98 128.417 316.448 128.153 316.848C127.889 317.248 127.533 317.556 127.085 317.772C126.637 317.988 126.133 318.096 125.573 318.096ZM125.525 317.124C125.893 317.124 126.213 317.056 126.485 316.92C126.765 316.784 126.985 316.596 127.145 316.356C127.305 316.108 127.385 315.82 127.385 315.492C127.385 314.996 127.213 314.604 126.869 314.316C126.525 314.02 126.057 313.872 125.465 313.872C125.081 313.872 124.745 313.944 124.457 314.088C124.169 314.232 123.941 314.428 123.773 314.676C123.613 314.916 123.533 315.192 123.533 315.504C123.533 315.792 123.609 316.06 123.761 316.308C123.913 316.548 124.137 316.744 124.433 316.896C124.729 317.048 125.093 317.124 125.525 317.124Z" fill="#59595B"/>
<line x1="190" y1="374.5" y2="374.5" stroke="#D9D9D9"/>
<line x1="190" y1="145.5" y2="145.5" stroke="#D9D9D9"/>
</svg>
