<svg width="55" height="40" viewBox="0 0 55 40" fill="none" xmlns="http://www.w3.org/2000/svg">
<rect width="55" height="40" rx="5" fill="#F4F5F6"/>
<path d="M24.9242 8.864V6.32H29.3562V18H26.5082V8.864H24.9242Z" fill="#454547"/>
<path d="M7.1291 34V27H9.8591C10.4724 27 10.9958 27.0967 11.4291 27.29C11.8624 27.4833 12.1958 27.7633 12.4291 28.13C12.6624 28.4967 12.7791 28.9333 12.7791 29.44C12.7791 29.9467 12.6624 30.3833 12.4291 30.75C12.1958 31.11 11.8624 31.39 11.4291 31.59C10.9958 31.7833 10.4724 31.88 9.8591 31.88H7.6791L8.1291 31.41V34H7.1291ZM8.1291 31.51L7.6791 31.01H9.8291C10.4691 31.01 10.9524 30.8733 11.2791 30.6C11.6124 30.3267 11.7791 29.94 11.7791 29.44C11.7791 28.94 11.6124 28.5533 11.2791 28.28C10.9524 28.0067 10.4691 27.87 9.8291 27.87H7.6791L8.1291 27.37V31.51ZM16.3587 34.06C15.8254 34.06 15.352 33.9433 14.9387 33.71C14.5254 33.4767 14.1987 33.1567 13.9587 32.75C13.7187 32.3367 13.5987 31.87 13.5987 31.35C13.5987 30.8233 13.7187 30.3567 13.9587 29.95C14.1987 29.5433 14.5254 29.2267 14.9387 29C15.352 28.7667 15.8254 28.65 16.3587 28.65C16.8854 28.65 17.3554 28.7667 17.7687 29C18.1887 29.2267 18.5154 29.5433 18.7487 29.95C18.9887 30.35 19.1087 30.8167 19.1087 31.35C19.1087 31.8767 18.9887 32.3433 18.7487 32.75C18.5154 33.1567 18.1887 33.4767 17.7687 33.71C17.3554 33.9433 16.8854 34.06 16.3587 34.06ZM16.3587 33.22C16.6987 33.22 17.002 33.1433 17.2687 32.99C17.542 32.8367 17.7554 32.62 17.9087 32.34C18.062 32.0533 18.1387 31.7233 18.1387 31.35C18.1387 30.97 18.062 30.6433 17.9087 30.37C17.7554 30.09 17.542 29.8733 17.2687 29.72C17.002 29.5667 16.6987 29.49 16.3587 29.49C16.0187 29.49 15.7154 29.5667 15.4487 29.72C15.182 29.8733 14.9687 30.09 14.8087 30.37C14.6487 30.6433 14.5687 30.97 14.5687 31.35C14.5687 31.7233 14.6487 32.0533 14.8087 32.34C14.9687 32.62 15.182 32.8367 15.4487 32.99C15.7154 33.1433 16.0187 33.22 16.3587 33.22ZM21.9564 34.06C21.5164 34.06 21.0964 34 20.6964 33.88C20.303 33.76 19.993 33.6133 19.7664 33.44L20.1664 32.68C20.393 32.8333 20.673 32.9633 21.0064 33.07C21.3397 33.1767 21.6797 33.23 22.0264 33.23C22.473 33.23 22.793 33.1667 22.9864 33.04C23.1864 32.9133 23.2864 32.7367 23.2864 32.51C23.2864 32.3433 23.2264 32.2133 23.1064 32.12C22.9864 32.0267 22.8264 31.9567 22.6264 31.91C22.433 31.8633 22.2164 31.8233 21.9764 31.79C21.7364 31.75 21.4964 31.7033 21.2564 31.65C21.0164 31.59 20.7964 31.51 20.5964 31.41C20.3964 31.3033 20.2364 31.16 20.1164 30.98C19.9964 30.7933 19.9364 30.5467 19.9364 30.24C19.9364 29.92 20.0264 29.64 20.2064 29.4C20.3864 29.16 20.6397 28.9767 20.9664 28.85C21.2997 28.7167 21.693 28.65 22.1464 28.65C22.493 28.65 22.843 28.6933 23.1964 28.78C23.5564 28.86 23.8497 28.9767 24.0764 29.13L23.6664 29.89C23.4264 29.73 23.1764 29.62 22.9164 29.56C22.6564 29.5 22.3964 29.47 22.1364 29.47C21.7164 29.47 21.403 29.54 21.1964 29.68C20.9897 29.8133 20.8864 29.9867 20.8864 30.2C20.8864 30.38 20.9464 30.52 21.0664 30.62C21.193 30.7133 21.353 30.7867 21.5464 30.84C21.7464 30.8933 21.9664 30.94 22.2064 30.98C22.4464 31.0133 22.6864 31.06 22.9264 31.12C23.1664 31.1733 23.383 31.25 23.5764 31.35C23.7764 31.45 23.9364 31.59 24.0564 31.77C24.183 31.95 24.2464 32.19 24.2464 32.49C24.2464 32.81 24.153 33.0867 23.9664 33.32C23.7797 33.5533 23.5164 33.7367 23.1764 33.87C22.8364 33.9967 22.4297 34.06 21.9564 34.06ZM25.4461 34V28.7H26.4061V34H25.4461ZM25.9261 27.68C25.7395 27.68 25.5828 27.62 25.4561 27.5C25.3361 27.38 25.2761 27.2333 25.2761 27.06C25.2761 26.88 25.3361 26.73 25.4561 26.61C25.5828 26.49 25.7395 26.43 25.9261 26.43C26.1128 26.43 26.2661 26.49 26.3861 26.61C26.5128 26.7233 26.5761 26.8667 26.5761 27.04C26.5761 27.22 26.5161 27.3733 26.3961 27.5C26.2761 27.62 26.1195 27.68 25.9261 27.68ZM30.5491 34.06C30.0091 34.06 29.5258 33.9433 29.0991 33.71C28.6791 33.4767 28.3491 33.1567 28.1091 32.75C27.8691 32.3433 27.7491 31.8767 27.7491 31.35C27.7491 30.8233 27.8691 30.3567 28.1091 29.95C28.3491 29.5433 28.6791 29.2267 29.0991 29C29.5258 28.7667 30.0091 28.65 30.5491 28.65C31.0291 28.65 31.4558 28.7467 31.8291 28.94C32.2091 29.1267 32.5024 29.4067 32.7091 29.78L31.9791 30.25C31.8058 29.99 31.5924 29.8 31.3391 29.68C31.0924 29.5533 30.8258 29.49 30.5391 29.49C30.1924 29.49 29.8824 29.5667 29.6091 29.72C29.3358 29.8733 29.1191 30.09 28.9591 30.37C28.7991 30.6433 28.7191 30.97 28.7191 31.35C28.7191 31.73 28.7991 32.06 28.9591 32.34C29.1191 32.62 29.3358 32.8367 29.6091 32.99C29.8824 33.1433 30.1924 33.22 30.5391 33.22C30.8258 33.22 31.0924 33.16 31.3391 33.04C31.5924 32.9133 31.8058 32.72 31.9791 32.46L32.7091 32.92C32.5024 33.2867 32.2091 33.57 31.8291 33.77C31.4558 33.9633 31.0291 34.06 30.5491 34.06ZM33.8836 34V28.7H34.8436V34H33.8836ZM34.3636 27.68C34.177 27.68 34.0203 27.62 33.8936 27.5C33.7736 27.38 33.7136 27.2333 33.7136 27.06C33.7136 26.88 33.7736 26.73 33.8936 26.61C34.0203 26.49 34.177 26.43 34.3636 26.43C34.5503 26.43 34.7036 26.49 34.8236 26.61C34.9503 26.7233 35.0136 26.8667 35.0136 27.04C35.0136 27.22 34.9536 27.3733 34.8336 27.5C34.7136 27.62 34.557 27.68 34.3636 27.68ZM38.9466 34.06C38.4133 34.06 37.9399 33.9433 37.5266 33.71C37.1133 33.4767 36.7866 33.1567 36.5466 32.75C36.3066 32.3367 36.1866 31.87 36.1866 31.35C36.1866 30.8233 36.3066 30.3567 36.5466 29.95C36.7866 29.5433 37.1133 29.2267 37.5266 29C37.9399 28.7667 38.4133 28.65 38.9466 28.65C39.4733 28.65 39.9433 28.7667 40.3566 29C40.7766 29.2267 41.1033 29.5433 41.3366 29.95C41.5766 30.35 41.6966 30.8167 41.6966 31.35C41.6966 31.8767 41.5766 32.3433 41.3366 32.75C41.1033 33.1567 40.7766 33.4767 40.3566 33.71C39.9433 33.9433 39.4733 34.06 38.9466 34.06ZM38.9466 33.22C39.2866 33.22 39.5899 33.1433 39.8566 32.99C40.1299 32.8367 40.3433 32.62 40.4966 32.34C40.6499 32.0533 40.7266 31.7233 40.7266 31.35C40.7266 30.97 40.6499 30.6433 40.4966 30.37C40.3433 30.09 40.1299 29.8733 39.8566 29.72C39.5899 29.5667 39.2866 29.49 38.9466 29.49C38.6066 29.49 38.3033 29.5667 38.0366 29.72C37.7699 29.8733 37.5566 30.09 37.3966 30.37C37.2366 30.6433 37.1566 30.97 37.1566 31.35C37.1566 31.7233 37.2366 32.0533 37.3966 32.34C37.5566 32.62 37.7699 32.8367 38.0366 32.99C38.3033 33.1433 38.6066 33.22 38.9466 33.22ZM38.1866 27.93L39.5466 26.63H40.7666L39.0866 27.93H38.1866ZM45.8543 28.65C46.2876 28.65 46.6676 28.7333 46.9943 28.9C47.3276 29.0667 47.5876 29.32 47.7743 29.66C47.9609 30 48.0543 30.43 48.0543 30.95V34H47.0943V31.06C47.0943 30.5467 46.9676 30.16 46.7143 29.9C46.4676 29.64 46.1176 29.51 45.6643 29.51C45.3243 29.51 45.0276 29.5767 44.7743 29.71C44.5209 29.8433 44.3243 30.04 44.1843 30.3C44.0509 30.56 43.9843 30.8833 43.9843 31.27V34H43.0243V28.7H43.9443V30.13L43.7943 29.75C43.9676 29.4033 44.2343 29.1333 44.5943 28.94C44.9543 28.7467 45.3743 28.65 45.8543 28.65Z" fill="#83838B"/>
</svg>
