<svg width="87" height="17" viewBox="0 0 87 17" fill="none" xmlns="http://www.w3.org/2000/svg">
<rect width="87.0002" height="17" rx="8.5" fill="#DCFCE7"/>
<path d="M6.18332 8.72268C6.18544 8.74627 6.18952 8.76915 6.19254 8.79274C6.19821 8.83832 6.20495 8.88391 6.21329 8.92914C6.21843 8.95663 6.22411 8.98377 6.23014 9.0109C6.2399 9.05436 6.25125 9.0971 6.26349 9.14003C6.27005 9.16291 6.27572 9.18579 6.28282 9.20831C6.30215 9.2688 6.32397 9.32857 6.34844 9.38728C6.35731 9.40874 6.36742 9.42949 6.37682 9.4506C6.39562 9.49246 6.41531 9.53378 6.4366 9.57476C6.44759 9.59586 6.45877 9.61697 6.47065 9.63754C6.49726 9.68508 6.52564 9.73155 6.55579 9.77731C6.56217 9.78707 6.56803 9.79718 6.57459 9.80675C6.57796 9.81172 6.5808 9.81704 6.58417 9.82236C6.58754 9.82768 6.58949 9.8275 6.59197 9.83034C6.89155 10.2598 7.32698 10.5762 7.82805 10.7287C7.83035 10.7287 7.83248 10.7312 7.83479 10.7319C7.89527 10.75 7.95699 10.7649 8.01907 10.7784C8.03468 10.7816 8.05011 10.7841 8.06554 10.7869C8.11733 10.7965 8.16948 10.8046 8.22216 10.8108C8.2461 10.8138 8.27005 10.8165 8.29417 10.8186C8.35164 10.8236 8.40928 10.8264 8.4671 10.8273C8.4781 10.8273 8.48856 10.8291 8.49974 10.8291C8.51091 10.8291 8.5212 10.8275 8.53238 10.8273C8.59002 10.8266 8.64766 10.8238 8.70531 10.8186C8.72943 10.8165 8.75338 10.8138 8.77732 10.8108C8.82982 10.8046 8.88214 10.7966 8.93394 10.7869C8.94954 10.7839 8.96497 10.7816 8.98041 10.7784C9.04248 10.7654 9.10456 10.7505 9.16469 10.7319C9.167 10.7319 9.16913 10.7294 9.17143 10.7287H9.17161C9.67267 10.5764 10.1079 10.2599 10.4075 9.83034C10.4098 9.82733 10.4132 9.82555 10.4153 9.82236C10.4174 9.81917 10.4215 9.81207 10.4249 9.80675C10.4315 9.79718 10.4373 9.78707 10.4437 9.77731C10.4738 9.73155 10.5022 9.68508 10.5288 9.63754C10.5405 9.61697 10.5519 9.59569 10.5629 9.57476C10.5842 9.53414 10.6039 9.49263 10.6227 9.4506C10.6322 9.42949 10.6422 9.40874 10.651 9.38728C10.6753 9.32839 10.6973 9.2688 10.7167 9.20831C10.7238 9.18579 10.7296 9.16291 10.736 9.14003C10.7482 9.09728 10.7596 9.05436 10.7693 9.0109C10.7754 8.98377 10.781 8.95663 10.7862 8.92914C10.7945 8.88391 10.8018 8.83832 10.8069 8.79274C10.81 8.76933 10.8139 8.74627 10.8162 8.72268C10.8215 8.66716 10.8247 8.61112 10.8259 8.55489C10.8259 8.55276 10.8256 8.55046 10.825 8.54833C10.825 8.53272 10.8275 8.51729 10.8275 8.50026C10.8275 7.996 10.6626 7.5054 10.3578 7.10349C10.355 7.09764 10.352 7.09178 10.3486 7.08628C10.336 7.06961 10.322 7.05454 10.3091 7.03839C10.2995 7.02651 10.2897 7.01481 10.28 7.00292C10.2401 6.95556 10.1986 6.9098 10.1558 6.86599C10.1509 6.86103 10.1462 6.85571 10.1413 6.85038C10.0906 6.79984 10.0377 6.75177 9.98271 6.70618L9.96976 6.69607C9.92152 6.6567 9.8715 6.61963 9.82024 6.58416C9.80605 6.5744 9.79169 6.56482 9.7775 6.55524C9.73316 6.52616 9.68757 6.49849 9.6411 6.47241C9.62549 6.46372 9.61113 6.45468 9.5957 6.44634C9.53947 6.41637 9.482 6.38834 9.42312 6.36316C9.3974 6.3518 9.37062 6.34258 9.34436 6.33212C9.3206 6.32289 9.29789 6.31278 9.27306 6.30427C9.26987 6.30321 9.26686 6.30427 9.26384 6.30267C8.76969 6.12761 8.23049 6.12761 7.73635 6.30267C7.73316 6.30356 7.73014 6.30267 7.72713 6.30427C7.703 6.31278 7.67959 6.32307 7.65582 6.33212C7.62957 6.34258 7.60297 6.3518 7.57707 6.36316C7.51819 6.38852 7.46072 6.41637 7.40449 6.44634C7.38888 6.45468 7.37345 6.46372 7.35909 6.47241C7.31262 6.49849 7.26703 6.52616 7.22269 6.55524C7.20832 6.56482 7.19396 6.5744 7.17995 6.58416C7.12869 6.61963 7.07867 6.6567 7.03042 6.69607L7.01748 6.70618C6.96249 6.75159 6.90964 6.79966 6.85891 6.85038C6.85394 6.85535 6.84933 6.86067 6.84437 6.86599C6.80126 6.90998 6.75976 6.95556 6.72021 7.00292C6.71045 7.01463 6.70087 7.02633 6.69112 7.03839C6.67817 7.054 6.66416 7.06943 6.65157 7.08628C6.6482 7.09178 6.645 7.09764 6.64234 7.10349C6.3378 7.5054 6.17303 7.996 6.17303 8.50026C6.17303 8.51658 6.17516 8.53219 6.17551 8.54833C6.17498 8.55046 6.1748 8.55276 6.17462 8.55489C6.17587 8.61112 6.17906 8.66716 6.18438 8.72268H6.18332ZM6.77945 7.45202L6.86742 7.57298C6.89474 7.61165 6.92595 7.6473 6.96054 7.6794C7.08559 7.79948 7.2477 7.8738 7.42046 7.89012C7.33798 8.03467 7.28548 8.1943 7.26597 8.35961C7.1482 8.28937 7.01375 8.25195 6.87665 8.25106C6.84241 8.25106 6.80836 8.25337 6.77448 8.25798C6.72712 8.26436 6.68048 8.27465 6.63472 8.28902L6.4891 8.33549C6.51499 8.02225 6.6145 7.71949 6.77927 7.45202H6.77945ZM7.01216 7.14286C7.04319 7.10934 7.07423 7.07671 7.10634 7.04531C7.1278 7.02456 7.15033 7.00452 7.17285 6.98465C7.20566 6.95592 7.23936 6.92843 7.27377 6.902C7.29648 6.88462 7.319 6.86723 7.34259 6.85074C7.3848 6.82112 7.42861 6.79345 7.47313 6.7672C7.48981 6.75727 7.50577 6.74662 7.5228 6.73705C7.58771 6.70086 7.65476 6.66823 7.72322 6.63949L7.87434 6.84772C7.89066 6.87007 7.90503 6.89384 7.91709 6.91885C7.96356 7.01711 7.97455 7.12832 7.94795 7.23368C7.92134 7.33903 7.85873 7.4318 7.77111 7.49618C7.68278 7.56021 7.57477 7.59125 7.46586 7.58362C7.35696 7.576 7.25426 7.53041 7.17569 7.4545C7.15511 7.4357 7.13649 7.41495 7.12017 7.39242L6.97118 7.18756C6.98378 7.17266 6.99779 7.15794 7.01145 7.14304H7.01198L7.01216 7.14286ZM9.08186 6.91991C9.09445 6.89384 9.10953 6.86883 9.12673 6.8456L9.27697 6.63914C9.34561 6.66787 9.41247 6.70051 9.47739 6.73669C9.49442 6.74627 9.51038 6.75691 9.52705 6.76684C9.57157 6.79327 9.61538 6.82094 9.6576 6.85038C9.68101 6.86706 9.70407 6.88444 9.72642 6.90164C9.76082 6.92825 9.79452 6.95574 9.82734 6.9843C9.85004 7.00416 9.87239 7.02421 9.89385 7.04496C9.92649 7.076 9.95753 7.10899 9.98803 7.14251C10.0017 7.15812 10.0157 7.17213 10.0288 7.18738L9.87824 7.39437C9.86192 7.41654 9.84348 7.43712 9.8229 7.45556C9.71701 7.55542 9.57051 7.59994 9.42684 7.576C9.28317 7.55205 9.15919 7.4623 9.09144 7.33353C9.02368 7.20459 9.02014 7.05152 9.08168 6.91956L9.08186 6.91991ZM10.5097 8.33602L10.3614 8.28813C10.3176 8.27412 10.2727 8.26418 10.2271 8.25798C10.0558 8.23456 9.88179 8.27057 9.73369 8.35979C9.71418 8.19448 9.66185 8.03485 9.57938 7.89012C9.75142 7.87398 9.91283 7.80001 10.0377 7.68064C10.0721 7.64854 10.1033 7.61324 10.1308 7.57511L10.2204 7.45184C10.3848 7.71984 10.4836 8.02279 10.509 8.33602H10.5095H10.5097ZM10.5097 8.67426C10.4971 8.82467 10.4675 8.97312 10.4213 9.11679C10.4181 9.12637 10.4142 9.13559 10.4109 9.14517C10.3907 9.20477 10.3678 9.2633 10.3422 9.32094C10.3337 9.3401 10.3241 9.35854 10.3149 9.37735C10.2922 9.42417 10.2677 9.47029 10.2415 9.51551C10.2349 9.52669 10.228 9.53769 10.2213 9.54886L9.98253 9.47117C9.95469 9.4623 9.92773 9.4506 9.90236 9.43641C9.80659 9.38533 9.73191 9.30214 9.69165 9.2014C9.65139 9.10065 9.64802 8.98891 9.68207 8.88586C9.68367 8.88142 9.68491 8.87628 9.68615 8.87149L9.6881 8.86617C9.72482 8.76684 9.79435 8.68313 9.88516 8.62868C9.97597 8.57422 10.0826 8.55223 10.1876 8.5666C10.2152 8.5705 10.2426 8.57671 10.2692 8.58522L10.5104 8.66291C10.509 8.66646 10.509 8.67124 10.5086 8.67461H10.5097V8.67426ZM9.04798 7.74769C9.28885 7.92275 9.43128 8.20246 9.43092 8.50026C9.43092 8.58824 9.41886 8.67586 9.39456 8.76046C9.39296 8.76401 9.39172 8.76755 9.39066 8.77128L9.38569 8.78689L9.38285 8.79682C9.29914 9.04478 9.11485 9.24627 8.8754 9.35163C8.63578 9.45716 8.36299 9.45698 8.12354 9.35127C7.8841 9.24556 7.69999 9.04407 7.61645 8.79611L7.61414 8.7876C7.6129 8.78192 7.6113 8.77625 7.60971 8.77075C7.60847 8.76702 7.60722 8.76312 7.60563 8.75957C7.58133 8.67532 7.56891 8.58824 7.56856 8.50044C7.56856 8.20193 7.71205 7.92151 7.95398 7.7468C8.11361 7.63311 8.30463 7.5721 8.50063 7.57227C8.69644 7.57245 8.88747 7.63382 9.04674 7.74787H9.04781L9.04798 7.74769ZM8.9593 10.1269C8.96409 10.1535 8.96622 10.1805 8.96551 10.2074V10.4614C8.9554 10.4637 8.94546 10.4667 8.93447 10.4692C8.888 10.4795 8.83975 10.4873 8.79186 10.4941C8.76827 10.4974 8.74539 10.5022 8.72127 10.5049C8.5737 10.5208 8.42471 10.5208 8.27714 10.5049C8.2532 10.5022 8.23067 10.4974 8.20655 10.4941C8.15866 10.4871 8.11095 10.4795 8.06395 10.4692C8.05366 10.4669 8.04373 10.4639 8.03291 10.4614V10.2074C8.03255 10.1787 8.03539 10.1501 8.04142 10.1221C8.06874 9.97845 8.16203 9.85606 8.29311 9.79132C8.42436 9.72676 8.57814 9.72747 8.70868 9.79345C8.83922 9.85943 8.9311 9.98288 8.95699 10.1267H8.95948L8.9593 10.1269ZM6.76029 9.51534C6.73387 9.47029 6.70939 9.42417 6.68686 9.37717C6.67764 9.35837 6.66806 9.33992 6.65955 9.32077C6.63401 9.2633 6.61113 9.20459 6.59091 9.14499C6.58771 9.13542 6.58363 9.12619 6.58044 9.11661C6.53433 8.97312 6.50471 8.82449 6.49211 8.67426V8.66238L6.73067 8.58469C6.75887 8.57564 6.78761 8.56908 6.81687 8.565C6.92152 8.55117 7.02776 8.57334 7.11822 8.62779C7.20868 8.68224 7.27785 8.76578 7.31457 8.86475L7.31652 8.8699C7.31776 8.87486 7.319 8.87983 7.3206 8.8855C7.35465 8.98926 7.35075 9.10189 7.30978 9.20299C7.26863 9.30427 7.19289 9.38746 7.09605 9.43818C7.07211 9.45131 7.04692 9.4623 7.02102 9.47046L6.78122 9.54904C6.77289 9.53769 6.76579 9.52651 6.75941 9.51551H6.76047L6.76029 9.51534ZM7.46498 8.82768L7.48555 8.8197H7.49531L7.46498 8.82768ZM6.97172 9.81261L7.11769 9.76472C7.16203 9.75053 7.20478 9.73208 7.24539 9.70938C7.39775 9.62761 7.51819 9.49689 7.58683 9.33815C7.69892 9.46053 7.83461 9.55915 7.9859 9.62779C7.8566 9.74059 7.76916 9.89366 7.73759 10.0623C7.72801 10.1101 7.7234 10.1587 7.72393 10.2072V10.3624C7.4334 10.2402 7.17569 10.0521 6.97083 9.81261H6.97189H6.97172ZM9.27572 10.3624V10.2072C9.27626 10.1599 9.27164 10.1125 9.26242 10.0661C9.2312 9.89615 9.14376 9.74166 9.01411 9.62761C9.16505 9.55879 9.30055 9.46035 9.41247 9.33815C9.48041 9.49583 9.59977 9.62602 9.75107 9.70707C9.79328 9.73084 9.8378 9.75017 9.88392 9.76489L10.0288 9.81243C9.82397 10.0519 9.56607 10.2402 9.27572 10.3626V10.3624ZM8.96533 6.53946L8.87665 6.66149C8.84844 6.69962 8.82379 6.74042 8.80304 6.78299L8.80144 6.786C8.72801 6.94191 8.70868 7.11803 8.74646 7.28636C8.58363 7.24982 8.41478 7.24982 8.25196 7.28636C8.28956 7.11697 8.26987 6.93978 8.19573 6.78281C8.17533 6.74077 8.15121 6.70086 8.12354 6.66308L8.03344 6.53893C8.33922 6.46372 8.65884 6.46372 8.96462 6.53893L8.96533 6.53946Z" fill="#22C55E" stroke="#22C55E" stroke-width="0.1"/>
<path d="M4.34188 6.77767V6.78086C3.88605 7.88161 3.88605 9.11839 4.34188 10.2191V10.2223C4.34188 10.2223 4.34277 10.2239 4.34348 10.2246C4.56909 10.7654 4.89758 11.2573 5.31102 11.6727C5.31368 11.6757 5.31474 11.6796 5.31758 11.6824C5.32042 11.6854 5.3245 11.6863 5.32734 11.689C5.74256 12.1024 6.2344 12.4309 6.77537 12.6565C6.77608 12.6572 6.77679 12.6576 6.77768 12.6581H6.78104C7.88179 13.114 9.11858 13.114 10.2191 12.6581H10.2225C10.2225 12.6581 10.2241 12.6572 10.2248 12.6565C10.7656 12.4309 11.2575 12.1024 11.6729 11.689C11.6759 11.6863 11.6798 11.6853 11.6826 11.6824C11.6856 11.6796 11.6865 11.6755 11.6892 11.6727C12.1024 11.2573 12.4311 10.7656 12.6567 10.2246C12.6572 10.2239 12.6578 10.223 12.6583 10.2223V10.2191C13.1141 9.11839 13.1141 7.88161 12.6583 6.78086V6.77767C12.6578 6.7766 12.6571 6.77554 12.6564 6.77448C12.4309 6.23386 12.1024 5.74237 11.6892 5.32733C11.6865 5.32432 11.6854 5.32041 11.6826 5.31758C11.6798 5.31456 11.6757 5.31367 11.6729 5.31101C11.2576 4.89775 10.7656 4.56908 10.2248 4.34347C10.2241 4.34276 10.2234 4.34241 10.2225 4.34188H10.219C9.1184 3.88604 7.88179 3.88604 6.78104 4.34188H6.7775C6.7775 4.34188 6.7759 4.34276 6.77519 4.34347C6.2344 4.56891 5.74256 4.89757 5.32716 5.31101C5.32415 5.31367 5.32024 5.31474 5.31741 5.31758C5.31439 5.32041 5.3135 5.32449 5.31084 5.32733C4.89775 5.74255 4.56927 6.23404 4.34366 6.77448C4.34295 6.77536 4.34241 6.77643 4.3417 6.77767H4.34188ZM4.6787 7.08522L4.88214 7.32077C4.93855 7.38551 5.03681 7.39225 5.10155 7.33585C5.16629 7.27944 5.17303 7.18136 5.11662 7.11644L4.88906 6.85429C4.87328 6.83602 4.85359 6.82183 4.83142 6.81243L4.69165 6.75479C4.87807 6.35004 5.12762 5.97739 5.43092 5.65085L5.51074 5.73067L5.609 6.02545C5.63614 6.10686 5.72411 6.15085 5.80552 6.12371C5.88693 6.09658 5.93092 6.0086 5.90396 5.92719L5.79417 5.598C5.78654 5.57512 5.7736 5.55436 5.75657 5.53734L5.65086 5.43162C5.97739 5.12815 6.35004 4.87859 6.75479 4.69236L6.7986 4.79807L6.77661 5.10846C6.77058 5.19413 6.83514 5.26862 6.92081 5.27465C7.00648 5.28068 7.08097 5.21612 7.087 5.13045L7.11166 4.78441C7.11343 4.76029 7.10953 4.73617 7.10013 4.71399L7.04195 4.57423C7.45948 4.41832 7.89935 4.33035 8.34472 4.31385V4.42843L8.20495 4.70601C8.16664 4.78281 8.19768 4.87611 8.27448 4.91442C8.35111 4.95273 8.4444 4.92169 8.48271 4.84489L8.63791 4.5345C8.64891 4.51304 8.65476 4.48927 8.65494 4.46515V4.31385C9.10048 4.32964 9.54071 4.41708 9.95859 4.57245L9.91443 4.67905L9.67924 4.88249C9.6145 4.9389 9.60776 5.03716 9.66416 5.1019C9.72056 5.16664 9.81865 5.17338 9.88356 5.11697L10.1448 4.88941C10.1631 4.87362 10.1773 4.85394 10.1867 4.83177L10.2443 4.692C10.6491 4.87841 11.0217 5.12797 11.3483 5.43127L11.2685 5.51109L10.9737 5.60935C10.8923 5.63648 10.8483 5.72446 10.8754 5.80587C10.9025 5.88728 10.9905 5.93127 11.0719 5.90431L11.4011 5.79452C11.424 5.78689 11.4448 5.77394 11.4618 5.75692L11.5675 5.65121C11.8708 5.97774 12.1205 6.35039 12.3068 6.75514L12.2011 6.79895L11.8914 6.77696C11.8057 6.77093 11.7312 6.83549 11.7252 6.92116C11.7191 7.00683 11.7837 7.08132 11.8694 7.08735L12.2154 7.11201C12.2395 7.11378 12.2637 7.10988 12.2858 7.10048L12.4263 7.0423C12.582 7.45983 12.6697 7.8997 12.686 8.34507H12.5714L12.2938 8.2053C12.2172 8.16699 12.1239 8.19803 12.0856 8.27483C12.0473 8.35145 12.0783 8.44475 12.1551 8.48306L12.4655 8.63826C12.487 8.64925 12.5107 8.65511 12.5349 8.65529H12.6862C12.6704 9.10083 12.5829 9.54106 12.4276 9.95894L12.321 9.91477L12.1175 9.67958C12.0611 9.61485 11.9628 9.60811 11.8981 9.66451C11.8334 9.72091 11.8266 9.819 11.883 9.88391L12.1106 10.1452C12.1264 10.1634 12.1461 10.1776 12.1682 10.187L12.308 10.2447C12.1216 10.6494 11.872 11.0221 11.5687 11.3486L11.4889 11.2688L11.3907 10.974C11.3635 10.8926 11.2755 10.8486 11.1941 10.8758C11.1549 10.8887 11.1227 10.9167 11.1042 10.9536C11.0858 10.9905 11.0827 11.0331 11.0957 11.0723L11.2058 11.4024C11.2135 11.4252 11.2262 11.446 11.2434 11.463L11.3492 11.5687C11.0226 11.872 10.6501 12.1218 10.2452 12.3082L10.2014 12.2025L10.2234 11.8928C10.2294 11.8073 10.165 11.733 10.0796 11.7269H10.0684C9.98679 11.7268 9.91886 11.7897 9.91318 11.8711L9.88853 12.2172C9.88676 12.2413 9.89066 12.2654 9.89988 12.2876L9.95859 12.4279C9.54071 12.5833 9.10048 12.6705 8.65494 12.6865V12.5719L8.79382 12.2943C8.81226 12.2574 8.81528 12.2149 8.80215 12.1757C8.78903 12.1367 8.761 12.1044 8.72429 12.0859C8.64766 12.0476 8.55437 12.0787 8.51606 12.1555L8.36086 12.4659C8.35004 12.4873 8.34454 12.5111 8.34454 12.5352V12.6865C7.89899 12.6707 7.45877 12.5833 7.04089 12.4279L7.08505 12.3213L7.32024 12.1179C7.38498 12.0615 7.39172 11.9632 7.33532 11.8985C7.27892 11.8337 7.18083 11.827 7.11592 11.8834L6.85377 12.1109C6.8355 12.1267 6.82131 12.1464 6.81191 12.1686L6.75426 12.3084C6.34951 12.1219 5.97686 11.8724 5.65032 11.5691L5.73014 11.4893L6.02493 11.391C6.10634 11.3639 6.15032 11.2759 6.12319 11.1945C6.09605 11.1131 6.00808 11.0691 5.92666 11.096L5.59747 11.2058C5.57459 11.2135 5.55384 11.2264 5.53681 11.2434L5.4311 11.3491C5.1278 11.0228 4.87807 10.6501 4.69183 10.2454L4.79754 10.2016L5.10793 10.2236C5.19307 10.2284 5.2665 10.1647 5.2736 10.0797C5.27963 9.99424 5.21524 9.9201 5.12975 9.91407L4.78371 9.88941H4.77271C4.75231 9.88941 4.73209 9.89349 4.71329 9.90112L4.57352 9.95929C4.41744 9.54142 4.32947 9.10119 4.31315 8.65546H4.42773L4.70531 8.79434C4.78193 8.83265 4.87523 8.80161 4.91354 8.72481C4.95185 8.64819 4.92081 8.5549 4.84401 8.51658L4.53362 8.36139C4.51215 8.35057 4.48839 8.34507 4.46427 8.34507H4.31297C4.32876 7.89952 4.4162 7.45929 4.57157 7.04141L4.67817 7.08522H4.6787Z" fill="#22C55E" stroke="#22C55E" stroke-width="0.1"/>
<path d="M8.49992 11.449C8.69237 11.449 8.88428 11.4296 9.07282 11.3913C9.09499 11.3892 9.11699 11.3851 9.13845 11.3791L9.15547 11.375C9.1608 11.3731 9.16594 11.3708 9.17108 11.3681C9.55118 11.2775 9.90947 11.1129 10.2257 10.8835C10.542 10.6542 10.8098 10.3645 11.0139 10.0315C11.0164 10.0284 11.0187 10.0256 11.021 10.0222C11.1106 9.87608 11.1872 9.7223 11.2504 9.56284C11.2523 9.5577 11.2543 9.55256 11.2557 9.54724C11.3249 9.36472 11.3761 9.17601 11.4086 8.98356C11.4093 8.9793 11.4098 8.97505 11.4102 8.97061C11.4343 8.81471 11.4471 8.65756 11.4485 8.49988C11.4467 7.79626 11.1931 7.11659 10.7335 6.58377C10.7303 6.57703 10.7268 6.57047 10.7229 6.56409C10.6572 6.48746 10.587 6.41474 10.5122 6.34681L10.5031 6.33794L10.4997 6.33457L10.4987 6.33369C10.4737 6.31063 10.4483 6.2881 10.4228 6.26593C10.3688 6.21946 10.3172 6.17796 10.2658 6.14L10.2635 6.1384L10.2621 6.13716C10.1869 6.07863 10.1076 6.02542 10.0251 5.97771C10.0175 5.97363 10.0097 5.97044 10.0015 5.96795C9.90893 5.91155 9.81333 5.86029 9.71507 5.81435C9.70939 5.81169 9.70088 5.80779 9.69042 5.80389C9.67995 5.79999 9.66594 5.79342 9.65281 5.78828C9.64838 5.78668 9.64395 5.78526 9.63951 5.78402C9.06856 5.54209 8.43554 5.48729 7.8316 5.62758C7.22766 5.76788 6.6835 6.09584 6.27768 6.56462C6.27396 6.56923 6.27041 6.57402 6.26722 6.57899C5.80712 7.11339 5.55313 7.79466 5.55083 8.49988C5.55083 9.91811 6.67818 11.4486 8.49957 11.4486L8.49992 11.449ZM6.51518 6.76575C6.52085 6.75937 6.526 6.75245 6.53079 6.74518C6.8974 6.33173 7.38517 6.0444 7.92472 5.9245C8.46409 5.80442 9.02777 5.85781 9.53522 6.07686C9.54249 6.08005 9.55012 6.08271 9.55792 6.08484L9.56431 6.08785C9.57229 6.09158 9.58027 6.09477 9.58861 6.09743L9.59215 6.09921C10.0517 6.31081 10.4414 6.64905 10.7154 7.07437C10.9895 7.4997 11.1363 7.99456 11.1388 8.50041C11.1376 8.64213 11.126 8.78349 11.1046 8.92361C11.103 8.93088 11.1019 8.93833 11.1014 8.94578C11.0719 9.11446 11.0265 9.27977 10.9655 9.43975C10.9634 9.4449 10.9618 9.45004 10.9602 9.45536C10.9095 9.58218 10.8499 9.70527 10.7818 9.82375C10.7738 9.83209 10.7669 9.84131 10.761 9.85107C10.2846 10.646 9.4272 11.1345 8.50046 11.1388C8.34952 11.1379 8.19911 11.1244 8.0503 11.0987C8.0056 11.0918 7.96108 11.0831 7.9178 11.0722C7.90681 11.0696 7.89563 11.0682 7.88446 11.068C6.98627 10.853 6.2658 10.1836 5.98573 9.30336C5.70549 8.42326 5.90645 7.46068 6.51518 6.76593H6.51571L6.51518 6.76575Z" fill="#22C55E" stroke="#22C55E" stroke-width="0.1"/>
<path d="M22.1702 5.77L19.5102 12H18.0902L20.7702 5.93H17.3502V4.73H22.1702V5.77ZM33.1615 5.02V12H31.7615V7.46L29.8915 12H28.8315L26.9515 7.46V12H25.5515V5.02H27.1415L29.3615 10.21L31.5815 5.02H33.1615ZM42.1557 5.02V12H40.7557V7.46L38.8857 12H37.8257L35.9457 7.46V12H34.5457V5.02H36.1357L38.3557 10.21L40.5757 5.02H42.1557ZM49.6726 2.53L46.9726 13.81H45.6026L48.3026 2.53H49.6726ZM52.9487 10.58V9.48L56.2187 4.8H57.8487V9.36H58.7287V10.58H57.8487V12H56.4487V10.58H52.9487ZM56.5387 6.3L54.4887 9.36H56.5387V6.3ZM59.62 8.26C59.62 7.10667 59.8267 6.20333 60.24 5.55C60.66 4.89667 61.3534 4.57 62.32 4.57C63.2867 4.57 63.9767 4.89667 64.39 5.55C64.81 6.20333 65.02 7.10667 65.02 8.26C65.02 9.42 64.81 10.33 64.39 10.99C63.9767 11.65 63.2867 11.98 62.32 11.98C61.3534 11.98 60.66 11.65 60.24 10.99C59.8267 10.33 59.62 9.42 59.62 8.26ZM63.64 8.26C63.64 7.76667 63.6067 7.35333 63.54 7.02C63.48 6.68 63.3534 6.40333 63.16 6.19C62.9734 5.97667 62.6934 5.87 62.32 5.87C61.9467 5.87 61.6634 5.97667 61.47 6.19C61.2834 6.40333 61.1567 6.68 61.09 7.02C61.03 7.35333 61 7.76667 61 8.26C61 8.76667 61.03 9.19333 61.09 9.54C61.15 9.88 61.2767 10.1567 61.47 10.37C61.6634 10.5767 61.9467 10.68 62.32 10.68C62.6934 10.68 62.9767 10.5767 63.17 10.37C63.3634 10.1567 63.49 9.88 63.55 9.54C63.61 9.19333 63.64 8.76667 63.64 8.26ZM73.7177 7.18C73.7177 7.55333 73.6277 7.90333 73.4477 8.23C73.2744 8.55667 72.9977 8.82 72.6177 9.02C72.2444 9.22 71.771 9.32 71.1977 9.32H70.0277V12H68.6277V5.02H71.1977C71.7377 5.02 72.1977 5.11333 72.5777 5.3C72.9577 5.48667 73.241 5.74333 73.4277 6.07C73.621 6.39667 73.7177 6.76667 73.7177 7.18ZM71.1377 8.19C71.5243 8.19 71.811 8.10333 71.9977 7.93C72.1843 7.75 72.2777 7.5 72.2777 7.18C72.2777 6.5 71.8977 6.16 71.1377 6.16H70.0277V8.19H71.1377ZM77.1217 12.07C76.635 12.07 76.195 11.9867 75.8017 11.82C75.415 11.6533 75.1083 11.4133 74.8817 11.1C74.655 10.7867 74.5383 10.4167 74.5317 9.99H76.0317C76.0517 10.2767 76.1517 10.5033 76.3317 10.67C76.5183 10.8367 76.7717 10.92 77.0917 10.92C77.4183 10.92 77.675 10.8433 77.8617 10.69C78.0483 10.53 78.1417 10.3233 78.1417 10.07C78.1417 9.86333 78.0783 9.69333 77.9517 9.56C77.825 9.42667 77.665 9.32333 77.4717 9.25C77.285 9.17 77.025 9.08333 76.6917 8.99C76.2383 8.85667 75.8683 8.72667 75.5817 8.6C75.3017 8.46667 75.0583 8.27 74.8517 8.01C74.6517 7.74333 74.5517 7.39 74.5517 6.95C74.5517 6.53667 74.655 6.17667 74.8617 5.87C75.0683 5.56333 75.3583 5.33 75.7317 5.17C76.105 5.00333 76.5317 4.92 77.0117 4.92C77.7317 4.92 78.315 5.09667 78.7617 5.45C79.215 5.79667 79.465 6.28333 79.5117 6.91H77.9717C77.9583 6.67 77.855 6.47333 77.6617 6.32C77.475 6.16 77.225 6.08 76.9117 6.08C76.6383 6.08 76.4183 6.15 76.2517 6.29C76.0917 6.43 76.0117 6.63333 76.0117 6.9C76.0117 7.08667 76.0717 7.24333 76.1917 7.37C76.3183 7.49 76.4717 7.59 76.6517 7.67C76.8383 7.74333 77.0983 7.83 77.4317 7.93C77.885 8.06333 78.255 8.19667 78.5417 8.33C78.8283 8.46333 79.075 8.66333 79.2817 8.93C79.4883 9.19667 79.5917 9.54667 79.5917 9.98C79.5917 10.3533 79.495 10.7 79.3017 11.02C79.1083 11.34 78.825 11.5967 78.4517 11.79C78.0783 11.9767 77.635 12.07 77.1217 12.07ZM82.2054 5.02V12H80.8054V5.02H82.2054Z" fill="#22C55E"/>
</svg>
