<svg width="20" height="20" viewBox="0 0 20 20" fill="none" xmlns="http://www.w3.org/2000/svg">
<path d="M13.8976 11.0989C13.7936 10.9949 13.6516 10.9349 13.5036 10.9349C13.3556 10.9349 13.2156 10.9929 13.1096 11.0989L12.3235 11.885L11.2475 10.8089L14.5216 7.53473C15.4137 7.85675 16.3917 7.84075 17.2718 7.48873C18.1518 7.13671 18.8719 6.47267 19.2939 5.62463C19.7159 4.77659 19.8119 3.80254 19.5639 2.88849C19.5139 2.69648 19.3639 2.54647 19.1719 2.49447C18.9799 2.44246 18.7739 2.49847 18.6339 2.63847L16.8418 4.43057L15.2697 2.85849L17.0598 1.06639C17.1998 0.926386 17.2558 0.720375 17.2038 0.528365C17.1518 0.336355 17.0018 0.186348 16.8098 0.136345C15.8957 -0.113668 14.9216 -0.0176633 14.0736 0.406359C13.2256 0.828381 12.5615 1.54842 12.2095 2.42846C11.8575 3.30851 11.8415 4.28656 12.1635 5.17861L8.88935 8.45278L4.46112 4.02455L4.85513 3.63053C4.97114 3.51452 5.02914 3.35451 5.01714 3.1925C5.00314 3.03049 4.91914 2.88049 4.78513 2.78648L2.03299 0.82038C1.81098 0.662372 1.50896 0.686374 1.31695 0.880384L0.53091 1.66642C0.3389 1.85843 0.312901 2.16245 0.470909 2.38246L2.43701 5.1346C2.53102 5.26861 2.68102 5.35262 2.84303 5.36462C3.00504 5.37862 3.16705 5.31861 3.28105 5.20261L3.67508 4.80859L11.5375 12.671L10.7514 13.457C10.6474 13.561 10.5874 13.703 10.5874 13.8511C10.5874 13.9991 10.6454 14.1391 10.7514 14.2451L15.8617 19.3553C16.4237 19.9134 17.2418 20.1294 18.0058 19.9234C18.7719 19.7174 19.3679 19.1193 19.5739 18.3553C19.7799 17.5912 19.5639 16.7732 19.0059 16.2112L13.8976 11.0989Z" fill="#59595B"/>
<path d="M0.488848 16.849C0.0668256 17.271 -0.0971897 17.8851 0.0568183 18.4611C0.210826 19.0371 0.660855 19.4872 1.23688 19.6412C1.81291 19.7952 2.42695 19.6312 2.84897 19.2091L9.66533 12.3928L7.3032 10.0347L0.488848 16.849Z" fill="#59595B"/>
</svg>
