<svg width="67" height="35" viewBox="0 0 67 35" fill="none" xmlns="http://www.w3.org/2000/svg">
<rect width="67" height="35" rx="4" fill="#F4F5F6"/>
<rect x="33" y="2" width="31.8857" height="31" rx="4" fill="#FF8B00"/>
<path fill-rule="evenodd" clip-rule="evenodd" d="M57 17C57 19.1217 56.1571 21.1566 54.6569 22.6569C53.1566 24.1571 51.1217 25 49 25C46.8783 25 44.8434 24.1571 43.3431 22.6569C41.8429 21.1566 41 19.1217 41 17C41 14.8783 41.8429 12.8434 43.3431 11.3431C44.8434 9.84285 46.8783 9 49 9C51.1217 9 53.1566 9.84285 54.6569 11.3431C56.1571 12.8434 57 14.8783 57 17ZM49 13C48.8736 13.0001 48.7486 13.0266 48.6331 13.0779C48.5176 13.1292 48.4141 13.2042 48.3293 13.2979C48.2446 13.3916 48.1803 13.5021 48.1408 13.6222C48.1013 13.7422 48.0874 13.8692 48.1 13.995L48.45 17.502C48.4618 17.6398 48.5248 17.7681 48.6266 17.8616C48.7285 17.9552 48.8617 18.0071 49 18.0071C49.1383 18.0071 49.2715 17.9552 49.3734 17.8616C49.4752 17.7681 49.5382 17.6398 49.55 17.502L49.9 13.995C49.9126 13.8692 49.8987 13.7422 49.8592 13.6222C49.8197 13.5021 49.7554 13.3916 49.6707 13.2979C49.5859 13.2042 49.4824 13.1292 49.3669 13.0779C49.2514 13.0266 49.1264 13.0001 49 13ZM49.002 19C48.7368 19 48.4824 19.1054 48.2949 19.2929C48.1074 19.4804 48.002 19.7348 48.002 20C48.002 20.2652 48.1074 20.5196 48.2949 20.7071C48.4824 20.8946 48.7368 21 49.002 21C49.2672 21 49.5216 20.8946 49.7091 20.7071C49.8966 20.5196 50.002 20.2652 50.002 20C50.002 19.7348 49.8966 19.4804 49.7091 19.2929C49.5216 19.1054 49.2672 19 49.002 19Z" fill="white"/>
<path fill-rule="evenodd" clip-rule="evenodd" d="M18 25C20.1217 25 22.1566 24.1571 23.6569 22.6569C25.1571 21.1566 26 19.1217 26 17C26 14.8783 25.1571 12.8434 23.6569 11.3431C22.1566 9.84285 20.1217 9 18 9C15.8783 9 13.8434 9.84285 12.3431 11.3431C10.8429 12.8434 10 14.8783 10 17C10 19.1217 10.8429 21.1566 12.3431 22.6569C13.8434 24.1571 15.8783 25 18 25ZM18.93 15.588L16.64 15.875L16.558 16.255L17.008 16.338C17.302 16.408 17.36 16.514 17.296 16.807L16.558 20.275C16.364 21.172 16.663 21.594 17.366 21.594C17.911 21.594 18.544 21.342 18.831 20.996L18.919 20.58C18.719 20.756 18.427 20.826 18.233 20.826C17.958 20.826 17.858 20.633 17.929 20.293L18.93 15.588ZM18 14.5C18.2652 14.5 18.5196 14.3946 18.7071 14.2071C18.8946 14.0196 19 13.7652 19 13.5C19 13.2348 18.8946 12.9804 18.7071 12.7929C18.5196 12.6054 18.2652 12.5 18 12.5C17.7348 12.5 17.4804 12.6054 17.2929 12.7929C17.1054 12.9804 17 13.2348 17 13.5C17 13.7652 17.1054 14.0196 17.2929 14.2071C17.4804 14.3946 17.7348 14.5 18 14.5Z" fill="#FACB13"/>
</svg>
