<svg width="15" height="20" viewBox="0 0 15 20" fill="none" xmlns="http://www.w3.org/2000/svg">
<path d="M2.41016 3.44824H4.47837V5.51645H2.41016V3.44824Z" fill="#59595B"/>
<path d="M2.41024 8.9649V11.0331H4.47845V8.9649H2.41024ZM2.41024 8.9649V11.0331H4.47845V8.9649H2.41024ZM2.41024 8.9649V11.0331H4.47845V8.9649H2.41024ZM2.41024 14.4834V16.5517H4.47845V14.4834H2.41024ZM2.41024 14.4834V16.5517H4.47845V14.4834H2.41024ZM2.41024 8.9649V11.0331H4.47845V8.9649H2.41024ZM2.41024 8.9649V11.0331H4.47845V8.9649H2.41024ZM2.41024 14.4834V16.5517H4.47845V14.4834H2.41024ZM2.41024 14.4834V16.5517H4.47845V14.4834H2.41024ZM2.41024 8.9649V11.0331H4.47845V8.9649H2.41024ZM2.41024 8.9649V11.0331H4.47845V8.9649H2.41024ZM2.41024 14.4834V16.5517H4.47845V14.4834H2.41024ZM2.41024 14.4834V16.5517H4.47845V14.4834H2.41024ZM2.41024 8.9649V11.0331H4.47845V8.9649H2.41024ZM14.3814 3.54835L10.9331 0.10001C10.8691 0.0360036 10.7791 0 10.6891 0H0.344041C0.154022 0 0 0.154016 0 0.344035V19.656C0 19.748 0.0360036 19.836 0.10001 19.9C0.164016 19.964 0.252032 20 0.344041 20H14.1394C14.2314 20 14.3194 19.964 14.3834 19.9C14.4475 19.836 14.4835 19.748 14.4835 19.656V3.79238C14.4815 3.70037 14.4454 3.61236 14.3814 3.54835ZM12.0672 15.1735H8.61887C8.42885 15.1735 8.27483 15.0195 8.27483 14.8295C8.27483 14.6395 8.42885 14.4854 8.61887 14.4854H12.0672C12.2572 14.4854 12.4112 14.6395 12.4112 14.8295C12.4112 15.0195 12.2572 15.1735 12.0672 15.1735ZM12.4112 16.2076C12.4112 16.2996 12.3752 16.3876 12.3112 16.4516C12.2472 16.5156 12.1592 16.5517 12.0672 16.5517H7.23872C7.04871 16.5517 6.8947 16.3976 6.8947 16.2076C6.8947 16.0176 7.04871 15.8636 7.23872 15.8636H12.0672C12.1592 15.8636 12.2472 15.8996 12.3112 15.9636C12.3752 16.0276 12.4112 16.1156 12.4112 16.2076ZM12.0672 11.0351H7.23872C7.04871 11.0351 6.8947 10.8811 6.8947 10.6911C6.8947 10.501 7.04871 10.347 7.23872 10.347H12.0672C12.2572 10.347 12.4112 10.501 12.4112 10.6911C12.4112 10.8811 12.2572 11.0351 12.0672 11.0351ZM12.0672 9.65497H8.61887C8.42885 9.65497 8.27483 9.50095 8.27483 9.31093C8.27483 9.12091 8.42885 8.9669 8.61887 8.9669H12.0672C12.2572 8.9669 12.4112 9.12091 12.4112 9.31093C12.4112 9.50095 12.2572 9.65497 12.0672 9.65497ZM12.0672 5.51655H7.23872C7.04871 5.51655 6.8947 5.36254 6.8947 5.17252C6.8947 4.9825 7.04871 4.82848 7.23872 4.82848H12.0672C12.2572 4.82848 12.4112 4.9825 12.4112 5.17252C12.4112 5.36254 12.2572 5.51655 12.0672 5.51655ZM4.82448 6.20662H2.06621C1.87619 6.20662 1.72217 6.05261 1.72217 5.86259V3.10231C1.72217 2.91229 1.87619 2.75828 2.06621 2.75828H4.82448C4.91649 2.75828 5.00451 2.79428 5.06851 2.85829C5.13252 2.92229 5.16852 3.0103 5.16852 3.10231V5.86059C5.16852 5.9526 5.13252 6.0406 5.06851 6.10461C5.00451 6.17062 4.91649 6.20662 4.82448 6.20662ZM5.16852 8.62086V11.3791C5.16852 11.4711 5.13252 11.5592 5.06851 11.6232C5.00451 11.6872 4.91649 11.7232 4.82448 11.7232H2.06621C1.87619 11.7232 1.72217 11.5692 1.72217 11.3791V8.62086C1.72217 8.43084 1.87619 8.27683 2.06621 8.27683H4.82448C4.91649 8.27683 5.00451 8.31283 5.06851 8.37684C5.13252 8.44084 5.16852 8.52885 5.16852 8.62086ZM1.72018 14.1394C1.72018 13.9494 1.87419 13.7954 2.06421 13.7954H4.82248C4.91449 13.7954 5.0025 13.8314 5.06651 13.8954C5.13052 13.9594 5.16652 14.0474 5.16652 14.1394V16.8977C5.16652 16.9897 5.13052 17.0777 5.06651 17.1417C5.0025 17.2057 4.91449 17.2417 4.82248 17.2417H2.06421C1.87419 17.2417 1.72018 17.0877 1.72018 16.8977V14.1394ZM12.0672 4.13841H8.61887C8.42885 4.13841 8.27483 3.9844 8.27483 3.79438C8.27483 3.60436 8.42885 3.45034 8.61887 3.45034H12.0672C12.2572 3.45034 12.4112 3.60436 12.4112 3.79438C12.4112 3.9824 12.2572 4.13841 12.0672 4.13841ZM4.48045 14.4834H2.41224V16.5517H4.48045V14.4834ZM2.41024 11.0351H4.47845V8.9649H2.41024V11.0351ZM2.41024 8.9649V11.0331H4.47845V8.9649H2.41024ZM2.41024 14.4834V16.5517H4.47845V14.4834H2.41024ZM2.41024 14.4834V16.5517H4.47845V14.4834H2.41024ZM2.41024 8.9649V11.0331H4.47845V8.9649H2.41024ZM2.41024 8.9649V11.0331H4.47845V8.9649H2.41024ZM2.41024 14.4834V16.5517H4.47845V14.4834H2.41024ZM2.41024 14.4834V16.5517H4.47845V14.4834H2.41024ZM2.41024 8.9649V11.0331H4.47845V8.9649H2.41024ZM2.41024 8.9649V11.0331H4.47845V8.9649H2.41024ZM2.41024 14.4834V16.5517H4.47845V14.4834H2.41024ZM2.41024 14.4834V16.5517H4.47845V14.4834H2.41024ZM2.41024 8.9649V11.0331H4.47845V8.9649H2.41024Z" fill="#59595B"/>
<path d="M2.41016 3.44824H4.47837V5.51645H2.41016V3.44824Z" fill="#59595B"/>
<path d="M2.41021 8.96481V11.033H4.47842V8.96481H2.41021ZM2.41021 8.96481V11.033H4.47842V8.96481H2.41021ZM2.41021 8.96481V11.033H4.47842V8.96481H2.41021ZM2.41021 14.4834V16.5516H4.47842V14.4834H2.41021ZM2.41021 8.96481V11.033H4.47842V8.96481H2.41021ZM2.41021 14.4834V16.5516H4.47842V14.4834H2.41021ZM2.41021 8.96481V11.033H4.47842V8.96481H2.41021ZM2.41021 14.4834V16.5516H4.47842V14.4834H2.41021ZM2.41021 8.96481V11.033H4.47842V8.96481H2.41021ZM2.41021 14.4834V16.5516H4.47842V14.4834H2.41021ZM2.41021 8.96481V11.033H4.47842V8.96481H2.41021ZM2.41021 14.4834V16.5516H4.47842V14.4834H2.41021ZM2.41021 8.96481V11.033H4.47842V8.96481H2.41021ZM2.41021 14.4834V16.5516H4.47842V14.4834H2.41021ZM10.545 0.687988H0.686035V19.3098H13.7913V3.93431L10.545 0.687988ZM5.16849 16.8976C5.16849 16.9896 5.13249 17.0776 5.06848 17.1416C5.00447 17.2056 4.91646 17.2416 4.82445 17.2416H2.06618C1.87616 17.2416 1.72214 17.0876 1.72214 16.8976V14.1393C1.72214 13.9493 1.87616 13.7953 2.06618 13.7953H4.82445C4.91646 13.7953 5.00447 13.8313 5.06848 13.8953C5.13249 13.9593 5.16849 14.0473 5.16849 14.1393V16.8976ZM5.16849 11.3791C5.16849 11.4711 5.13249 11.5591 5.06848 11.6231C5.00447 11.6871 4.91646 11.7231 4.82445 11.7231H2.06618C1.87616 11.7231 1.72214 11.5691 1.72214 11.3791V8.62078C1.72214 8.43076 1.87616 8.27675 2.06618 8.27675H4.82445C4.91646 8.27675 5.00447 8.31275 5.06848 8.37676C5.13249 8.44076 5.16849 8.52877 5.16849 8.62078V11.3791ZM5.16849 5.86251C5.16849 5.95451 5.13249 6.04252 5.06848 6.10653C5.00447 6.17054 4.91646 6.20654 4.82445 6.20654H2.06618C1.87616 6.20654 1.72214 6.05252 1.72214 5.86251V3.10223C1.72214 2.91221 1.87616 2.75819 2.06618 2.75819H4.82445C4.91646 2.75819 5.00447 2.7942 5.06848 2.8582C5.13249 2.92221 5.16849 3.01022 5.16849 3.10223V5.86251ZM12.0672 16.5516H7.23869C7.04867 16.5516 6.89466 16.3976 6.89466 16.2075C6.89466 16.0175 7.04867 15.8635 7.23869 15.8635H12.0672C12.2572 15.8635 12.4112 16.0175 12.4112 16.2075C12.4112 16.3976 12.2572 16.5516 12.0672 16.5516ZM12.0672 15.1734H8.61883C8.42882 15.1734 8.27479 15.0194 8.27479 14.8294C8.27479 14.6394 8.42882 14.4854 8.61883 14.4854H12.0672C12.2572 14.4854 12.4112 14.6394 12.4112 14.8294C12.4112 15.0194 12.2572 15.1734 12.0672 15.1734ZM12.0672 11.035H7.23869C7.04867 11.035 6.89466 10.881 6.89466 10.691C6.89466 10.501 7.04867 10.347 7.23869 10.347H12.0672C12.2572 10.347 12.4112 10.501 12.4112 10.691C12.4112 10.881 12.2572 11.035 12.0672 11.035ZM12.0672 9.65488H8.61883C8.42882 9.65488 8.27479 9.50087 8.27479 9.31085C8.27479 9.12083 8.42882 8.96681 8.61883 8.96681H12.0672C12.2572 8.96681 12.4112 9.12083 12.4112 9.31085C12.4112 9.50087 12.2572 9.65488 12.0672 9.65488ZM12.0672 5.51647H7.23869C7.04867 5.51647 6.89466 5.36245 6.89466 5.17244C6.89466 4.98242 7.04867 4.8284 7.23869 4.8284H12.0672C12.2572 4.8284 12.4112 4.98242 12.4112 5.17244C12.4112 5.36245 12.2572 5.51647 12.0672 5.51647ZM12.0672 4.13833H8.61883C8.42882 4.13833 8.27479 3.98432 8.27479 3.7943C8.27479 3.60428 8.42882 3.45026 8.61883 3.45026H12.0672C12.2572 3.45026 12.4112 3.60428 12.4112 3.7943C12.4112 3.98232 12.2572 4.13833 12.0672 4.13833ZM2.41021 16.5516H4.47842V14.4834H2.41021V16.5516ZM2.41021 11.035H4.47842V8.96481H2.41021V11.035ZM2.41021 14.4834V16.5516H4.47842V14.4834H2.41021ZM2.41021 8.96481V11.033H4.47842V8.96481H2.41021ZM2.41021 14.4834V16.5516H4.47842V14.4834H2.41021ZM2.41021 8.96481V11.033H4.47842V8.96481H2.41021ZM2.41021 14.4834V16.5516H4.47842V14.4834H2.41021ZM2.41021 8.96481V11.033H4.47842V8.96481H2.41021ZM2.41021 14.4834V16.5516H4.47842V14.4834H2.41021ZM2.41021 8.96481V11.033H4.47842V8.96481H2.41021ZM2.41021 14.4834V16.5516H4.47842V14.4834H2.41021ZM2.41021 8.96481V11.033H4.47842V8.96481H2.41021ZM2.41021 14.4834V16.5516H4.47842V14.4834H2.41021ZM2.41021 8.96481V11.033H4.47842V8.96481H2.41021Z" fill="#59595B"/>
<path d="M2.41016 14.4834H4.47837V16.5516H2.41016V14.4834Z" fill="#59595B"/>
<path d="M2.41016 14.4834H4.47837V16.5516H2.41016V14.4834Z" fill="#59595B"/>
<path d="M2.41016 3.44824H4.47837V5.51645H2.41016V3.44824Z" fill="#59595B"/>
<path d="M2.41016 3.44824H4.47837V5.51645H2.41016V3.44824Z" fill="#59595B"/>
<path d="M2.41016 8.96484H4.47837V11.0331H2.41016V8.96484Z" fill="#59595B"/>
<path d="M2.41016 8.96484H4.47837V11.0331H2.41016V8.96484Z" fill="#59595B"/>
</svg>
