<svg width="4" height="16" viewBox="0 0 4 16" fill="none" xmlns="http://www.w3.org/2000/svg">
<path d="M1.9524 11.25C3.02971 11.25 3.9048 12.1324 3.9048 13.2188C3.9048 14.3051 3.02971 15.1875 1.9524 15.1875C0.875093 15.1875 0 14.3051 0 13.2188C0 12.1324 0.875093 11.25 1.9524 11.25ZM1.9524 5.625C3.02971 5.625 3.9048 6.50742 3.9048 7.59375C3.9048 8.68008 3.02971 9.5625 1.9524 9.5625C0.875093 9.5625 0 8.68008 0 7.59375C0 6.50742 0.875093 5.625 1.9524 5.625ZM3.9048 1.96875C3.9048 3.05508 3.02971 3.9375 1.9524 3.9375C0.875093 3.9375 0 3.05508 0 1.96875C0 0.882422 0.875093 0 1.9524 0C3.02971 0 3.9048 0.882422 3.9048 1.96875Z" fill="#83838B"/>
</svg>
