<svg width="77" height="24" viewBox="0 0 77 24" fill="none" xmlns="http://www.w3.org/2000/svg">
<rect x="0.5" y="0.5" width="76" height="23" rx="11.5" fill="white"/>
<circle cx="15" cy="12" r="5" fill="url(#paint0_linear_394_1900)"/>
<path d="M33.0037 16.596C31.8997 16.596 31.0317 16.28 30.3997 15.648C29.7677 15.016 29.4517 14.092 29.4517 12.876V8.1H30.6517V12.828C30.6517 13.764 30.8557 14.448 31.2637 14.88C31.6797 15.312 32.2637 15.528 33.0157 15.528C33.7757 15.528 34.3597 15.312 34.7677 14.88C35.1837 14.448 35.3917 13.764 35.3917 12.828V8.1H36.5557V12.876C36.5557 14.092 36.2397 15.016 35.6077 15.648C34.9837 16.28 34.1157 16.596 33.0037 16.596ZM40.6719 16.572C40.1439 16.572 39.6399 16.5 39.1599 16.356C38.6879 16.212 38.3159 16.036 38.0439 15.828L38.5239 14.916C38.7959 15.1 39.1319 15.256 39.5319 15.384C39.9319 15.512 40.3399 15.576 40.7559 15.576C41.2919 15.576 41.6759 15.5 41.9079 15.348C42.1479 15.196 42.2679 14.984 42.2679 14.712C42.2679 14.512 42.1959 14.356 42.0519 14.244C41.9079 14.132 41.7159 14.048 41.4759 13.992C41.2439 13.936 40.9839 13.888 40.6959 13.848C40.4079 13.8 40.1199 13.744 39.8319 13.68C39.5439 13.608 39.2799 13.512 39.0399 13.392C38.7999 13.264 38.6079 13.092 38.4639 12.876C38.3199 12.652 38.2479 12.356 38.2479 11.988C38.2479 11.604 38.3559 11.268 38.5719 10.98C38.7879 10.692 39.0919 10.472 39.4839 10.32C39.8839 10.16 40.3559 10.08 40.8999 10.08C41.3159 10.08 41.7359 10.132 42.1599 10.236C42.5919 10.332 42.9439 10.472 43.2159 10.656L42.7239 11.568C42.4359 11.376 42.1359 11.244 41.8239 11.172C41.5119 11.1 41.1999 11.064 40.8879 11.064C40.3839 11.064 40.0079 11.148 39.7599 11.316C39.5119 11.476 39.3879 11.684 39.3879 11.94C39.3879 12.156 39.4599 12.324 39.6039 12.444C39.7559 12.556 39.9479 12.644 40.1799 12.708C40.4199 12.772 40.6839 12.828 40.9719 12.876C41.2599 12.916 41.5479 12.972 41.8359 13.044C42.1239 13.108 42.3839 13.2 42.6159 13.32C42.8559 13.44 43.0479 13.608 43.1919 13.824C43.3439 14.04 43.4199 14.328 43.4199 14.688C43.4199 15.072 43.3079 15.404 43.0839 15.684C42.8599 15.964 42.5439 16.184 42.1359 16.344C41.7279 16.496 41.2399 16.572 40.6719 16.572ZM48.8076 16.5V15.156L48.7476 14.904V12.612C48.7476 12.124 48.6036 11.748 48.3156 11.484C48.0356 11.212 47.6116 11.076 47.0436 11.076C46.6676 11.076 46.2996 11.14 45.9396 11.268C45.5796 11.388 45.2756 11.552 45.0276 11.76L44.5476 10.896C44.8756 10.632 45.2676 10.432 45.7236 10.296C46.1876 10.152 46.6716 10.08 47.1756 10.08C48.0476 10.08 48.7196 10.292 49.1916 10.716C49.6636 11.14 49.8996 11.788 49.8996 12.66V16.5H48.8076ZM46.7196 16.572C46.2476 16.572 45.8316 16.492 45.4716 16.332C45.1196 16.172 44.8476 15.952 44.6556 15.672C44.4636 15.384 44.3676 15.06 44.3676 14.7C44.3676 14.356 44.4476 14.044 44.6076 13.764C44.7756 13.484 45.0436 13.26 45.4116 13.092C45.7876 12.924 46.2916 12.84 46.9236 12.84H48.9396V13.668H46.9716C46.3956 13.668 46.0076 13.764 45.8076 13.956C45.6076 14.148 45.5076 14.38 45.5076 14.652C45.5076 14.964 45.6316 15.216 45.8796 15.408C46.1276 15.592 46.4716 15.684 46.9116 15.684C47.3436 15.684 47.7196 15.588 48.0396 15.396C48.3676 15.204 48.6036 14.924 48.7476 14.556L48.9756 15.348C48.8236 15.724 48.5556 16.024 48.1716 16.248C47.7876 16.464 47.3036 16.572 46.7196 16.572ZM54.6595 16.572C54.0435 16.572 53.4915 16.436 53.0035 16.164C52.5235 15.892 52.1435 15.512 51.8635 15.024C51.5835 14.536 51.4435 13.968 51.4435 13.32C51.4435 12.672 51.5835 12.108 51.8635 11.628C52.1435 11.14 52.5235 10.76 53.0035 10.488C53.4915 10.216 54.0435 10.08 54.6595 10.08C55.1955 10.08 55.6795 10.2 56.1115 10.44C56.5435 10.68 56.8875 11.04 57.1435 11.52C57.4075 12 57.5395 12.6 57.5395 13.32C57.5395 14.04 57.4115 14.64 57.1555 15.12C56.9075 15.6 56.5675 15.964 56.1355 16.212C55.7035 16.452 55.2115 16.572 54.6595 16.572ZM54.7555 15.564C55.1555 15.564 55.5155 15.472 55.8355 15.288C56.1635 15.104 56.4195 14.844 56.6035 14.508C56.7955 14.164 56.8915 13.768 56.8915 13.32C56.8915 12.864 56.7955 12.472 56.6035 12.144C56.4195 11.808 56.1635 11.548 55.8355 11.364C55.5155 11.18 55.1555 11.088 54.7555 11.088C54.3475 11.088 53.9835 11.18 53.6635 11.364C53.3435 11.548 53.0875 11.808 52.8955 12.144C52.7035 12.472 52.6075 12.864 52.6075 13.32C52.6075 13.768 52.7035 14.164 52.8955 14.508C53.0875 14.844 53.3435 15.104 53.6635 15.288C53.9835 15.472 54.3475 15.564 54.7555 15.564ZM56.9275 16.5V14.784L56.9995 13.308L56.8795 11.832V7.596H58.0315V16.5H56.9275ZM62.9351 16.572C62.2951 16.572 61.7271 16.432 61.2311 16.152C60.7351 15.872 60.3431 15.488 60.0551 15C59.7671 14.504 59.6231 13.944 59.6231 13.32C59.6231 12.688 59.7671 12.128 60.0551 11.64C60.3431 11.152 60.7351 10.772 61.2311 10.5C61.7271 10.22 62.2951 10.08 62.9351 10.08C63.5671 10.08 64.1311 10.22 64.6271 10.5C65.1311 10.772 65.5231 11.152 65.8031 11.64C66.0911 12.12 66.2351 12.68 66.2351 13.32C66.2351 13.952 66.0911 14.512 65.8031 15C65.5231 15.488 65.1311 15.872 64.6271 16.152C64.1311 16.432 63.5671 16.572 62.9351 16.572ZM62.9351 15.564C63.3431 15.564 63.7071 15.472 64.0271 15.288C64.3551 15.104 64.6111 14.844 64.7951 14.508C64.9791 14.164 65.0711 13.768 65.0711 13.32C65.0711 12.864 64.9791 12.472 64.7951 12.144C64.6111 11.808 64.3551 11.548 64.0271 11.364C63.7071 11.18 63.3431 11.088 62.9351 11.088C62.5271 11.088 62.1631 11.18 61.8431 11.364C61.5231 11.548 61.2671 11.808 61.0751 12.144C60.8831 12.472 60.7871 12.864 60.7871 13.32C60.7871 13.768 60.8831 14.164 61.0751 14.508C61.2671 14.844 61.5231 15.104 61.8431 15.288C62.1631 15.472 62.5271 15.564 62.9351 15.564Z" fill="#59595B"/>
<rect x="0.5" y="0.5" width="76" height="23" rx="11.5" stroke="#FCD84B"/>
<defs>
<linearGradient id="paint0_linear_394_1900" x1="15" y1="7" x2="15" y2="17" gradientUnits="userSpaceOnUse">
<stop stop-color="#FFF3C5"/>
<stop offset="1" stop-color="#FCD84B"/>
</linearGradient>
</defs>
</svg>
