<svg width="16" height="16" viewBox="0 0 16 16" fill="none" xmlns="http://www.w3.org/2000/svg">
<path d="M8.00001 0C3.58561 0 0 3.5904 0 8.0032C0 12.416 3.58561 16 8.00001 16C12.4144 16 16 12.416 16 8.0032C16 3.5904 12.4144 0 8.00001 0ZM8.00001 2.0512C10.4816 2.0512 12.6048 3.5632 13.5008 5.7184L9.152 6.544C8.8352 6.2928 8.43521 6.1424 8.00001 6.1424C7.55201 6.1424 7.1424 6.3008 6.8192 6.5664L2.488 5.7408C3.3776 3.5744 5.50881 2.0512 8.00001 2.0512ZM8.00001 6.888C8.62081 6.888 9.1168 7.384 9.1168 8.0032C9.1168 8.624 8.62081 9.1184 8.00001 9.1184C7.37921 9.1184 6.8832 8.6224 6.8832 8.0032C6.8832 7.3824 7.37921 6.888 8.00001 6.888ZM13.8944 7.2016C13.9296 7.464 13.952 7.7312 13.952 8.0032C13.952 11.032 11.6976 13.5248 8.7712 13.9024L9.0976 9.4976C9.3856 9.2848 9.6144 8.9952 9.7424 8.6544L13.8944 7.2016ZM2.0928 7.248L6.2784 8.7072C6.4096 9.024 6.62721 9.296 6.90081 9.4976L7.2272 13.9024C4.3008 13.5248 2.0464 11.032 2.0464 8.0032C2.0464 7.7472 2.0608 7.4944 2.0928 7.248ZM8.00001 7.2592C7.58881 7.2592 7.256 7.592 7.256 8.0032C7.256 8.4144 7.58881 8.7472 8.00001 8.7472C8.41121 8.7472 8.744 8.4144 8.744 8.0032C8.744 7.592 8.41121 7.2592 8.00001 7.2592Z" fill="#FF8B00"/>
</svg>
