<svg width="233" height="32" viewBox="0 0 233 32" fill="none" xmlns="http://www.w3.org/2000/svg">
<path fill-rule="evenodd" clip-rule="evenodd" d="M135.124 5.08215C136.945 7.85431 138.127 10.9499 139.172 14.0824C136.492 14.2672 133.72 14.1286 130.985 14.1748C131.761 10.9961 133.073 7.85431 134.94 5.08215H135.124ZM137.536 0.942383C143.127 7.17051 145.132 14.988 145.806 23.2213H140.9L140.17 18.3978C136.852 18.1668 133.304 18.3516 129.987 18.213L129.756 18.4902L129.21 23.0365C127.667 23.1751 125.847 23.1751 124.35 23.0365C125.126 14.8032 127.353 7.12431 132.759 0.942383H137.536Z" fill="white"/>
<path fill-rule="evenodd" clip-rule="evenodd" d="M184.275 7.66966C185.818 10.1739 185.643 13.9902 183.998 16.3558C182.455 18.6289 179.95 19.6731 177.271 19.3127C175.45 18.9986 173.722 17.5386 172.771 15.8568C171.32 13.177 171.588 9.17587 173.593 6.81029C174.369 6.03409 174.914 5.40573 176.005 4.90674C176.836 4.51864 177.492 4.42623 178.278 4.31535C180.727 4.17674 183 5.44269 184.275 7.66966ZM188.359 5.76611C190.586 9.40689 190.365 14.905 188.045 18.4072C185.412 22.3621 181.087 24.4505 176.319 23.6373C172.863 23.0459 169.638 20.2276 168.27 16.9564C166.358 12.179 167.494 6.36675 171.366 2.77218C171.736 2.36559 173.048 1.49698 173.732 1.27521C177.188 -0.314164 181.872 0.0924199 184.913 2.18078C186.271 3.04015 187.639 4.39851 188.359 5.76611Z" fill="white"/>
<path fill-rule="evenodd" clip-rule="evenodd" d="M119.351 7.58638C120.94 9.95196 120.848 13.8607 119.397 16.2725C117.438 19.1371 113.899 19.7747 110.535 19.3681C110.258 14.5075 110.582 9.49917 110.443 4.40763C112.356 3.81624 114.49 4.54624 116.311 5.09143C117.438 5.62738 118.575 6.44979 119.351 7.58638ZM123.481 4.94358C125.893 8.71373 125.616 14.5815 123.25 18.2684C119.249 23.9514 111.931 24.2656 105.425 23.092C105.703 15.5887 105.832 7.9098 105.333 0.545084C111.663 -0.415932 119.434 -0.693148 123.481 4.94358Z" fill="white"/>
<path fill-rule="evenodd" clip-rule="evenodd" d="M210.324 22.8612C208.956 22.9998 207.506 23.0922 206.092 22.9536C204.271 17.3169 200.862 11.9481 196.047 7.77138C195.863 12.7705 195.955 17.9083 195.955 22.9536C194.412 23.0922 192.813 23.0922 191.27 23.0922L191.085 22.778L191.131 1.04427H195.179C199.226 3.58541 202.682 7.31859 205.362 11.2273L205.5 11.1811C205.5 7.67898 205.639 4.40782 205.593 1.09047C207.182 0.998063 208.642 1.04427 210.278 1.04427L210.324 22.8612Z" fill="white"/>
<path fill-rule="evenodd" clip-rule="evenodd" d="M166.173 3.44678L166.034 23.1753L161.848 23.3139C160.074 17.5386 156.664 12.4471 151.85 8.03933L151.711 8.17794L151.619 23.1846C150.076 23.277 148.302 23.277 146.888 23.1846C146.703 15.7737 147.202 8.04857 146.888 1.09045C148.163 0.813229 149.521 0.951837 150.981 0.99804C154.844 3.95501 158.531 7.86376 161.257 11.6801C161.442 8.27035 161.303 4.81438 161.349 1.04424C162.846 0.905635 164.62 0.905635 166.034 0.951837L166.173 3.44678Z" fill="white"/>
<path fill-rule="evenodd" clip-rule="evenodd" d="M230.736 4.49086C232.326 6.94884 232.511 10.3124 232.058 13.3525L216.552 13.5374C216.46 14.8125 217.005 16.1247 217.827 17.1781C219.149 18.9061 221.006 19.5437 223.15 19.3589C224.739 19.2665 226.015 18.5827 227.197 17.5847L231.559 18.5365V18.8137C229.008 22.3621 225.054 23.9052 220.692 23.7204C217.55 23.4894 214.464 21.7152 213.004 18.7213C210.962 14.0825 210.962 7.07821 214.778 3.16946C218.003 -0.0554869 223.372 -0.378906 227.465 1.30287C228.777 1.94971 229.96 3.21567 230.736 4.49086ZM226.55 6.03403C227.28 7.03201 227.595 8.2148 227.687 9.48999L227.188 9.6748H216.691L216.552 9.5362C216.737 7.71581 217.735 6.03403 219.324 5.03605C221.459 3.49288 224.915 3.99187 226.55 6.03403Z" fill="white"/>
<path d="M4.95293 5.32241V10.1183H15.7089V14.6276H4.95293V23.3507H0V0.822266H17.1597V5.33165H4.95293V5.32241Z" fill="white"/>
<path d="M18.3425 23.3507V0.822266H23.2955V18.8506H34.532V23.36H18.3425V23.3507Z" fill="white"/>
<path d="M69.8863 5.38709V23.3507H64.9334V5.38709H58.0769V0.822266H76.7428V5.39633H69.8863V5.38709Z" fill="white"/>
<path fill-rule="evenodd" clip-rule="evenodd" d="M54.2881 3.43748C52.1998 1.3214 49.2798 0 46.0456 0C41.952 0 38.3667 2.10684 36.3245 5.28559C34.9385 7.20762 34.1345 9.54548 34.1345 12.0774V12.1421C34.5319 16.0416 36.4354 18.9524 39.3554 21.8169L46.2766 29.5882L53.2624 21.4843C55.8313 18.7398 57.8827 16.0323 58.086 12.0681V12.0035C58.086 8.61219 56.663 5.55357 54.2881 3.43748ZM46.0456 16.0508C43.5137 16.0508 41.3606 13.9994 41.3606 11.4121C41.3606 8.82472 43.5137 6.69939 46.0456 6.69939C48.6607 6.69939 50.8045 8.82472 50.8045 11.4121C50.8045 13.9994 48.6607 16.0508 46.0456 16.0508Z" fill="white"/>
<path fill-rule="evenodd" clip-rule="evenodd" d="M85.8353 5.00823C87.6741 7.81736 88.8662 10.9407 89.9288 14.1102C87.2121 14.295 84.4122 14.1564 81.6493 14.2026C82.4348 10.9869 83.7654 7.80812 85.6505 5.00823H85.8353ZM88.2748 0.822266C93.93 7.12432 95.9537 15.0342 96.6467 23.3507H91.6845L90.9453 18.4809C87.591 18.2499 84.0056 18.4347 80.6421 18.2961L80.4111 18.5733L79.8566 23.1751C78.295 23.3137 76.4561 23.3137 74.9407 23.1751C75.7261 14.8494 77.9716 7.07811 83.4512 0.831506H88.2748V0.822266Z" fill="white"/>
<path d="M51.9227 27.2412C51.5623 27.1303 51.1834 27.3244 51.0725 27.6848C50.9616 28.0451 51.1557 28.424 51.5161 28.5349C52.551 28.8583 52.8744 29.191 52.9114 29.2279C52.7266 29.7177 50.2224 30.6417 46.0826 30.6417C41.9429 30.6417 39.4387 29.7177 39.2539 29.2834C39.2908 29.191 39.6235 28.8583 40.6862 28.5349C41.0465 28.424 41.2498 28.0451 41.1389 27.6848C41.0281 27.3244 40.6584 27.1303 40.2888 27.232C38.6994 27.7217 37.8955 28.4055 37.8955 29.2557C37.8955 31.4272 43.0425 32.0001 46.0826 32.0001C49.1228 32.0001 54.2698 31.4179 54.2698 29.2557C54.2698 28.4055 53.4751 27.731 51.9227 27.2412Z" fill="white"/>
</svg>
