<svg width="45" height="45" viewBox="0 0 45 45" fill="none" xmlns="http://www.w3.org/2000/svg">
<rect x="-0.5" y="0.5" width="44" height="44" rx="4.5" transform="matrix(-1 0 0 1 44 0)" fill="#E1E7FB" stroke="#2E48CB"/>
<path d="M22.5 18H24.5C24.6326 18 24.7598 17.9473 24.8536 17.8536C24.9473 17.7598 25 17.6326 25 17.5V16.5C25 16.3674 24.9473 16.2402 24.8536 16.1464C24.7598 16.0527 24.6326 16 24.5 16H22.5C22.3674 16 22.2402 16.0527 22.1465 16.1464C22.0527 16.2402 22 16.3674 22 16.5V17.5C22 17.6326 22.0527 17.7598 22.1465 17.8536C22.2402 17.9473 22.3674 18 22.5 18ZM22.5 22H26.5C26.6326 22 26.7598 21.9473 26.8536 21.8536C26.9473 21.7598 27 21.6326 27 21.5V20.5C27 20.3674 26.9473 20.2402 26.8536 20.1464C26.7598 20.0527 26.6326 20 26.5 20H22.5C22.3674 20 22.2402 20.0527 22.1465 20.1464C22.0527 20.2402 22 20.3674 22 20.5V21.5C22 21.6326 22.0527 21.7598 22.1465 21.8536C22.2402 21.9473 22.3674 22 22.5 22ZM30.5 28H22.5C22.3674 28 22.2402 28.0527 22.1465 28.1464C22.0527 28.2402 22 28.3674 22 28.5V29.5C22 29.6326 22.0527 29.7598 22.1465 29.8536C22.2402 29.9473 22.3674 30 22.5 30H30.5C30.6326 30 30.7598 29.9473 30.8536 29.8536C30.9473 29.7598 31 29.6326 31 29.5V28.5C31 28.3674 30.9473 28.2402 30.8536 28.1464C30.7598 28.0527 30.6326 28 30.5 28ZM22.5 26H28.5C28.6326 26 28.7598 25.9473 28.8536 25.8536C28.9473 25.7598 29 25.6326 29 25.5V24.5C29 24.3674 28.9473 24.2402 28.8536 24.1464C28.7598 24.0527 28.6326 24 28.5 24H22.5C22.3674 24 22.2402 24.0527 22.1465 24.1464C22.0527 24.2402 22 24.3674 22 24.5V25.5C22 25.6326 22.0527 25.7598 22.1465 25.8536C22.2402 25.9473 22.3674 26 22.5 26ZM20.5 26H19V16.5C19 16.3674 18.9473 16.2402 18.8536 16.1464C18.7598 16.0527 18.6326 16 18.5 16H17.5C17.3674 16 17.2402 16.0527 17.1465 16.1464C17.0527 16.2402 17 16.3674 17 16.5V26H15.5C15.0566 26 14.8322 26.5387 15.1472 26.8534L17.6472 29.8534C17.741 29.9471 17.8681 29.9998 18.0006 29.9998C18.1332 29.9998 18.2603 29.9471 18.3541 29.8534L20.8541 26.8534C21.1672 26.5394 20.9444 26 20.5 26Z" fill="#707EAD"/>
</svg>
