<svg width="9" height="10" viewBox="0 0 9 10" fill="none" xmlns="http://www.w3.org/2000/svg">
<path d="M1.42857 0H5V0.714286H1.42857C1.23913 0.714286 1.05745 0.789541 0.923495 0.923495C0.789541 1.05745 0.714286 1.23913 0.714286 1.42857V8.57143C0.714286 8.76087 0.789541 8.94255 0.923495 9.0765C1.05745 9.21046 1.23913 9.28571 1.42857 9.28571H7.14286C7.3323 9.28571 7.51398 9.21046 7.64793 9.0765C7.78189 8.94255 7.85714 8.76087 7.85714 8.57143V3.57143H8.57143V8.57143C8.57143 8.95031 8.42092 9.31367 8.15301 9.58158C7.8851 9.84949 7.52174 10 7.14286 10H1.42857C1.04969 10 0.686328 9.84949 0.418419 9.58158C0.15051 9.31367 0 8.95031 0 8.57143V1.42857C0 1.04969 0.15051 0.686328 0.418419 0.418419C0.686328 0.15051 1.04969 0 1.42857 0Z" fill="#11B2EE"/>
<path d="M5 2.5V0L8.57143 3.57143H6.07143C5.78727 3.57143 5.51475 3.45855 5.31381 3.25761C5.11288 3.05668 5 2.78416 5 2.5Z" fill="#11B2EE"/>
<path fill-rule="evenodd" clip-rule="evenodd" d="M2.60444 5.81781C2.63761 5.78456 2.67702 5.75817 2.72041 5.74016C2.7638 5.72216 2.81032 5.71289 2.85729 5.71289C2.90427 5.71289 2.95078 5.72216 2.99417 5.74016C3.03756 5.75817 3.07697 5.78456 3.11015 5.81781L4.28586 6.99424L5.46158 5.81781C5.52864 5.75075 5.6196 5.71308 5.71444 5.71308C5.80928 5.71308 5.90023 5.75075 5.96729 5.81781C6.03436 5.88488 6.07203 5.97583 6.07203 6.07067C6.07203 6.16551 6.03436 6.25647 5.96729 6.32353L4.53872 7.7521C4.50555 7.78536 4.46613 7.81175 4.42275 7.82975C4.37936 7.84776 4.33284 7.85703 4.28586 7.85703C4.23889 7.85703 4.19237 7.84776 4.14898 7.82975C4.10559 7.81175 4.06618 7.78536 4.03301 7.7521L2.60444 6.32353C2.57118 6.29035 2.54479 6.25094 2.52678 6.20755C2.50878 6.16416 2.49951 6.11765 2.49951 6.07067C2.49951 6.0237 2.50878 5.97718 2.52678 5.93379C2.54479 5.8904 2.57118 5.85099 2.60444 5.81781Z" fill="#11B2EE"/>
<path fill-rule="evenodd" clip-rule="evenodd" d="M4.28561 3.57227C4.38033 3.57227 4.47117 3.60989 4.53815 3.67687C4.60513 3.74385 4.64275 3.83469 4.64275 3.92941V6.78655C4.64275 6.88127 4.60513 6.97211 4.53815 7.03909C4.47117 7.10607 4.38033 7.14369 4.28561 7.14369C4.19089 7.14369 4.10005 7.10607 4.03307 7.03909C3.96609 6.97211 3.92847 6.88127 3.92847 6.78655V3.92941C3.92847 3.83469 3.96609 3.74385 4.03307 3.67687C4.10005 3.60989 4.19089 3.57227 4.28561 3.57227Z" fill="#11B2EE"/>
</svg>
