<svg width="26" height="24" viewBox="0 0 26 24" fill="none" xmlns="http://www.w3.org/2000/svg">
<rect width="25.2481" height="24" rx="5" fill="#F89074"/>
<path d="M15.8563 12.7368L16.4812 12.1119C16.5788 12.0143 16.7487 12.0826 16.7487 12.2232V15.0626C16.7487 15.5801 16.3289 16 15.8114 16H8.93736C8.41986 16 8 15.5801 8 15.0626V8.18864C8 7.67114 8.41986 7.25128 8.93736 7.25128H14.2784C14.417 7.25128 14.4873 7.41923 14.3897 7.51882L13.7648 8.14373C13.7355 8.17302 13.6964 8.18864 13.6535 8.18864H8.93736V15.0626H15.8114V12.8462C15.8114 12.8052 15.827 12.7661 15.8563 12.7368ZM18.9144 8.79598L13.7863 13.9241L12.0209 14.1194C11.5093 14.176 11.0738 13.7445 11.1304 13.2289L11.3257 11.4636L16.4538 6.3354C16.901 5.8882 17.6236 5.8882 18.0688 6.3354L18.9125 7.17903C19.3597 7.62623 19.3597 8.35073 18.9144 8.79598ZM16.985 9.3994L15.8504 8.2648L12.222 11.8951L12.0795 13.1703L13.3547 13.0278L16.985 9.3994ZM18.2505 7.84299L17.4068 6.99937C17.3268 6.9193 17.1959 6.9193 17.1178 6.99937L16.5144 7.60279L17.649 8.73739L18.2524 8.13396C18.3305 8.05195 18.3305 7.92306 18.2505 7.84299Z" fill="white"/>
</svg>
