<svg width="14" height="12" viewBox="0 0 14 12" fill="none" xmlns="http://www.w3.org/2000/svg">
<path d="M7.03631 1.42556C6.99346 1.3223 6.93065 1.2285 6.8515 1.14954L6.78088 1.22034L6.85168 1.14972C6.77272 1.07056 6.67892 1.00776 6.57565 0.964908C6.47239 0.922056 6.36168 0.9 6.24988 0.9C6.13807 0.9 6.02737 0.922056 5.9241 0.964907C5.82083 1.00776 5.72703 1.07056 5.64808 1.14972L1.14825 5.64954C1.14824 5.64956 1.14822 5.64958 1.1482 5.64959C1.06907 5.72854 1.00628 5.82232 0.963443 5.92556C0.920592 6.02883 0.898535 6.13954 0.898535 6.25134C0.898535 6.36314 0.920592 6.47385 0.963443 6.57712C1.00629 6.68038 1.0691 6.77418 1.14825 6.85314L5.64817 11.3531C5.72718 11.4321 5.82099 11.4947 5.92423 11.5375C6.02747 11.5803 6.13813 11.6023 6.24988 11.6023C6.36162 11.6023 6.47228 11.5803 6.57552 11.5375C6.67876 11.4947 6.77257 11.4321 6.85159 11.3531C6.9306 11.274 6.99328 11.1802 7.03605 11.077C7.07881 10.9737 7.10082 10.8631 7.10082 10.7513C7.10082 10.6396 7.07881 10.5289 7.03605 10.4257C6.99328 10.3225 6.9306 10.2286 6.85159 10.1496L6.85157 10.1496L2.95182 6.25134L6.8515 2.35314C6.93065 2.27418 6.99346 2.18038 7.03631 2.07712C7.07916 1.97385 7.10122 1.86314 7.10122 1.75134C7.10122 1.63954 7.07916 1.52883 7.03631 1.42556Z" fill="#112876" stroke="#112876" stroke-width="0.2"/>
<path d="M1.89896 5.64994C1.73955 5.80934 1.65 6.02554 1.65 6.25098C1.65 6.47641 1.73955 6.69261 1.89896 6.85202C2.05837 7.01142 2.27457 7.10098 2.5 7.10098H12.25C12.4754 7.10098 12.6916 7.01142 12.851 6.85202C13.0104 6.69261 13.1 6.47641 13.1 6.25098C13.1 6.02554 13.0104 5.80934 12.851 5.64994C12.6916 5.49053 12.4754 5.40098 12.25 5.40098H2.5C2.27457 5.40098 2.05837 5.49053 1.89896 5.64994Z" fill="#112876" stroke="#112876" stroke-width="0.2"/>
</svg>
