<svg width="35" height="50" viewBox="0 0 35 50" fill="none" xmlns="http://www.w3.org/2000/svg">
<path d="M33.93 0.865C33.37 0.305 32.63 0 31.845 0H2.95C2.165 0 1.42 0.305 0.865 0.865C0.31 1.425 0 2.175 0 2.95V47.05C0 47.835 0.305 48.58 0.865 49.135C1.42 49.69 2.165 50 2.95 50H31.845C32.635 50 33.375 49.695 33.93 49.135C34.485 48.575 34.795 47.835 34.795 47.05V2.95C34.795 2.16 34.49 1.42 33.93 0.865ZM31.935 2.95V47.05C31.935 47.05 31.925 47.095 31.91 47.115C31.895 47.13 31.87 47.14 31.845 47.14H2.95C2.9 47.14 2.86 47.1 2.86 47.05V2.95C2.86 2.9 2.9 2.86 2.95 2.86H31.845C31.845 2.86 31.89 2.87 31.91 2.885C31.925 2.9 31.935 2.925 31.935 2.95Z" fill="#112876"/>
<path d="M7.47006 32.3051H17.7351C17.9801 32.3051 18.2051 32.2101 18.3751 32.0401C18.5451 31.8701 18.6401 31.6401 18.6401 31.4001C18.6401 31.1601 18.5451 30.9301 18.3751 30.7601C18.2051 30.5901 17.9751 30.4951 17.7351 30.4951H7.47006C6.97006 30.4951 6.56006 30.9001 6.56006 31.4051C6.56006 31.9101 6.96506 32.3151 7.47006 32.3151V32.3051Z" fill="#112876"/>
<path d="M20.4754 32.3054H27.3204C27.8204 32.3054 28.2304 31.9004 28.2304 31.3954C28.2304 30.8904 27.8254 30.4854 27.3204 30.4854H20.4754C19.9754 30.4854 19.5654 30.8904 19.5654 31.3954C19.5654 31.9004 19.9704 32.3054 20.4754 32.3054Z" fill="#112876"/>
<path d="M27.3249 34.7207H17.0599C16.5599 34.7207 16.1499 35.1257 16.1499 35.6307C16.1499 36.1357 16.5549 36.5407 17.0599 36.5407H27.3249C27.8249 36.5407 28.2349 36.1357 28.2349 35.6307C28.2349 35.1257 27.8299 34.7207 27.3249 34.7207Z" fill="#112876"/>
<path d="M7.47006 36.5358H14.3151C14.8151 36.5358 15.2251 36.1308 15.2251 35.6258C15.2251 35.1208 14.8201 34.7158 14.3151 34.7158H7.47006C6.97006 34.7158 6.56006 35.1208 6.56006 35.6258C6.56006 36.1308 6.96506 36.5358 7.47006 36.5358Z" fill="#112876"/>
<path d="M17.7401 38.9502H7.47006C6.97006 38.9502 6.56006 39.3552 6.56006 39.8602C6.56006 40.3652 6.96506 40.7702 7.47006 40.7702H17.7351C17.9801 40.7702 18.2051 40.6752 18.3751 40.5052C18.5451 40.3352 18.6401 40.1052 18.6401 39.8652C18.6401 39.6252 18.5451 39.3952 18.3751 39.2252C18.2051 39.0552 17.9751 38.9602 17.7351 38.9602L17.7401 38.9502Z" fill="#112876"/>
<path d="M27.3253 38.9502H20.4803C19.9803 38.9502 19.5703 39.3552 19.5703 39.8602C19.5703 40.3652 19.9753 40.7702 20.4803 40.7702H27.3253C27.8253 40.7702 28.2353 40.3652 28.2353 39.8602C28.2353 39.3552 27.8303 38.9502 27.3253 38.9502Z" fill="#112876"/>
<path d="M13.7501 26.25H20.7501C21.1211 26.25 21.4781 26.103 21.7406 25.8405C22.0031 25.578 22.1501 25.221 22.1501 24.85V19.25H23.8843V22.75C23.8843 22.75 23.8843 23.0737 24.4443 23.0632C24.9536 23.0527 24.9501 22.75 24.9501 22.75V16.45C24.9501 16.2645 24.8766 16.086 24.7453 15.9547L22.1501 13.3595V10.15C22.1501 9.779 22.0031 9.422 21.7406 9.1595C21.4781 8.897 21.1211 8.75 20.7501 8.75H13.7501C13.3791 8.75 13.0221 8.897 12.7596 9.1595C12.4971 9.422 12.3501 9.779 12.3501 10.15V24.85C12.3501 25.221 12.4971 25.578 12.7596 25.8405C13.0221 26.103 13.3791 26.25 13.7501 26.25ZM22.1501 15.0045L23.8843 16.4045V17.85H22.1501V15.0045ZM13.4158 9.975H21.0843V14.35H13.4158V9.975ZM13.4158 15.4158H21.0843V25.1842H13.4158V15.4158Z" fill="#112876" stroke="#112876" stroke-width="0.35"/>
<path d="M17.5246 17.1747C17.5246 17.1099 17.5088 17.0469 17.4808 17.0014C17.4528 16.9559 17.4161 16.9297 17.3776 16.9297H15.1743C15.0938 16.9297 15.0273 17.0399 15.0273 17.1747C15.0273 17.3094 15.0938 17.4197 15.1743 17.4197H17.3776C17.4161 17.4197 17.4546 17.3934 17.4808 17.3479C17.5088 17.3024 17.5246 17.2394 17.5246 17.1747Z" fill="#112876" stroke="#112876" stroke-width="0.35"/>
<path d="M17.378 17.5H15.1747C15.068 17.5 14.9805 17.3548 14.9805 17.1763C14.9805 16.9978 15.068 16.8525 15.1747 16.8525H17.378C17.4305 16.8525 17.4795 16.8858 17.5162 16.947C17.553 17.0083 17.574 17.0905 17.574 17.1763C17.574 17.262 17.553 17.3443 17.5162 17.4055C17.4795 17.4668 17.4305 17.5 17.378 17.5ZM15.1747 17.01C15.1205 17.01 15.075 17.0835 15.075 17.1745C15.075 17.2655 15.1187 17.339 15.1747 17.339H17.378C17.4042 17.339 17.4287 17.3215 17.448 17.2918C17.4672 17.262 17.4777 17.2183 17.4777 17.1745C17.4777 17.1308 17.4672 17.0888 17.448 17.0573C17.4287 17.0258 17.4042 17.0083 17.378 17.0083H15.1747V17.01Z" fill="#112876" stroke="#112876" stroke-width="0.35"/>
<path d="M19.4358 16.9316H17.9658C17.8853 16.9316 17.8188 17.0419 17.8188 17.1766C17.8188 17.3114 17.8853 17.4216 17.9658 17.4216H19.4358C19.5163 17.4216 19.5828 17.3114 19.5828 17.1766C19.5828 17.0419 19.5163 16.9316 19.4358 16.9316Z" fill="#112876" stroke="#112876" stroke-width="0.35"/>
<path d="M19.4357 17.5H17.9657C17.859 17.5 17.7715 17.3548 17.7715 17.1763C17.7715 16.9978 17.859 16.8525 17.9657 16.8525H19.4357C19.5425 16.8525 19.63 16.9978 19.63 17.1763C19.63 17.3548 19.5425 17.5 19.4357 17.5ZM17.9657 17.01C17.9115 17.01 17.866 17.0835 17.866 17.1745C17.866 17.2655 17.9097 17.339 17.9657 17.339H19.4357C19.49 17.339 19.5355 17.2655 19.5355 17.1745C19.5355 17.0835 19.4917 17.01 19.4357 17.01H17.9657Z" fill="#112876" stroke="#112876" stroke-width="0.35"/>
</svg>
