<svg width="23" height="23" viewBox="0 0 23 23" fill="none" xmlns="http://www.w3.org/2000/svg">
<rect x="0.5" y="0.5" width="22" height="22" rx="4.5" stroke="#E1E7FB"/>
<path d="M15.4275 13.0842L16.1774 12.3343C16.2946 12.2171 16.4985 12.2991 16.4985 12.4679V15.8752C16.4985 16.4962 15.9946 17 15.3736 17H7.12484C6.50383 17 6 16.4962 6 15.8752V7.62637C6 7.00537 6.50383 6.50154 7.12484 6.50154H13.5341C13.7004 6.50154 13.7848 6.70307 13.6676 6.82258L12.9177 7.57247C12.8826 7.60763 12.8357 7.62637 12.7842 7.62637H7.12484V15.8752H15.3736V13.2154C15.3736 13.1662 15.3924 13.1193 15.4275 13.0842ZM19.0973 8.35517L12.9435 14.509L10.8251 14.7433C10.2111 14.8113 9.68852 14.2934 9.75648 13.6747L9.99082 11.5563L16.1446 5.40248C16.6812 4.86584 17.5483 4.86584 18.0826 5.40248L19.095 6.41483C19.6316 6.95147 19.6316 7.82088 19.0973 8.35517ZM16.782 9.07929L15.4205 7.71777L11.0664 12.0742L10.8954 13.6044L12.4256 13.4333L16.782 9.07929ZM18.3005 7.21159L17.2882 6.19924C17.1921 6.10316 17.0351 6.10316 16.9414 6.19924L16.2173 6.92335L17.5788 8.28487L18.3029 7.56076C18.3966 7.46233 18.3966 7.30767 18.3005 7.21159Z" fill="#4E6890"/>
</svg>
