<svg width="18" height="18" viewBox="0 0 18 18" fill="none" xmlns="http://www.w3.org/2000/svg">
<path fill-rule="evenodd" clip-rule="evenodd" d="M15.8396 8.99999C15.8396 10.3527 15.4385 11.6751 14.687 12.7999C13.9355 13.9247 12.8674 14.8014 11.6177 15.3191C10.3679 15.8369 8.99275 15.9725 7.66597 15.7087C6.3392 15.4449 5.12043 14.7937 4.16376 13.8373C3.20709 12.8809 2.55548 11.6623 2.29134 10.3356C2.02719 9.00893 2.16236 7.6337 2.67975 6.38382C3.19715 5.13394 4.07354 4.06554 5.1981 3.31372C6.32267 2.56189 7.64492 2.16039 8.99765 2.16C9.15148 2.16 9.299 2.09889 9.40777 1.99012C9.51655 1.88135 9.57765 1.73382 9.57765 1.58C9.57765 1.42617 9.51655 1.27865 9.40777 1.16988C9.299 1.06111 9.15148 1 8.99765 1C7.20682 1.00053 5.46795 1.60192 4.05944 2.70789C2.65092 3.81386 1.65422 5.36044 1.22891 7.10004C0.803598 8.83963 0.97427 10.6716 1.7136 12.3027C2.45293 13.9338 3.71817 15.2697 5.30674 16.0964C6.89531 16.9232 8.71535 17.193 10.4755 16.8627C12.2356 16.5324 13.834 15.6211 15.0147 14.2747C16.1955 12.9283 16.8904 11.2246 16.9881 9.43646C17.0858 7.64829 16.5807 5.87905 15.5536 4.41199L16.2166 3.835C16.2958 3.76614 16.3549 3.67709 16.3874 3.57734C16.42 3.47758 16.4249 3.37086 16.4016 3.26854C16.3783 3.16622 16.3277 3.07214 16.2551 2.99632C16.1826 2.9205 16.0908 2.86578 15.9896 2.838L13.4696 2.148C13.3776 2.12288 13.2808 2.12086 13.1878 2.14212C13.0947 2.16338 13.0084 2.20725 12.9364 2.26986C12.8644 2.33247 12.809 2.41187 12.775 2.50103C12.741 2.59019 12.7296 2.68635 12.7416 2.781L13.0736 5.37299C13.087 5.47716 13.1283 5.57576 13.1933 5.65826C13.2583 5.74077 13.3444 5.80408 13.4426 5.84145C13.5407 5.87882 13.6472 5.88884 13.7506 5.87044C13.854 5.85204 13.9504 5.80592 14.0296 5.73699L14.6726 5.17699C15.4355 6.30584 15.8424 7.63752 15.8406 8.99999H15.8396Z" fill="#4E6890" stroke="#4E6890" stroke-width="0.35"/>
<path d="M10.0203 6.24654C9.92653 6.15278 9.79935 6.1001 9.66674 6.1001C9.53413 6.1001 9.40696 6.15278 9.31319 6.24654C9.21942 6.34031 9.16674 6.46749 9.16674 6.6001V9.50009H6.16675C6.03414 9.50009 5.90696 9.55277 5.81319 9.64654C5.71943 9.74031 5.66675 9.86748 5.66675 10.0001C5.66675 10.1327 5.71943 10.2599 5.81319 10.3536C5.90696 10.4474 6.03414 10.5001 6.16675 10.5001H9.66674C9.79935 10.5001 9.92653 10.4474 10.0203 10.3536C10.1141 10.2599 10.1667 10.1327 10.1667 10.0001V6.6001C10.1667 6.46749 10.1141 6.34031 10.0203 6.24654Z" fill="#4E6890" stroke="#4E6890" stroke-width="0.35"/>
</svg>
