<svg width="20" height="20" viewBox="0 0 20 20" fill="none" xmlns="http://www.w3.org/2000/svg">
<path d="M10 1C5.03429 1 1 5.03429 1 10C1 14.9657 5.03429 19 10 19C14.9657 19 19 14.9657 19 10C19 5.03429 14.9657 1 10 1ZM10 1.81818C14.5234 1.81818 18.1818 5.47662 18.1818 10C18.1818 14.5234 14.5234 18.1818 10 18.1818C5.47662 18.1818 1.81818 14.5234 1.81818 10C1.81818 5.47662 5.47662 1.81818 10 1.81818ZM10 2.84091C6.05118 2.84091 2.84091 6.05081 2.84091 10C2.84091 13.9492 6.05118 17.1591 10 17.1591C13.9488 17.1591 17.1591 13.9492 17.1591 10C17.1591 6.05081 13.9488 2.84091 10 2.84091ZM9.59091 3.67188V8.6321C9.49704 8.66059 9.40718 8.69456 9.32244 8.74058L5.81339 5.23153C6.83393 4.33373 8.14558 3.76356 9.59091 3.67188ZM10.4091 3.67188C11.8544 3.76356 13.1661 4.33373 14.187 5.23153L10.6779 8.74058C10.5932 8.6942 10.5033 8.66059 10.4095 8.6321L10.4091 3.67188ZM5.23811 5.81303L8.74095 9.31587C8.69347 9.40207 8.66132 9.49521 8.63247 9.59091H3.67188C3.76392 8.14411 4.33884 6.83429 5.23811 5.81303ZM14.7623 5.81303C15.6615 6.83429 16.2364 8.14411 16.3285 9.59091H11.3683C11.3394 9.49521 11.3069 9.40207 11.2598 9.31587L14.7623 5.81303ZM10 9.38636C10.3437 9.38636 10.6136 9.65629 10.6136 10C10.6136 10.3437 10.3437 10.6136 10 10.6136C9.65629 10.6136 9.38636 10.3437 9.38636 10C9.38636 9.65629 9.65629 9.38636 10 9.38636ZM3.67188 10.4091H8.6321C8.66059 10.503 8.69456 10.5928 8.74058 10.6776L5.23153 14.1866C4.33373 13.1657 3.76356 11.8544 3.67188 10.4091ZM11.3679 10.4091H16.3281C16.2364 11.8544 15.6663 13.1661 14.7685 14.187L11.2594 10.6779C11.3054 10.5928 11.3394 10.503 11.3679 10.4091ZM9.31587 11.2591C9.40207 11.3065 9.49521 11.3387 9.59091 11.3675V16.3278C8.14411 16.2357 6.83466 15.6608 5.81303 14.7615L9.31587 11.2591ZM10.6776 11.2591L14.1866 14.7619C13.1653 15.6612 11.8555 16.2361 10.4087 16.3281V11.3679C10.5026 11.3394 10.5928 11.3054 10.6776 11.2591Z" fill="#112876" stroke="#112876" stroke-width="0.35"/>
</svg>
