<svg width="14" height="18" viewBox="0 0 14 18" fill="none" xmlns="http://www.w3.org/2000/svg">
<path d="M12.8426 3.28289L10.2189 0.658832C9.79453 0.237027 9.22148 3.51562e-06 8.62734 3.51562e-06L2.25 0C1.00723 0 0 1.00723 0 2.25L0.000228516 15.75C0.000228516 16.9924 1.00746 18 2.25023 18H11.25C12.4875 18 13.5 16.9875 13.5 15.75V4.87266C13.5 4.27852 13.2645 3.70547 12.8426 3.28289ZM11.8125 15.75C11.8125 16.0606 11.5606 16.3125 11.25 16.3125H2.2507C1.93999 16.3125 1.6882 16.0606 1.6882 15.75L1.6875 2.25457C1.6875 1.94393 1.93936 1.69207 2.25 1.69207H7.875V4.5C7.875 5.12121 8.37879 5.625 9 5.625H11.7809V15.75H11.8125ZM3.375 9.84375C3.375 10.3113 3.75469 10.6875 4.21875 10.6875H9.28125C9.74883 10.6875 10.125 10.3113 10.125 9.84375C10.125 9.37618 9.74883 9 9.28125 9H4.21875C3.75469 9 3.375 9.37969 3.375 9.84375ZM9.28125 12.375H4.21875C3.75469 12.375 3.375 12.7547 3.375 13.2188C3.375 13.6828 3.75293 14.0625 4.21875 14.0625H9.28125C9.74707 14.0625 10.125 13.6846 10.125 13.2188C10.125 12.7529 9.74883 12.375 9.28125 12.375Z" fill="white"/>
</svg>
