<svg width="35" height="50" viewBox="0 0 35 50" fill="none" xmlns="http://www.w3.org/2000/svg">
<path d="M33.93 0.865C33.37 0.305 32.63 0 31.845 0H2.95C2.165 0 1.42 0.305 0.865 0.865C0.31 1.425 0 2.175 0 2.95V47.05C0 47.835 0.305 48.58 0.865 49.135C1.42 49.69 2.165 50 2.95 50H31.845C32.635 50 33.375 49.695 33.93 49.135C34.485 48.575 34.795 47.835 34.795 47.05V2.95C34.795 2.16 34.49 1.42 33.93 0.865ZM31.935 2.95V47.05C31.935 47.05 31.925 47.095 31.91 47.115C31.895 47.13 31.87 47.14 31.845 47.14H2.95C2.9 47.14 2.86 47.1 2.86 47.05V2.95C2.86 2.9 2.9 2.86 2.95 2.86H31.845C31.845 2.86 31.89 2.87 31.91 2.885C31.925 2.9 31.935 2.925 31.935 2.95Z" fill="#112876"/>
<path d="M27.3249 34.7197H17.0599C16.5599 34.7197 16.1499 35.1247 16.1499 35.6297C16.1499 36.1347 16.5549 36.5397 17.0599 36.5397H27.3249C27.8249 36.5397 28.2349 36.1347 28.2349 35.6297C28.2349 35.1247 27.8299 34.7197 27.3249 34.7197Z" fill="#112876"/>
<path d="M7.47006 36.5348H14.3151C14.8151 36.5348 15.2251 36.1298 15.2251 35.6248C15.2251 35.1198 14.8201 34.7148 14.3151 34.7148H7.47006C6.97006 34.7148 6.56006 35.1198 6.56006 35.6248C6.56006 36.1298 6.96506 36.5348 7.47006 36.5348Z" fill="#112876"/>
<path d="M17.7401 38.9502H7.47006C6.97006 38.9502 6.56006 39.3552 6.56006 39.8602C6.56006 40.3652 6.96506 40.7702 7.47006 40.7702H17.7351C17.9801 40.7702 18.2051 40.6752 18.3751 40.5052C18.5451 40.3352 18.6401 40.1052 18.6401 39.8652C18.6401 39.6252 18.5451 39.3952 18.3751 39.2252C18.2051 39.0552 17.9751 38.9602 17.7351 38.9602L17.7401 38.9502Z" fill="#112876"/>
<path d="M27.3253 38.9502H20.4803C19.9803 38.9502 19.5703 39.3552 19.5703 39.8602C19.5703 40.3652 19.9753 40.7702 20.4803 40.7702H27.3253C27.8253 40.7702 28.2353 40.3652 28.2353 39.8602C28.2353 39.3552 27.8303 38.9502 27.3253 38.9502Z" fill="#112876"/>
<path d="M15.6567 10.4305C15.5686 10.1431 15.455 9.86289 15.3043 9.59217C14.5647 8.28367 13.2431 7.5 11.7661 7.5C10.2891 7.5 9.05563 8.24093 8.3044 9.4758L6.1875 8.92961V29.1816L13.8274 31.1574L21.1101 29.2742L28.75 31.25V10.9957L21.1101 9.01985L15.6544 10.4305H15.6567ZM28.0428 25.7263L27.8365 25.8142C26.6864 26.2962 26.0789 26.0374 25.4877 25.7857C24.9567 25.5601 24.4049 25.3273 23.6444 25.7097C22.3251 26.3699 22.6335 28.1913 22.8375 28.9726L21.4718 28.6188V27.1607H20.76V28.6188L18.2837 29.2599C17.4908 27.2271 15.9095 26.2677 14.1891 26.7451V24.3917C14.2563 24.3988 14.3212 24.4107 14.3885 24.4178C14.8754 24.4796 15.3994 24.5484 15.9582 24.5484C17.296 24.5484 18.8657 24.1661 20.7624 22.4349V23.2589L21.4742 23.2399V21.9789C22.8862 21.8958 23.3523 20.7915 23.7024 19.9675C23.9968 19.2646 24.2032 18.8347 24.6739 18.7896C25.2442 18.7374 25.4321 19.096 25.7798 19.8393C26.1601 20.6633 26.6377 21.6845 28.0498 22.0193V25.7287H28.0475L28.0428 25.7263ZM9.36169 25.1872C8.78204 24.2278 7.83836 24.1186 6.89932 24.1305V21.6773C7.25638 21.7462 7.61577 21.6108 7.94501 21.485C8.45279 21.2879 8.93738 21.105 9.48458 21.5063C10.0828 21.9481 10.3239 22.8885 10.5813 23.8835C10.9824 25.4532 11.4415 27.2248 13.4749 27.5145V30.3143L9.96222 29.4072C10.0596 27.5311 9.98772 26.2298 9.36169 25.1896V25.1872ZM14.1844 27.5002C15.6011 27.0039 16.8879 27.7401 17.5835 29.4357L14.1844 30.3143V27.5002ZM26.2528 11.2403C26.2668 11.283 26.2807 11.3281 26.2946 11.3709C26.6864 12.5559 26.749 13.349 26.487 13.7219C26.1949 14.1375 25.388 14.1232 24.5347 14.109C24.0502 14.1018 23.5215 14.0947 23.0091 14.1683C22.4387 14.2514 21.8962 14.4391 21.4695 14.8428V9.86051L26.2018 11.0859L26.2552 11.2379L26.2528 11.2403ZM11.7661 8.22905C12.9857 8.22905 14.0778 8.87499 14.6876 9.9555C15.295 11.0384 15.295 12.3279 14.6876 13.4108L11.7661 18.5925L8.84464 13.4108C8.23716 12.3279 8.23716 11.0384 8.84464 9.9555C9.45212 8.87261 10.5465 8.22905 11.7661 8.22905ZM7.97052 10.1384C7.50448 11.3234 7.59027 12.6414 8.22557 13.7765L11.7615 20.053L13.876 16.3032H14.1775V15.7642L15.2974 13.7789C15.7611 12.9596 15.9303 12.0358 15.8167 11.1405L20.7531 9.86526V15.5386C18.8008 14.762 17.2728 15.2441 16.4428 16.9231C16.248 17.3196 16.1506 17.7257 16.0648 18.0819C15.986 18.4073 15.9188 18.6875 15.7935 18.9155C15.6196 19.2408 15.3229 19.4546 14.7223 19.5424C14.5624 19.5638 14.3815 19.578 14.1751 19.5852V19.5709L13.8181 19.5899H13.6697V19.597L13.4633 19.6089V20.338H14.1751V20.3166C16.19 20.2691 16.4984 19.3263 16.7256 18.374C16.7372 18.3384 16.7442 18.298 16.7535 18.26C16.8323 17.9252 16.9134 17.5832 17.0734 17.2579C17.725 15.9423 18.8564 15.5884 20.4331 16.1964C20.5189 16.2296 20.6 16.2629 20.6858 16.2985L20.7461 16.3246V21.4304C18.0519 24.1495 16.2271 23.9191 14.4627 23.6888C14.3676 23.6769 14.2702 23.6626 14.1751 23.6531V23.5985L13.7949 23.6104L13.7137 23.5985V23.6104L13.468 23.6175V26.7783C11.991 26.5123 11.6363 25.1445 11.2653 23.703C10.987 22.6249 10.7042 21.5135 9.89497 20.9174C9.03709 20.2905 8.25803 20.5849 7.69228 20.8034C7.27261 20.9649 7.07321 21.0219 6.92714 20.9174L6.89468 20.8913V9.86051L7.96588 10.1384H7.97052ZM6.89932 24.8619C7.83604 24.85 8.39483 24.9759 8.75653 25.5719C9.21562 26.3295 9.3501 27.2984 9.25735 29.2243L6.90164 28.6164V24.8619H6.89932ZM23.649 29.1768L23.6166 29.0818C23.6096 29.0605 22.8908 26.8994 23.962 26.3604C24.435 26.1229 24.7481 26.2535 25.2211 26.4554C25.8656 26.7285 26.6656 27.068 28.0475 26.51V30.312L23.649 29.1792V29.1768ZM28.0428 21.2546C27.0922 20.9602 26.7444 20.2335 26.4128 19.5234C26.072 18.7896 25.6825 17.9561 24.602 18.0582C23.6884 18.1413 23.3453 18.9559 23.0392 19.673C22.7007 20.471 22.4016 21.1668 21.4672 21.2428V16.0681L21.4811 16.0753L21.655 15.7594C22.1813 14.7976 23.3708 14.819 24.5185 14.838C25.5642 14.857 26.5496 14.8736 27.0597 14.1541C27.4608 13.5865 27.4446 12.6699 27.0134 11.3044L28.0382 11.5703V21.2546H28.0428Z" fill="#112876" stroke="#112876" stroke-width="0.35"/>
<path d="M14.5 21.75L13.3125 21.8018V22.9375H14.5V21.75Z" fill="#112876" stroke="#112876" stroke-width="0.35"/>
<path d="M14.5 17L13.3125 17.0518V18.1875H14.5V17Z" fill="#112876" stroke="#112876" stroke-width="0.35"/>
<path d="M20.4375 25.3125H21.625H20.4375Z" fill="#112876" stroke="#112876" stroke-width="0.35"/>
<path d="M9.75 11.6562C9.75 12.6375 10.5478 13.4375 11.5313 13.4375C12.5147 13.4375 13.3125 12.6397 13.3125 11.6562C13.3125 10.6728 12.5147 9.875 11.5313 9.875C10.5478 9.875 9.75 10.6728 9.75 11.6562ZM12.6576 11.6562C12.6576 12.2792 12.1542 12.7826 11.5313 12.7826C10.9083 12.7826 10.4049 12.2792 10.4049 11.6562C10.4049 11.0333 10.9083 10.5299 11.5313 10.5299C12.1542 10.5299 12.6576 11.0376 12.6576 11.6562Z" fill="#112876" stroke="#112876" stroke-width="0.35"/>
</svg>
