<svg width="23" height="23" viewBox="0 0 23 23" fill="none" xmlns="http://www.w3.org/2000/svg">
<rect x="0.5" y="0.5" width="22" height="22" rx="4.5" stroke="#E1E7FB"/>
<path fill-rule="evenodd" clip-rule="evenodd" d="M11 17.25C12.3924 17.25 13.7277 16.6969 14.7123 15.7123C15.6969 14.7277 16.25 13.3924 16.25 12C16.25 10.6076 15.6969 9.27226 14.7123 8.28769C13.7277 7.30312 12.3924 6.75 11 6.75C9.60761 6.75 8.27226 7.30312 7.28769 8.28769C6.30312 9.27226 5.75 10.6076 5.75 12C5.75 13.3924 6.30312 14.7277 7.28769 15.7123C8.27226 16.6969 9.60761 17.25 11 17.25ZM11 18C12.5913 18 14.1174 17.3679 15.2426 16.2426C16.3679 15.1174 17 13.5913 17 12C17 10.4087 16.3679 8.88258 15.2426 7.75736C14.1174 6.63214 12.5913 6 11 6C9.4087 6 7.88258 6.63214 6.75736 7.75736C5.63214 8.88258 5 10.4087 5 12C5 13.5913 5.63214 15.1174 6.75736 16.2426C7.88258 17.3679 9.4087 18 11 18Z" fill="#4E6890" stroke="#4E6890" stroke-width="0.5"/>
<path fill-rule="evenodd" clip-rule="evenodd" d="M8 12.0005C8 12.0999 8.03951 12.1953 8.10984 12.2656C8.18016 12.336 8.27554 12.3755 8.375 12.3755H12.7198L11.1095 13.985C11.0746 14.0198 11.047 14.0612 11.0281 14.1068C11.0092 14.1523 10.9995 14.2012 10.9995 14.2505C10.9995 14.2998 11.0092 14.3486 11.0281 14.3942C11.047 14.4397 11.0746 14.4811 11.1095 14.516C11.1444 14.5508 11.1858 14.5785 11.2313 14.5974C11.2769 14.6162 11.3257 14.6259 11.375 14.6259C11.4243 14.6259 11.4731 14.6162 11.5187 14.5974C11.5642 14.5785 11.6056 14.5508 11.6405 14.516L13.8905 12.266C13.9254 12.2311 13.9531 12.1898 13.972 12.1442C13.9909 12.0986 14.0007 12.0498 14.0007 12.0005C14.0007 11.9511 13.9909 11.9023 13.972 11.8567C13.9531 11.8112 13.9254 11.7698 13.8905 11.735L11.6405 9.48497C11.6056 9.45011 11.5642 9.42245 11.5187 9.40358C11.4731 9.38471 11.4243 9.375 11.375 9.375C11.3257 9.375 11.2769 9.38471 11.2313 9.40358C11.1858 9.42245 11.1444 9.45011 11.1095 9.48497C11.0746 9.51984 11.047 9.56123 11.0281 9.60679C11.0092 9.65234 10.9995 9.70117 10.9995 9.75047C10.9995 9.79978 11.0092 9.84861 11.0281 9.89416C11.047 9.93972 11.0746 9.98111 11.1095 10.016L12.7198 11.6255H8.375C8.27554 11.6255 8.18016 11.665 8.10984 11.7353C8.03951 11.8056 8 11.901 8 12.0005Z" fill="#4E6890" stroke="#4E6890" stroke-width="0.5"/>
</svg>
