<svg width="22" height="16" viewBox="0 0 22 16" fill="none" xmlns="http://www.w3.org/2000/svg">
<path fill-rule="evenodd" clip-rule="evenodd" d="M2.91083e-09 1.99928C2.91083e-09 1.46904 0.210638 0.960514 0.585576 0.585576C0.960514 0.210638 1.46904 0 1.99928 0H13.995C14.5252 0 15.0337 0.210638 15.4087 0.585576C15.7836 0.960514 15.9942 1.46904 15.9942 1.99928V3.99856H17.3538C17.6533 3.99883 17.949 4.0664 18.2189 4.19629C18.4888 4.32617 18.7261 4.51505 18.9132 4.74896L20.8872 7.21474C21.1712 7.56952 21.3258 8.01049 21.3257 8.46496V11.3293C21.3257 11.8595 21.115 12.368 20.7401 12.743C20.3651 13.1179 19.8566 13.3285 19.3264 13.3285H18.66C18.66 14.0355 18.3791 14.7136 17.8792 15.2135C17.3793 15.7134 16.7012 15.9942 15.9942 15.9942C15.2873 15.9942 14.6092 15.7134 14.1093 15.2135C13.6094 14.7136 13.3285 14.0355 13.3285 13.3285H6.66427C6.66504 13.6839 6.59476 14.0357 6.45757 14.3635C6.32039 14.6913 6.11906 14.9883 5.86542 15.2371C5.61179 15.486 5.31096 15.6816 4.98063 15.8125C4.65031 15.9434 4.29714 16.007 3.94191 15.9994C3.58667 15.9918 3.23652 15.9133 2.91206 15.7685C2.58759 15.6237 2.29536 15.4155 2.05253 15.1561C1.8097 14.8967 1.62117 14.5914 1.49804 14.2581C1.37491 13.9248 1.31965 13.5702 1.33552 13.2152C0.945057 13.0778 0.606879 12.8226 0.36766 12.4848C0.128441 12.1469 -2.23279e-05 11.7432 2.91083e-09 11.3293L2.91083e-09 1.99928ZM1.72471 11.937C1.96569 11.5425 2.30519 11.2175 2.70982 10.9939C3.11446 10.7703 3.57032 10.6558 4.03259 10.6617C4.49486 10.6676 4.94763 10.7937 5.34641 11.0276C5.7452 11.2615 6.07626 11.5951 6.30706 11.9957H13.6857C13.9202 11.5909 14.2566 11.2545 14.6614 11.02V1.99928C14.6614 1.82253 14.5912 1.65303 14.4662 1.52805C14.3412 1.40307 14.1717 1.33285 13.995 1.33285H1.99928C1.82253 1.33285 1.65303 1.40307 1.52805 1.52805C1.40307 1.65303 1.33285 1.82253 1.33285 1.99928V11.3293C1.33275 11.4575 1.36967 11.5831 1.43918 11.6909C1.50868 11.7987 1.60783 11.8842 1.72471 11.937ZM15.9942 10.6628C16.4622 10.6628 16.9218 10.786 17.3271 11.02C17.7323 11.2539 18.0688 11.5905 18.3027 11.9957H19.3264C19.5031 11.9957 19.6726 11.9255 19.7976 11.8005C19.9226 11.6755 19.9928 11.506 19.9928 11.3293V8.46362C19.9925 8.31239 19.9408 8.16574 19.8462 8.04777L17.8736 5.58199C17.8112 5.50394 17.7322 5.4409 17.6422 5.39752C17.5522 5.35415 17.4536 5.33156 17.3538 5.33142H15.9942V10.6628ZM3.99856 11.9957C3.64507 11.9957 3.30605 12.1361 3.05609 12.3861C2.80613 12.636 2.66571 12.975 2.66571 13.3285C2.66571 13.682 2.80613 14.0211 3.05609 14.271C3.30605 14.521 3.64507 14.6614 3.99856 14.6614C4.35206 14.6614 4.69107 14.521 4.94103 14.271C5.19099 14.0211 5.33142 13.682 5.33142 13.3285C5.33142 12.975 5.19099 12.636 4.94103 12.3861C4.69107 12.1361 4.35206 11.9957 3.99856 11.9957ZM15.9942 11.9957C15.6408 11.9957 15.3017 12.1361 15.0518 12.3861C14.8018 12.636 14.6614 12.975 14.6614 13.3285C14.6614 13.682 14.8018 14.0211 15.0518 14.271C15.3017 14.521 15.6408 14.6614 15.9942 14.6614C16.3477 14.6614 16.6868 14.521 16.9367 14.271C17.1867 14.0211 17.3271 13.682 17.3271 13.3285C17.3271 12.975 17.1867 12.636 16.9367 12.3861C16.6868 12.1361 16.3477 11.9957 15.9942 11.9957Z" fill="#4E6890"/>
<path d="M3.71684 7.06842C3.6127 6.96132 3.5542 6.81605 3.5542 6.66458C3.5542 6.51311 3.6127 6.36784 3.71684 6.26074C3.82098 6.15363 3.96222 6.09346 4.10949 6.09346H10.5431L8.15869 3.64221C8.05443 3.53497 7.99585 3.38952 7.99585 3.23786C7.99585 3.0862 8.05443 2.94075 8.15869 2.8335C8.26296 2.72626 8.40438 2.66602 8.55184 2.66602C8.6993 2.66602 8.84072 2.72626 8.94499 2.8335L12.2768 6.26022C12.3285 6.31328 12.3695 6.3763 12.3975 6.44569C12.4255 6.51507 12.4399 6.58946 12.4399 6.66458C12.4399 6.7397 12.4255 6.81408 12.3975 6.88347C12.3695 6.95285 12.3285 7.01588 12.2768 7.06893L8.94499 10.4957C8.84072 10.6029 8.6993 10.6631 8.55184 10.6631C8.40438 10.6631 8.26296 10.6029 8.15869 10.4957C8.05443 10.3884 7.99585 10.243 7.99585 10.0913C7.99585 9.93964 8.05443 9.79419 8.15869 9.68694L10.5431 7.2357H4.10949C3.96222 7.2357 3.82098 7.17553 3.71684 7.06842Z" fill="#4E6890"/>
</svg>
