<svg width="18" height="18" viewBox="0 0 18 18" fill="none" xmlns="http://www.w3.org/2000/svg">
<path fill-rule="evenodd" clip-rule="evenodd" d="M9 16C10.8565 16 12.637 15.2625 13.9497 13.9497C15.2625 12.637 16 10.8565 16 9C16 7.14348 15.2625 5.36301 13.9497 4.05025C12.637 2.7375 10.8565 2 9 2C7.14348 2 5.36301 2.7375 4.05025 4.05025C2.7375 5.36301 2 7.14348 2 9C2 10.8565 2.7375 12.637 4.05025 13.9497C5.36301 15.2625 7.14348 16 9 16ZM9 17C11.1217 17 13.1566 16.1571 14.6569 14.6569C16.1571 13.1566 17 11.1217 17 9C17 6.87827 16.1571 4.84344 14.6569 3.34315C13.1566 1.84285 11.1217 1 9 1C6.87827 1 4.84344 1.84285 3.34315 3.34315C1.84285 4.84344 1 6.87827 1 9C1 11.1217 1.84285 13.1566 3.34315 14.6569C4.84344 16.1571 6.87827 17 9 17Z" fill="#4E6890" stroke="#4E6890" stroke-width="0.5"/>
<path fill-rule="evenodd" clip-rule="evenodd" d="M5 9.00014C5 9.13275 5.05268 9.25993 5.14645 9.3537C5.24021 9.44747 5.36739 9.50014 5.5 9.50014H11.293L9.146 11.6461C9.09951 11.6926 9.06264 11.7478 9.03748 11.8086C9.01232 11.8693 8.99937 11.9344 8.99937 12.0001C8.99937 12.0659 9.01232 12.131 9.03748 12.1917C9.06264 12.2525 9.09951 12.3077 9.146 12.3541C9.19249 12.4006 9.24768 12.4375 9.30842 12.4627C9.36916 12.4878 9.43426 12.5008 9.5 12.5008C9.56574 12.5008 9.63084 12.4878 9.69158 12.4627C9.75232 12.4375 9.80751 12.4006 9.854 12.3541L12.854 9.35414C12.9006 9.3077 12.9375 9.25252 12.9627 9.19178C12.9879 9.13103 13.0009 9.06591 13.0009 9.00014C13.0009 8.93438 12.9879 8.86925 12.9627 8.80851C12.9375 8.74776 12.9006 8.69259 12.854 8.64614L9.854 5.64614C9.80751 5.59966 9.75232 5.56278 9.69158 5.53762C9.63084 5.51246 9.56574 5.49951 9.5 5.49951C9.43426 5.49951 9.36916 5.51246 9.30842 5.53762C9.24768 5.56278 9.19249 5.59966 9.146 5.64614C9.09951 5.69263 9.06264 5.74782 9.03748 5.80856C9.01232 5.8693 8.99937 5.9344 8.99937 6.00014C8.99937 6.06589 9.01232 6.13099 9.03748 6.19173C9.06264 6.25247 9.09951 6.30766 9.146 6.35414L11.293 8.50014H5.5C5.36739 8.50014 5.24021 8.55282 5.14645 8.64659C5.05268 8.74036 5 8.86754 5 9.00014Z" fill="#4E6890" stroke="#4E6890" stroke-width="0.5"/>
</svg>
