<svg width="24" height="18" viewBox="0 0 24 18" fill="none" xmlns="http://www.w3.org/2000/svg">
<path d="M5.14286 6.42857C4.4317 6.42857 3.85714 5.85402 3.85714 5.14286C3.85714 4.4317 4.4317 3.85714 5.14286 3.85714C5.85402 3.85714 6.42857 4.4317 6.42857 5.14286C6.42857 5.85402 5.85402 6.42857 5.14286 6.42857ZM8.03571 5.14286C8.03571 4.60848 8.46562 4.17857 9 4.17857H18C18.5344 4.17857 18.9643 4.60848 18.9643 5.14286C18.9643 5.67723 18.5344 6.10714 18 6.10714H9C8.46562 6.10714 8.03571 5.67723 8.03571 5.14286ZM8.03571 9C8.03571 8.46562 8.46562 8.03571 9 8.03571H18C18.5344 8.03571 18.9643 8.46562 18.9643 9C18.9643 9.53437 18.5344 9.96429 18 9.96429H9C8.46562 9.96429 8.03571 9.53437 8.03571 9ZM8.03571 12.8571C8.03571 12.3228 8.46562 11.8929 9 11.8929H18C18.5344 11.8929 18.9643 12.3228 18.9643 12.8571C18.9643 13.3915 18.5344 13.8214 18 13.8214H9C8.46562 13.8214 8.03571 13.3915 8.03571 12.8571ZM5.14286 7.71429C5.85402 7.71429 6.42857 8.28884 6.42857 9C6.42857 9.71116 5.85402 10.2857 5.14286 10.2857C4.4317 10.2857 3.85714 9.71116 3.85714 9C3.85714 8.28884 4.4317 7.71429 5.14286 7.71429ZM5.14286 14.1429C4.4317 14.1429 3.85714 13.5683 3.85714 12.8571C3.85714 12.146 4.4317 11.5714 5.14286 11.5714C5.85402 11.5714 6.42857 12.146 6.42857 12.8571C6.42857 13.5683 5.85402 14.1429 5.14286 14.1429ZM0 2.57143C0 1.15112 1.15112 0 2.57143 0H20.5714C21.9897 0 23.1429 1.15112 23.1429 2.57143V15.4286C23.1429 16.8469 21.9897 18 20.5714 18H2.57143C1.15112 18 0 16.8469 0 15.4286V2.57143ZM1.92857 2.57143V15.4286C1.92857 15.7821 2.21625 16.0714 2.57143 16.0714H20.5714C20.925 16.0714 21.2143 15.7821 21.2143 15.4286V2.57143C21.2143 2.21625 20.925 1.92857 20.5714 1.92857H2.57143C2.21625 1.92857 1.92857 2.21625 1.92857 2.57143Z" fill="#112876"/>
</svg>
