<svg width="100" height="21" viewBox="0 0 100 21" fill="none" xmlns="http://www.w3.org/2000/svg">
<rect width="100" height="21" rx="5" fill="#FF252B"/>
<path d="M43.2249 10.43C43.5982 10.4967 43.9149 10.6933 44.1749 11.02C44.4349 11.3467 44.5649 11.7167 44.5649 12.13C44.5649 12.4833 44.4715 12.8033 44.2849 13.09C44.1049 13.37 43.8415 13.5933 43.4949 13.76C43.1482 13.92 42.7449 14 42.2849 14H39.5049V7.05H42.1549C42.6282 7.05 43.0349 7.13 43.3749 7.29C43.7149 7.45 43.9715 7.66667 44.1449 7.94C44.3182 8.20667 44.4049 8.50667 44.4049 8.84C44.4049 9.24 44.2982 9.57333 44.0849 9.84C43.8715 10.1067 43.5849 10.3033 43.2249 10.43ZM40.6449 9.97H42.0549C42.4282 9.97 42.7182 9.88667 42.9249 9.72C43.1382 9.54667 43.2449 9.3 43.2449 8.98C43.2449 8.66667 43.1382 8.42333 42.9249 8.25C42.7182 8.07 42.4282 7.98 42.0549 7.98H40.6449V9.97ZM42.1849 13.07C42.5715 13.07 42.8749 12.9767 43.0949 12.79C43.3149 12.6033 43.4249 12.3433 43.4249 12.01C43.4249 11.67 43.3082 11.4 43.0749 11.2C42.8415 11 42.5315 10.9 42.1449 10.9H40.6449V13.07H42.1849ZM45.4237 11.22C45.4237 10.6667 45.537 10.1767 45.7637 9.75C45.997 9.32333 46.3104 8.99333 46.7037 8.76C47.1037 8.52 47.5437 8.4 48.0237 8.4C48.457 8.4 48.8337 8.48667 49.1537 8.66C49.4804 8.82667 49.7404 9.03667 49.9337 9.29V8.49H51.0837V14H49.9337V13.18C49.7404 13.44 49.477 13.6567 49.1437 13.83C48.8104 14.0033 48.4304 14.09 48.0037 14.09C47.5304 14.09 47.097 13.97 46.7037 13.73C46.3104 13.4833 45.997 13.1433 45.7637 12.71C45.537 12.27 45.4237 11.7733 45.4237 11.22ZM49.9337 11.24C49.9337 10.86 49.8537 10.53 49.6937 10.25C49.5404 9.97 49.337 9.75667 49.0837 9.61C48.8304 9.46333 48.557 9.39 48.2637 9.39C47.9704 9.39 47.697 9.46333 47.4437 9.61C47.1904 9.75 46.9837 9.96 46.8237 10.24C46.6704 10.5133 46.5937 10.84 46.5937 11.22C46.5937 11.6 46.6704 11.9333 46.8237 12.22C46.9837 12.5067 47.1904 12.7267 47.4437 12.88C47.7037 13.0267 47.977 13.1 48.2637 13.1C48.557 13.1 48.8304 13.0267 49.0837 12.88C49.337 12.7333 49.5404 12.52 49.6937 12.24C49.8537 11.9533 49.9337 11.62 49.9337 11.24ZM53.1611 7.76C52.9544 7.76 52.7811 7.69 52.6411 7.55C52.5011 7.41 52.4311 7.23667 52.4311 7.03C52.4311 6.82333 52.5011 6.65 52.6411 6.51C52.7811 6.37 52.9544 6.3 53.1611 6.3C53.3611 6.3 53.5311 6.37 53.6711 6.51C53.8111 6.65 53.8811 6.82333 53.8811 7.03C53.8811 7.23667 53.8111 7.41 53.6711 7.55C53.5311 7.69 53.3611 7.76 53.1611 7.76ZM53.7211 15.08C53.7211 15.62 53.5844 16.01 53.3111 16.25C53.0444 16.4967 52.6544 16.62 52.1411 16.62H51.5511V15.66H51.9411C52.1744 15.66 52.3377 15.6133 52.4311 15.52C52.5311 15.4333 52.5811 15.2867 52.5811 15.08V8.49H53.7211V15.08ZM54.8378 11.22C54.8378 10.6667 54.9511 10.1767 55.1778 9.75C55.4111 9.32333 55.7244 8.99333 56.1178 8.76C56.5178 8.52 56.9578 8.4 57.4378 8.4C57.8711 8.4 58.2478 8.48667 58.5678 8.66C58.8944 8.82667 59.1544 9.03667 59.3478 9.29V8.49H60.4978V14H59.3478V13.18C59.1544 13.44 58.8911 13.6567 58.5578 13.83C58.2244 14.0033 57.8444 14.09 57.4178 14.09C56.9444 14.09 56.5111 13.97 56.1178 13.73C55.7244 13.4833 55.4111 13.1433 55.1778 12.71C54.9511 12.27 54.8378 11.7733 54.8378 11.22ZM59.3478 11.24C59.3478 10.86 59.2678 10.53 59.1078 10.25C58.9544 9.97 58.7511 9.75667 58.4978 9.61C58.2444 9.46333 57.9711 9.39 57.6778 9.39C57.3844 9.39 57.1111 9.46333 56.8578 9.61C56.6044 9.75 56.3978 9.96 56.2378 10.24C56.0844 10.5133 56.0078 10.84 56.0078 11.22C56.0078 11.6 56.0844 11.9333 56.2378 12.22C56.3978 12.5067 56.6044 12.7267 56.8578 12.88C57.1178 13.0267 57.3911 13.1 57.6778 13.1C57.9711 13.1 58.2444 13.0267 58.4978 12.88C58.7511 12.7333 58.9544 12.52 59.1078 12.24C59.2678 11.9533 59.3478 11.62 59.3478 11.24Z" fill="white"/>
</svg>
