<svg width="106" height="106" viewBox="0 0 106 106" fill="none" xmlns="http://www.w3.org/2000/svg">
<path d="M52.552 3.69827C43.4249 3.78119 34.5 6.39609 26.7712 11.2517C19.0424 16.1074 12.8133 23.0132 8.77749 31.2C4.7417 39.3868 3.05772 48.5332 3.9131 57.6205C4.76849 66.7079 8.12966 75.3794 13.6223 82.6693C19.1149 89.9592 26.5233 95.5812 35.0224 98.9094C43.5215 102.238 52.7776 103.141 61.7599 101.519C70.7422 99.8976 79.0979 95.8143 85.8966 89.7242C92.6953 83.6341 97.6699 75.7763 100.267 67.026L86.0865 62.8182C84.2689 68.9434 80.7867 74.4439 76.0276 78.707C71.2685 82.97 65.4195 85.8283 59.1319 86.9635C52.8443 88.0987 46.365 87.4663 40.4156 85.1366C34.4663 82.8069 29.2804 78.8714 25.4356 73.7685C21.5907 68.6656 19.2379 62.5955 18.6391 56.2344C18.0404 49.8732 19.2192 43.4708 22.0442 37.74C24.8693 32.0092 29.2297 27.1752 34.6398 23.7762C40.0499 20.3773 46.2974 18.5468 52.6864 18.4888L52.552 3.69827Z" fill="#F0F3FD"/>
<path d="M52.552 3.69827C59.3837 3.63621 66.1537 4.99466 72.4327 7.68743C78.7116 10.3802 84.3623 14.3485 89.0265 19.3407C93.6906 24.3329 97.2663 30.2399 99.5268 36.6871C101.787 43.1342 102.683 49.9808 102.158 56.7926L87.4103 55.6548C87.7782 50.8866 87.151 46.094 85.5687 41.5809C83.9864 37.0679 81.4834 32.933 78.2185 29.4385C74.9536 25.944 70.9981 23.1662 66.6028 21.2812C62.2076 19.3963 57.4686 18.4454 52.6864 18.4888L52.552 3.69827Z" fill="#AFBFF4"/>
<path d="M102.281 54.5105C102.066 61.5179 100.359 68.3989 97.2742 74.6945C94.1894 80.99 89.7974 86.5553 84.3913 91.019L74.9739 79.6133C78.7581 76.4887 81.8325 72.593 83.9919 68.1861C86.1513 63.7793 87.346 58.9625 87.4963 54.0573L102.281 54.5105Z" fill="#224EDF"/>
</svg>
