<svg width="106" height="106" viewBox="0 0 106 106" fill="none" xmlns="http://www.w3.org/2000/svg">
<path d="M52.552 3.69827C39.6361 3.8156 27.2819 8.99678 18.1462 18.1277C9.01039 27.2586 3.82262 39.61 3.6984 52.5259C3.57418 65.4418 8.52343 77.8906 17.4819 87.1955C26.4404 96.5005 38.6926 101.918 51.6039 102.284L52.0227 87.4988C42.9848 87.2428 34.4082 83.4503 28.1373 76.9369C21.8664 70.4234 18.4019 61.7092 18.4889 52.6681C18.5758 43.627 22.2072 34.981 28.6023 28.5894C34.9973 22.1978 43.6452 18.5709 52.6864 18.4888L52.552 3.69827Z" fill="#F0F3FD"/>
<path d="M49.7684 102.198C40.8297 101.611 32.2198 98.5993 24.8637 93.4873C17.5077 88.3753 11.6833 81.3557 8.01632 73.1827C4.34935 65.0097 2.97835 55.992 4.0506 47.0985C5.12284 38.2049 8.5978 29.7716 14.1022 22.7043L25.7715 31.793C21.9184 36.7401 19.486 42.6435 18.7354 48.8689C17.9848 55.0944 18.9445 61.4068 21.5114 67.1279C24.0783 72.849 28.1553 77.7627 33.3046 81.3411C38.4539 84.9195 44.4807 87.0274 50.7378 87.4384L49.7684 102.198Z" fill="#54A0FF"/>
<path d="M9.92121 29.019C14.3854 20.9997 20.9994 14.3857 29.0186 9.92147C37.0379 5.45724 46.1441 3.32006 55.3121 3.75049L54.6184 18.5253C48.2008 18.224 41.8265 19.7201 36.213 22.845C30.5995 25.97 25.9697 30.5998 22.8448 36.2133L9.92121 29.019Z" fill="#FF8A65"/>
<path d="M52.552 3.69827C61.9928 3.61251 71.2596 6.23914 79.2512 11.266C87.2428 16.2928 93.6231 23.5085 97.6338 32.0554L84.2436 38.3388C81.4362 32.3559 76.9699 27.305 71.3758 23.7862C65.7817 20.2674 59.2949 18.4288 52.6864 18.4888L52.552 3.69827Z" fill="#1DD1A1"/>
<path d="M96.7935 30.3509C100.925 38.3398 102.793 47.3067 102.194 56.2808C101.596 65.255 98.554 73.8944 93.3981 81.2639C88.2421 88.6334 81.1685 94.4522 72.9431 98.0903C64.7177 101.728 55.6538 103.047 46.7326 101.904L48.6128 87.2327C54.8576 88.033 61.2023 87.1098 66.9601 84.5632C72.7179 82.0165 77.6695 77.9434 81.2786 72.7848C84.8878 67.6261 87.0171 61.5785 87.436 55.2966C87.855 49.0147 86.5476 42.7378 83.6554 37.1456L96.7935 30.3509Z" fill="#FECA57"/>
</svg>
