<svg width="296" height="41" viewBox="0 0 296 41" fill="none" xmlns="http://www.w3.org/2000/svg">
<path fill-rule="evenodd" clip-rule="evenodd" d="M171.791 6.45298C174.102 9.97276 175.604 13.9032 176.929 17.8805C173.527 18.1152 170.007 17.9392 166.534 17.9979C167.52 13.9618 169.186 9.97276 171.556 6.45298H171.791ZM174.853 1.19678C181.951 9.10455 184.497 19.0303 185.353 29.4841H179.123L178.197 23.3597C173.985 23.0663 169.479 23.301 165.267 23.125L164.974 23.477L164.282 29.2494C162.322 29.4254 160.011 29.4254 158.11 29.2494C159.096 18.7957 161.923 9.04589 168.787 1.19678H174.853Z" fill="url(#paint0_linear_401_126)"/>
<path fill-rule="evenodd" clip-rule="evenodd" d="M234.196 9.73829C236.156 12.9178 235.933 17.7634 233.844 20.7669C231.885 23.6532 228.705 24.9789 225.303 24.5214C222.992 24.1225 220.798 22.2687 219.589 20.1334C217.747 16.7309 218.087 11.6507 220.633 8.64716C221.619 7.66162 222.311 6.86381 223.696 6.23025C224.752 5.73748 225.585 5.62015 226.582 5.47936C229.691 5.30337 232.577 6.91074 234.196 9.73829ZM239.382 7.32138C242.21 11.944 241.928 18.9249 238.983 23.3716C235.639 28.3931 230.149 31.0447 224.094 30.0122C219.706 29.2613 215.612 25.6829 213.875 21.5296C211.447 15.4638 212.89 8.084 217.806 3.52002C218.275 3.00378 219.941 1.90092 220.809 1.61933C225.197 -0.398673 231.146 0.117562 235.006 2.76913C236.731 3.86026 238.467 5.58495 239.382 7.32138Z" fill="url(#paint1_linear_401_126)"/>
<path fill-rule="evenodd" clip-rule="evenodd" d="M151.763 9.63274C153.781 12.6363 153.664 17.5992 151.822 20.6614C149.334 24.2985 144.841 25.108 140.57 24.5918C140.218 18.4205 140.629 12.0614 140.453 5.59673C142.881 4.84584 145.592 5.77272 147.903 6.46494C149.334 7.14543 150.777 8.18963 151.763 9.63274ZM157.007 6.27722C160.07 11.0641 159.718 18.5143 156.714 23.1956C151.634 30.4112 142.342 30.8101 134.082 29.32C134.434 19.7932 134.598 10.0434 133.965 0.692498C142.001 -0.527692 151.869 -0.87967 157.007 6.27722Z" fill="url(#paint2_linear_401_126)"/>
<path fill-rule="evenodd" clip-rule="evenodd" d="M267.27 29.0264C265.534 29.2024 263.692 29.3197 261.897 29.1437C259.585 21.9868 255.256 15.1702 249.143 9.86703C248.909 16.2144 249.026 22.7377 249.026 29.1437C247.067 29.3197 245.037 29.3197 243.078 29.3197L242.843 28.9208L242.902 1.3257H248.041C253.179 4.55217 257.567 9.29214 260.97 14.255L261.146 14.1964C261.146 9.74971 261.322 5.59637 261.263 1.38436C263.281 1.26704 265.135 1.3257 267.212 1.3257L267.27 29.0264Z" fill="url(#paint3_linear_401_126)"/>
<path fill-rule="evenodd" clip-rule="evenodd" d="M211.212 4.37612L211.036 29.4252L205.721 29.6012C203.469 22.2683 199.139 15.8037 193.027 10.2072L192.851 10.3832L192.733 29.437C190.774 29.5543 188.521 29.5543 186.726 29.437C186.491 20.0274 187.125 10.219 186.726 1.38431C188.345 1.03233 190.07 1.20832 191.924 1.26698C196.828 5.02142 201.509 9.98431 204.97 14.8299C205.205 10.5005 205.029 6.11255 205.088 1.32565C206.988 1.14966 209.241 1.14966 211.036 1.20832L211.212 4.37612Z" fill="url(#paint4_linear_401_126)"/>
<path fill-rule="evenodd" clip-rule="evenodd" d="M293.188 5.70176C295.206 8.82263 295.44 13.0933 294.866 16.9533L275.178 17.188C275.061 18.8071 275.753 20.4731 276.797 21.8106C278.475 24.0046 280.833 24.8142 283.555 24.5795C285.573 24.4622 287.192 23.594 288.694 22.3269L294.232 23.5353V23.8873C290.994 28.3926 285.972 30.3519 280.434 30.1173C276.445 29.824 272.527 27.5713 270.673 23.77C268.08 17.8802 268.08 8.98688 272.926 4.02399C277.02 -0.0706834 283.837 -0.481325 289.034 1.65401C290.7 2.47529 292.202 4.08266 293.188 5.70176ZM287.873 7.6611C288.8 8.92822 289.199 10.43 289.316 12.0491L288.682 12.2837H275.354L275.178 12.1078C275.413 9.79643 276.68 7.6611 278.698 6.39398C281.408 4.43464 285.796 5.0682 287.873 7.6611Z" fill="url(#paint5_linear_401_126)"/>
<path d="M6.51328 6.75772V12.8469H20.17V18.5725H6.51328V29.648H0.224609V1.04395H22.0121V6.76946H6.51328V6.75772Z" fill="url(#paint6_linear_401_126)"/>
<path d="M23.5137 29.648V1.04395H29.8023V23.9343H44.0692V29.6598H23.5137V29.648Z" fill="url(#paint7_linear_401_126)"/>
<path d="M88.9581 6.83985V29.648H82.6695V6.83985H73.9639V1.04395H97.6637V6.85158H88.9581V6.83985Z" fill="url(#paint8_linear_401_126)"/>
<path fill-rule="evenodd" clip-rule="evenodd" d="M69.1535 4.36453C66.5019 1.67776 62.7944 0 58.688 0C53.4905 0 48.9382 2.67503 46.3453 6.71105C44.5854 9.15143 43.5647 12.1198 43.5647 15.3345V15.4166C44.0692 20.3678 46.4861 24.0636 50.1936 27.7007L58.9813 37.5678L67.8512 27.2783C71.1128 23.7937 73.7175 20.3561 73.9756 15.3228V15.2407C73.9756 10.9348 72.1688 7.05129 69.1535 4.36453ZM58.688 20.3795C55.4733 20.3795 52.7396 17.7749 52.7396 14.4898C52.7396 11.2046 55.4733 8.50614 58.688 8.50614C62.0084 8.50614 64.7303 11.2046 64.7303 14.4898C64.7303 17.7749 62.0084 20.3795 58.688 20.3795Z" fill="url(#paint9_linear_401_126)"/>
<path fill-rule="evenodd" clip-rule="evenodd" d="M109.209 6.35881C111.544 9.92553 113.057 13.8911 114.406 17.9154C110.957 18.1501 107.402 17.9741 103.894 18.0328C104.891 13.9498 106.581 9.91379 108.974 6.35881H109.209ZM112.306 1.04395C119.486 9.04558 122.056 19.0887 122.936 29.648H116.635L115.697 23.4649C111.438 23.1716 106.886 23.4063 102.615 23.2303L102.322 23.5823L101.618 29.4251C99.6349 29.6011 97.3001 29.6011 95.376 29.4251C96.3732 18.854 99.2243 8.98692 106.182 1.05568H112.306V1.04395Z" fill="url(#paint10_linear_401_126)"/>
<path d="M66.1502 34.5879C65.6926 34.4471 65.2116 34.6935 65.0708 35.151C64.93 35.6086 65.1764 36.0897 65.6339 36.2304C66.948 36.6411 67.3586 37.0635 67.4056 37.1104C67.1709 37.7322 63.9914 38.9055 58.7352 38.9055C53.479 38.9055 50.2994 37.7322 50.0648 37.1808C50.1117 37.0635 50.5341 36.6411 51.8833 36.2304C52.3409 36.0897 52.599 35.6086 52.4582 35.151C52.3174 34.6935 51.8481 34.4471 51.3788 34.5762C49.3608 35.198 48.3401 36.0662 48.3401 37.1456C48.3401 39.9028 54.8751 40.6302 58.7352 40.6302C62.5952 40.6302 69.1303 39.891 69.1303 37.1456C69.1303 36.0662 68.1213 35.2097 66.1502 34.5879Z" fill="url(#paint11_linear_401_126)"/>
<defs>
<linearGradient id="paint0_linear_401_126" x1="171.371" y1="32.5132" x2="175.062" y2="-0.292441" gradientUnits="userSpaceOnUse">
<stop stop-color="#1838A6"/>
<stop offset="1" stop-color="#04AFEF"/>
</linearGradient>
<linearGradient id="paint1_linear_401_126" x1="224.417" y1="38.4811" x2="228.107" y2="5.67529" gradientUnits="userSpaceOnUse">
<stop stop-color="#1838A6"/>
<stop offset="1" stop-color="#04AFEF"/>
</linearGradient>
<linearGradient id="paint2_linear_401_126" x1="144.151" y1="29.4511" x2="147.841" y2="-3.35455" gradientUnits="userSpaceOnUse">
<stop stop-color="#1838A6"/>
<stop offset="1" stop-color="#04AFEF"/>
</linearGradient>
<linearGradient id="paint3_linear_401_126" x1="252.114" y1="41.5967" x2="255.805" y2="8.79104" gradientUnits="userSpaceOnUse">
<stop stop-color="#1838A6"/>
<stop offset="1" stop-color="#04AFEF"/>
</linearGradient>
<linearGradient id="paint4_linear_401_126" x1="196.647" y1="35.3565" x2="200.337" y2="2.55088" gradientUnits="userSpaceOnUse">
<stop stop-color="#1838A6"/>
<stop offset="1" stop-color="#04AFEF"/>
</linearGradient>
<linearGradient id="paint5_linear_401_126" x1="278.7" y1="44.5874" x2="282.391" y2="11.7817" gradientUnits="userSpaceOnUse">
<stop stop-color="#1838A6"/>
<stop offset="1" stop-color="#04AFEF"/>
</linearGradient>
<linearGradient id="paint6_linear_401_126" x1="9.94038" y1="14.3519" x2="13.631" y2="-18.4538" gradientUnits="userSpaceOnUse">
<stop stop-color="#1838A6"/>
<stop offset="1" stop-color="#04AFEF"/>
</linearGradient>
<linearGradient id="paint7_linear_401_126" x1="33.6083" y1="17.0146" x2="37.2989" y2="-15.791" gradientUnits="userSpaceOnUse">
<stop stop-color="#1838A6"/>
<stop offset="1" stop-color="#04AFEF"/>
</linearGradient>
<linearGradient id="paint8_linear_401_126" x1="83.7118" y1="22.6513" x2="87.4024" y2="-10.1545" gradientUnits="userSpaceOnUse">
<stop stop-color="#1838A6"/>
<stop offset="1" stop-color="#04AFEF"/>
</linearGradient>
<linearGradient id="paint9_linear_401_126" x1="58.2397" y1="19.7859" x2="61.9303" y2="-13.0198" gradientUnits="userSpaceOnUse">
<stop stop-color="#1838A6"/>
<stop offset="1" stop-color="#04AFEF"/>
</linearGradient>
<linearGradient id="paint10_linear_401_126" x1="109.592" y1="25.5627" x2="113.283" y2="-7.24291" gradientUnits="userSpaceOnUse">
<stop stop-color="#1838A6"/>
<stop offset="1" stop-color="#04AFEF"/>
</linearGradient>
<linearGradient id="paint11_linear_401_126" x1="60.6593" y1="20.0582" x2="64.3499" y2="-12.7474" gradientUnits="userSpaceOnUse">
<stop stop-color="#1838A6"/>
<stop offset="1" stop-color="#04AFEF"/>
</linearGradient>
</defs>
</svg>
