<svg width="16" height="16" viewBox="0 0 16 16" fill="none" xmlns="http://www.w3.org/2000/svg">
<path d="M0 1.96348C0 1.44273 0.210714 0.943312 0.585786 0.575089C0.960859 0.206866 1.46957 0 2 0L14 0C14.5304 0 15.0391 0.206866 15.4142 0.575089C15.7893 0.943312 16 1.44273 16 1.96348H0Z" fill="#83838B"/>
<path fill-rule="evenodd" clip-rule="evenodd" d="M0 2.94531H16V13.7444C16 14.2652 15.7893 14.7646 15.4142 15.1328C15.0391 15.501 14.5304 15.7079 14 15.7079H2C1.46957 15.7079 0.960859 15.501 0.585786 15.1328C0.210714 14.7646 0 14.2652 0 13.7444V2.94531ZM6.5 6.87227C6.76522 6.87227 7.01957 6.76883 7.20711 6.58472C7.39464 6.40061 7.5 6.1509 7.5 5.89053C7.5 5.63015 7.39464 5.38045 7.20711 5.19633C7.01957 5.01222 6.76522 4.90879 6.5 4.90879C6.23478 4.90879 5.98043 5.01222 5.79289 5.19633C5.60536 5.38045 5.5 5.63015 5.5 5.89053C5.5 6.1509 5.60536 6.40061 5.79289 6.58472C5.98043 6.76883 6.23478 6.87227 6.5 6.87227ZM10.5 5.89053C10.5 6.1509 10.3946 6.40061 10.2071 6.58472C10.0196 6.76883 9.76522 6.87227 9.5 6.87227C9.23478 6.87227 8.98043 6.76883 8.79289 6.58472C8.60536 6.40061 8.5 6.1509 8.5 5.89053C8.5 5.63015 8.60536 5.38045 8.79289 5.19633C8.98043 5.01222 9.23478 4.90879 9.5 4.90879C9.76522 4.90879 10.0196 5.01222 10.2071 5.19633C10.3946 5.38045 10.5 5.63015 10.5 5.89053ZM12.5 6.87227C12.7652 6.87227 13.0196 6.76883 13.2071 6.58472C13.3946 6.40061 13.5 6.1509 13.5 5.89053C13.5 5.63015 13.3946 5.38045 13.2071 5.19633C13.0196 5.01222 12.7652 4.90879 12.5 4.90879C12.2348 4.90879 11.9804 5.01222 11.7929 5.19633C11.6054 5.38045 11.5 5.63015 11.5 5.89053C11.5 6.1509 11.6054 6.40061 11.7929 6.58472C11.9804 6.76883 12.2348 6.87227 12.5 6.87227ZM4.5 8.83574C4.5 9.09612 4.39464 9.34583 4.20711 9.52994C4.01957 9.71405 3.76522 9.81748 3.5 9.81748C3.23478 9.81748 2.98043 9.71405 2.79289 9.52994C2.60536 9.34583 2.5 9.09612 2.5 8.83574C2.5 8.57537 2.60536 8.32566 2.79289 8.14155C2.98043 7.95744 3.23478 7.854 3.5 7.854C3.76522 7.854 4.01957 7.95744 4.20711 8.14155C4.39464 8.32566 4.5 8.57537 4.5 8.83574ZM6.5 9.81748C6.76522 9.81748 7.01957 9.71405 7.20711 9.52994C7.39464 9.34583 7.5 9.09612 7.5 8.83574C7.5 8.57537 7.39464 8.32566 7.20711 8.14155C7.01957 7.95744 6.76522 7.854 6.5 7.854C6.23478 7.854 5.98043 7.95744 5.79289 8.14155C5.60536 8.32566 5.5 8.57537 5.5 8.83574C5.5 9.09612 5.60536 9.34583 5.79289 9.52994C5.98043 9.71405 6.23478 9.81748 6.5 9.81748ZM10.5 8.83574C10.5 9.09612 10.3946 9.34583 10.2071 9.52994C10.0196 9.71405 9.76522 9.81748 9.5 9.81748C9.23478 9.81748 8.98043 9.71405 8.79289 9.52994C8.60536 9.34583 8.5 9.09612 8.5 8.83574C8.5 8.57537 8.60536 8.32566 8.79289 8.14155C8.98043 7.95744 9.23478 7.854 9.5 7.854C9.76522 7.854 10.0196 7.95744 10.2071 8.14155C10.3946 8.32566 10.5 8.57537 10.5 8.83574ZM12.5 9.81748C12.7652 9.81748 13.0196 9.71405 13.2071 9.52994C13.3946 9.34583 13.5 9.09612 13.5 8.83574C13.5 8.57537 13.3946 8.32566 13.2071 8.14155C13.0196 7.95744 12.7652 7.854 12.5 7.854C12.2348 7.854 11.9804 7.95744 11.7929 8.14155C11.6054 8.32566 11.5 8.57537 11.5 8.83574C11.5 9.09612 11.6054 9.34583 11.7929 9.52994C11.9804 9.71405 12.2348 9.81748 12.5 9.81748ZM4.5 11.781C4.5 12.0413 4.39464 12.291 4.20711 12.4752C4.01957 12.6593 3.76522 12.7627 3.5 12.7627C3.23478 12.7627 2.98043 12.6593 2.79289 12.4752C2.60536 12.291 2.5 12.0413 2.5 11.781C2.5 11.5206 2.60536 11.2709 2.79289 11.0868C2.98043 10.9027 3.23478 10.7992 3.5 10.7992C3.76522 10.7992 4.01957 10.9027 4.20711 11.0868C4.39464 11.2709 4.5 11.5206 4.5 11.781ZM6.5 12.7627C6.76522 12.7627 7.01957 12.6593 7.20711 12.4752C7.39464 12.291 7.5 12.0413 7.5 11.781C7.5 11.5206 7.39464 11.2709 7.20711 11.0868C7.01957 10.9027 6.76522 10.7992 6.5 10.7992C6.23478 10.7992 5.98043 10.9027 5.79289 11.0868C5.60536 11.2709 5.5 11.5206 5.5 11.781C5.5 12.0413 5.60536 12.291 5.79289 12.4752C5.98043 12.6593 6.23478 12.7627 6.5 12.7627ZM10.5 11.781C10.5 12.0413 10.3946 12.291 10.2071 12.4752C10.0196 12.6593 9.76522 12.7627 9.5 12.7627C9.23478 12.7627 8.98043 12.6593 8.79289 12.4752C8.60536 12.291 8.5 12.0413 8.5 11.781C8.5 11.5206 8.60536 11.2709 8.79289 11.0868C8.98043 10.9027 9.23478 10.7992 9.5 10.7992C9.76522 10.7992 10.0196 10.9027 10.2071 11.0868C10.3946 11.2709 10.5 11.5206 10.5 11.781Z" fill="#83838B"/>
</svg>
