<svg width="18" height="16" viewBox="0 0 18 16" fill="#EC2629" xmlns="http://www.w3.org/2000/svg">
<path fill-rule="evenodd" clip-rule="evenodd" d="M14.6627 5.29889C14.3886 2.33104 11.8836 0 8.84579 0C5.80795 0 3.30326 2.33104 3.02893 5.29889C1.31556 5.56926 0 7.05682 0 8.84513C0 10.8246 1.61202 12.4349 3.59114 12.4349H8.25816V15.4127C8.25816 15.7369 8.52193 16 8.84579 16C9.16965 16 9.43342 15.7369 9.43342 15.4127V12.4349H14.1004C16.0796 12.4349 17.6916 10.8246 17.6916 8.84513C17.6916 7.05682 16.376 5.56926 14.6627 5.29889ZM10.813 9.33966C10.6991 9.45422 10.5493 9.51199 10.3977 9.51199C10.2462 9.51199 10.0976 9.45488 9.98407 9.33966L9.43408 8.79V11.261H8.25816V8.79L7.70817 9.33966C7.47906 9.5691 7.10832 9.5691 6.87888 9.33966C6.64978 9.11055 6.64978 8.7385 6.87888 8.50939L8.43049 6.95712C8.54075 6.84719 8.69096 6.78513 8.84579 6.78513C9.00062 6.78513 9.15083 6.84719 9.26109 6.95712L10.8127 8.50939C11.0421 8.73883 11.0421 9.11055 10.8127 9.33999L10.813 9.33966Z" fill="#EC2629"/>
</svg>
