<svg width="13" height="16" viewBox="0 0 13 16" fill="none" xmlns="http://www.w3.org/2000/svg">
<path d="M7.78261 5.83899C7.0223 5.83899 6.40341 5.2204 6.40341 4.46008V2.73326C6.38736 2.89518 6.25544 3.02294 6.08965 3.02294H1.91995C1.74317 3.02294 1.59996 2.87973 1.59996 2.70295C1.59996 2.52617 1.74317 2.38296 1.91995 2.38296H6.08965C6.25574 2.38296 6.38766 2.51072 6.40341 2.67264V0.322767C6.40341 0.210755 6.4245 0.1032 6.46075 0.00158691H0.73922C0.331579 0.00158691 0 0.333166 0 0.740807V15.2611C0 15.6687 0.331579 16 0.73922 16H11.4998C11.9074 16 12.239 15.6684 12.239 15.2611V5.78254C12.1404 5.81671 12.0364 5.83929 11.9262 5.83929H7.78261V5.83899ZM1.91995 4.35609H6.08965C6.26644 4.35609 6.40965 4.4993 6.40965 4.67609C6.40965 4.85287 6.26644 4.99608 6.08965 4.99608H1.91995C1.74317 4.99608 1.59996 4.85287 1.59996 4.67609C1.59996 4.4993 1.74317 4.35609 1.91995 4.35609ZM2.64669 11.9696C2.58935 12.0303 2.50913 12.0623 2.42267 12.0623C2.33621 12.0623 2.25629 12.0303 2.19567 11.9696C2.13477 11.9117 2.10297 11.8288 2.10297 11.7427C2.10297 11.6565 2.13506 11.576 2.19567 11.5186C2.31393 11.3971 2.53171 11.4004 2.64996 11.5186C2.7076 11.576 2.74266 11.6592 2.74266 11.7427C2.74266 11.8288 2.7073 11.912 2.6464 11.9696H2.64669ZM4.24992 11.9696C4.18901 12.0303 4.10582 12.0623 4.02293 12.0623C3.94003 12.0623 3.85327 12.0303 3.79593 11.9696C3.73829 11.9117 3.70323 11.8288 3.70323 11.7427C3.70323 11.6565 3.73829 11.576 3.79593 11.5157C3.91121 11.4004 4.1287 11.3974 4.25022 11.5189C4.30786 11.5763 4.34292 11.6595 4.34292 11.7429C4.34292 11.8291 4.30756 11.9123 4.24992 11.9699V11.9696ZM5.84632 11.9696C5.78897 12.0303 5.70875 12.0623 5.62229 12.0623C5.53583 12.0623 5.45591 12.0303 5.3953 11.9696C5.33439 11.9117 5.3026 11.8288 5.3026 11.7427C5.3026 11.6565 5.33469 11.576 5.3953 11.5186C5.51682 11.3971 5.73104 11.4004 5.84959 11.5186C5.90723 11.576 5.94229 11.6592 5.94229 11.7427C5.94229 11.8288 5.90693 11.912 5.84602 11.9696H5.84632ZM9.23966 11.647C9.90728 11.647 10.4507 12.1901 10.4507 12.8577C10.4507 13.4139 10.0716 13.8792 9.55965 14.0206V14.08C9.55965 14.2568 9.41644 14.4 9.23966 14.4C9.06288 14.4 8.91967 14.2568 8.91967 14.08V14.0206C8.40774 13.8792 8.02862 13.4142 8.02862 12.8577C8.02862 12.6809 8.17183 12.5377 8.34861 12.5377C8.5254 12.5377 8.66861 12.6809 8.66861 12.8577C8.66861 13.1727 8.92472 13.4291 9.23966 13.4291C9.5546 13.4291 9.81071 13.173 9.81071 12.8577C9.81071 12.5425 9.5546 12.287 9.23966 12.287C8.57204 12.287 8.02862 11.7435 8.02862 11.0759C8.02862 10.5197 8.40774 10.0547 8.91967 9.91362V9.8539C8.91967 9.67711 9.06288 9.5339 9.23966 9.5339C9.41644 9.5339 9.55965 9.67711 9.55965 9.8539V9.91362C10.0716 10.055 10.4507 10.5197 10.4507 11.0759C10.4507 11.2527 10.3075 11.3959 10.1307 11.3959C9.95392 11.3959 9.81071 11.2527 9.81071 11.0759C9.81071 10.7613 9.5546 10.5052 9.23966 10.5052C8.92472 10.5052 8.66861 10.7613 8.66861 11.0759C8.66861 11.3906 8.92472 11.647 9.23966 11.647ZM10.2588 8.94205H1.91966C1.74287 8.94205 1.59966 8.79884 1.59966 8.62206C1.59966 8.44528 1.74287 8.30207 1.91966 8.30207H10.2588C10.4355 8.30207 10.5788 8.44528 10.5788 8.62206C10.5788 8.79884 10.4355 8.94205 10.2588 8.94205ZM10.2588 6.96921H1.91966C1.74287 6.96921 1.59966 6.826 1.59966 6.64922C1.59966 6.47244 1.74287 6.32923 1.91966 6.32923H10.2588C10.4355 6.32923 10.5788 6.47244 10.5788 6.64922C10.5788 6.826 10.4355 6.96921 10.2588 6.96921Z" fill="#EC2629"/>
<path d="M7.78256 5.19901H11.9261C12.102 5.19901 12.2461 5.05491 12.2461 4.87901C12.2461 4.77027 12.1917 4.6743 12.1118 4.61666L7.58735 0.0954743C7.49762 0.00277465 7.36036 -0.0260454 7.24181 0.0250582C7.12029 0.0761619 7.04333 0.191442 7.04333 0.322767V4.46008C7.04333 4.86654 7.37283 5.1993 7.78256 5.1993V5.19901Z" fill="#EC2629"/>
</svg>
