<svg width="27" height="17" viewBox="0 0 27 17" fill="none" xmlns="http://www.w3.org/2000/svg">
<path d="M26.135 8.63949C26.0523 7.8948 25.4731 7.26042 24.7284 7.17768L20.3153 6.62605L17.2262 1.27527C17.0332 0.94429 16.6746 0.751221 16.2885 0.751221H2.35987C1.83582 0.751221 1.36694 1.13736 1.31178 1.66141L0.346429 8.39126C0.318848 8.474 0.318848 8.66707 0.318848 8.66707V12.9146C0.318848 13.4111 0.732568 13.7972 1.20145 13.7972H2.58052C2.71843 11.7286 4.42847 10.1013 6.49708 10.1013C8.56568 10.1013 10.2757 11.7286 10.4136 13.7696H16.4264C16.5643 11.7286 18.2467 10.1013 20.3429 10.1013C22.4391 10.1013 24.1216 11.7286 24.2595 13.7696H25.6385C26.1626 13.7696 26.5763 13.3283 26.5212 12.8043L26.135 8.63949ZM9.862 6.46056H2.77359L3.27005 2.90257H9.862V6.46056ZM11.9858 6.46056V2.87499H15.6817L17.7503 6.43298H11.9858V6.46056Z" fill="#83838B"/>
<path d="M9.17256 14.0179C9.17256 15.4955 7.97474 16.6933 6.49717 16.6933C5.0196 16.6933 3.82178 15.4955 3.82178 14.0179C3.82178 12.5403 5.0196 11.3425 6.49717 11.3425C7.97474 11.3425 9.17256 12.5403 9.17256 14.0179Z" fill="#83838B"/>
<path d="M23.0183 14.0179C23.0183 15.4955 21.8204 16.6933 20.3429 16.6933C18.8653 16.6933 17.6675 15.4955 17.6675 14.0179C17.6675 12.5403 18.8653 11.3425 20.3429 11.3425C21.8204 11.3425 23.0183 12.5403 23.0183 14.0179Z" fill="#83838B"/>
</svg>
