<svg width="5" height="16" viewBox="0 0 5 16" fill="none" xmlns="http://www.w3.org/2000/svg">
<path d="M0 0V15.7078H4.58292V7.85391V0H0ZM0.240968 3.46587H1.56959V3.66436H0.240968V3.46587ZM0.240968 6.01788H1.56959V6.21637H0.240968V6.01788ZM0.240968 8.58407H1.56959V8.78256H0.240968V8.58407ZM0.240968 11.1361H1.56959V11.3346H0.240968V11.1361ZM1.56959 13.9149H0.240555V13.7164H1.56918L1.56959 13.9149ZM2.03172 12.6389H0.240968V12.4404H2.03131L2.03172 12.6389ZM2.03172 10.0586H0.240968V9.86007H2.03131L2.03172 10.0586ZM2.03172 7.50655H0.240968V7.30806H2.03131L2.03172 7.50655ZM2.03172 4.94037H0.240968V4.74188H2.03131L2.03172 4.94037ZM2.03172 2.38836H0.240968V2.18987H2.03131L2.03172 2.38836ZM3.565 1.50528C3.2609 1.50528 3.01375 1.26304 3.01375 0.964092C3.01375 0.665143 3.26049 0.422904 3.565 0.422904C3.86951 0.422904 4.11667 0.665143 4.11667 0.964092C4.11667 1.26304 3.86992 1.50528 3.565 1.50528Z" fill="#83838B"/>
</svg>
