<svg width="18" height="17" viewBox="0 0 18 17" fill="none" xmlns="http://www.w3.org/2000/svg">
<path fill-rule="evenodd" clip-rule="evenodd" d="M9 1C13.3837 1 17 4.49667 17 8.85391C17 13.2111 13.3837 16.7078 9 16.7078C4.61629 16.7078 1 13.1576 1 8.85391C1 4.55025 4.56171 1 9 1ZM11.3014 7.88563C12.5617 8.63877 13.9863 8.53134 14.8083 8.58491C14.7534 7.18636 14.1506 5.94908 13.274 4.98081C12.7809 5.57266 11.63 6.48708 11.3014 7.88563ZM14.8083 9.1229C13.9863 9.17676 12.5617 9.01519 11.3014 9.76861C11.6303 11.221 12.7809 12.0816 13.274 12.6734C14.1506 11.7052 14.7534 10.4679 14.8083 9.12319V9.1229ZM12.8906 13.0496C12.2877 12.5654 11.4111 11.4356 9.93171 11.113C9.16457 12.3503 9.32886 13.7489 9.274 14.5558C10.644 14.502 11.904 13.9101 12.8903 13.0496H12.8906ZM8.72629 14.5558C8.67143 13.7489 8.78114 12.3503 8.014 11.113C6.58943 11.4359 5.658 12.5654 5.05514 13.0496C6.04143 13.9101 7.30171 14.502 8.72629 14.5558ZM4.67143 12.6729C5.21943 12.081 6.31514 11.2205 6.69886 9.76805C5.38371 9.01491 3.95914 9.1762 3.192 9.12234C3.24686 10.4673 3.79486 11.7043 4.67143 12.6726V12.6729ZM3.192 8.58491C3.95914 8.53106 5.38371 8.63877 6.69886 7.88563C6.31514 6.48708 5.21943 5.57266 4.67143 4.98081C3.79486 5.94908 3.24686 7.18636 3.192 8.58491ZM5.05514 4.6041C5.658 5.1421 6.58943 6.21808 8.014 6.59451C8.78114 5.30338 8.67171 3.90482 8.72629 3.15169C7.30171 3.20555 6.04143 3.74354 5.05514 4.6041ZM9.27429 3.15169C9.32914 3.90482 9.16457 5.30338 9.932 6.59451C11.4114 6.2178 12.288 5.1421 12.8909 4.6041C11.9046 3.74354 10.6443 3.20555 9.27457 3.15169H9.27429ZM9.00029 7.45535C9.76743 7.45535 10.3703 8.10106 10.3703 8.85391C10.3703 9.60676 9.76743 10.1989 9.00029 10.1989C8.23314 10.1989 7.57571 9.60704 7.57571 8.85391C7.57571 8.10077 8.23343 7.45535 9.00029 7.45535ZM14.5346 8.31592C14.4249 7.24021 13.9866 6.21808 13.2743 5.35724C12.562 6.11037 11.9043 6.75579 11.5757 7.77792C12.562 8.31592 13.4934 8.26206 14.5346 8.31592ZM13.2743 12.2967C13.9866 11.4897 14.4249 10.4676 14.5346 9.3919C13.4934 9.3919 12.562 9.3919 11.5757 9.87604C11.9046 10.952 12.562 11.5436 13.2743 12.2967ZM12.5071 13.0499C11.74 12.3506 11.1371 11.7049 10.0414 11.3823C9.54829 12.3506 9.54829 13.265 9.54829 14.2871C10.6443 14.1794 11.6851 13.7491 12.5071 13.0499ZM5.43857 13.0499C6.31514 13.7491 7.35629 14.1794 8.45229 14.2871C8.39743 13.265 8.45229 12.3506 7.90429 11.3823C6.86314 11.7052 6.20571 12.3506 5.43857 13.0499ZM4.67143 12.2967C5.38371 11.5436 6.04143 10.9517 6.37 9.87604C5.38371 9.3919 4.50686 9.3919 3.466 9.3919C3.57571 10.4679 3.95914 11.4897 4.67143 12.2967ZM4.67143 5.35724C3.95914 6.2178 3.57571 7.23993 3.466 8.31592C4.50714 8.26206 5.38371 8.31592 6.37 7.77792C6.04114 6.75579 5.38371 6.11037 4.67143 5.35724ZM5.43857 4.6041C6.20571 5.30338 6.86314 5.94908 7.90429 6.27166C8.45229 5.30338 8.39743 4.44254 8.45229 3.42069C7.35629 3.5284 6.31543 3.90482 5.43857 4.6041ZM12.5071 4.6041C11.6851 3.90482 10.644 3.5284 9.54829 3.42069C9.54829 4.44282 9.54829 5.30338 10.0414 6.27166C11.1374 5.9488 11.74 5.30338 12.5071 4.6041ZM9.00029 7.72407C8.34257 7.72407 7.84971 8.2082 7.84971 8.85363C7.84971 9.44548 8.34286 9.92961 9.00029 9.92961C9.60314 9.92961 10.0963 9.44548 10.0963 8.85363C10.0963 8.20792 9.60314 7.72407 9.00029 7.72407ZM9.00029 1.86056C12.8906 1.86056 16.0689 4.98053 16.0689 8.85391C16.0689 12.7273 12.8909 15.7934 9.00029 15.7934C5.10971 15.7934 1.87657 12.6737 1.87657 8.85419C1.87657 5.03467 5.05457 1.86084 9 1.86084L9.00029 1.86056Z" fill="#83838B" stroke="#83838B" stroke-width="0.35"/>
</svg>
